<svg width="199" height="281" viewBox="0 0 199 281" fill="none" xmlns="http://www.w3.org/2000/svg">
<g filter="url(#filter0_d_8_19969)">
<path fill-rule="evenodd" clip-rule="evenodd" d="M177.924 124.586C175.744 118.581 177.381 110.977 172.889 106.007C171.56 105.199 170.855 105.648 170.308 107.057C169.978 108.911 169.204 115.295 171.987 115.292C172.337 119.278 172.118 123.294 171.261 127.207C169.208 126.877 167.71 127.933 166.212 128.718C165.095 129.303 163.978 129.738 162.629 129.337C157.06 128.355 155.473 134.205 155.406 138.98C155.324 141.31 155.105 146.741 154.079 149.002C149.436 139.382 139.684 135.002 130.392 132.84C128.936 132.437 127.693 131.886 126.759 130.944C118.93 127.852 122.691 117.721 119.089 111.898C113.452 104.976 106.682 102.984 98.1523 104.171C90.6897 104.996 85.617 112.58 86.0771 119.738C86.2151 121.199 85.3387 122.735 84.8232 124.238C79.6721 130.404 71.6568 133.163 64.763 136.889C41.7692 148.131 33.8006 156.723 24.8651 180.646C20.6849 189.646 15.6823 198.382 14.0209 208.295C12.0686 219.976 12.0625 231.934 12.7421 243.73C11.4732 243.883 12.8541 252.951 13.967 256.092C14.3484 257.169 15.2621 257.945 16.4006 257.927C18.6908 259.041 24.0678 263.528 26.4631 263.379C34.2025 262.902 41.7254 263.64 49.1818 263.258C57.2487 262.846 65.2378 261.34 73.3392 261.536C87.467 261.876 77.3522 262.715 91.9688 263.379C101.196 263.805 134.859 258.763 144.06 259.586C151.544 261.161 154.958 258.506 153.816 250.685C153.394 247.687 152.046 241.019 156.48 240.736C158.578 240.979 160.314 243.076 161.886 244.301C175.766 254.639 189.945 247.195 191.063 230.201C193.166 215.947 196.116 212.579 189.704 198.345C169.418 145.357 199.981 152.556 179.346 127.737C177.734 129.14 178.144 125.394 177.924 124.586Z" fill="#D08B5B"/>
<path fill-rule="evenodd" clip-rule="evenodd" d="M80.5237 135.895C93.7447 142.64 104.2 146.013 111.89 146.013C119.58 146.013 133.124 147.584 152.522 150.725L162.101 171.784L183.237 175.915L183.331 176.465C184.36 182.375 186.328 189.527 189.704 198.345C196.116 212.579 193.166 215.947 191.063 230.201C189.945 247.195 175.766 254.639 161.886 244.301C160.314 243.076 158.578 240.979 156.481 240.736C152.135 241.014 153.343 247.423 153.79 250.501L153.816 250.685C154.958 258.506 151.544 261.162 144.06 259.587C134.859 258.764 101.196 263.805 91.9689 263.379C77.3523 262.715 87.4671 261.876 73.3393 261.536C65.238 261.34 57.2489 262.846 49.182 263.258C42.1177 263.62 34.9939 262.977 27.6828 263.314L16.4008 257.927C12.2282 228.039 12.8621 208.441 18.3026 199.135C23.7157 189.875 30.9642 174.653 40.0481 153.469C40.1872 153.32 40.3277 153.172 40.4692 153.026L80.5237 135.895Z" fill="#DA0037"/>
<path fill-rule="evenodd" clip-rule="evenodd" d="M170.215 105.61C171.322 104.522 173.082 104.793 174.161 105.76C175.26 106.743 175.921 108.288 176.485 109.62C179.016 115.607 178.427 122.163 179.707 128.428C182.05 129.694 184.165 131.346 185.663 133.57C187.938 136.947 189.018 140.881 187.877 144.883C187.287 146.955 186.286 148.874 185.572 150.901C184.809 153.058 184.342 155.301 184.118 157.579C183.899 159.816 183.869 162.064 183.933 164.309C183.966 165.471 184.028 166.632 184.089 167.792C184.144 168.832 184.328 169.917 184.079 170.936L184.049 171.053C184.146 171.038 184.241 171.019 184.336 170.998C185.152 170.816 185.87 170.533 186.721 170.645C187.385 170.732 187.729 171.285 187.448 171.911C187.326 172.184 187.163 172.412 186.966 172.606C188.678 185.266 191.667 197.723 193.634 210.343C194.526 216.068 195.068 221.811 194.762 227.608L194.73 228.183C194.418 233.505 193.65 239.371 190.947 244.026C189.683 246.205 187.947 248.139 185.842 249.531C184.879 250.17 183.846 250.668 182.724 250.918C176.91 253.234 170.762 252.666 165.28 249.603C162.814 248.227 160.355 246.623 158.342 244.632C157.364 243.664 156.419 242.432 155.84 241.086C155.842 241.388 155.788 241.697 155.849 241.995L155.971 242.584C156.884 246.959 160.364 263.127 160.41 264.484C160.435 265.217 154.273 265.199 153.605 265.221L153.586 265.222C143.606 265.638 133.621 265.416 123.647 265.003L122.859 264.971C113.186 264.561 102.66 264.01 92.9772 263.728L92.9973 263.566C93.1132 262.696 93.6773 258.827 93.7402 258.53L93.7425 258.52C94.0169 257.414 94.5463 253.972 94.2676 252.83C93.5499 249.89 90.3154 250.561 88.0396 250.873L87.5602 250.936C87.1919 250.987 86.2955 251.118 86.3039 251.127C86.0621 250.875 86.6373 250.16 86.779 249.969L86.8924 249.811C87.5039 248.955 88.057 248.066 87.9966 246.963C87.8495 244.269 84.0009 244.421 82.1096 244.608C81.9763 244.621 81.9218 244.829 82.0754 244.86L82.4484 244.938C83.6483 245.196 86.3135 245.852 86.2532 246.846C86.219 247.41 85.6183 247.826 85.2513 248.181C84.8468 248.573 84.4447 248.995 84.1462 249.477C83.5716 250.403 83.441 251.653 84.0095 252.617C84.6654 253.729 85.8286 253.859 86.9936 253.758L87.0596 253.752C87.316 253.728 87.5724 253.703 87.8288 253.678L89.3668 253.528C89.7478 253.491 90.9716 253.17 91.3291 253.391C91.8357 253.705 91.2264 255.095 91.1121 255.553L91.1061 255.585C91.0079 256.248 90.949 263.194 90.9391 263.653C83.3928 263.478 75.8455 261.799 68.2994 262.193C62.3045 262.507 56.3259 263.048 50.3421 263.518L50.1911 262.233C48.5327 248.241 45.9323 229.778 47.1803 215.938C47.2779 214.855 45.5871 214.861 45.4901 215.938C44.1997 230.249 47.0244 249.474 48.6674 263.647C46.1201 263.841 43.5718 264.017 41.0206 264.151L40.37 264.184C31.6885 264.618 22.7279 264.644 14.2318 262.652C13.9699 262.591 13.8811 262.329 13.9361 262.111C13.8516 262.16 13.7248 262.132 13.6889 262.014C12.6991 258.75 12.1964 250.44 11.7479 246.844L11.7178 246.609C11.2572 243.115 10.9931 239.581 10.803 236.066C10.4185 229.035 10.4649 221.995 10.9847 214.971C12.6389 192.57 19.2262 169.939 33.0516 151.936C36.3938 147.584 40.1987 143.603 44.7642 140.523C49.2431 137.501 54.2671 135.373 59.3649 133.644C62.7347 132.5 66.1572 131.522 69.5797 130.545C69.7093 130.481 69.8389 130.417 69.9691 130.354L70.1649 130.26C71.3818 129.683 72.5797 129.051 73.8262 128.538L74.1017 128.425C75.9079 127.701 78.0124 127.059 79.9678 127.081C83.1347 125.486 85.7945 123.074 85.5368 119.206C85.4311 117.617 87.9241 117.619 88.0128 119.206C88.2452 123.429 85.6447 126.424 82.3297 128.434L82.3456 128.45L82.3614 128.468C82.879 129.055 83.4325 129.601 84.0304 130.108C87.6093 133.156 92.1368 135.686 96.6621 137.351C101.971 139.306 107.276 139.891 112.767 138.311C115.638 137.484 118.349 136.21 120.84 134.561C121.6 134.058 122.329 133.519 123.028 132.942C122.367 132.038 121.839 131.063 121.395 130.03C120.504 127.95 119.766 125.133 120.677 122.937C120.901 122.396 121.79 122.062 122.101 122.751C122.956 124.636 123.314 126.673 124.311 128.517C124.691 129.218 125.128 129.884 125.618 130.512C125.618 130.545 129.362 131.186 129.362 131.186C133.887 131.184 138.149 132.923 142.152 135.096C144.519 136.38 146.845 137.746 149.164 139.115L153.696 141.789C154.03 141.986 154.404 142.176 154.778 142.379C154.34 140.219 154.127 138.017 154.271 135.833C154.488 132.541 155.768 128.939 159.159 127.766C160.763 127.21 162.618 127.381 164.175 127.999C164.893 128.284 165.675 128.662 166.342 129.167C166.666 127.713 168.028 126.623 169.397 126.141C169.841 125.984 170.295 125.885 170.756 125.837C170.742 125.603 170.741 125.367 170.744 125.124L170.747 124.94C170.768 123.863 170.76 122.785 170.737 121.709C170.695 119.669 170.597 117.672 170.39 115.639C170.217 113.956 169.917 112.292 169.694 110.616L169.602 109.895C169.414 108.475 169.098 106.708 170.215 105.61ZM34.0857 243.239L33.708 243.015C32.4708 242.284 31.1964 241.611 29.6977 241.949C28.2699 242.271 27.2571 243.431 26.7249 244.737C26.4735 245.355 26.3423 245.977 26.2454 246.635C26.1909 247.003 26.1541 247.375 26.0894 247.741L26.0678 247.855C26.0385 248.001 25.9938 248.204 25.953 248.381C25.5634 248.209 25.1711 247.937 24.8523 247.775L24.5951 247.646C23.9917 247.346 23.364 247.06 22.7064 246.921C21.282 246.619 19.702 247.055 18.8878 248.332C18.1913 249.423 18.2056 250.71 18.472 251.933L18.491 252.018C18.6066 252.526 19.2038 254.559 20.0725 254.262C20.9174 253.974 21.0302 252.85 21.0942 252.102L21.099 252.03C21.1278 251.466 21.0159 250.28 21.6549 250.065C22.4533 249.798 23.9894 251.021 24.6847 251.34C25.928 251.911 27.2939 252.08 28.3056 250.969C29.2128 249.972 29.2893 248.514 29.5241 247.25L29.5847 246.932C29.7093 246.29 29.9502 245.264 30.6604 245.29C31.2408 245.312 31.878 245.913 32.3563 246.199C32.8842 246.514 33.4325 246.777 34.0054 247.001C35.3425 247.524 36.8292 247.691 38.2517 247.537C39.0759 247.447 39.6125 247.054 39.9038 246.278C40.0025 246.051 40.0777 245.816 40.1297 245.573C40.5915 243.837 38.0681 242.598 37.1377 244.151C36.0642 244.11 35.0649 243.821 34.0857 243.239ZM189.387 231.631C188.618 231.082 187.573 231.2 186.885 231.819L186.844 231.857C186.654 232.041 186.224 232.521 185.945 232.942L185.858 232.875C185.844 232.864 185.831 232.853 185.818 232.842L185.78 232.811C185.211 232.33 184.617 231.89 183.885 231.693C181.978 231.18 180.245 232.458 179.413 234.095C179.018 234.872 178.849 235.674 178.652 236.512L178.635 236.589C178.556 236.979 178.453 237.77 178.11 237.964C177.985 238.035 177.7 237.894 177.417 237.731C176.774 237.36 176.196 236.886 175.565 236.495C174.085 235.576 172.403 235.196 170.741 235.858C169.095 236.514 167.916 238.061 167.888 239.864C167.868 241.192 168.757 243.511 170.431 243.349C170.767 243.317 171.198 243.11 171.252 242.724C171.397 241.698 170.588 240.437 171.515 239.59C172.412 238.771 173.341 239.46 174.153 240.028L174.735 240.436C175.68 241.093 176.653 241.694 177.849 241.766C179.363 241.856 180.76 241.02 181.522 239.731C182.21 238.566 182.22 237.248 182.759 236.052C182.876 235.79 183.18 235.55 183.079 235.429C183.487 235.642 184.013 236.254 184.267 236.426C185.533 237.28 187.225 237.274 188.334 236.141C188.776 235.691 189.057 235.134 189.385 234.604C189.503 234.412 189.65 234.234 189.758 234.037C189.798 233.964 189.863 233.695 189.916 233.454L189.998 233.073L190.007 233.01C190.077 232.432 189.873 231.978 189.387 231.631ZM140.645 226.586C139.191 225.822 137.399 226.113 136.089 227.038C134.621 228.076 133.9 229.669 133.41 231.354C133.053 232.58 132.882 234.271 131.857 235.16C130.665 236.193 128.665 235.096 127.406 234.688C125.882 234.196 124.052 233.994 122.565 234.723C121.109 235.437 120.406 236.895 120.256 238.456C120.116 239.913 120.324 241.832 121.155 243.051C121.237 243.171 121.393 243.14 121.445 243.013C121.991 241.668 121.886 240.129 122.329 238.737C122.803 237.251 123.912 236.936 125.321 237.336C126.79 237.753 128.136 238.533 129.647 238.811C131.258 239.107 132.854 238.802 134.124 237.737C135.192 236.84 135.839 235.535 136.277 234.235C136.703 232.967 136.772 231.269 137.68 230.217C137.909 229.951 138.308 229.63 138.679 229.596C139.229 229.546 139.428 229.955 139.873 230.269C141.046 231.097 142.919 231.113 143.637 229.657C143.872 229.18 143.989 228.503 143.637 228.036C143.02 227.218 142.514 227.224 141.7 227.401C141.674 227.38 141.645 227.351 141.613 227.313L141.588 227.283C141.373 227.01 140.955 226.749 140.645 226.586ZM83.0664 217.989C83.0182 216.894 81.7006 215.843 80.6611 216.608C80.4934 216.73 80.3284 216.855 80.1666 216.985L80.1002 217.057V217.057C79.9069 217.056 79.7265 217.005 79.5355 216.944L79.2014 216.837C78.3243 216.559 77.481 216.334 76.5448 216.54C74.9339 216.894 73.9118 218.284 73.387 219.76C72.8979 221.135 73.0585 222.538 72.829 223.948C72.6115 225.285 71.9248 225.807 70.6352 225.521L70.5691 225.505C68.0041 224.891 65.0816 223.173 62.8329 225.529C60.4035 228.073 61.9927 232.115 64.6519 233.75C64.7681 233.822 64.8966 233.704 64.8702 233.583C64.5169 231.939 63.4861 230.371 63.8316 228.626C64.0709 227.417 64.9109 226.844 66.1097 227.037C68.6309 227.443 70.9891 229.453 73.575 227.994C74.8667 227.265 75.5785 225.896 75.9002 224.493C76.1901 223.231 76.1079 221.808 76.6633 220.617C77.2709 219.314 78.2943 220.259 79.3971 220.436C80.9573 220.688 83.1494 219.869 83.0664 217.989ZM167.653 179.051C167.658 177.963 165.968 177.962 165.963 179.051C165.901 192.836 159.454 205.577 158.296 219.225C158.205 220.309 159.895 220.303 159.987 219.225C161.145 205.573 167.591 192.858 167.653 179.051ZM28.0895 201.615C27.1997 200.607 25.8961 200.92 24.8373 201.425C23.2468 202.183 21.7249 203.036 20.2659 204.022C19.9069 204.264 20.1332 204.791 20.5557 204.71C21.6258 204.504 22.6673 204.274 23.7055 203.94C24.4857 203.689 25.2978 203.325 26.1114 203.196C26.0605 203.383 25.9986 203.567 25.9257 203.747C25.7922 204.116 25.6371 204.478 25.5055 204.848C25.2436 205.586 25.0077 206.335 24.779 207.084L24.6651 207.459C24.1895 209.03 23.7275 211.316 25.9221 211.799C26.7364 211.979 27.5434 211.624 28.3009 211.345L28.4569 211.288L31.2199 210.309C31.549 210.192 32.1587 210.111 32.4317 209.906L32.3881 210.116C32.3315 210.394 32.276 210.667 32.1562 210.945L32.0893 211.098C31.403 212.655 30.5377 214.212 31.3382 215.933C32.024 217.407 33.645 218.106 35.2071 217.688C36.6917 217.29 37.766 215.618 36.9974 214.163C36.711 213.621 35.873 213.356 35.3405 213.694L35.1975 213.789C35.0298 213.899 34.7411 214.087 34.7341 214.122C34.6944 214.132 34.6528 214.142 34.6105 214.153C34.7001 213.889 34.7605 213.484 34.8391 213.304L35.1282 212.647C35.6662 211.413 36.1324 210.157 35.722 208.773C34.5467 204.809 30.5611 207.062 27.6211 208.194C27.664 208.026 27.7065 207.861 27.7424 207.699C27.8692 207.125 28.0078 206.554 28.145 205.983L28.4262 204.803C28.6794 203.717 28.8764 202.507 28.0895 201.615ZM178.51 197.191C178.512 197.097 178.397 197.025 178.316 197.08C176.436 198.344 175.179 200.983 175.885 203.232C176.228 204.323 176.957 205.281 177.981 205.811C179.254 206.47 180.659 206.219 181.997 205.937L182.565 205.816C182.965 205.731 183.36 205.67 183.768 205.782C183.908 205.821 184.07 205.943 184.203 205.969C184.148 206.062 184.09 206.224 184.06 206.284L183.963 206.479C183.866 206.677 183.771 206.883 183.711 207.09C183.511 207.787 183.561 208.534 183.885 209.184C184.488 210.395 185.752 211.077 187.069 211.193C187.853 211.263 189.83 210.576 190.297 211.408C191.224 213.061 193.866 211.949 193.352 210.12C193.005 208.883 192.02 208.083 190.8 207.749C190.15 207.571 189.477 207.595 188.816 207.668C188.557 207.696 188.299 207.736 188.04 207.764L187.845 207.782C187.896 207.778 187.308 207.763 187.072 207.748L187.122 207.612C187.13 207.593 187.136 207.576 187.142 207.564C187.405 207.001 187.6 206.441 187.584 205.813C187.555 204.679 186.822 203.691 185.859 203.145C184.971 202.642 183.914 202.441 182.904 202.554C181.795 202.677 180.218 203.556 179.126 203.093C178.304 202.744 178.025 201.526 178.013 200.728C177.994 199.527 178.476 198.388 178.51 197.191ZM101.951 189.309C98.9267 187.951 96.3298 190.27 94.5552 192.489C94.4637 192.603 94.5788 192.796 94.7231 192.707L94.9588 192.56C96.4077 191.651 98.0144 190.577 99.8098 190.886C101.435 191.167 101.838 192.231 101.514 193.681L101.419 194.089C101.076 195.582 100.812 197.127 101.668 198.516C102.477 199.827 104.054 200.4 105.532 200.435C107.236 200.476 108.707 199.683 110.265 199.13L110.388 199.087C111.05 198.858 113.464 198.261 113.498 199.621C113.513 200.243 112.848 200.973 112.592 201.532C112.257 202.263 112.034 203.031 112.038 203.843C112.048 205.868 113.737 207.513 115.735 206.531C116.512 206.149 116.712 205.053 116.307 204.348C115.737 203.356 115.506 203.408 115.905 202.365L116.021 202.072C116.513 200.816 116.905 199.523 116.352 198.205C115.248 195.572 111.937 195.253 109.572 196.125L109.486 196.158C108.014 196.728 103.605 199.014 103.909 195.781C104.028 194.508 104.414 193.287 104.144 192C103.893 190.804 103.06 189.807 101.951 189.309ZM87.379 178.496C86.827 177.524 84.9737 177.872 85.1273 179.106L85.1765 179.491C85.2393 180.016 85.2531 180.511 84.8899 180.978C84.4492 181.546 83.6947 181.718 83.01 181.631C81.5603 181.447 80.6358 180.102 79.0403 180.416C77.7452 180.671 76.8509 181.731 76.3331 182.887C75.7849 184.111 75.7965 185.439 75.3881 186.699C74.9178 188.149 73.9149 188.082 72.6625 187.575L72.393 187.464C71.1949 186.966 69.9928 186.412 68.6578 186.65C66.4405 187.046 64.5311 190.456 66.6085 192.103C66.9835 192.4 67.6388 192.245 67.623 191.683L67.6209 191.577C67.6104 190.554 67.8684 189.233 69.0404 188.992C70.2832 188.736 71.6875 189.871 72.8417 190.198C75.8309 191.044 77.5337 188.793 78.0414 186.131L78.06 186.029C78.2221 185.097 78.3501 183.373 79.3242 182.937C79.8437 182.704 80.3979 183.277 80.8321 183.507C81.5066 183.865 82.2304 184.093 82.9935 184.151C85.8165 184.366 89.0242 181.396 87.379 178.496ZM158.021 174.819C157.091 174.416 155.704 174.641 155.477 175.855L155.339 176.619C155.069 178.095 154.638 179.941 153.188 180.473C152.281 180.805 151.239 180.222 150.425 179.867C149.448 179.44 148.496 179.074 147.425 178.972C145.254 178.766 143.637 180.023 142.869 181.987L142.802 182.162C142.183 183.812 141.346 186.968 142.702 188.307C142.9 188.502 143.299 188.597 143.542 188.415C144.343 187.814 144.546 186.825 144.821 185.898L144.845 185.819C145.137 184.856 145.376 183.796 145.903 182.929C146.883 181.317 149.44 183.157 150.669 183.582C152.689 184.281 154.783 183.873 156.326 182.379C157.301 181.436 157.878 180.242 158.274 178.979C158.527 179.109 158.79 179.223 159.072 179.299C160.15 179.591 161.428 179.437 162.248 178.621C163.788 177.088 162.953 174.339 160.605 174.784C160.143 174.871 159.84 175.313 159.785 175.764L159.753 175.835V175.835C159.163 175.64 158.517 175.034 158.021 174.819ZM49.2363 161.127C47.043 158.87 43.2366 160.094 41.7363 162.488C41.4252 162.985 41.9392 163.614 42.4855 163.463C43.7913 163.103 45.634 161.686 47.014 162.588C48.037 163.257 47.4805 165.004 47.3869 165.981L47.3734 166.127C47.255 167.458 47.2282 169.278 48.2641 170.274C48.8605 170.848 49.775 170.77 50.5614 170.688L50.8113 170.662C51.7384 170.569 52.6593 170.406 53.5473 170.12C54.3636 169.858 55.1371 169.502 55.9041 169.125L56.0958 169.03C56.4353 168.862 57.5675 168.194 57.9066 168.613C58.0834 168.832 57.6452 169.791 57.5542 170.005C57.2102 170.81 56.7729 171.567 56.4575 172.386C55.9016 173.828 55.8552 175.456 56.6358 176.832C57.3921 178.166 59.0309 179.247 60.4834 178.222C61.3149 177.636 61.3126 176.568 60.4834 175.981C60.0446 175.67 59.6022 175.466 59.4209 174.944C59.1843 174.265 59.4888 173.544 59.7835 172.915L60.1364 172.167C60.9181 170.496 61.6991 168.574 60.607 166.865C59.4792 165.102 57.1872 165.074 55.4533 165.808C54.4637 166.228 53.5608 166.79 52.5296 167.114C51.8161 167.339 51.0999 167.489 50.3692 167.571C50.2063 166.692 50.4368 165.707 50.4391 164.833C50.4429 163.506 50.1957 162.115 49.2363 161.127ZM162.341 129.725C158.64 129.182 156.848 132.494 156.592 135.683C156.362 138.579 156.831 141.483 157.564 144.298C157.839 145.342 158.147 146.373 158.471 147.388C158.99 149.018 159.554 150.645 160.241 152.213C160.45 152.686 160.661 153.162 160.898 153.619C161.709 154.283 162.402 155.179 163.033 156.039L163.447 156.608V156.608L163.558 156.761C164.629 158.228 165.544 159.75 166.292 161.405C167.004 162.981 167.534 164.624 167.946 166.301L168.048 166.72C168.365 168.011 168.832 169.552 168.267 170.753C169.376 171.095 170.479 171.406 171.658 171.571C173.285 171.799 174.977 171.814 176.618 171.754C178.205 171.696 179.789 171.573 181.368 171.404L182.506 171.279C182.624 171.265 182.742 171.252 182.859 171.237C182.815 171.182 182.777 171.12 182.749 171.053C182.344 170.081 182.396 168.953 182.351 167.908L182.346 167.792C182.287 166.632 182.251 165.471 182.236 164.309C182.209 162.127 182.268 159.94 182.506 157.769C182.713 155.87 183.037 153.969 183.542 152.124C184.051 150.254 184.828 148.497 185.547 146.701C186.256 144.926 186.842 143.102 186.778 141.166C186.738 139.936 186.468 138.739 186.009 137.609C185.988 137.626 185.961 137.638 185.929 137.636C184.49 137.583 183.128 137.167 181.737 136.816C180.263 136.442 178.752 136.136 177.244 135.954L176.923 135.916C175.666 135.775 174.296 135.706 173.135 136.246C171.878 136.831 171.085 138.133 170.608 139.382L170.555 139.526C169.706 141.894 169.901 145.054 172.524 146.175C173.337 146.523 175.195 146.737 175.613 145.634C175.801 145.131 175.414 144.387 175.268 143.911C175.097 143.345 174.985 142.787 174.998 142.195C175.008 141.676 175.405 141.284 175.909 141.243L175.955 141.24C176.872 141.2 178.763 140.143 178.947 141.665C178.983 141.96 178.756 142.271 178.518 142.415C178.036 142.7 177.533 142.891 177.009 143.007C177.081 143.324 177.183 143.634 177.282 143.943C177.341 143.913 177.406 143.894 177.476 143.888C178.252 143.825 179.018 143.947 179.794 143.956L180.218 143.959C180.819 143.965 181.344 143.997 181.928 144.309C182.466 144.596 182.371 145.317 181.928 145.625C180.764 146.433 178.792 145.959 177.58 145.139C177.633 145.555 177.607 145.98 177.43 146.426C176.906 147.75 175.404 148.409 174.06 148.466C172.866 148.517 171.725 148.14 170.773 147.481C170.578 148.176 170.266 148.844 170.13 149.565C169.953 150.512 170.164 151.619 169.835 152.509C169.505 153.405 168.231 154.005 167.494 153.126C166.414 151.841 166.75 149.806 167.699 148.504C168.204 147.815 169.121 147.024 170.054 146.9C169.406 146.289 168.886 145.534 168.559 144.702C168.535 144.712 168.508 144.714 168.478 144.706C165.442 143.875 163.79 141.123 163.689 138.234C163.465 138.395 163.233 138.539 162.99 138.668C162.409 138.981 161.663 138.706 161.483 138.057C161.318 137.452 161.798 136.706 162.472 136.757C162.856 136.789 163.243 136.791 163.625 136.727C163.678 136.719 163.729 136.709 163.782 136.698C163.816 136.476 163.86 136.254 163.915 136.034C162.768 136.165 161.568 135.977 160.459 135.732C159.504 135.523 159.725 134.003 160.687 134.039L160.841 134.046C162.102 134.106 163.964 134.31 165.045 133.511C165.235 133.236 165.447 132.976 165.675 132.731C165.704 132.669 165.73 132.604 165.753 132.536C166.334 130.862 163.581 129.907 162.341 129.725ZM129.115 153.274C127.673 152.888 126.157 153.413 125.166 154.502C124.333 155.417 123.902 156.54 123.516 157.689L123.296 158.35C122.976 159.285 122.608 160.027 121.463 159.671C119.996 159.214 118.724 158.417 117.128 158.48C115.677 158.537 114.258 159.161 113.248 160.208C112.215 161.278 111.722 162.769 111.941 164.238L111.955 164.327C112.07 165.004 113.059 167.419 114.108 166.308C114.576 165.812 114.483 165.263 114.595 164.633C114.7 164.033 114.926 163.444 115.297 162.957C115.953 162.095 117.009 161.758 118.042 162.063C119.404 162.466 120.606 163.296 122.073 163.315C123.617 163.336 124.927 162.536 125.778 161.279C126.465 160.264 126.711 159.076 127.194 157.973L127.241 157.868C127.647 156.96 127.923 156.632 128.853 157.066L129.178 157.222C130.571 157.884 132.137 158.49 133.577 157.557C134.914 156.69 135.484 154.948 134.359 153.68C133.739 152.98 132.302 153.099 131.899 153.997C131.828 154.152 131.762 154.308 131.697 154.465C131.574 154.428 131.455 154.382 131.341 154.318C130.586 153.978 129.931 153.492 129.115 153.274ZM87.0471 143.019C85.4034 142.133 84.0311 143.876 84.2937 145.45L84.3064 145.519C84.3161 145.566 84.3383 145.67 84.3659 145.789C84.2821 145.778 84.199 145.764 84.1162 145.743L83.7343 145.696C83.134 145.626 82.552 145.59 81.9511 145.782C80.5329 146.238 79.8355 147.617 79.8013 149.03C79.7673 150.439 80.4957 151.575 80.7097 152.92C80.9287 154.296 79.505 153.903 78.5756 153.802L78.5392 153.799C77.2462 153.668 75.8869 153.665 74.8124 154.509C73.7026 155.379 73.211 156.883 73.3678 158.261C73.5093 159.505 74.2874 161.419 75.697 161.616C75.8362 161.635 75.9947 161.605 76.0661 161.466C76.6361 160.357 75.843 159.133 75.9325 157.963C76.0312 156.676 76.8511 156.462 77.9816 156.546C79.0787 156.626 80.1731 156.859 81.2567 156.532C82.4322 156.176 83.2853 155.167 83.5266 153.977C83.7925 152.665 83.3037 151.445 82.9866 150.198C82.8811 149.784 82.8294 149.367 82.9021 148.944C82.9177 148.852 82.9971 148.768 83.0259 148.732C83.2063 148.698 83.4763 148.784 83.6307 148.801L83.8498 148.822C85.0403 148.93 86.1872 148.858 87.0378 147.874C87.4738 147.37 87.6347 146.753 87.5913 146.103L87.5694 145.84C87.5462 145.588 87.5017 145.254 87.3704 145.115L87.3687 145.108V145.108C87.4127 145.049 87.4545 144.989 87.4928 144.925L87.5299 144.862C87.8945 144.254 87.683 143.362 87.0471 143.019ZM171.261 127.593C169.624 127.593 168.077 128.128 166.839 129.584C167.28 130.004 167.633 130.493 167.828 131.065C168.434 130.734 169.076 130.474 169.733 130.29C171.738 129.73 174.48 129.738 176.166 131.114C177.049 131.833 176.08 133.122 175.129 132.9C174.278 132.701 173.538 132.333 172.645 132.291C171.869 132.253 171.109 132.355 170.365 132.579C169.23 132.921 168.199 133.57 167.441 134.464C167.187 134.764 166.966 135.089 166.78 135.44C165.364 138.129 166.431 141.984 168.385 144.197C167.618 141.648 168.383 138.642 169.911 136.531C171.75 133.989 174.5 133.701 177.398 134.098L177.493 134.111C180.297 134.506 183.768 135.197 185.864 137.258C185.654 136.782 185.414 136.322 185.143 135.876C183.554 133.259 180.92 131.217 178.186 129.761C177.728 129.514 177.265 129.286 176.804 129.074C175.053 128.269 173.101 127.593 171.261 127.593ZM172.156 107.624L172.15 107.654C172.149 107.66 172.147 107.665 172.146 107.671C172.049 108.53 172.278 109.517 172.394 110.384L172.41 110.507C172.655 112.481 172.978 114.457 173.084 116.446C173.187 118.359 173.147 120.343 172.917 122.247L172.883 122.518C172.748 123.556 172.668 124.773 172.317 125.839C173.665 125.968 175.013 126.401 176.238 126.862C176.678 127.029 177.115 127.204 177.55 127.39C177.005 124.492 176.714 121.552 176.122 118.663L176.006 118.088C175.363 114.892 174.759 111.676 173.097 108.816C172.875 108.436 172.636 108.117 172.366 107.777C172.306 107.699 172.237 107.648 172.156 107.624Z" fill="black"/>
<path fill-rule="evenodd" clip-rule="evenodd" d="M135.338 72.5179C134.837 66.0202 135.613 59.2096 133.114 53.0336C128.757 42.7862 116.538 39.3695 107.066 35.4682C103.271 34.3441 90.5018 34.187 86.0585 32.6992C76.0022 29.332 73.5995 25.3201 65.6089 31.7313C64.26 32.8266 63.4161 34.0169 62.8005 35.6432L62.8258 35.6502C62.65 36.3282 62.8385 37.0047 63.2346 37.5215C59.77 41.0718 58.3201 46.3944 60.0978 51.1204C65.899 63.4187 65.6262 70.0684 63.757 83.2896C61.3161 95.6325 66.8938 100.141 76.1312 106.857C75.7551 107.588 75.6771 108.56 76.1675 109.205C86.8492 124.253 106.99 131.437 124.246 123.8C131.251 120.674 134.378 113.196 136.162 106.448C138.241 98.8925 138.88 90.931 137.188 83.2344C136.505 79.6749 135.616 76.1411 135.338 72.5179Z" fill="#D08B5B"/>
<path fill-rule="evenodd" clip-rule="evenodd" d="M58.8311 54.0853L65.1825 58.327L87.9173 34.2992L80.3516 28.3296C80.3516 28.3296 66.6257 38.4994 63.9269 41.1835C61.2281 43.8675 58.8311 54.0853 58.8311 54.0853Z" fill="#DA0037"/>
<path fill-rule="evenodd" clip-rule="evenodd" d="M73.7236 0.528203C75.0202 0.333019 75.9993 1.13947 76.4651 2.27616L76.4896 2.33736C76.6392 2.72413 76.8058 3.10034 76.985 3.4702C80.2295 1.8745 84.8592 2.28452 86.9126 5.51607C88.3778 7.82401 87.4839 10.5631 86.9316 13.0106L86.5689 14.6232C87.2699 15.0703 87.7985 15.8711 87.7736 16.7003L87.7706 16.7641L87.6231 19.0129C88.0911 18.5374 88.5191 18.0196 88.9006 17.4679C89.1642 16.9839 89.4488 16.5084 89.7545 16.0477C91.5528 13.336 95.59 15.6926 94.1058 18.5965C93.8212 19.1566 93.5008 19.6871 93.1571 20.1986C92.7692 20.9531 92.4509 21.7288 92.2063 22.5255C92.9084 22.832 93.4481 23.5125 93.505 24.5397C93.6378 26.9385 92.3813 28.94 90.3827 30.1976C89.7945 30.5674 89.1874 30.6393 88.6371 30.5019C88.5401 30.6329 88.4432 30.764 88.3504 30.8971C89.1473 31.546 89.8662 32.2857 90.4839 33.1057C92.3434 32.8268 94.2134 32.6957 96.0833 32.6915C98.3687 31.5692 101.105 31.5925 103.561 32.0131C105.142 32.2836 106.66 32.8098 108.216 33.1882C109.856 33.5855 111.522 33.6003 113.181 33.8708C115.272 34.2111 117.107 35.1791 118.26 36.7241C119.527 36.7621 120.859 37.282 121.964 37.9879C124.536 39.6322 127.093 41.2998 129.659 42.9547C130.644 43.59 131.012 44.6042 130.831 45.7355L130.818 45.8079L130.732 46.2771L130.935 46.5659C131.72 47.6775 132.574 48.8418 133.083 50.0687C134.023 51.4277 134.872 52.8522 135.625 54.3211C136.639 56.2951 137.476 58.3875 138.043 60.5348C138.184 61.078 138.326 61.6253 138.418 62.1791C138.551 62.9611 138.347 63.5677 138.235 64.3179C138.096 65.269 138.045 66.2328 137.898 67.186C137.799 67.8179 137.263 68.1286 136.702 68.1455C136.913 69.7539 137.065 71.3728 137.21 72.9791C137.415 75.2743 137.554 77.576 137.674 79.8776C138.294 80.78 139.561 81.4944 140.476 81.7417C141.743 82.0819 143.071 81.7121 144.269 81.2788C145.021 81.0062 145.639 81.9551 145.272 82.5892C144.119 84.5801 141.653 84.5716 139.785 83.6903C138.994 83.3183 138.3 82.7794 137.786 82.0777C137.818 82.7456 137.851 83.4134 137.885 84.0834L137.917 84.6903C138.296 91.7773 139.116 99.108 137.788 106.125C135.488 118.28 125.455 127.535 113.198 128.254C106.766 128.631 101.41 126.726 98.7467 125.664C96.0833 124.601 97.1185 122.435 98.9674 123.054C102.153 124.121 108.004 125.71 113.24 125.024C125.582 123.407 136.047 117.223 134.972 90.5888C134.819 86.8118 134.35 83.033 134.248 79.2562C134.151 75.5639 134.187 71.8695 134.025 68.1793L133.971 66.9203C133.907 65.4491 133.84 63.9711 133.73 62.4982C133.597 61.9276 133.487 61.3485 133.325 60.7884C132.884 59.2646 132.309 57.783 131.594 56.3691C131.436 56.4895 131.259 56.5762 131.067 56.61C129.61 56.8721 128.244 56.7981 126.88 56.1894C126.244 55.9083 125.683 55.5342 125.16 55.0714C124.911 54.8537 124.745 54.6423 124.614 54.4225C123.954 54.4331 123.294 54.2344 122.881 53.7589C122.41 53.2169 122.331 52.6571 122.516 52.1388L122.535 52.0871L122.489 52.0702C121.932 53.5137 120.823 54.7839 119.607 55.642C117.684 57.0031 115.279 57.3962 112.972 57.4322C110.426 57.4702 107.74 57.0771 105.227 56.6755C104.563 56.5698 103.903 56.4494 103.256 56.2866C103.23 56.312 103.205 56.3416 103.178 56.367C101.021 58.4361 97.9871 58.9687 95.2506 57.7872C93.6694 57.1046 92.3434 56.0055 91.1712 54.7459C91.1543 55.4053 91.1206 56.0647 91.0637 56.7178L91.0401 56.9771C90.9234 58.1935 90.6988 59.4837 89.7819 60.3615C88.2998 61.7839 86.1494 61.2132 84.4397 60.2875C84.4418 60.3319 84.4418 60.3784 84.4418 60.4249C84.9035 61.9973 85.3673 63.5719 85.8311 65.1464L85.931 65.4819C86.2682 66.5999 86.6381 67.7193 86.7397 68.8895C86.9337 71.1255 85.4495 73.3341 82.9702 72.5839C81.6698 72.1917 80.6279 71.0955 79.6283 70.2175L78.9983 69.6714C80.628 75.0123 81.758 80.5433 81.8634 86.1166C81.8697 86.4188 81.6104 86.6471 81.3237 86.6577C80.6533 86.6851 79.9323 86.552 79.2576 86.2836C79.2197 86.2815 79.1818 86.2794 79.1417 86.273C77.9906 86.1061 76.9217 85.6897 75.9794 85.0747C76.1965 85.7658 76.2935 86.5076 76.2366 87.2833C76.2218 87.4714 75.9288 87.5369 75.8866 87.3298C75.3427 84.6477 72.212 82.6209 69.5135 83.1345C66.6168 83.6861 64.4832 86.1843 63.9604 89.0269C63.3996 92.0809 64.4727 95.6126 66.4608 97.9691C67.3757 99.0555 68.5795 99.9622 70.0089 100.19C70.6624 100.294 71.3413 100.258 71.9759 100.072C72.2457 99.9918 72.4987 99.8797 72.7559 99.7741C73.1312 99.6219 73.5697 99.5987 73.9239 99.438C74.7271 99.0766 75.5345 99.8185 75.1276 100.645C74.7735 101.366 74.4551 101.852 73.8669 102.224C74.3434 102.807 74.7756 103.619 74.9358 103.836C75.7538 104.944 76.5844 105.99 77.5163 107.002C78.465 108.029 79.5001 108.968 80.5943 109.836L81.0542 110.201C82.1081 111.039 83.0258 111.815 83.7692 113.017C84.3553 113.966 83.5964 115.253 82.498 115.239C79.0616 115.19 76.5633 112.163 74.784 109.519C74.531 109.141 74.2928 108.742 74.0714 108.332C73.9913 108.461 73.9028 108.581 73.8037 108.691L73.9998 109.219C74.5816 110.775 72.0749 111.791 71.3476 110.339C70.8184 109.287 70.205 108.285 69.5219 107.338C69.1192 107.281 68.725 107.036 68.5057 106.719C67.9513 105.914 67.3293 105.1 66.8044 104.242C66.5135 103.965 66.2141 103.699 65.9084 103.439C65.8199 103.517 65.7292 103.595 65.6428 103.678C65.2591 104.555 64.7847 105.356 64.1965 106.11L64.0704 106.271C62.9436 107.695 61.4759 109.152 59.6596 109.5C59.1052 109.606 58.5718 108.915 59.063 108.473C60.3343 107.328 61.8374 106.548 63.0096 105.269C63.5871 104.639 64.1173 103.945 64.5733 103.218L64.6772 103.05C64.7531 102.925 64.8311 102.801 64.9112 102.674C64.3821 102.312 63.8529 101.949 63.3237 101.585C61.867 102.833 59.97 103.404 58.3588 104.437L58.1986 104.542C56.7419 105.519 55.2071 103.359 56.375 102.173C57.6625 100.871 58.7373 99.318 59.8778 97.8707C59.3415 96.8803 59.0877 95.7092 58.9926 94.5256C58.9551 94.1906 58.9258 93.8554 58.8965 93.5202C58.0785 93.5329 57.2563 93.2518 56.5606 92.7678L56.297 92.5797C55.4516 92.8502 54.5641 92.9813 53.7145 92.958C51.7159 92.8988 50.8979 90.6099 52.1481 89.1622C53.4235 87.6827 55.6561 87.3594 57.4249 88.0779C57.4819 88.0484 57.5409 88.0167 57.5978 87.985C57.5135 87.5961 57.5322 87.2433 57.6282 86.9335L57.6003 86.7445C57.2114 86.1462 56.9556 85.4631 56.8587 84.7414C56.7819 84.1697 56.7975 83.603 56.9295 83.0385C56.9734 82.8506 57.0646 82.656 57.1344 82.46C56.9906 82.0961 56.9061 81.7199 56.88 81.3416C56.8397 81.2936 56.7996 81.2444 56.7617 81.1911C55.884 79.9558 56.0613 78.4672 56.8966 77.4675C56.9004 77.4039 56.9063 77.3403 56.915 77.2771C56.866 77.1668 56.8211 77.0554 56.7802 76.9427C55.9641 76.1174 55.365 75.1243 55.4767 73.8936C55.5423 73.1695 55.8391 72.5177 56.2884 72.0305C56.2087 71.7943 56.2011 71.5206 56.2977 71.2921C55.5807 69.3802 55.6713 67.0776 56.1874 64.9393C56.0736 64.6138 56.0145 64.2609 56.0272 63.8868C56.0862 62.2996 57.4566 60.8412 59.0799 60.8603C59.2753 60.8619 59.4583 60.8875 59.6341 60.9249L59.6365 60.8871C59.6986 60.4107 59.8294 59.9705 60.0201 59.5755C59.9263 59.5414 59.8395 59.4926 59.7634 59.4277C58.7232 59.984 57.6225 60.4092 56.4684 60.699C55.6199 60.912 54.7507 59.9451 55.2781 59.1466C55.5229 58.7761 55.793 58.4435 56.0839 58.1395C55.6703 58.1419 55.2503 58.17 54.8255 58.2247C54.0623 58.3241 53.2106 57.802 52.7152 57.0961C52.0996 57.6963 51.4819 58.2945 50.8642 58.8926C49.2999 60.4122 46.9365 59.2942 46.6899 57.2906C46.224 57.1659 45.7897 56.9545 45.4081 56.6523C42.9415 57.7259 40.2872 58.3156 37.5739 58.4276C35.6259 58.5079 34.4875 56.2338 35.3983 54.6275C36.0096 53.5497 36.7686 52.5817 37.6435 51.7405C36.2858 52.1569 34.8839 52.457 33.4524 52.6493C32.6787 52.7529 31.5845 52.1104 31.2746 51.3981C30.0898 48.659 30.191 45.8037 31.555 43.1385C31.6077 43.0329 31.6667 42.9314 31.7236 42.83C31.8649 42.477 32.0188 42.1283 32.1853 41.7859C30.5072 40.0317 30.3617 37.4236 31.2662 35.2404C30.9035 34.6507 30.7644 33.9406 31.0111 33.2981C31.7131 31.4488 32.725 29.741 34.0026 28.2743C33.8803 28.0376 33.7728 27.7861 33.6822 27.5155C32.9633 25.328 33.796 22.6883 35.4763 21.1644C36.5325 20.2049 37.7468 19.63 39.0434 19.2623C39.5894 18.2943 40.2914 17.4214 41.1094 16.6859C41.141 16.6162 41.1727 16.5464 41.2085 16.4767C42.4819 14.0715 44.8009 12.7823 47.2865 12.4843C47.3835 11.5438 48.016 10.6455 48.9351 10.3539C49.1881 9.54018 49.5655 8.76241 50.0841 8.0565C50.9 6.9448 52.2556 6.42065 53.5332 7.14981C54.2331 7.54926 54.9035 8.00789 55.5318 8.51513C55.8139 8.38247 56.1338 8.29663 56.4948 8.26924L56.5859 8.26362L58.6646 8.15795C59.5353 7.77118 60.4038 7.36538 61.2745 6.97016C61.7974 6.53689 62.3814 6.17548 63.018 5.90707C63.739 5.60484 64.4769 5.43364 65.2169 5.37658C65.8178 5.18002 66.4228 5.00672 67.0384 4.87145C68.4846 4.55443 69.9984 4.37689 71.4994 4.39169C71.5301 4.0022 71.5454 3.60805 71.5424 3.20925L71.5395 3.00946C71.5057 1.73079 72.524 0.709964 73.7236 0.528203ZM72.2668 102.832C72.0602 102.877 71.8515 102.913 71.6428 102.938C71.706 103.094 71.7693 103.251 71.8304 103.407C71.9991 103.502 72.1698 103.593 72.3406 103.678C72.29 103.39 72.2605 103.101 72.2668 102.832ZM61.4354 99.6056L61.2952 99.8643C61.2725 99.9067 61.2502 99.9485 61.2282 99.9896C61.5254 99.9664 61.8248 99.9727 62.1199 100.007L62.1191 99.9751C62.0811 99.9622 62.0432 99.9503 62.0069 99.9326C61.8033 99.8345 61.614 99.7246 61.4354 99.6056ZM67.2893 87.8011C69.1545 87.91 70.7347 88.1967 72.431 89.0147L72.5767 89.0861C74.0756 89.8322 76.5549 91.2102 76.3462 93.1863C76.2872 93.7485 75.8803 94.3403 75.2394 94.2959C73.4832 94.1754 72.4797 92.4001 71.2907 91.2926C70.0911 90.1767 68.6175 89.029 67.1649 88.2618C66.9596 88.1538 67.0405 87.812 67.2639 87.8009L67.2893 87.8011ZM58.8311 61.7648C58.3842 61.7796 58.5339 62.215 58.7637 61.8515C58.7826 61.8219 58.8058 61.7923 58.8311 61.7648ZM82.9567 32.6995C78.7239 32.8111 74.4638 35.3167 71.2928 37.8493C68.5342 40.0526 66.1521 42.6734 64.0428 45.498C63.5002 46.9048 63.0343 48.3409 62.6407 49.7876C62.3814 50.7429 62.219 51.7088 62.0019 52.6725L61.9344 52.968C61.7639 53.2876 61.6372 53.6314 61.5448 53.9867C61.9291 54.3731 62.4277 54.6497 62.9767 54.781C63.1536 54.8232 63.3005 54.9148 63.4167 55.0361C63.8586 54.2968 64.2448 53.5165 64.4695 52.6892L64.4778 52.651C65.3272 51.2563 66.2497 49.9049 67.2387 48.5998C69.9667 44.9963 72.9709 41.7119 76.5823 38.9792C79.3209 36.9079 82.382 35.2848 85.6371 34.2301C84.8404 33.5857 83.9356 33.0759 82.9567 32.6995Z" fill="black"/>
<path fill-rule="evenodd" clip-rule="evenodd" d="M104.951 107.813C106.641 104.432 122.146 105.952 122.146 105.952L123.456 116.701C123.456 116.701 115.974 119.106 111.521 118.602C107.068 118.098 103.26 111.195 104.951 107.813Z" fill="white"/>
<path fill-rule="evenodd" clip-rule="evenodd" d="M106.043 113.459C105.508 112.313 116.592 109.187 120.024 111.323C123.456 113.459 122.383 116.373 122.383 116.373C122.383 116.373 107.948 119.667 106.043 113.459Z" fill="#FF8181"/>
<path fill-rule="evenodd" clip-rule="evenodd" d="M103.989 105.812C106.576 102.805 110.934 102.596 114.543 103.347C116.86 103.83 119.115 104.634 121.468 104.932C122.566 105.071 123.677 105.113 124.784 105.093C125.871 105.073 126.96 104.853 128.043 104.894C128.21 104.9 128.273 105.119 128.128 105.208C126.642 106.121 124.64 106.414 122.884 106.593C122.89 106.723 122.898 106.85 122.916 106.957C122.964 107.244 123.007 107.529 123.043 107.818C123.122 108.469 123.211 109.118 123.3 109.768C123.476 111.047 123.531 112.366 123.839 113.623L123.893 113.832C123.964 114.096 123.981 114.334 123.957 114.549L124.028 114.517L124.254 114.407L124.402 114.338C124.941 114.087 125.456 113.905 126.09 113.966C126.573 114.012 126.979 114.342 126.982 114.857C126.994 117.173 123.875 117.917 122.09 118.361L121.567 118.49C119.296 119.044 116.977 119.529 114.642 119.646C110.893 119.832 106.681 118.797 104.229 115.756C101.942 112.918 101.522 108.68 103.989 105.812ZM121.011 115.541C120.618 112.055 116.336 111.863 115.104 114.074C114.557 110.992 106.471 113.807 107.103 114.42C109.5 116.742 113.137 116.951 116.263 116.521C117.856 116.302 119.449 115.946 121.011 115.541ZM116.259 106.404L115.182 106.249L114.758 106.19C112.09 105.833 109.088 105.648 106.894 107.36C106.093 107.985 105.642 108.8 105.474 109.675C107.55 109.367 109.634 109.132 111.724 108.937L112.294 108.884C113.602 108.767 114.909 108.642 116.215 108.512L117.144 108.418L118.072 108.321C118.398 108.287 120.6 108.175 121.014 108.25C121.058 107.878 121.115 107.073 121.209 106.711C119.645 106.764 118.088 106.648 116.533 106.441L116.259 106.404ZM121.215 90.823C122.81 91.7931 125.241 94.0552 123.525 96.4602C121.504 98.5808 118.596 96.1494 117.162 95.0498C115.833 94.1975 114.34 96.3894 115.573 97.3845C125.93 105.055 130.133 91.0766 122.021 89.6824C121.128 89.5287 120.797 90.5229 121.215 90.823ZM124.07 94.9098L124.146 94.8681L124.172 94.8524C124.217 94.8234 124.188 94.8265 124.087 94.8618L124.01 94.8893V94.9434C124.03 94.9314 124.051 94.9223 124.07 94.9098ZM103.638 86.2909L103.637 86.2433C103.64 84.8956 104.425 81.8184 106.365 81.8184C107.576 81.8184 108.312 83.9126 108.439 86.0715L108.444 86.1595C108.5 87.5017 108.132 90.4355 106.365 90.4355C104.579 90.4355 103.656 87.6568 103.638 86.2909V86.2909ZM132.192 85.8682L132.192 85.8206C132.189 84.4729 131.404 81.3957 129.465 81.3957C128.284 81.3957 127.555 83.3865 127.401 85.487L127.39 85.6488C127.314 86.9457 127.658 90.0128 129.465 90.0128C131.251 90.0128 132.173 87.2341 132.192 85.8682V85.8682ZM104.744 72.6294C106.327 72.3887 108.423 72.8461 109.161 74.4561C109.49 75.1735 109.1 75.9667 108.272 76.0064C106.269 76.1023 104.472 75.6564 102.714 76.9594C101.957 77.5202 101.321 78.2968 100.787 79.0713L100.585 79.3661L100.418 79.6089C100.056 80.1421 99.7124 80.7213 99.766 81.3645C99.7818 81.555 99.5873 81.7357 99.4024 81.7281C98.2501 81.6807 98.1261 80.2355 98.2776 79.3675C98.5594 77.7566 99.3388 76.2444 100.419 75.0264C101.554 73.7473 103.051 72.8871 104.744 72.6294ZM126.545 74.5845C127.636 73.8826 129.032 73.613 130.311 73.7163C132.832 73.9194 137.061 76.0634 136.505 79.1438C136.333 80.0938 135.012 80.5951 134.234 80.068C133.397 79.5014 133.193 78.6207 132.57 77.8801C132.074 77.2886 131.444 76.8606 130.769 76.496C130.105 76.1364 129.336 75.9185 128.581 75.839L128.456 75.8271C128.002 75.7884 125.709 75.7987 126.046 76.6549C126.112 76.8225 125.862 76.9553 125.748 76.8284C125.045 76.0507 125.841 75.0372 126.545 74.5845Z" fill="black"/>
</g>
<defs>
<filter id="filter0_d_8_19969" x="0" y="0.499023" width="198.848" height="280.431" filterUnits="userSpaceOnUse" color-interpolation-filters="sRGB">
<feFlood flood-opacity="0" result="BackgroundImageFix"/>
<feColorMatrix in="SourceAlpha" type="matrix" values="0 0 0 0 0 0 0 0 0 0 0 0 0 0 0 0 0 0 127 0" result="hardAlpha"/>
<feOffset dy="4"/>
<feGaussianBlur stdDeviation="2"/>
<feComposite in2="hardAlpha" operator="out"/>
<feColorMatrix type="matrix" values="0 0 0 0 0 0 0 0 0 0 0 0 0 0 0 0 0 0 0.25 0"/>
<feBlend mode="normal" in2="BackgroundImageFix" result="effect1_dropShadow_8_19969"/>
<feBlend mode="normal" in="SourceGraphic" in2="effect1_dropShadow_8_19969" result="shape"/>
</filter>
</defs>
</svg>
