<svg width="181" height="260" viewBox="0 0 181 260" fill="none" xmlns="http://www.w3.org/2000/svg">
<g filter="url(#filter0_d_20_20501)">
<rect x="101.395" y="155.977" width="48.3803" height="59.6008" fill="white"/>
<path fill-rule="evenodd" clip-rule="evenodd" d="M87.2833 97.6805C92.4984 93.7077 105.591 91.9212 111.157 95.7464C116.655 99.5877 117.254 105.8 119.816 111.514C122.233 110.374 126.225 112.007 126.926 114.251C127.795 115.309 127.834 118.282 128.433 119.705C154.512 123.857 158.472 144.197 161.611 167.289C165.763 190.721 175.19 214.102 171.098 238.214C171.631 238.986 172.052 239.737 172.44 240.628C173.372 242.213 172.172 244.458 170.293 244.371C167.861 244.157 165.454 243.865 163.01 243.774C156.237 243.539 149.458 243.567 142.682 243.653L141.758 243.665C107.61 244.09 73.4643 244.928 39.315 245.151C38.0761 245.152 37.4695 244.041 37.635 242.944C37.9681 240.737 38.2772 238.528 38.5998 236.32C30.5226 238.454 21.9359 238.991 13.8815 236.544C13.3181 235.97 15.1943 236.281 15.492 236.194C8.07947 231.127 10.2931 220.452 10.9498 212.764C15.0327 186.419 16.4721 157.27 32.2472 134.789C39.0718 125.615 49.0772 118.351 60.5742 116.717L60.8932 116.673C64.2549 116.224 68.0014 116.08 70.9407 114.251C74.2464 111.611 75.6551 106.732 79.1329 106.687C80.2813 106.672 81.8435 108.125 83.5246 109.112C83.6501 106.941 84.8195 105.109 85.0777 103.426L85.0986 103.282C85.368 101.32 84.999 99.5546 87.2833 97.6805ZM143.33 167.985C136.001 162.892 117.069 165.451 116.635 165.736C115.681 166.364 115.27 166.42 114.754 167.235C114.244 167.303 113.735 167.373 113.227 167.445C112.206 167.779 112.962 169.034 114.141 168.586C113.432 171.646 115.519 173.821 116.349 176.845C116.619 177.827 116.359 179.593 116.349 180.597C116.43 181.876 117.844 183.387 117.608 184.671C116.771 189.233 112.224 193.685 114.141 198.11C115.411 200.609 119.23 201.883 121.769 202.733C127.029 204.752 136.195 202.657 139.251 198.11C140.881 195.684 142.77 189.566 143.742 187.668L143.958 184.658C144.489 177.175 144.962 169.119 143.33 167.985Z" fill="#FFD1B0"/>
<path fill-rule="evenodd" clip-rule="evenodd" d="M78.8618 106.7L80.9592 107.988L93.1405 114.012C95.502 114.673 96.6828 115.466 96.6828 116.39V125.799C96.6828 127.058 98.8989 129.912 103.331 134.36L107.426 130.277L107.334 129.742C106.945 127.438 106.75 125.897 106.75 125.119C106.75 124.282 110.756 121.104 118.768 115.585L122.273 112.284L121.899 111.147C124.06 111.249 126.404 112.581 126.926 114.25C127.795 115.309 127.834 118.282 128.433 119.704C154.512 123.857 158.472 144.197 161.611 167.289C165.763 190.721 175.19 214.102 171.098 238.214C171.631 238.986 172.052 239.736 172.44 240.628C173.372 242.213 172.172 244.457 170.293 244.371C167.861 244.157 165.454 243.865 163.01 243.774C156.237 243.539 149.458 243.567 142.682 243.653L141.758 243.665C107.61 244.09 73.4643 244.928 39.315 245.151C38.0761 245.152 37.4695 244.041 37.635 242.944C37.9681 240.737 38.2772 238.528 38.5998 236.32C30.5226 238.454 21.9359 238.991 13.8815 236.544C13.3181 235.97 15.1943 236.281 15.492 236.194C8.07947 231.127 10.2931 220.452 10.9498 212.764C15.0327 186.419 16.4721 157.269 32.2472 134.789C39.0718 125.615 49.0772 118.351 60.5742 116.716L60.8932 116.673L61.2144 116.631C64.4919 116.213 68.0948 116.022 70.9407 114.25C74.1592 111.68 75.5794 106.988 78.8618 106.7ZM108.05 161.927C106.855 161.927 104.408 163.783 100.709 167.495L100.383 167.646C95.912 169.724 92.9498 171.526 91.4968 173.053L91.4449 173.108C89.9771 174.684 87.0704 178.873 82.7248 185.675L76.4318 189.398H74.0508L72.3555 201.699L76.4318 210.483L85.665 207.372L100.709 203.405L109.342 194.643L114.212 193.008C113.621 194.715 113.407 196.414 114.141 198.109C115.411 200.609 119.23 201.883 121.769 202.733C127.029 204.752 136.195 202.657 139.251 198.109C140.881 195.684 142.77 189.566 143.742 187.668L144.021 183.758C144.523 176.541 144.896 169.073 143.33 167.985C136.001 162.892 117.069 165.451 116.635 165.736C115.681 166.364 115.27 166.419 114.754 167.235L114.487 167.271L115.989 165.232L115.457 164.948C111.661 162.934 109.192 161.927 108.05 161.927ZM114.141 168.586C113.462 171.515 115.346 173.634 116.237 176.463L113.961 172.104L113.961 168.643C114.019 168.628 114.08 168.61 114.141 168.586Z" fill="#DA0037"/>
<path fill-rule="evenodd" clip-rule="evenodd" d="M77.8558 106.245C78.3618 105.797 79.1105 106.36 78.789 106.966C78.0664 108.327 77.3253 109.616 76.3556 110.819C75.7676 111.549 75.1378 112.239 74.4996 112.921C76.1375 114.338 77.5423 116.098 78.8688 117.748C80.5651 119.857 82.1688 122.056 84.073 123.986C85.9509 125.89 88.0273 127.221 90.538 128.108L91.0451 128.284C93.5672 129.17 96.2629 130.366 97.6845 132.755C97.9649 133.226 97.4004 133.808 96.9259 133.514C94.4555 131.984 91.5529 131.676 88.8639 130.665C86.2663 129.689 84.002 128.186 82.0013 126.267C80.004 124.352 78.3269 122.173 76.5776 120.04C74.8478 117.931 72.9852 116.129 70.9391 114.345C67.7816 116.47 64.1774 117.395 60.5125 118.303L60.1125 118.402C56.4432 119.311 52.7935 120.366 49.3511 121.949C46.3161 123.344 43.3309 125.01 40.8586 127.28C38.2342 129.69 36.1917 132.767 34.3222 135.776C30.1404 142.509 27.2004 149.885 24.6121 157.351C21.9201 165.116 19.6685 173.037 17.8507 181.052C16.9262 185.129 16.1754 189.235 15.5582 193.37C15.2612 195.361 14.9973 197.357 14.7656 199.357C14.5182 201.493 14.4613 203.69 13.8064 205.743C13.5256 206.623 12.8627 206.989 12.1991 206.957L12.0643 208.644C11.8856 210.892 11.719 213.141 11.6627 215.403C11.5693 219.165 11.6116 222.916 11.8821 226.67L11.9204 227.181C12.133 229.921 12.6079 232.999 14.6671 235.005C16.7996 237.083 20.0792 237.736 22.9535 237.773C29.6479 237.86 36.092 234.696 42.0159 231.92C48.1169 229.061 54.0512 225.888 59.8433 222.446C62.793 220.693 65.7109 218.882 68.5915 217.018C70.0051 216.103 71.4087 215.173 72.8018 214.228C73.5998 213.686 74.3559 213.093 75.1682 212.612C74.7702 212.241 74.5925 211.659 74.9259 211.15C72.5777 209.111 71.6004 205.472 71.4861 202.527C71.3937 200.151 71.7434 197.781 72.0193 195.427C72.1585 194.239 72.3305 193.054 72.509 191.873C72.5796 191.406 72.6335 190.906 72.7159 190.413C66.3751 193.899 59.8566 197.004 53.1656 199.761C49.7358 201.175 46.2622 202.446 42.7406 203.611L42.0268 203.846C38.69 204.939 35.2735 205.971 31.8239 206.595C31.6395 206.629 31.4897 206.356 31.6866 206.27C35.0483 204.786 38.5264 203.534 41.9386 202.167L42.4993 201.939V201.939C42.4349 201.935 42.3681 201.927 42.2984 201.91C40.2973 201.427 38.3118 200.682 36.3491 200.055C34.5275 199.473 32.481 199.108 30.7784 198.23C30.6474 198.162 30.7207 197.98 30.8483 197.971C32.762 197.838 34.8394 198.396 36.7156 198.725L37.4205 198.848C38.6013 199.056 39.8082 199.28 40.9832 199.572C41.0257 199.179 41.2456 198.783 41.5585 198.551C45.0016 196 44.6519 190.849 45.0201 187.05L45.2932 184.229C45.7735 179.293 46.2816 174.357 47.0536 169.458C47.0948 169.197 47.4994 169.272 47.5011 169.519C47.5409 175.592 47.0826 181.637 46.8529 187.7L46.8173 188.695C46.6903 192.437 46.5908 196.322 44.2353 199.201C44.5647 199.008 45.01 199.008 45.2768 199.326C45.6047 199.716 45.794 200.154 45.7881 200.584C47.9166 199.692 50.0358 198.776 52.1447 197.841C58.9249 194.836 65.563 191.473 72.0254 187.835C72.7209 187.443 73.382 187.751 73.7259 188.267L73.7756 188.26C73.7839 188.259 73.7923 188.258 73.8009 188.258L73.8501 188.256C73.852 188.256 73.854 188.256 73.8556 188.256C74.7654 187.756 76.0047 188.112 76.7853 188.841C76.8083 188.863 76.828 188.887 76.8485 188.91C77.8368 188.466 78.7596 187.867 79.597 187.108C81.3109 185.554 82.7625 183.633 84.028 181.706C86.3585 178.157 88.338 174.211 91.4861 171.29C94.044 168.917 97.2151 167.439 100.542 166.512C100.528 166.415 100.565 166.311 100.632 166.242C100.803 166.067 100.925 166.006 101.146 166.113C101.163 166.121 101.174 166.133 101.181 166.146L101.506 165.591C101.683 165.29 101.865 164.986 101.928 164.907C102.306 164.431 102.695 163.959 103.089 163.497C103.758 162.714 104.521 161.942 105.404 161.399C107.337 160.211 109.369 160.883 111.356 161.533C112.557 161.925 113.754 162.33 114.953 162.729L115.076 162.769C115.97 163.056 117.016 163.308 117.416 164.255C117.574 164.63 117.599 165.019 117.525 165.397C126.014 163.237 135.444 164.229 143.728 166.764C144.046 166.862 144.364 167.123 144.431 167.467C145.38 172.337 145.803 177.331 145.373 182.283C145.003 186.559 144.056 190.748 142.271 194.662L142.17 194.883C140.493 198.51 137.835 202.982 133.776 204.119C131.325 204.805 128.614 204.401 126.115 204.275C123.685 204.152 121.202 204.135 118.796 203.753C116.653 203.412 114.775 202.451 113.45 200.708C112.308 199.204 111.706 197.386 111.213 195.578C110.988 195.65 110.763 195.727 110.543 195.813C109.612 196.177 108.823 196.764 108.11 197.455C106.604 198.914 105.435 200.686 103.859 202.078C102.433 203.339 100.807 204.319 99.0639 205.073C95.4509 206.635 91.5751 207.259 87.7534 208.086L87.4868 208.144C84.6098 208.776 81.6732 209.551 79.1337 211.05C79.0841 211.491 78.8832 211.906 78.5612 212.178C79.0091 212.599 79.1988 213.265 78.8052 213.89C77.7058 215.636 75.8121 216.629 74.112 217.745L74.0014 217.818C72.329 218.927 70.6421 220.014 68.9413 221.079C65.484 223.245 61.9543 225.291 58.3748 227.247C52.6175 230.394 46.7367 233.362 40.7494 236.054C41.1087 237.823 40.9774 239.646 41.2475 241.427L41.2889 241.681C41.4043 242.342 41.2485 242.894 40.7935 243.326L40.7454 243.37L40.7462 243.364L40.7035 243.404L40.6893 243.416L40.694 243.412C40.6416 243.46 40.5875 243.505 40.5323 243.543L40.462 243.588V243.588C40.0238 243.854 39.4596 243.851 39.011 243.616L38.9597 243.588L38.8735 243.539C38.2807 243.197 37.8719 242.352 38.1178 241.681C38.7223 240.031 38.9506 238.269 39.5088 236.608L39.066 236.806V236.806L38.4823 237.061C32.1701 239.791 25.1585 242.091 18.2808 240.229C15.242 239.407 12.4017 237.666 10.8812 234.83C9.385 232.039 9.17352 228.798 9.09408 225.693C8.99606 221.861 9.20141 217.971 9.70655 214.172C10.0456 211.621 10.4557 209.023 11.0882 206.499C10.7629 206.212 10.5237 205.8 10.4606 205.29C10.162 202.879 10.6845 200.374 11.0044 197.976C11.3168 195.634 11.662 193.297 12.0525 190.968C12.8407 186.264 13.7565 181.569 14.8228 176.92C16.7204 168.645 19.2263 160.518 22.2432 152.584L22.5074 151.893C25.2951 144.642 28.523 137.546 33.0176 131.176C35.1677 128.128 37.4405 125.365 40.4785 123.169C43.3247 121.111 46.5351 119.629 49.8482 118.497C53.1649 117.364 56.5739 116.604 60.0432 116.132C63.5665 115.652 67.2854 115.358 70.5721 113.912C70.1563 113.167 70.5132 112.16 71.2129 111.697C73.5677 110.141 75.7452 108.116 77.8558 106.245ZM153.237 173.924C153.336 173.774 153.57 173.869 153.527 174.047C152.382 178.74 151.307 183.444 150.604 188.227C149.337 196.861 149.57 205.607 149.674 214.305L149.679 214.754C149.732 219.439 149.806 224.124 149.961 228.807C150.039 231.174 150.194 233.564 150.11 235.932C150.064 237.217 149.722 238.432 149.601 239.701C149.494 240.811 149.589 241.937 149.642 243.049C149.677 243.788 148.587 243.756 148.513 243.049L148.418 242.134C148.295 240.976 148.143 239.825 147.764 238.717C147.307 237.384 147.089 236.075 146.93 234.675C146.688 232.53 146.58 230.364 146.487 228.205L146.423 226.711C146.032 217.685 146.046 208.617 146.678 199.601L146.724 198.957C147.351 190.435 148.437 181.226 153.237 173.924ZM128.824 120.21C128.525 120.087 128.63 119.635 128.961 119.714L129.564 119.857C133.978 120.915 138.312 122.061 142.432 124.029C146.555 125.999 150.046 128.939 152.819 132.554C158.211 139.582 160.451 148.123 162.22 156.655C164.186 166.137 165.975 175.653 167.958 185.131L168.326 186.897C170.161 195.725 171.893 204.558 173.17 213.49L173.261 214.138C174.548 223.324 175.322 232.827 173.918 242.037C173.64 243.859 170.609 243.405 170.728 241.605C171.07 236.401 171.315 231.224 171.078 226.009C170.841 220.792 170.352 215.598 169.623 210.427C169.01 206.075 168.095 201.777 167.286 197.46L167.159 196.778C166.481 193.106 165.782 189.438 165.085 185.77L164.043 180.277C162.482 172.053 160.89 163.821 159.091 155.649L158.984 155.168C157.224 147.305 154.628 139.069 149.348 132.825C143.989 126.489 136.318 123.298 128.824 120.21ZM109.352 203.609C109.481 203.321 109.932 203.353 110.071 203.609C110.614 204.611 110.674 205.89 110.777 207.022L110.787 207.138C110.918 208.519 111.034 209.905 111.104 211.29C111.239 213.919 111.303 216.544 111.295 219.177C111.286 221.874 111.232 224.569 111.086 227.263L111.047 227.984C110.914 230.325 110.692 232.936 109.58 234.983C109.176 235.727 108.077 235.508 107.842 234.756C107.076 232.292 107.469 229.371 107.666 226.848L107.819 224.879C107.97 222.91 108.114 220.941 108.229 218.969C108.385 216.272 108.515 213.573 108.639 210.875C108.68 209.998 108.723 209.122 108.769 208.245L108.84 206.931C108.901 205.831 108.896 204.625 109.352 203.609ZM23.1239 207.1L23.4634 206.772C24.5056 205.752 25.8226 204.18 27.3633 204.278C27.9777 204.317 28.3691 204.827 28.2418 205.432C27.9696 206.724 26.6515 207.395 25.7027 208.184C24.6633 209.048 23.6837 209.972 22.7059 210.905C21.8385 211.732 21.0043 212.582 20.1901 213.459L19.8857 213.79C19.5938 214.108 17.5156 215.989 17.7403 216.477L17.7525 216.499C17.8151 216.592 17.7109 216.72 17.6072 216.688C16.7097 216.404 16.7657 215.635 17.105 214.855C17.757 213.357 18.8987 211.971 19.8956 210.692C20.8899 209.415 21.9661 208.227 23.1239 207.1V207.1ZM112.604 169.532C111.91 167.891 109.354 167.926 107.902 168.024C104.248 168.271 100.293 169.196 97.041 170.905C93.6694 172.676 91.3984 175.515 89.3663 178.654L89.2712 178.802C87.2906 181.882 85.383 185.528 82.2816 187.646C80.702 188.725 78.8574 189.71 76.9408 190.136C76.8092 190.368 76.596 190.551 76.3165 190.618L76.1866 190.647C75.6407 190.768 74.7926 190.901 74.0601 190.822C74.065 191.18 74.0612 191.536 74.0703 191.875C74.0961 192.849 74.107 193.826 74.107 194.8C74.1075 196.841 73.9978 198.885 74.083 200.926C74.1584 202.73 74.4132 204.616 75.2794 206.229C75.9147 207.413 76.7532 208.196 77.7654 208.944C80.2554 207.426 83.0709 206.5 85.9285 205.805C89.3844 204.963 92.923 204.402 96.3003 203.261C97.9258 202.711 99.4885 201.993 100.904 201.016C102.407 199.98 103.555 198.577 104.736 197.205L104.921 196.992C106.126 195.609 107.441 194.286 109.144 193.537C110.611 192.891 112.544 192.776 113.827 191.776C114.498 191.254 114.554 190.495 114.624 189.718C113.803 189.835 112.933 189.647 112.115 189.551L111.691 189.501C110.916 189.409 110.16 189.308 109.398 189.111C109.256 189.075 109.256 188.861 109.398 188.824C110.299 188.592 111.191 188.493 112.115 188.384L112.332 188.357C113.167 188.248 114.045 188.082 114.865 188.266C115.012 187.707 115.224 187.172 115.522 186.637C115.94 185.885 116.731 185.033 116.838 184.155C116.87 183.893 116.809 183.583 116.685 183.352L116.643 183.273C116.591 183.179 116.529 183.085 116.439 183.027C116.429 183.039 116.408 183.052 116.362 183.066C115.732 183.265 115.181 182.956 114.89 182.48C113.65 182.634 112.297 182.582 111.135 182.634L109.96 182.691C108.704 182.748 107.391 182.773 106.211 182.52C106.046 182.484 105.996 182.21 106.161 182.139C107.612 181.519 109.372 181.321 110.925 181.082C111.793 180.949 112.666 180.847 113.536 180.73C114.116 180.652 114.73 180.523 115.331 180.492C116.836 178.618 116.025 175.661 113.93 174.854C113.167 175.19 112.481 174.995 111.648 174.923C110.816 174.852 109.982 174.803 109.147 174.807C107.473 174.814 105.699 175.255 104.041 175.065C103.772 175.034 103.521 174.675 103.789 174.456C105.058 173.42 106.877 173.083 108.487 172.862L108.821 172.817C109.361 172.746 110.018 172.643 110.699 172.582C110.853 172.281 111.129 172.054 111.544 171.997C111.668 171.98 111.792 171.971 111.916 171.96L111.914 171.948V171.948C112.926 171.899 112.882 170.188 112.604 169.532ZM43.2941 201.536C43.2762 201.563 43.2566 201.59 43.2358 201.615L43.2037 201.652L43.3701 201.585L43.2941 201.536V201.536ZM130.271 165.865C126.01 165.407 121.742 165.504 117.468 165.627C117.127 166.745 115.937 167.699 114.784 167.734C115.687 169.109 115.78 170.97 115.147 172.428C116.491 172.963 117.649 173.925 118.352 175.295C119.327 177.193 119.2 179.306 118.236 181.061C119.059 181.805 119.544 183.015 119.495 184.155C119.441 185.426 118.684 186.512 118.054 187.565C117.374 188.703 117.351 189.705 117.142 190.98C116.837 192.846 115.579 193.977 113.96 194.684L114.046 195.023C114.464 196.648 114.983 198.362 116.175 199.55C117.71 201.079 120.09 201.065 122.117 201.161L122.215 201.166C124.071 201.259 125.926 201.368 127.781 201.473L129.173 201.551C131.309 201.668 133.361 201.683 135.105 200.27C137.952 197.963 139.904 194.147 141.14 190.768C143.733 183.676 143.764 175.893 142.574 168.507C138.582 167.219 134.44 166.313 130.271 165.865ZM94.8333 177.632L94.8646 177.634C95.742 177.734 96.3448 178.445 96.5594 179.288C96.8712 180.513 96.7183 181.621 97.4685 182.727C98.2403 183.865 98.7148 184.775 98.8269 186.181C98.873 186.759 98.8519 187.336 98.9805 187.902L99.0738 188.298C99.1729 188.721 99.254 189.128 99.2047 189.582C99.1597 189.996 98.9581 190.319 98.543 190.452C97.1903 190.885 96.1457 189.887 95.7963 188.626C95.4944 187.537 95.8975 186.239 95.4716 185.216C95.2356 184.649 94.8004 184.175 94.5545 183.604C94.3109 183.038 94.1886 182.447 94.1495 181.832C94.0753 180.669 95.1038 179.271 94.53 178.217C94.4078 177.992 94.5462 177.625 94.8333 177.632ZM76.8644 165.627C77.7805 165.441 78.8197 165.014 79.7231 165.369C80.1874 165.551 80.4169 166.118 80.0245 166.512C79.3434 167.195 78.3534 167.233 77.4359 167.394L77.3552 167.408C76.2703 167.609 75.1836 167.8 74.0953 167.98C72.0479 168.319 69.9957 168.619 67.9362 168.874C65.821 169.136 63.6999 169.369 61.5758 169.545L60.7535 169.612C58.9593 169.756 57.0923 169.864 55.3318 169.589C55.076 169.549 55.1171 169.176 55.3318 169.111C57.2605 168.527 59.3761 168.37 61.37 168.123C63.4899 167.86 65.6062 167.582 67.7169 167.253C69.8243 166.923 71.929 166.57 74.0258 166.179C74.9736 166.003 75.9198 165.819 76.8644 165.627ZM109.918 163.752C109.114 163.468 108.23 163.046 107.359 163.187C105.857 163.43 104.52 164.894 103.331 165.859L103.928 165.742C106.983 165.155 111.028 164.522 113.592 166.465C113.599 166.454 113.604 166.443 113.611 166.432C113.818 166.117 114.058 165.872 114.32 165.603C114.345 165.579 114.369 165.555 114.393 165.53L114.534 165.38L114.211 165.268C113.519 165.023 112.7 164.707 112.57 164.661L112.561 164.658C111.679 164.359 110.796 164.064 109.918 163.752ZM84.8192 99.6974C84.6935 98.0799 87.2099 98.0932 87.3346 99.6974C87.6065 103.199 86.8187 106.668 85.123 109.739C85.1106 109.761 85.0968 109.781 85.0837 109.802C86.1443 110.354 87.2169 110.884 88.3134 111.357C89.716 111.963 91.145 112.514 92.5996 112.982C93.9153 113.406 95.5364 113.573 96.6426 114.454C98.9752 116.313 98.0989 120.169 97.6501 122.669L97.5801 123.063C97.3567 124.349 97.1951 125.669 97.7372 126.904C98.3161 128.222 99.4867 129.2 100.531 130.144L100.742 130.335C101.667 131.178 102.724 132.203 103.403 133.346C104.022 132.065 104.867 131.018 105.759 129.839C106.396 128.998 105.943 128.72 105.485 127.899C105.045 127.108 104.83 126.265 104.968 125.362C105.222 123.696 106.553 122.493 107.878 121.588C109.443 120.521 111.189 119.73 112.807 118.737C116.131 116.696 119.368 114.363 122.285 111.772C122.365 111.701 122.505 111.795 122.44 111.892C120.137 115.398 117.435 118.427 114.115 120.999C112.769 122.041 111.355 122.906 109.931 123.815L109.522 124.078C108.95 124.448 108.237 124.944 107.979 125.574C107.719 126.209 108.273 126.687 108.572 127.213C109.52 128.881 109.062 130.438 107.938 131.853L107.886 131.918C106.769 133.295 105.923 134.575 105.518 136.334C104.648 140.113 105.86 144.048 107.128 147.595L107.178 147.735C107.864 149.647 108.593 151.545 109.189 153.487L109.353 154.024C109.893 155.812 110.335 157.574 109.73 159.412C109.524 160.037 108.672 160.185 108.318 159.596C107.069 157.522 106.758 155.026 105.976 152.746C105.213 150.523 104.337 148.341 103.6 146.109C102.652 143.236 102.017 140.143 102.362 137.129C102.351 137.111 102.34 137.095 102.332 137.076L102.09 136.548C101.432 135.117 100.796 133.868 99.5984 132.727C98.3494 131.537 96.9937 130.484 96.0109 129.044C93.8761 125.916 95.1964 122.436 95.4543 119.016L95.4838 118.596C95.5306 117.886 95.5563 116.921 95.0925 116.429C94.5709 115.876 93.3477 115.735 92.6556 115.49C90.867 114.857 89.1044 114.119 87.4256 113.233C85.8276 112.39 84.2796 111.458 82.8384 110.367L82.1079 109.817C80.9553 108.947 79.7601 107.997 78.9876 106.812C78.8984 106.676 79.0499 106.456 79.2113 106.521C80.5009 107.045 81.6792 107.878 82.8857 108.602C82.9045 108.558 82.9263 108.513 82.951 108.469C84.4438 105.766 85.0577 102.771 84.8192 99.6974ZM126.013 118.215C126.527 116.805 128.868 116.914 128.775 118.589C128.703 119.876 128.157 121.037 127.658 122.205L127.605 122.33C127.089 123.547 126.494 124.69 125.782 125.806C124.42 127.938 122.826 129.917 121.123 131.785C119.579 133.478 117.552 134.514 115.217 134.342C114.233 134.269 113.24 134.019 112.378 133.527C111.354 132.943 110.242 131.189 108.936 131.614C108.809 131.655 108.691 131.47 108.801 131.382C110.309 130.167 112.021 132.051 113.465 132.505C115.641 133.189 117.873 132.433 119.274 130.673C120.736 128.836 122.082 126.779 123.311 124.778C123.935 123.762 124.504 122.708 124.996 121.622C125.492 120.525 125.605 119.333 126.013 118.215ZM122.506 109.541C122.442 109.346 122.684 109.161 122.855 109.272C123.846 109.917 124.705 110.77 125.619 111.518C126.633 112.347 127.655 113.159 128.692 113.959C130.205 115.126 128.451 117.273 127.119 115.999C125.297 114.256 123.302 111.977 122.506 109.541ZM117.064 102.718C117.467 101.165 119.848 101.806 119.501 103.341L119.49 103.387C118.833 105.923 119.769 108.504 121.767 110.148L121.841 110.208C123.105 111.22 121.314 112.989 120.062 111.987C117.329 109.799 116.192 106.082 117.064 102.718Z" fill="black"/>
<path fill-rule="evenodd" clip-rule="evenodd" d="M102.563 15.9062C114.533 15.9062 126.915 25.2082 131.303 31.144C134.992 36.1346 136.978 58.7016 136.978 73.9526C136.978 77.1423 138.734 83.155 138.222 86.2061C136.344 97.3863 128.164 106.763 111.973 106.763C95.7821 106.763 84.1735 100.329 72.1393 83.055C66.3002 83.055 63.4704 78.5659 63.4293 71.4817C63.3882 64.3975 69.0655 61.8201 69.0655 61.8201C69.0655 61.8201 67.0413 33.8628 72.1393 26.5841C77.2373 19.3054 90.5921 15.9062 102.563 15.9062Z" fill="#FFD1B0"/>
<path fill-rule="evenodd" clip-rule="evenodd" d="M97.5253 11.9532C105.083 11.186 112.489 11.8306 119.938 13.1645C120.507 13.2678 120.83 13.6421 120.95 14.0921C124.458 14.2527 127.97 14.5108 131.474 14.7031C132.745 14.7728 133.466 16.0323 132.886 17.1695C132.771 17.3955 132.65 17.6153 132.528 17.8351L132.681 17.7843C133.735 17.4453 134.874 17.2782 135.901 17.8163C137.208 18.501 137.721 20.012 137.432 21.4027C137.358 21.7577 137.234 22.098 137.092 22.4301C137.379 22.411 137.668 22.4174 137.955 22.4554C139.481 22.6583 140.615 23.8313 140.695 25.3932C140.813 27.7516 139.298 30.1443 137.512 31.8328C137.771 32.3677 137.87 32.9976 137.763 33.6358C137.548 34.8976 136.62 35.6532 135.546 36.146C135.994 37.5729 136.206 39.0646 136.081 40.5891C136.039 41.098 135.595 41.5184 135.126 41.6215C136.873 46.4432 137.757 51.6201 138.393 56.6644C138.846 60.2533 139.07 63.8632 139.097 67.4792C139.11 69.1117 139.084 70.7461 139.015 72.3789L138.988 72.9912C138.903 74.7561 138.899 76.6095 138.583 78.3554C139.662 80.1961 140.097 82.481 140.28 84.5436C140.508 87.0967 140.147 89.7301 139.344 92.1587C136.312 101.335 127.163 107.126 117.973 108.631C109.466 110.024 99.623 108.149 94.6518 100.403C94.5738 100.281 94.7404 100.179 94.8374 100.26C98.3939 103.159 102.519 104.453 107.002 105.083C114.752 106.169 123.463 104.326 129.682 99.4398C132.667 97.0938 134.82 93.6783 135.766 90.0028C136.249 88.1241 136.416 86.1646 136.226 84.231C136.032 82.2697 135.165 80.5958 134.619 78.7422C134.436 78.1164 134.63 77.5352 135.012 77.1212C135.119 75.6161 135.372 74.0986 135.469 72.5983C135.576 70.8925 135.642 69.1869 135.665 67.4792C135.709 63.9369 135.562 60.3883 135.265 56.8611C134.721 50.402 133.277 44.0998 132.429 37.6957C132.115 37.9778 131.665 38.0937 131.194 37.8472L131.145 37.8204L130.888 37.6726C130.873 37.6726 130.856 37.6747 130.841 37.6766C129.081 37.8481 127.255 37.6029 125.569 37.0764C123.804 36.5271 122.166 35.6817 120.703 34.5552C120.425 35.9689 120.309 37.3977 120.307 38.8391C120.305 39.7394 119.354 40.2067 118.599 39.8221C115.253 38.1184 112.057 36.1551 109.024 33.9486C108.669 35.7684 108.315 37.5879 107.959 39.4097C107.822 40.1116 106.93 40.3948 106.359 40.0609C104.086 38.7355 102.123 37.0005 100.525 34.9375C100.206 35.5492 99.8863 36.1608 99.5641 36.771L99.0791 37.6851C98.6005 38.5833 97.9596 39.5769 96.9118 39.8641C95.8029 40.1685 94.8772 39.448 94.5043 38.4417C94.3904 38.1291 94.285 37.8077 94.188 37.4843C93.2433 39.6466 92.1768 41.7601 90.9709 43.7764C89.162 46.8006 86.9903 49.4954 84.8254 52.2598C84.1677 53.0991 83.0419 52.2979 82.9512 51.4823C82.8985 51.0025 82.8542 50.5206 82.8161 50.0406C81.5545 52.5929 80.2381 55.1213 78.8039 57.5763L79.0093 58.3831V58.3831C79.601 60.7667 80.0925 63.1672 80.6267 65.5635C80.7991 66.3366 80.3893 67.442 79.4883 67.5736C78.4118 67.7309 77.3933 68.2823 76.2907 67.9029C75.0884 67.4891 74.8508 66.4473 74.2833 65.4599C74.1701 65.2631 74.0383 65.0824 73.8966 64.9108L73.8606 64.9577V64.9577C73.772 65.0742 73.5612 64.9474 73.6139 64.8142L73.6757 64.6604V64.6604C73.1881 64.1415 72.6045 63.7087 72.068 63.2431C70.7929 63.0277 69.3587 63.2636 68.4802 63.7828C66.4795 64.9662 65.5605 67.4052 65.5415 69.6478C65.5184 72.2728 66.3298 75.2232 67.7001 77.4678C68.3033 78.4548 69.1297 79.3465 70.2216 79.7842C71.3054 80.2193 72.4797 80.0843 73.5823 80.4941C74.3117 80.767 74.7608 81.5785 74.3202 82.3138C74.2906 82.3648 74.2569 82.4111 74.2251 82.4599L74.553 82.8962C74.7786 83.1984 75.0138 83.522 75.233 83.8588C75.7938 84.5057 76.3841 85.1292 76.9554 85.7654C78.0114 86.9382 79.0363 88.1431 80.0754 89.3328C81.0559 90.4552 82.0932 91.5097 83.162 92.5474C84.1719 93.5304 85.4326 94.3566 86.3602 95.4051C87.2623 96.428 87.5071 98.2137 86.0227 98.8057C84.3805 99.4622 82.9268 97.9236 81.8213 96.8978L81.7748 96.8547C79.7484 94.9853 77.9185 92.849 76.4653 90.4969C75.0258 91.4792 72.9437 91.5731 71.5103 90.5909C70.756 90.0742 70.1773 89.2058 69.8961 88.261C69.6309 88.3206 69.3658 88.3555 69.1074 88.3515C68.9744 88.4288 68.8409 88.5041 68.706 88.5742C67.6369 89.132 66.3237 88.8828 65.8346 87.6969C65.3892 86.6204 65.8482 85.3978 66.2493 84.3605L66.3321 84.1462C66.5598 83.5547 66.8107 82.91 67.1227 82.3035C66.2541 81.6483 65.5118 80.8344 64.8838 79.9089C62.7734 76.7915 61.7193 72.2324 62.1853 68.5129C62.4656 66.2683 63.5174 63.9435 65.2399 62.43L65.1768 62.2651V62.2651C64.694 61.0374 64.2553 59.805 63.9709 58.5075C63.6378 56.99 63.4753 55.4176 63.3279 53.8726C63.0159 50.6094 63.1002 47.2722 63.5155 44.0216C64.2956 37.903 66.2731 31.8964 69.7833 26.805C68.788 25.6107 67.9997 24.2052 68.4106 22.5886C68.5985 21.8465 69.0262 21.1429 69.6715 20.7179C70.0276 20.4835 70.4516 20.4476 70.8079 20.2531L70.915 20.194C71.0715 20.1025 70.9518 20.1122 70.8585 19.6867C70.4895 17.9873 70.7952 16.3453 72.661 15.781C74.4171 15.2505 76.0784 16.377 77.1178 17.7191C79.8374 15.785 83.4213 14.7728 86.5731 13.9126C90.1571 12.9381 93.8336 12.3296 97.5253 11.9532ZM68.1495 68.9544C68.1366 67.5701 69.4458 66.7162 70.7342 66.9426C71.5992 67.0935 72.3209 67.6111 72.9985 68.1461L73.3289 68.4081C74.1541 69.0576 75.1015 69.7577 75.5934 70.6772C76.3144 72.034 74.7904 73.8599 73.3673 72.9088C72.3912 72.253 71.7654 71.2022 71.1251 70.226L71.0588 70.1253C70.7679 69.6878 70.5128 69.2228 70.1141 68.872L70.028 68.7964C69.897 68.6844 69.7563 68.5823 69.5871 68.5338C69.2607 68.4398 68.656 68.5715 68.5121 68.9611L68.4992 69.0009C68.4465 69.1977 68.1516 69.1552 68.1495 68.9544Z" fill="black"/>
<path fill-rule="evenodd" clip-rule="evenodd" d="M120.396 86.0942C120.721 85.5305 121.467 85.0083 122.15 85.0884C125.209 85.4472 125.203 89.1573 124.022 91.3232C122.975 93.2437 120.807 94.3711 118.638 94.2064C116.359 94.0333 114.417 92.693 113.563 90.5602C112.998 89.1495 112.737 86.545 114.24 85.5971C114.268 85.5793 114.314 85.5838 114.336 85.6093C115.057 86.4482 115.085 87.7076 115.716 88.6416C116.303 89.5102 117.215 90.2276 118.283 90.3383C119.081 90.4212 119.888 90.1333 120.2 89.4168C120.369 89.0293 120.35 88.8189 120.286 88.5521L120.228 88.3204C120.029 87.5085 119.939 86.8903 120.396 86.0942ZM121.214 69.8234C122.81 70.7935 125.24 73.0556 123.524 75.4606C121.504 77.5812 118.595 75.1498 117.162 74.0502C115.833 73.198 114.34 75.3898 115.573 76.3849C125.93 84.0559 130.133 70.0771 122.021 68.6828C121.128 68.5292 120.796 69.5233 121.214 69.8234ZM104.367 63.1713C105.346 61.7015 107.582 61.918 108.121 63.662C108.413 64.6068 108.01 65.456 108.03 66.3994C108.048 67.1964 107.996 68.0845 107.752 68.8564C107.195 70.6165 105.612 71.8597 103.74 71.8081C101.874 71.7567 100.231 70.5753 99.4494 68.9113C98.6652 67.241 98.8313 65.5124 99.4038 63.814C99.4313 63.7324 99.5382 63.6929 99.6026 63.7616C100.279 64.481 100.775 65.2406 101.287 66.0463L101.813 66.872C102.214 67.4938 102.798 68.2882 103.547 68.2383L103.66 68.2272C103.868 68.2093 103.836 68.2506 103.997 67.9666C104.071 67.8351 104.058 67.5908 104.094 67.4357L104.106 67.3833V67.3833L104.099 67.355C104.084 67.2799 104.068 67.1383 104.055 66.8927L104.052 66.8384C103.998 65.6893 103.673 64.2126 104.367 63.1713ZM129.189 64.1497C129.014 62.27 131.655 61.8525 132.534 63.2434C132.992 63.9688 133.125 64.8799 133.226 65.7432L133.274 66.1529C133.378 67.0395 133.419 67.9618 133.034 68.7889C132.428 70.0914 131.111 70.78 129.689 70.6709C128.332 70.5665 127.093 69.7792 126.441 68.5841C125.858 67.5176 125.28 65.4354 125.987 64.323C126.029 64.2556 126.115 64.2469 126.173 64.2989C126.841 64.8922 126.95 65.9743 127.347 66.7472C127.757 67.5444 128.378 68.3213 129.32 68.4424C130.221 68.5583 130.565 68.066 130.335 67.2069C130.039 66.0977 129.301 65.3432 129.189 64.1497ZM105.081 51.9958L105.513 51.8302C106.993 51.2709 109.025 50.6243 110.228 51.8284C110.971 52.5708 111.112 53.6646 110.582 54.5706C109.94 55.6682 108.789 55.6952 107.676 55.8569C106.412 56.0408 105.125 56.3904 103.948 56.8887C102.621 57.4503 101.39 58.1503 100.184 58.9321C99.0376 59.675 97.8952 60.8892 96.523 61.1181C96.4671 61.1274 96.4035 61.1033 96.3889 61.0418C96.0773 59.6997 96.9433 58.379 97.7161 57.3319C98.6511 56.0643 99.7842 55.0238 101.051 54.0909C102.273 53.1903 103.669 52.5396 105.081 51.9958ZM131.968 56.7673L132.1 56.7442C132.998 56.5947 133.811 56.6291 134.487 57.3403C135.004 57.8828 135.203 58.586 134.957 59.3033C134.73 59.9651 134.222 60.6374 133.485 60.776C130.996 61.2444 128.24 61.167 125.739 60.8124C124.594 60.65 123.44 60.4514 122.325 60.1382L121.813 59.9895C120.882 59.7236 119.817 59.4458 119.141 58.7612C118.898 58.5152 119.038 58.1631 119.329 58.0492C120.508 57.5872 122.125 57.833 123.382 57.7968C124.845 57.755 126.31 57.6453 127.766 57.4942C129.188 57.3462 130.565 57.0248 131.968 56.7673Z" fill="black"/>
</g>
<defs>
<filter id="filter0_d_20_20501" x="0" y="0" width="180.817" height="259.929" filterUnits="userSpaceOnUse" color-interpolation-filters="sRGB">
<feFlood flood-opacity="0" result="BackgroundImageFix"/>
<feColorMatrix in="SourceAlpha" type="matrix" values="0 0 0 0 0 0 0 0 0 0 0 0 0 0 0 0 0 0 127 0" result="hardAlpha"/>
<feOffset dy="4"/>
<feGaussianBlur stdDeviation="2"/>
<feComposite in2="hardAlpha" operator="out"/>
<feColorMatrix type="matrix" values="0 0 0 0 0 0 0 0 0 0 0 0 0 0 0 0 0 0 0.25 0"/>
<feBlend mode="normal" in2="BackgroundImageFix" result="effect1_dropShadow_20_20501"/>
<feBlend mode="normal" in="SourceGraphic" in2="effect1_dropShadow_20_20501" result="shape"/>
</filter>
</defs>
</svg>
