<svg width="181" height="260" viewBox="0 0 181 260" fill="none" xmlns="http://www.w3.org/2000/svg">
<g filter="url(#filter0_d_20_20682)">
<path fill-rule="evenodd" clip-rule="evenodd" d="M165.441 179.671C165.441 177.961 163.075 174.926 163.071 173.376C165.06 173.021 166.723 170.325 166.282 168.636C165.506 168.042 163.471 166.874 162.629 166.328C157.501 166.484 159.45 159.347 158.87 155.719C158.285 152.169 157.851 148.458 156.996 144.888C155.477 142.032 154.764 138.83 153.312 135.989C152.664 135.047 151.616 134.183 151.302 133.089C148.126 129.619 143.754 127.539 140.155 124.599C141.552 124.152 141.459 122.268 141.369 121.058C141.694 119.48 141.346 117.5 139.907 116.61C139.421 115.025 137.295 114.472 136.052 115.482C135.235 111.82 132.041 109.599 128.694 108.241C128.697 108.23 128.7 108.219 128.703 108.208C125.328 106.868 121.283 106.2 117.916 106.954C119.693 87.1399 104.523 86.4126 96.8247 88.0777C92.8868 88.9293 86.9782 91.5809 85.636 95.2671C84.8782 97.3481 82.7036 104.06 82.394 106.2C76.515 102.844 69.6996 98.4191 64.6005 105.176C63.5794 106.353 62.4495 107.228 60.9217 107.632C56.1512 108.87 49.8195 108.912 47.1081 113.777C45.4875 116.791 46.945 118.776 46.5096 121.791C25.0357 136.877 7.09046 192.452 11.1198 218.308C12.0891 227.56 16.8214 243.938 28.5022 241.896C34.4599 248.415 134.458 248.415 144.769 241.896C153.257 244.117 161.881 240.679 165.441 232.546C169.961 221.395 165.171 209.352 164.322 197.913C163.806 195.025 163.039 192.732 162.629 189.776C162.458 188.543 163.048 186.494 162.629 185.358C162.827 184.619 165.441 181.382 165.441 179.671Z" fill="#D08B5B"/>
<path fill-rule="evenodd" clip-rule="evenodd" d="M80.9556 104.837L81.3083 104.988L82.5192 105.513L82.2654 106.095C81.5509 107.735 80.7479 109.311 79.8677 110.796L79.7018 111.073L79.4472 111.495L79.4601 111.509C79.5699 111.631 79.6818 111.757 79.7962 111.887L93.1229 126.212C98.7443 132.249 101.712 135.426 102.026 135.742C103.337 137.059 104.625 137.223 105.804 136.112L105.937 135.986L106.155 135.776L106.304 135.629C107.074 134.869 107.839 134.028 108.939 132.759L121.248 115.292L120.47 113.554C119.043 110.345 118.264 108.469 118.133 107.925L118.074 107.659L117.95 107.085L118.512 106.918C120.539 106.314 122.782 106.472 125.327 107.225L125.474 107.269L125.898 107.4C127.622 107.937 128.599 108.297 129.599 108.831C130.959 109.558 131.964 110.461 132.591 111.637C133.312 112.991 133.864 113.672 134.793 114.222L134.866 114.264L134.956 114.315L135.051 114.366C135.133 114.41 135.225 114.456 135.334 114.51L135.725 114.699C136.956 115.289 137.522 115.668 138.007 116.413C138.542 117.237 138.633 118.007 138.467 119.122L138.453 119.219L138.427 119.376L138.326 119.956L138.302 120.103C138.237 120.517 138.226 120.882 138.273 121.189L138.285 121.258L138.554 122.693L138.019 122.353L139.5 123.561C141.572 125.258 142.808 126.311 144.099 127.498L144.456 127.829L144.526 127.894C146.853 130.065 148.743 132.159 150.325 134.394C152.041 136.817 153.495 139.467 154.669 142.29L154.802 142.613L154.813 142.656C156.571 149.55 157.984 156.534 159.047 163.586L159.149 164.268L159.665 167.768L157.966 164.666C157.702 164.183 156.97 163.704 156.056 163.348L155.97 163.315L155.908 163.291L155.777 163.245C154.775 162.896 153.765 162.863 152.818 163.157L152.72 163.188L152.433 163.285L152.178 163.121C151.707 162.82 151.179 162.566 150.6 162.357L150.454 162.305L149.843 162.096L150.064 161.488C150.232 161.029 149.925 160.128 149.482 159.741C148.792 159.142 147.8 158.974 146.26 159.088L146.051 159.105L145.886 159.12L145.638 159.144L144.856 159.228L144.856 159.232C144.847 159.367 144.841 159.491 144.838 159.608L144.837 159.695L144.837 159.779C144.84 160.07 144.865 160.339 144.914 160.59L144.936 160.696L145.112 161.483L144.306 161.469L143.955 161.464C142.778 161.449 141.542 161.468 140.087 161.516L138.651 161.569L134.988 161.724L131.774 161.837L130.816 161.869L130.771 161.263C130.71 160.463 130.027 159.932 128.816 159.696L128.738 159.681L127.473 159.452L128.512 158.509L128.596 158.43L128.683 158.345C129.518 157.513 129.799 156.75 129.455 156.014C129.052 155.15 127.811 154.898 126.671 155.367L126.592 155.4L126.511 155.436C126.297 155.535 126.084 155.66 125.745 155.879L125.311 156.161L125.153 156.262C124.778 156.499 124.529 156.633 124.215 156.763C123.383 157.107 122.607 157.131 121.333 156.972L121.219 156.957L120.949 156.921L120.259 156.825L120.088 156.803L119.915 156.781C118.613 156.626 117.788 156.71 117.092 157.155C116.647 157.439 116.395 157.803 116.006 158.654L115.821 159.064L115.74 159.24C115.271 160.237 114.916 160.715 114.217 161.13C113.771 161.396 113.348 161.555 112.601 161.772L112.069 161.925L111.881 161.982C111.767 162.018 111.672 162.05 111.572 162.085C110.759 162.375 110.023 162.79 109.332 163.347L109.224 163.435L109.108 163.532C108.435 164.1 107.86 164.715 106.878 165.87L106.162 166.714L105.908 167.01L105.698 167.251C105.675 167.277 105.653 167.302 105.631 167.327L105.431 167.55C103.873 169.26 102.314 170.838 100.727 172.3L100.394 172.605L100.05 172.914L99.7681 173.164C98.8447 173.978 97.8476 174.801 96.2986 176.045L94.3786 177.584L93.7747 178.071C91.9605 179.541 90.8554 180.489 89.7294 181.56L89.4501 181.828L89.4303 181.942C89.4196 182.007 89.4077 182.08 89.3948 182.163C89.3948 182.163 88.2957 188.947 89.2936 194.51C90.2915 200.073 90.6451 197.812 91.6551 199.177L91.8891 199.491C92.4428 200.228 92.8699 200.75 93.333 201.234L93.88 201.799L94.5092 202.309L94.9065 202.55C95.1936 202.723 95.4799 202.859 95.7668 202.957C96.1626 203.093 96.6914 202.825 96.9513 202.352L96.9756 202.306L97.145 201.966L97.5245 201.955C97.6135 201.953 97.7041 201.939 97.7927 201.914C98.6909 201.667 99.1378 200.597 98.6987 199.766L98.6743 199.722L98.4468 199.317L98.3302 199.114C98.1627 198.827 98.0078 198.584 97.8511 198.371L97.7923 198.292L96.9188 197.142L99.1175 197.348L99.2973 197.365L99.5444 197.392L100.336 197.482C101.16 197.574 101.956 197.658 102.732 197.734L103.393 197.797L104.549 197.903L104.787 197.927L105.3 197.981L106.53 198.114L106.969 198.159L107.213 198.183C107.448 198.205 107.658 198.223 107.87 198.239L108.102 198.255C109.874 198.376 111.256 198.296 112.512 197.942C114.553 197.364 116.606 196.171 118.829 194.406C121.1 192.602 122.743 190.903 123.732 189.14C123.75 189.106 123.753 189.08 123.74 189.048L123.731 189.028L123.355 188.339L124.108 188.117C124.709 187.939 125.22 187.713 125.649 187.423C126.969 186.534 127.411 184.756 126.454 183.826L126.411 183.786L126.353 183.733L125.544 182.521L126.714 182.348C127.105 182.288 127.449 182.22 127.77 182.136C129.907 181.58 131.006 179.875 130.059 178.234L130.028 178.181L129.646 177.549L130.328 177.267C130.474 177.206 130.625 177.149 130.793 177.091L130.895 177.055L130.998 177.02L131.381 176.893C132.192 176.626 132.986 176.422 133.778 176.283C134.403 176.176 135.029 176.106 135.656 176.075L135.891 176.065L136.153 176.056L136.155 176.048L136.308 176.05L136.844 176.032L136.833 176.059C137.629 176.079 138.428 176.157 139.227 176.291L139.416 176.324C139.694 176.372 139.958 176.423 140.24 176.48L141.46 176.739C141.682 176.785 141.875 176.823 142.067 176.857L142.253 176.889L144.218 177.222L142.422 178.086L142.376 178.109L142.33 178.133L142.132 178.243C140.911 178.932 140.189 179.719 140.019 180.69C139.755 182.205 140.616 182.902 142.646 183.138L142.816 183.156L142.995 183.173L143.112 183.182L148.196 183.526L143.382 184.45C142.217 184.674 141.039 184.977 139.849 185.354C139.757 185.383 139.657 185.419 139.549 185.462L139.466 185.496L138.977 185.698L138.507 186.038C137.683 186.649 137.454 187.256 137.865 187.858L137.893 187.898L138.148 188.247L137.916 188.612C137.251 189.66 137.338 190.995 138.133 192.08C138.797 192.985 139.87 193.562 141.334 193.892L141.448 193.917L141.769 193.986L142.239 194.059L142.579 194.106L142.84 194.137L143.016 194.155L143.287 194.18L144.026 194.242C145.076 194.332 145.615 194.404 146.262 194.566C147.131 194.783 147.896 195.135 148.913 195.737L149.032 195.808L149.283 195.959L149.769 196.258L150.239 196.551L150.398 196.648L150.594 196.767C152.043 197.632 152.998 197.957 154.003 197.805C154.641 197.709 155.177 197.475 155.652 197.104L155.727 197.044L156.456 196.444L156.434 196.322L156.593 196.104C156.897 195.686 158.191 193.248 158.192 193.247C159.027 191.78 159.832 190.767 160.849 190.096L160.937 190.04L161.136 189.917L161.365 189.869L161.48 189.887C161.815 189.939 161.914 190.088 162.008 190.34C162.033 190.404 162.052 190.475 162.071 190.561L162.088 190.646L162.106 190.744L162.134 190.912L162.163 191.11L162.197 191.353L162.232 191.634C162.26 191.861 162.291 192.124 162.326 192.434L162.709 195.966L162.814 196.904L162.911 197.74C162.919 197.808 162.927 197.876 162.935 197.943L163.018 198.62L163.109 199.329C163.341 201.115 163.571 202.551 163.81 203.641L163.853 203.837L163.883 203.964L163.959 204.29C165.327 210.147 166.02 214.984 166.054 219.829C166.086 225.038 164.95 229.687 162.487 233.519C160.139 237.175 156.712 239.829 152.85 240.744C150.815 241.225 148.796 241.12 147.168 240.31C146.871 240.162 146.66 240.011 146.275 239.689L146.147 239.581C145.639 239.15 145.414 239 145.144 238.937C145.11 238.929 145.078 238.923 145.046 238.919L145 238.914L144.425 238.87L144.414 238.293C144.393 237.063 143.806 236.582 143.861 238.501C143.861 238.501 143.967 241.267 143.996 241.616L144.016 241.845L144.024 241.925L143.684 243.112C128.852 248.779 42.8683 248.877 29.6021 243.334L29.2225 243.164L26.8767 242.038C26.8767 242.038 31.5776 240.943 28.3634 241.349C24.9154 241.785 20.9013 239.671 18.7257 236.112L17.9326 234.803L17.6898 234.397L17.5553 234.168C17.2319 233.615 17.0016 233.191 16.7577 232.704C15.7739 230.739 14.957 228.624 14.2853 226.349C13.0354 222.116 12.3806 217.53 12.1852 212.343C11.8314 202.962 12.7992 193.06 14.9364 182.743C17.0092 172.736 20.1504 163.009 24.295 153.812C26.3668 149.214 28.6505 144.817 31.1542 140.625L31.4233 140.176L31.7163 139.692L32.0171 139.198L32.3194 138.706L32.5951 138.262L32.8728 137.818L33.153 137.376C35.7107 133.355 37.9847 130.388 40.6132 127.828C42.949 125.553 45.4097 123.245 47.9954 120.904L47.9398 119.924L47.9376 119.906C47.8828 119.584 46.9093 116.828 47.8929 114.682L48.005 114.44C48.895 112.556 49.0245 113.04 49.8761 112.446L49.911 112.421C51.7785 111.083 54.1583 110.166 56.98 109.554C57.7037 109.397 58.3849 109.327 59.3445 109.289L59.4771 109.284L59.651 109.278L60.3973 109.255C61.8033 109.21 62.8574 108.714 63.6703 107.687L63.7306 107.61L63.7914 107.53L63.8485 107.451C64.0469 107.174 64.2367 106.857 64.5427 106.313L64.7524 105.941L64.8531 105.765L64.9564 105.588C65.3073 104.993 65.5564 104.642 65.9086 104.259C66.9723 103.102 68.6227 102.423 70.3627 102.309C73.4482 102.108 76.4859 102.936 80.9556 104.837ZM121.449 164.367L121.198 165.604C121.174 165.721 121.161 165.836 121.159 165.948L121.16 166.031L121.178 166.595L120.619 166.678C120.168 166.745 119.72 166.815 119.276 166.888L118.834 166.961L114.666 167.669L118.477 165.753L118.554 165.716L118.575 165.705L118.722 165.635L119.18 165.422L120.307 164.904L121.449 164.367Z" fill="#DA0037"/>
<path fill-rule="evenodd" clip-rule="evenodd" d="M118.173 100.55C118.409 101.562 118.193 102.702 118.233 103.741C118.27 104.733 118.387 105.719 118.56 106.697C120.373 105.743 122.516 105.62 124.582 105.928C127.254 106.325 130.347 107.204 132.442 108.99C132.959 109.432 133.388 109.954 133.746 110.53C134.177 111.221 134.452 112.002 135.134 112.497C136.19 113.263 137.499 113.56 138.514 114.409C139.549 115.274 140.192 116.568 140.328 117.904C140.4 118.614 140.283 119.279 140.148 119.972C140.027 120.596 140.087 120.852 140.251 121.452C140.38 121.923 140.134 122.458 139.733 122.718C140.592 123.309 141.44 123.917 142.274 124.55C147.128 128.236 151.234 132.831 154.079 138.237L154.148 138.372L154.228 138.533C154.921 139.958 156.736 144.125 156.961 145.062C157.122 145.552 157.279 146.043 157.424 146.537C157.807 147.847 158.132 149.172 158.401 150.509L158.473 150.874C158.692 151.997 159.068 153.326 159.008 154.523C159.638 157.79 160.196 161.071 160.673 164.366C160.735 164.797 160.564 165.148 160.297 165.38C160.934 165.483 161.568 165.609 162.194 165.736L162.558 165.812L162.74 165.853C164.045 166.147 165.332 166.576 166.187 167.672C167.108 168.858 167.127 170.382 166.202 171.576C165.416 172.59 164.269 173.072 163.071 173.376C162.834 173.436 162.595 173.491 162.357 173.539C162.196 173.573 162.091 173.353 162.243 173.269L162.497 173.128L162.844 172.938C163.747 172.44 164.684 171.878 165.183 170.98C165.862 169.76 165.325 168.631 164.161 168.012C163.186 167.493 161.981 167.36 160.899 167.183L160.452 167.109C159.32 166.929 158.166 166.811 157.024 166.941C156.025 167.055 155.013 167.395 154.206 168.006L154.131 168.065L154.054 168.13C153.346 168.743 152.328 170.122 153.663 170.519C154.684 170.821 155.927 170.746 156.999 170.804L157.138 170.813C158.036 170.874 158.974 170.874 159.883 170.982C160.208 171.02 160.529 171.072 160.844 171.147C161.746 171.36 161.436 172.561 160.641 172.645C160.447 172.666 160.248 172.677 160.05 172.681C159.53 173.072 158.812 173.25 158.197 173.492C157.61 173.725 157.02 173.956 156.427 174.182C156.938 174.205 157.449 174.247 157.958 174.311C158.123 174.329 158.125 174.552 157.958 174.568C156.733 174.693 155.507 174.828 154.286 174.999C152.396 175.262 150.517 175.613 148.681 176.147C147.34 176.54 146.014 177.007 144.729 177.552L144.34 177.719L144.179 177.79C143.012 178.295 141.503 178.887 140.833 180.002C140.482 180.583 140.328 181.481 140.822 182.038C141.351 182.636 142.458 182.568 143.199 182.597L143.258 182.6C144.826 182.676 146.395 182.686 147.965 182.631C151.254 182.515 154.546 182.156 157.777 181.524C158.372 181.408 158.63 182.302 158.03 182.441C154.22 183.327 150.368 183.813 146.458 183.835L146.03 183.836C144.507 184.127 143.013 184.562 141.532 185.052L141.236 185.151C140.362 185.446 138.868 185.74 138.352 186.609C138.01 187.186 138.131 187.581 138.469 187.85C139.064 188.321 140.332 188.41 140.949 188.433C143.421 188.526 145.895 188.543 148.369 188.49C149.605 188.462 150.841 188.418 152.077 188.355C153.285 188.291 154.576 188.112 155.78 188.228C156.298 188.279 156.471 189.039 155.909 189.181C154.424 189.558 152.758 189.525 151.224 189.573L151.047 189.579C149.4 189.638 147.75 189.663 146.102 189.659C144.687 189.653 143.273 189.625 141.86 189.573L140.611 189.523L140.39 189.513C139.724 189.477 139.044 189.4 138.454 189.126C137.909 190.039 138.316 191.263 139.02 191.986C139.69 192.675 140.655 193.013 141.581 193.224C141.667 193.243 141.754 193.262 141.841 193.279C143.873 193.693 145.943 193.658 147.845 194.592C149.444 195.378 150.908 196.688 152.7 196.999C154.301 197.278 155.465 196.572 156.319 195.266C156.365 195.194 156.412 195.122 156.456 195.05C157.128 193.968 157.612 192.776 158.319 191.715C158.681 191.174 159.088 190.654 159.587 190.232C159.811 190.039 161.378 189.207 161.624 188.957C162.678 187.875 161.744 185.599 162.019 184.242C162.34 182.663 163.728 182.107 164.56 180.883C166.142 178.555 161.803 176.373 163.1 173.826C163.117 173.795 163.138 173.772 163.166 173.757C163.28 173.695 163.462 173.772 163.451 173.922C163.307 175.82 165.116 177.126 165.769 178.77C166.512 180.641 165.325 181.773 164.112 183.022C162.557 184.627 163.652 186.423 163.305 188.355C163.26 188.608 163.188 188.831 163.093 189.031C163.359 189.196 163.564 189.469 163.609 189.85C164.142 194.373 164.715 198.882 165.651 203.342L165.851 204.29L166.119 205.554C166.787 208.716 167.409 211.891 167.528 215.123C167.899 217.851 168.047 220.602 167.827 223.348C167.159 231.707 162.488 240.453 154.001 243.018C152.036 243.612 149.953 243.766 147.938 243.35C147.247 243.209 146.279 242.896 145.411 242.422C145.463 242.979 145.504 243.536 145.521 244.092C145.807 244.411 145.936 244.893 145.773 245.304C145.081 245.077 144.452 244.716 143.886 244.223L143.792 244.139C143.456 242.891 143.358 241.525 143.309 240.21L143.296 239.836C143.283 239.472 143.275 239.115 143.262 238.766C143.191 236.596 143.241 234.421 143.353 232.252L143.435 230.656C143.624 226.933 143.778 223.218 143.674 219.485C143.556 215.188 143.188 210.91 142.728 206.637C142.489 204.432 142.219 202.232 141.942 200.032C141.72 198.261 141.348 196.354 141.342 194.528C139.92 194.224 138.524 193.64 137.649 192.447C136.721 191.181 136.584 189.562 137.408 188.264C136.612 187.173 137.265 186.146 138.249 185.453C136.736 184.605 135.893 182.293 135.669 180.685C135.517 179.581 135.469 177.931 135.94 176.69C135.264 176.714 134.588 176.783 133.912 176.9C133.13 177.037 132.363 177.238 131.607 177.487L131.224 177.614C131.03 177.679 130.813 177.755 130.597 177.844C131.964 180.106 130.208 182.156 127.956 182.741C127.527 182.853 127.09 182.932 126.648 182.995C125.653 183.132 124.637 183.174 123.65 183.266C121.762 183.439 119.862 183.686 117.967 183.766C117.551 183.785 117.283 183.591 117.156 183.32C117.152 183.316 117.15 183.314 117.15 183.31C117.105 183.238 117.076 183.162 117.065 183.082C117.072 183.088 117.08 183.092 117.086 183.096C116.995 182.589 117.3 181.972 117.967 181.898C120.703 181.589 123.477 181.575 126.221 181.349L126.397 181.334C127.259 181.26 128.273 181.123 128.955 180.577C129.589 180.07 129.646 179.41 129.393 178.814C129.388 178.829 129.384 178.846 129.382 178.861C129.363 178.979 129.2 178.975 129.148 178.892C128.989 178.652 128.949 178.415 128.989 178.187C128.799 177.967 128.569 177.772 128.319 177.622C127.214 176.95 125.761 176.766 124.504 176.568C123.129 176.35 121.743 176.251 120.355 176.185C117.623 176.056 114.883 176.278 112.196 176.768C112.083 176.788 112.037 176.631 112.147 176.595C113.195 176.248 114.266 175.957 115.35 175.727C115.324 175.722 115.299 175.718 115.274 175.712C115.179 175.688 115.111 175.572 115.143 175.479C115.147 175.464 115.153 175.45 115.16 175.437C114.699 175.226 114.507 174.516 115.065 174.228C116.803 173.33 118.844 172.924 120.752 172.554C122.584 172.201 124.434 171.954 126.287 171.734C129.42 171.366 132.836 171.375 135.851 170.386L135.975 170.344C137.203 169.92 138.668 169.062 138.754 167.613C138.881 165.421 135.625 165.992 134.269 166.045C130.557 166.186 126.849 166.444 123.154 166.841C122.4 166.922 121.645 167.004 120.891 167.089C119.736 167.217 118.578 167.353 117.424 167.496C116.78 167.577 116.121 167.683 115.458 167.784C115.25 167.835 115.048 167.871 114.845 167.89C114.83 167.892 114.817 167.888 114.807 167.881C113.841 168.017 112.872 168.12 111.929 168.091C111.821 168.088 111.754 167.919 111.868 167.868C113.085 167.353 114.439 167.049 115.797 166.81C116.638 166.182 117.654 165.679 118.489 165.193C119.634 164.525 120.946 163.542 122.246 163.143C122.831 162.682 123.494 162.312 124.105 162.061C123.929 161.788 123.866 161.41 123.897 161.091C124.014 159.947 124.929 159.309 125.985 159.085C126.312 159.017 126.691 158.967 127.094 158.948C127.102 158.734 127.197 158.525 127.409 158.368L127.471 158.321L127.515 158.286C128.224 157.71 129.632 156.088 127.937 155.97C127.037 155.906 126.276 156.566 125.56 157.012C124.073 157.939 122.634 157.986 120.936 157.755L120.172 157.646L120.045 157.629C118.817 157.467 117.571 157.445 116.886 158.698C116.15 160.038 115.893 161.26 114.409 161.997C112.992 162.701 111.418 162.841 110.117 163.809C108.722 164.844 107.674 166.298 106.534 167.587C104.017 170.428 101.138 172.937 98.1716 175.295L97.6439 175.714C94.9123 177.873 92.0926 180 89.0343 181.663C89.0131 181.674 88.9918 181.678 88.973 181.678C88.8906 181.67 88.8291 181.564 88.9033 181.492C92.4758 178.02 96.6547 175.205 100.324 171.825C101.951 170.327 103.5 168.75 104.989 167.114C106.29 165.679 107.444 164.066 108.961 162.845C109.698 162.251 110.495 161.797 111.386 161.48C112.219 161.181 113.153 161.033 113.919 160.577C115.422 159.685 115.276 157.572 116.778 156.612C118.066 155.789 119.635 156.09 121.063 156.285L121.234 156.308C122.159 156.43 123.116 156.534 123.999 156.168C124.873 155.807 125.577 155.131 126.458 154.771C127.686 154.266 129.426 154.387 130.056 155.737C130.658 157.026 129.836 158.193 128.877 159.049C130.185 159.286 131.332 159.918 131.429 161.207C132.388 161.175 133.346 161.141 134.304 161.108C137.645 160.991 141.002 160.767 144.344 160.826C144.268 160.486 144.234 160.135 144.23 159.778C144.228 159.579 144.236 159.381 144.251 159.178C144.276 158.831 144.504 158.622 144.843 158.586L145.598 158.505L145.85 158.48C147.265 158.346 148.846 158.318 149.924 159.254C150.503 159.759 150.969 160.922 150.686 161.697C151.345 161.923 151.973 162.213 152.546 162.579C153.68 162.198 154.872 162.24 156.012 162.638L156.148 162.686C156.959 162.984 158.108 163.548 158.549 164.353C157.479 157.099 156.038 149.908 154.226 142.804C153.069 139.967 151.607 137.255 149.835 134.752C145.371 128.445 138.94 124.109 133.164 119.123C132.654 119.684 132.105 120.218 131.592 120.732L131.374 120.951C130.328 122.01 129.238 123.024 128.123 124.01C125.793 126.071 123.34 127.972 120.905 129.905C115.996 133.801 111.558 137.937 107.866 143.024C107.799 143.115 107.615 143.062 107.667 142.94C110.199 136.917 115.45 132.338 120.219 128.089C122.727 125.855 125.294 123.675 127.706 121.335C128.83 120.244 129.919 119.116 130.947 117.933L131.202 117.636C131.874 116.85 133.447 114.448 134.487 116.181C134.705 116.543 134.695 117.007 134.487 117.37C134.192 117.886 133.817 118.377 133.407 118.85C134.864 119.643 136.292 120.481 137.689 121.367C137.608 120.94 137.628 120.468 137.703 119.995L137.727 119.845L137.829 119.26C137.975 118.396 138.05 117.593 137.502 116.751C136.817 115.697 135.526 115.368 134.497 114.759C133.312 114.058 132.693 113.119 132.058 111.927C130.843 109.646 128.097 108.731 125.737 107.998L125.44 107.905C123.259 107.229 120.9 106.867 118.72 107.517C118.924 108.469 119.192 109.408 119.527 110.323C119.883 111.296 120.696 112.379 120.612 113.43C120.555 114.158 119.682 114.936 118.958 114.379C117.933 113.592 117.728 112.311 117.453 111.089C117.187 109.908 117.018 108.699 116.945 107.49C116.876 106.326 116.93 105.162 117.074 104.006L117.184 103.156L117.211 102.959C117.33 102.1 117.509 101.199 117.991 100.526C118.038 100.461 118.152 100.46 118.173 100.55ZM88.4201 95.7219C88.4355 95.7906 88.4463 95.8584 88.456 95.9263C88.5266 96.2158 88.553 96.4942 88.5443 96.7738C88.5486 96.8746 88.5412 96.9756 88.5224 97.0756C88.4845 97.4047 88.4053 97.7424 88.2982 98.1116C88.0702 98.8972 87.8091 99.6733 87.5174 100.438C86.9406 101.95 86.2597 103.392 85.418 104.775C83.8975 107.272 81.9646 109.345 79.6859 111.137C80.1184 111.494 80.5411 111.866 80.9647 112.23C83.0121 113.993 85.0041 115.835 86.9336 117.727C90.3602 121.086 93.7179 124.507 96.9967 128.01C98.614 129.738 100.201 131.488 101.78 133.251L101.832 133.31L101.888 133.377C102.448 134.055 103.569 135.672 104.405 135.412C104.827 135.281 105.271 134.651 105.559 134.35L106.089 133.797C106.265 133.613 106.44 133.427 106.612 133.238C109.696 129.858 112.614 126.349 115.354 122.68C116.69 120.89 117.983 119.067 119.228 117.212C119.868 116.258 120.497 115.295 121.112 114.325C121.708 113.387 122.189 112.378 123.067 111.678C123.71 111.164 124.603 111.635 124.44 112.478C124.185 113.805 123.267 114.927 122.544 116.049C121.818 117.176 121.074 118.292 120.314 119.396C118.852 121.522 117.326 123.604 115.745 125.643C114.384 127.4 112.964 129.111 111.506 130.788L111.107 131.244C109.538 133.033 107.999 134.932 106.265 136.565C104.713 138.028 103.018 137.602 101.604 136.18C99.8155 134.384 98.1551 132.441 96.4343 130.578C92.9957 126.857 89.5212 123.164 86.0108 119.51L84.8568 118.307C83.5113 116.902 82.1713 115.489 80.8662 114.049L80.6978 113.861C79.2096 112.186 77.6962 110.088 75.5803 109.237C75.4274 109.175 75.4836 108.958 75.6488 108.988C77.0032 109.239 78.1339 109.921 79.186 110.737C80.1317 109.172 80.9755 107.521 81.7111 105.834L81.2391 105.629C77.8623 104.169 74.0562 102.697 70.4307 102.934C68.9695 103.029 67.4106 103.582 66.4018 104.68C65.4883 105.674 65.0322 107.014 64.1938 108.073C63.2336 109.285 61.9812 109.831 60.4443 109.88L59.6969 109.903C58.8373 109.931 58.013 109.976 57.1411 110.165C54.7787 110.677 52.2881 111.509 50.3068 112.928C49.5881 113.443 48.8461 114.151 48.4986 114.931C48.154 115.704 48.0549 116.609 48.0213 117.443C48.005 117.849 48.1269 118.386 48.0251 118.776C48.0367 118.731 48.042 118.755 48.0435 118.801C48.3602 119.051 48.5759 119.466 48.5993 119.88C50.5743 118.85 52.6187 117.948 54.7029 117.134C57.0234 116.229 59.416 115.503 61.8091 114.816C64.1512 114.143 66.6027 113.865 68.9903 113.386C69.2943 113.325 69.3999 113.735 69.1166 113.845C66.6071 114.809 64.1791 115.952 61.6487 116.859C59.1196 117.766 56.6093 118.747 54.1536 119.838C49.4068 121.948 44.8217 124.632 41.082 128.274C37.4296 131.831 34.6124 136.152 31.9922 140.496C29.3535 144.871 26.9985 149.406 24.8995 154.064C20.7473 163.279 17.6336 172.967 15.5837 182.863C13.5887 192.494 12.474 202.468 12.8452 212.311C13.0214 216.986 13.5923 221.665 14.9199 226.161C15.5541 228.309 16.3481 230.408 17.3512 232.412C18.409 234.525 19.8342 236.407 20.8001 238.555C20.8795 238.732 20.91 238.902 20.9055 239.059C25.0252 242.63 31.4736 240.224 35.9321 238.092C46.1913 233.184 56.2603 227.814 65.8307 221.651C75.2765 215.568 84.2279 208.779 92.9681 201.733C92.292 201.036 91.696 200.254 91.1723 199.546C90.0906 198.083 89.2772 196.426 88.7174 194.697C88.0624 192.672 87.8594 190.506 88.0455 188.391L88.0983 187.792C88.2764 185.795 88.4821 183.768 88.9202 181.815C88.9242 181.79 88.9434 181.779 88.9645 181.779C88.9855 181.779 89.0068 181.792 89.0153 181.815C90.1962 185.597 90.2913 189.661 91.6179 193.393C92.1524 194.894 92.9805 196.344 93.9737 197.589C94.4026 198.127 94.9054 198.595 95.4186 199.051C95.4526 198.819 95.4988 198.588 95.5686 198.362L95.6239 198.183C95.6926 197.966 95.7777 197.724 95.896 197.51C95.7291 197.462 95.5667 197.409 95.4061 197.35C95.2791 197.303 95.2517 197.098 95.4061 197.065C95.8265 196.967 96.2596 196.919 96.7012 196.898C96.7709 196.887 96.8383 196.885 96.9059 196.889C97.7322 196.864 98.573 196.923 99.3695 196.936C100.749 196.957 102.124 196.982 103.502 197.043C106.138 197.157 109.115 197.663 111.71 197.05C114.067 196.492 116.391 194.919 118.282 193.44C119.934 192.146 121.208 190.61 122.579 189.078C122.481 189.093 122.383 189.108 122.286 189.121L121.402 189.242C120.286 189.391 118.961 189.508 118.075 188.972C117.737 188.767 117.834 188.302 118.179 188.175C119.083 187.843 120.205 188.118 121.168 188.072C121.924 188.035 122.689 187.955 123.435 187.799C123.68 187.748 123.923 187.689 124.164 187.619C125.93 187.11 128.005 185.318 126.602 183.361C126.549 183.287 126.608 183.219 126.68 183.206C126.712 183.2 126.746 183.206 126.773 183.23C128.37 184.552 127.54 186.924 126.029 187.941C125.51 188.291 124.922 188.537 124.314 188.716C124.43 188.929 124.451 189.192 124.312 189.441C123.129 191.55 121.126 193.404 119.25 194.894C117.323 196.424 115.1 197.867 112.711 198.544C109.952 199.322 106.92 198.736 104.121 198.489C102.604 198.356 101.091 198.197 99.5765 198.022C99.1707 197.975 98.7505 197.94 98.3235 197.899C98.7251 198.428 99.0441 199.036 99.2533 199.402C99.9336 200.59 99.3061 202.154 97.9878 202.517C97.8503 202.555 97.7087 202.577 97.5695 202.581C97.2143 203.293 96.3693 203.817 95.5876 203.549C95.2476 203.433 94.92 203.274 94.6054 203.084C89.689 207.404 84.5129 211.457 79.1892 215.258C69.3167 222.304 58.9686 228.74 48.2385 234.397C45.8216 235.672 43.3862 236.912 40.9302 238.104L38.8163 239.123C36.4765 240.25 34.0818 241.37 31.5969 242.069C31.1125 242.206 30.6052 242.316 30.0855 242.4C30.0788 242.447 30.0771 242.491 30.0801 242.534C29.6129 242.596 29.2052 242.606 28.8571 242.562L28.7778 242.551C25.7319 242.764 22.474 242.02 20.5145 239.795C20.1879 240.024 19.7117 240.05 19.2914 239.72C17.1781 238.061 15.9183 235.535 14.8128 233.124C13.6918 230.678 12.8131 228.129 12.1675 225.517C10.8779 220.302 10.3664 214.922 10.3395 209.556C10.242 188.882 15.4176 168.027 24.4075 149.466C26.6875 144.759 29.2007 140.139 31.9907 135.714C34.7731 131.301 38.004 127.2 42.1417 123.982C43.3316 123.056 44.5694 122.21 45.8461 121.431C44.9892 121.006 44.6488 119.925 44.5888 118.965C44.4557 116.833 44.7097 114.377 45.9574 112.579C47.7078 110.055 50.8411 108.499 53.7464 107.742C55.2631 107.348 56.832 107.117 58.3964 107.04C59.2031 106.999 60.0412 107.132 60.8381 107.045C61.5412 106.968 61.976 106.549 62.3803 105.997C63.4162 104.582 64.0905 103.099 65.5764 102.062C67.1009 100.998 69.0764 100.591 70.913 100.701C73.0525 100.83 75.0044 101.673 76.8887 102.642C78.5894 103.517 80.2402 104.486 81.8491 105.519C82.144 104.828 82.4218 104.131 82.6802 103.432C83.1813 102.077 83.6172 100.679 83.9708 99.2781C84.3293 97.8576 84.2769 95.9816 85.3599 94.9135C86.3015 93.985 88.1148 94.3496 88.4201 95.7219ZM161.409 190.505L161.401 190.507C159.211 191.805 158.163 195.05 157.132 196.468C157.216 196.944 157.276 197.428 157.392 197.878C157.658 198.912 158.007 199.937 158.41 200.922C159.12 202.661 160.01 204.318 160.831 206.004C161.493 207.361 162.141 208.742 162.645 210.17C162.59 210.224 162.54 210.289 162.497 210.37C161.95 211.394 161.522 211.193 160.513 210.969L160.512 210.967C159.935 209.2 159.103 207.541 158.355 205.846L158.173 205.432L157.994 205.018C157.369 203.567 156.798 202.103 156.466 200.548C156.255 199.556 156.169 198.537 156.156 197.525C155.609 197.975 154.952 198.299 154.124 198.423C152.352 198.691 150.747 197.581 149.303 196.69L148.978 196.491C148.074 195.941 147.178 195.433 146.135 195.173C144.952 194.877 143.729 194.877 142.527 194.727C142.383 194.708 142.238 194.689 142.092 194.666C142.561 196.219 142.778 197.906 143.058 199.461C143.446 201.642 143.763 203.843 144.067 206.036C144.659 210.289 145.071 214.575 145.28 218.863C145.482 223.015 145.38 227.152 145.23 231.303L145.155 233.327C145.095 234.975 145.046 236.625 145.075 238.274C145.155 238.28 145.235 238.293 145.316 238.312C146.148 238.506 146.716 239.356 147.477 239.734C149.083 240.533 151.022 240.522 152.731 240.119C156.619 239.197 159.851 236.483 161.981 233.167C164.537 229.19 165.475 224.508 165.445 219.825C165.41 214.554 164.557 209.514 163.369 204.425L163.293 204.1C162.293 199.861 161.667 190.545 161.409 190.505ZM52.555 179.87C52.5772 181.287 52.0008 182.804 51.6841 184.181C51.3431 185.666 51.003 187.15 50.6582 188.634L50.3481 189.963C50.0899 191.071 49.8353 192.179 49.6072 193.294C49.4196 194.21 49.341 195.417 49.0336 196.427C52.69 194.948 56.3521 193.484 60.0081 192.009C64.5123 190.192 69.0377 188.424 73.5524 186.636C78.0503 184.857 82.5229 182.832 87.1118 181.31C88.2041 180.947 88.9435 182.691 87.8975 183.174C83.2369 185.337 78.306 187.03 73.5313 188.923L66.6246 191.666C60.2932 194.18 53.9574 196.681 47.5898 199.096C43.2524 200.74 38.932 202.433 34.5672 203.995C32.4862 204.739 30.3865 205.443 28.3158 206.214C26.5813 206.861 24.7053 207.82 24.063 209.684C24.0292 209.781 23.8961 209.741 23.9109 209.642C24.1708 207.837 25.5104 206.708 27.0208 205.855C29.0254 204.718 31.2272 203.892 33.3433 202.98L33.6313 202.856C37.9524 200.97 42.3083 199.162 46.6771 197.383C46.6338 197.277 46.6082 197.164 46.6063 197.045L46.5939 197.049C46.5144 196.241 46.8848 195.52 47.1512 194.769L47.9153 192.612C48.4245 191.176 48.8812 189.722 49.3517 188.273C49.8438 186.759 50.3405 185.246 50.8363 183.732C51.2563 182.45 51.5386 180.923 52.2571 179.777C52.3437 179.639 52.5824 179.716 52.555 179.87ZM136.7 176.682L136.646 176.957C136.583 177.279 136.523 177.603 136.508 177.929C136.466 178.781 136.563 179.632 136.789 180.455C137.011 181.268 137.321 182.054 137.763 182.775C138.181 183.453 138.788 183.986 139.174 184.682C139.214 184.755 139.24 184.829 139.25 184.901C139.398 184.84 139.544 184.785 139.686 184.741C140.865 184.367 142.069 184.054 143.29 183.819L143.096 183.806L142.971 183.796C140.931 183.623 139.006 182.956 139.422 180.573C139.657 179.226 140.714 178.322 141.847 177.682L141.988 177.603C142.05 177.569 142.113 177.536 142.174 177.506C141.15 177.333 140.406 177.119 139.149 176.908C138.333 176.771 137.516 176.695 136.7 176.682ZM43.4912 147.329C45.4974 151.384 47.0067 155.696 48.1454 160.07C48.6951 162.182 49.1617 164.316 49.5368 166.466L49.6601 167.184L49.7301 167.574C50.0805 169.49 50.5256 171.567 50.0109 173.437C49.8429 174.048 48.8289 174.29 48.5449 173.629C47.6884 171.634 47.8089 169.34 47.5606 167.205C47.2997 164.965 46.9437 162.735 46.5001 160.524C45.6479 156.275 44.4517 152.125 43.1185 148.007L42.9698 147.549C42.8565 147.244 43.3496 147.043 43.4912 147.329ZM120.604 165.47C120.006 165.751 119.408 166.009 118.88 166.266C118.84 166.288 118.798 166.307 118.755 166.328C119.353 166.226 119.953 166.131 120.553 166.042C120.547 165.848 120.566 165.656 120.604 165.47ZM143.998 163.439C143.908 163.468 143.829 163.515 143.76 163.58L143.726 163.614C143.644 163.69 143.586 163.781 143.552 163.886C143.499 163.987 143.474 164.095 143.479 164.211L143.509 164.436C143.549 164.579 143.622 164.703 143.726 164.809L143.897 164.941C144.013 165.008 144.136 165.046 144.267 165.055L144.324 165.057L144.495 165.057C144.593 165.054 144.685 165.029 144.771 164.984C144.861 164.955 144.94 164.908 145.009 164.843L145.043 164.809C145.126 164.732 145.184 164.642 145.218 164.537C145.263 164.451 145.287 164.359 145.291 164.261L145.291 164.211L145.26 163.987C145.225 163.861 145.165 163.75 145.081 163.654L145.043 163.614L144.872 163.481C144.757 163.414 144.633 163.377 144.502 163.368L144.446 163.366H144.324C144.207 163.362 144.099 163.386 143.998 163.439ZM138.501 163.153C138.052 163.235 137.798 163.78 137.911 164.192C138.037 164.65 138.471 164.853 138.907 164.79L138.951 164.783C139.462 164.689 139.962 164.725 140.449 164.905C140.877 165.063 141.375 164.728 141.488 164.314C141.618 163.842 141.328 163.433 140.898 163.275C140.127 162.99 139.299 163.006 138.501 163.153ZM49.4919 133.129C50.5142 134.628 51.1524 136.62 51.7821 138.333L51.845 138.503C52.5143 140.303 53.1599 142.117 53.7621 143.941C54.964 147.581 56.5303 151.391 56.8197 155.237C56.8732 155.946 55.7875 156.231 55.4727 155.602C54.5683 153.793 54.0819 151.908 53.5468 149.969C53.0364 148.12 52.5046 146.277 51.9726 144.434C51.4409 142.592 50.9264 140.745 50.4027 138.901C49.8933 137.107 49.1841 135.112 49.0675 133.244C49.0523 133.002 49.3745 132.957 49.4919 133.129ZM72.5643 121.064C73.9289 122.012 75.0465 123.398 76.2013 124.583C77.3728 125.786 78.5286 126.999 79.6737 128.227C81.5871 130.28 83.4659 132.365 85.4064 134.393C89.2735 138.433 93.6482 142.15 98.9852 144.049C100.277 144.508 99.7109 146.582 98.4165 146.113C92.9575 144.133 88.4354 140.472 84.4464 136.331C82.3804 134.186 80.4847 131.894 78.6363 129.561C77.7714 128.47 76.9129 127.375 76.0666 126.269L75.5603 125.604C74.4961 124.2 73.1941 122.8 72.4154 121.214C72.3716 121.124 72.4675 120.997 72.5643 121.064Z" fill="black"/>
<path fill-rule="evenodd" clip-rule="evenodd" d="M137.398 65.0569C137.043 48.4487 132.915 30.0625 118.766 19.7994C117.865 19.1448 116.512 19.4618 115.765 20.2094C115.152 20.3294 114.589 20.7018 114.214 21.3866C105.847 36.6958 97.0393 51.7629 87.7943 66.5557C81.8584 76.1206 74.6479 85.6975 73.6967 97.2911C73.532 97.5103 72.0038 99.24 72.8943 99.114C73.2896 98.9067 73.692 98.7364 74.1154 98.6104C75.2458 100.263 77.8707 100.003 78.4948 98.138C80.6582 98.2004 82.7993 98.7545 84.8605 99.3975C89.9163 100.984 95.0546 102.552 100.214 103.765C117.212 108.287 135.476 102.533 136.834 82.6666C138.659 80.0896 137.672 68.6042 137.398 65.0569V65.0569Z" fill="#D08B5B"/>
<path fill-rule="evenodd" clip-rule="evenodd" d="M149.765 105.878C147.36 94.5579 145.817 83.0921 144.436 71.6116C143.768 66.051 143.234 60.4757 142.616 54.9109C142.039 49.7263 141.366 44.5249 140.017 39.4779C138.763 34.788 136.928 30.1447 134.226 26.0954C131.692 22.2993 128.506 19.0467 124.848 16.3308C117.621 10.9646 108.379 8.10928 99.3896 9.05613C98.0317 9.19985 96.6866 9.43022 95.3564 9.73879C95.7801 9.61409 96.2083 9.49764 96.6403 9.3964C96.7794 9.3628 96.7176 9.17491 96.5812 9.18738C60.0091 12.5185 51.4063 76.2803 50.6242 89.1368C50.563 90.1366 50.5148 91.134 50.4789 92.1337C50.2046 94.3637 50.0001 96.5997 49.9032 98.842C49.7937 101.429 49.8464 104.033 50.0845 106.611C50.329 109.255 50.6073 111.965 51.708 114.395C52.3824 115.892 83.837 113.842 84.1617 112.075C84.8195 108.507 85.1568 104.825 84.9504 101.197C84.8534 99.457 84.674 97.7302 84.303 96.0268C84.2018 95.5618 84.0943 94.6889 83.8225 93.9978C86.6916 88.5325 89.8476 83.2232 93.0963 77.9753C99.8576 67.0485 107.046 56.3246 112.572 44.6875C115.342 38.8565 118.072 32.6642 119.38 26.2748L119.59 26.3171C119.565 26.3932 119.582 26.4883 119.658 26.5411C125.664 30.7026 129.678 37.0093 132.28 43.7622C135.309 51.6242 136.779 60.1141 136.568 68.5385C136.233 81.9255 131.171 98.47 116.85 102.701C113.582 103.667 110.053 103.94 106.705 103.234C105.126 102.9 103.578 102.386 102.153 101.625C100.572 100.782 99.2734 99.588 97.7916 98.6055C96.4358 97.7072 94.8356 99.4591 95.6157 100.788C97.3381 103.726 101.044 105.523 104.228 106.406C107.624 107.351 111.206 107.396 114.666 106.795C114.929 106.751 115.19 106.7 115.45 106.645C115.509 107.516 115.882 108.383 116.489 109.086C116.761 109.403 117.096 109.678 117.472 109.908C117.52 110.758 118.066 111.612 118.954 111.798C123.695 112.787 143.386 110.194 148.121 108.779C149.392 108.399 150.035 107.15 149.765 105.878" fill="#820000"/>
<path d="M149.765 105.878C147.36 94.5579 145.817 83.0921 144.436 71.6116C143.768 66.051 143.234 60.4757 142.616 54.9109C142.039 49.7263 141.366 44.5249 140.017 39.4779C138.763 34.788 136.928 30.1447 134.226 26.0954C131.692 22.2993 128.506 19.0467 124.848 16.3308C117.621 10.9646 108.379 8.10928 99.3896 9.05613C98.0317 9.19985 96.6866 9.43022 95.3564 9.73879C95.7801 9.61409 96.2083 9.49764 96.6403 9.3964C96.7794 9.3628 96.7176 9.17491 96.5812 9.18738C60.0091 12.5185 51.4063 76.2803 50.6242 89.1368C50.563 90.1366 50.5148 91.134 50.4789 92.1337C50.2046 94.3637 50.0001 96.5997 49.9032 98.842C49.7937 101.429 49.8464 104.033 50.0845 106.611C50.329 109.255 50.6073 111.965 51.708 114.395C52.3824 115.892 83.837 113.842 84.1617 112.075C84.8195 108.507 85.1568 104.825 84.9504 101.197C84.8534 99.457 84.674 97.7302 84.303 96.0268C84.2018 95.5618 84.0943 94.6889 83.8225 93.9978C86.6916 88.5325 89.8476 83.2232 93.0963 77.9753C99.8576 67.0485 107.046 56.3246 112.572 44.6875C115.342 38.8565 118.072 32.6642 119.38 26.2748L119.59 26.3171C119.565 26.3932 119.582 26.4883 119.658 26.5411C125.664 30.7026 129.678 37.0093 132.28 43.7622C135.309 51.6242 136.779 60.1141 136.568 68.5385C136.233 81.9255 131.171 98.47 116.85 102.701C113.582 103.667 110.053 103.94 106.705 103.234C105.126 102.9 103.578 102.386 102.153 101.625C100.572 100.782 99.2734 99.588 97.7916 98.6055C96.4358 97.7072 94.8356 99.4591 95.6157 100.788C97.3381 103.726 101.044 105.523 104.228 106.406C107.624 107.351 111.206 107.396 114.666 106.795C114.929 106.751 115.19 106.7 115.45 106.645C115.509 107.516 115.882 108.383 116.489 109.086C116.761 109.403 117.096 109.678 117.472 109.908C117.52 110.758 118.066 111.612 118.954 111.798C123.695 112.787 143.386 110.194 148.121 108.779C149.392 108.399 150.035 107.15 149.765 105.878" stroke="black" stroke-width="1.5"/>
<path fill-rule="evenodd" clip-rule="evenodd" d="M122.634 82.7094C123.359 81.4298 125.522 81.6378 125.852 83.1302C126.523 86.1554 122.917 88.949 120.178 89.0188C117.456 89.0879 114.402 86.7705 114.796 83.8432C114.894 83.1192 115.861 83.2071 116.19 83.6611L116.318 83.8352C117.213 85.0383 118.394 86.2835 120.056 85.9901C120.744 85.8688 121.37 85.4385 121.786 84.8846C122.288 84.2161 122.233 83.4178 122.634 82.7094ZM105.327 60.5766C105.696 60.475 106.068 60.5143 106.395 60.6533C107.125 60.7871 107.734 61.3958 107.948 62.0907C107.965 62.1509 107.984 62.2103 108.005 62.2691L108.038 62.3568L107.95 62.1341C107.99 62.3534 108.169 62.584 108.233 62.8043C108.312 63.075 108.331 63.3825 108.305 63.6805C108.537 63.6828 108.769 63.6907 109 63.7107L109.224 63.7308C110.475 63.8471 111.849 64.0605 112.591 65.1422C113.008 65.7501 112.617 66.8444 111.851 66.9615C110.673 67.1418 109.658 66.4896 108.484 66.359C107.374 66.2353 106.212 66.3061 105.117 66.5067C102.855 66.9204 100.776 67.8376 98.5716 68.4131L98.2715 68.4894V68.4894L98.2719 68.4879C97.8942 68.5792 97.4653 68.0538 97.8391 67.7465C99.605 66.2951 101.866 65.119 104.093 64.4027C103.769 63.8864 103.669 63.2062 103.89 62.6519C103.925 62.537 103.967 62.4253 104.012 62.3139L104.106 62.0848V62.0848C104.115 61.9768 104.136 61.8701 104.166 61.7655L104.171 61.7336V61.7336L104.173 61.7355V61.7355C104.339 61.1963 104.772 60.7296 105.327 60.5766ZM127.858 60.6601C128.341 60.1767 129.019 60.2481 129.523 60.6285L129.59 60.681V60.681C130.065 60.8921 130.459 61.3535 130.717 61.7811C130.985 62.2251 131.163 62.6774 131.17 63.1663C132.339 63.1701 133.459 63.5209 134.317 64.4652C134.595 64.77 134.784 65.24 134.631 65.6532L134.54 65.899V65.899C134.252 66.6794 132.956 67.1286 132.516 66.2109L132.496 66.1662C132.028 65.0764 130.231 65.1908 129.277 65.3022C128.611 65.3802 127.954 65.5456 127.311 65.731C127.085 65.7963 126.86 65.8672 126.636 65.9396L126.412 66.0123C126.292 66.051 125.67 66.3893 126.057 66.3092C126.161 66.2877 126.24 66.4394 126.133 66.4904C125.671 66.7112 125.179 66.2714 125.21 65.7752C125.263 64.9137 126.63 64.4414 127.288 64.1444L127.328 64.1264C127.58 64.0098 127.844 63.898 128.117 63.7942C127.964 63.5659 127.837 63.3123 127.732 63.0401C127.632 62.7831 127.565 62.5333 127.529 62.26C127.493 62.1264 127.493 61.9928 127.529 61.8591L127.534 61.8208V61.8208C127.516 61.7325 127.507 61.6412 127.508 61.5492L127.504 61.5135H127.508C127.521 61.1916 127.649 60.8691 127.858 60.6601ZM120.14 69.8337C121.996 70.4073 125.057 71.9698 124.09 74.3815C122.74 76.5965 119.159 74.9686 117.424 74.253C115.865 73.7365 115.054 75.9221 116.561 76.5808C129.017 81.5106 128.971 68.5001 120.592 68.6911C119.67 68.712 119.641 69.643 120.14 69.8337ZM103.661 52.8692L103.977 52.7768C105.622 52.3002 107.301 51.4772 108.761 52.7614C109.334 53.2656 109.452 54.3135 109.042 54.9425C108.108 56.3757 106.721 56.1567 105.212 56.2789C104.063 56.3719 102.93 56.7096 101.858 57.1317C100.981 57.4768 100.168 57.9627 99.3999 58.5046C98.6457 59.0374 98.1304 59.8703 97.3568 60.3499C97.0732 60.5257 96.7458 60.3448 96.6439 60.0597C96.2831 59.0484 96.8928 57.7885 97.4087 56.9269C98.0385 55.8756 98.9951 55.0158 100.024 54.3653C101.15 53.6528 102.396 53.2414 103.661 52.8692V52.8692ZM127.626 51.781C130.406 51.7802 133.081 53.327 134.636 55.5946C135.165 56.365 134.777 57.5063 134.019 57.9499C133.168 58.4478 132.258 58.0893 131.698 57.3758L131.664 57.3325C130.773 56.1445 129.623 55.2089 128.26 54.5998C127.596 54.3024 126.86 54.0613 126.141 53.9389L125.909 53.8991C125.583 53.8444 125.205 53.7923 124.911 53.8434C124.753 53.8641 124.608 53.9163 124.474 53.9957C124.539 54.1361 124.373 54.3052 124.22 54.221C123.529 53.8415 123.613 53.1643 124.184 52.638C124.991 51.8934 126.584 51.7812 127.626 51.781Z" fill="black"/>
</g>
<defs>
<filter id="filter0_d_20_20682" x="0" y="0" width="180.817" height="259.929" filterUnits="userSpaceOnUse" color-interpolation-filters="sRGB">
<feFlood flood-opacity="0" result="BackgroundImageFix"/>
<feColorMatrix in="SourceAlpha" type="matrix" values="0 0 0 0 0 0 0 0 0 0 0 0 0 0 0 0 0 0 127 0" result="hardAlpha"/>
<feOffset dy="4"/>
<feGaussianBlur stdDeviation="2"/>
<feComposite in2="hardAlpha" operator="out"/>
<feColorMatrix type="matrix" values="0 0 0 0 0 0 0 0 0 0 0 0 0 0 0 0 0 0 0.25 0"/>
<feBlend mode="normal" in2="BackgroundImageFix" result="effect1_dropShadow_20_20682"/>
<feBlend mode="normal" in="SourceGraphic" in2="effect1_dropShadow_20_20682" result="shape"/>
</filter>
</defs>
</svg>
