<svg width="181" height="260" viewBox="0 0 181 260" fill="none" xmlns="http://www.w3.org/2000/svg">
<g filter="url(#filter0_d_17_20417)">
<rect x="101.451" y="156.02" width="48.3803" height="59.6008" fill="white"/>
<path fill-rule="evenodd" clip-rule="evenodd" d="M87.3397 97.7232C92.5548 93.7504 105.648 91.9639 111.214 95.7891C116.711 99.6304 117.311 105.842 119.873 111.557C122.29 110.417 126.281 112.05 126.982 114.293C127.851 115.352 127.89 118.325 128.49 119.747C154.569 123.9 158.528 144.24 161.667 167.332C165.82 190.764 175.247 214.145 171.154 238.257C171.688 239.029 172.108 239.779 172.497 240.67C173.428 242.256 172.228 244.5 170.35 244.413C167.918 244.2 165.51 243.908 163.067 243.817C156.293 243.582 149.514 243.61 142.738 243.696L141.814 243.708C107.667 244.133 73.5207 244.971 39.3714 245.193C38.1325 245.195 37.5259 244.084 37.6914 242.987C38.0245 240.78 38.3336 238.571 38.6562 236.362C30.579 238.497 21.9923 239.034 13.9379 236.587C13.3745 236.013 15.2507 236.324 15.5484 236.237C8.13587 231.17 10.3495 220.495 11.0061 212.806C15.0891 186.461 16.5285 157.312 32.3036 134.832C39.1282 125.657 49.1336 118.394 60.6306 116.759L60.9496 116.716C64.3113 116.267 68.0578 116.123 70.9971 114.293C74.3028 111.653 75.7115 106.775 79.1893 106.729C80.3377 106.714 81.8999 108.168 83.581 109.155C83.7065 106.984 84.8759 105.152 85.1341 103.469L85.155 103.325C85.4244 101.363 85.0554 99.5973 87.3397 97.7232ZM143.386 168.028C136.057 162.934 117.125 165.494 116.692 165.779C115.737 166.407 115.327 166.462 114.81 167.278C114.301 167.345 113.792 167.416 113.283 167.488C112.262 167.821 113.019 169.077 114.197 168.629C113.488 171.688 115.575 173.864 116.406 176.888C116.676 177.87 116.416 179.636 116.406 180.64C116.486 181.919 117.9 183.43 117.665 184.713C116.827 189.276 112.281 193.727 114.197 198.152C115.467 200.651 119.286 201.926 121.825 202.775C127.085 204.795 136.251 202.699 139.308 198.152C140.938 195.727 142.826 189.609 143.799 187.711L144.014 184.701C144.545 177.217 145.018 169.162 143.386 168.028Z" fill="#FFBB8C"/>
<path fill-rule="evenodd" clip-rule="evenodd" d="M78.9182 106.743L81.0156 108.031L93.1969 114.055C95.5584 114.716 96.7392 115.509 96.7392 116.433V125.842C96.7392 127.101 98.9553 129.955 103.387 134.403L107.482 130.319L107.391 129.785C107.001 127.481 106.806 125.94 106.806 125.162C106.806 124.325 110.812 121.147 118.824 115.628L122.329 112.327L121.956 111.19C124.117 111.292 126.461 112.624 126.982 114.293C127.851 115.352 127.89 118.325 128.49 119.747C154.569 123.9 158.528 144.24 161.667 167.332C165.82 190.764 175.247 214.145 171.154 238.257C171.688 239.029 172.108 239.779 172.497 240.67C173.428 242.256 172.228 244.5 170.35 244.414C167.918 244.2 165.51 243.908 163.067 243.817C156.293 243.582 149.514 243.61 142.738 243.696L141.814 243.708C107.667 244.133 73.5207 244.971 39.3714 245.194C38.1325 245.195 37.5259 244.084 37.6914 242.987C38.0245 240.78 38.3336 238.571 38.6562 236.363C30.579 238.497 21.9923 239.034 13.9379 236.587C13.3745 236.013 15.2507 236.324 15.5484 236.237C8.13587 231.17 10.3495 220.495 11.0061 212.806C15.0891 186.461 16.5285 157.312 32.3036 134.832C39.1282 125.657 49.1336 118.394 60.6306 116.759L60.9496 116.716L61.2708 116.674C64.5483 116.256 68.1512 116.065 70.9971 114.293C74.2156 111.723 75.6358 107.031 78.9182 106.743ZM108.106 161.97C106.912 161.97 104.465 163.826 100.766 167.538L100.44 167.689C95.9684 169.767 93.0062 171.569 91.5532 173.096L91.5013 173.151C90.0335 174.727 87.1268 178.916 82.7812 185.718L76.4882 189.441H74.1072L72.4119 201.742L76.4882 210.526L85.7214 207.415L100.766 203.448L109.398 194.686L114.268 193.051C113.677 194.758 113.463 196.457 114.197 198.152C115.467 200.652 119.286 201.926 121.825 202.776C127.085 204.795 136.251 202.7 139.308 198.152C140.938 195.727 142.826 189.609 143.799 187.711L144.077 183.8C144.58 176.584 144.953 169.116 143.386 168.028C136.057 162.935 117.125 165.494 116.692 165.779C115.737 166.407 115.327 166.462 114.81 167.278L114.543 167.314L116.046 165.275L115.514 164.991C111.718 162.977 109.249 161.97 108.106 161.97ZM114.197 168.629C113.519 171.558 115.402 173.677 116.293 176.506L114.017 172.147L114.017 168.686C114.076 168.671 114.136 168.653 114.197 168.629Z" fill="#DA0037"/>
<path fill-rule="evenodd" clip-rule="evenodd" d="M77.9122 106.288C78.4182 105.84 79.1669 106.403 78.8454 107.009C78.1228 108.37 77.3817 109.659 76.412 110.862C75.824 111.592 75.1942 112.282 74.556 112.964C76.1939 114.381 77.5987 116.141 78.9252 117.791C80.6215 119.9 82.2252 122.099 84.1294 124.029C86.0073 125.933 88.0837 127.264 90.5944 128.151L91.1015 128.327C93.6236 129.213 96.3193 130.409 97.7409 132.798C98.0213 133.269 97.4568 133.851 96.9823 133.557C94.5119 132.027 91.6093 131.719 88.9203 130.708C86.3227 129.732 84.0584 128.229 82.0577 126.31C80.0603 124.395 78.3833 122.216 76.634 120.083C74.9042 117.974 73.0416 116.172 70.9955 114.388C67.838 116.513 64.2338 117.438 60.5689 118.346L60.1689 118.445C56.4996 119.354 52.8499 120.409 49.4075 121.992C46.3725 123.387 43.3872 125.053 40.915 127.323C38.2906 129.733 36.2481 132.81 34.3786 135.819C30.1968 142.552 27.2567 149.928 24.6685 157.394C21.9765 165.159 19.7248 173.08 17.9071 181.095C16.9826 185.172 16.2317 189.278 15.6146 193.413C15.3176 195.404 15.0537 197.4 14.822 199.4C14.5746 201.536 14.5177 203.733 13.8628 205.786C13.582 206.666 12.9191 207.032 12.2555 207L12.1207 208.687C11.942 210.935 11.7754 213.184 11.7191 215.446C11.6257 219.208 11.668 222.959 11.9385 226.712L11.9768 227.224C12.1894 229.964 12.6643 233.042 14.7235 235.048C16.856 237.125 20.1356 237.779 23.0098 237.816C29.7043 237.903 36.1484 234.739 42.0723 231.963C48.1733 229.104 54.1076 225.931 59.8997 222.489C62.8494 220.736 65.7672 218.925 68.6479 217.061C70.0615 216.146 71.4651 215.216 72.8582 214.271C73.6562 213.729 74.4123 213.136 75.2246 212.655C74.8266 212.284 74.6489 211.702 74.9823 211.193C72.6341 209.153 71.6568 205.515 71.5425 202.57C71.4501 200.194 71.7998 197.824 72.0757 195.47C72.2149 194.282 72.3869 193.097 72.5654 191.916C72.636 191.449 72.6899 190.949 72.7723 190.456C66.4315 193.942 59.913 197.046 53.222 199.804C49.7922 201.218 46.3186 202.489 42.797 203.654L42.0832 203.889C38.7464 204.982 35.3299 206.014 31.8803 206.638C31.6959 206.672 31.5461 206.399 31.743 206.313C35.1047 204.829 38.5828 203.577 41.995 202.21L42.5557 201.982V201.982C42.4913 201.978 42.4245 201.969 42.3548 201.953C40.3537 201.47 38.3682 200.725 36.4055 200.098C34.5839 199.516 32.5374 199.151 30.8348 198.273C30.7038 198.205 30.7771 198.023 30.9047 198.014C32.8184 197.881 34.8958 198.439 36.772 198.768L37.4769 198.891C38.6577 199.099 39.8646 199.323 41.0396 199.615C41.0821 199.221 41.302 198.826 41.6149 198.594C45.0579 196.043 44.7083 190.892 45.0765 187.093L45.3496 184.272C45.8299 179.336 46.338 174.4 47.11 169.501C47.1512 169.24 47.5558 169.315 47.5575 169.562C47.5973 175.635 47.139 181.68 46.9093 187.743L46.8737 188.738C46.7467 192.48 46.6472 196.365 44.2917 199.244C44.6211 199.051 45.0664 199.051 45.3332 199.369C45.6611 199.759 45.8504 200.197 45.8445 200.627C47.973 199.735 50.0922 198.819 52.2011 197.884C58.9813 194.879 65.6194 191.516 72.0818 187.878C72.7773 187.486 73.4384 187.794 73.7823 188.31L73.832 188.303C73.8403 188.302 73.8487 188.301 73.8573 188.301L73.9065 188.299C73.9084 188.299 73.9103 188.299 73.912 188.299C74.8218 187.799 76.0611 188.155 76.8417 188.884C76.8647 188.906 76.8844 188.93 76.9049 188.953C77.8932 188.509 78.816 187.91 79.6534 187.151C81.3672 185.597 82.8189 183.676 84.0844 181.749C86.4149 178.2 88.3944 174.254 91.5425 171.333C94.1004 168.96 97.2715 167.482 100.598 166.555C100.584 166.458 100.622 166.354 100.689 166.285C100.86 166.11 100.982 166.049 101.202 166.156C101.22 166.164 101.23 166.176 101.238 166.189L101.562 165.634C101.739 165.333 101.921 165.029 101.984 164.95C102.362 164.474 102.751 164.002 103.146 163.54C103.815 162.757 104.577 161.985 105.46 161.442C107.393 160.254 109.425 160.926 111.413 161.576C112.614 161.968 113.81 162.373 115.009 162.772L115.133 162.812C116.027 163.099 117.073 163.351 117.472 164.298C117.63 164.673 117.655 165.062 117.581 165.439C126.071 163.28 135.5 164.272 143.785 166.807C144.103 166.905 144.42 167.166 144.487 167.51C145.436 172.38 145.859 177.374 145.43 182.326C145.059 186.602 144.112 190.791 142.328 194.705L142.226 194.926C140.549 198.553 137.891 203.025 133.832 204.162C131.381 204.848 128.671 204.444 126.171 204.318C123.742 204.195 121.258 204.178 118.852 203.796C116.709 203.455 114.831 202.494 113.507 200.751C112.364 199.247 111.763 197.429 111.27 195.621C111.044 195.693 110.82 195.77 110.599 195.856C109.668 196.22 108.879 196.807 108.166 197.498C106.66 198.957 105.492 200.729 103.916 202.121C102.489 203.382 100.864 204.362 99.1203 205.116C95.5073 206.678 91.6315 207.302 87.8098 208.129L87.5432 208.187C84.6662 208.819 81.7296 209.594 79.1901 211.093C79.1405 211.534 78.9396 211.949 78.6176 212.221C79.0655 212.642 79.2552 213.308 78.8616 213.933C77.7622 215.679 75.8685 216.672 74.1684 217.788L74.0578 217.861C72.3854 218.97 70.6984 220.057 68.9977 221.122C65.5403 223.288 62.0107 225.334 58.4312 227.29C52.6739 230.437 46.7931 233.405 40.8058 236.097C41.1651 237.866 41.0338 239.689 41.3039 241.47L41.3453 241.724C41.4607 242.385 41.3049 242.937 40.8499 243.369L40.8018 243.413L40.8026 243.407L40.7599 243.447L40.7457 243.458L40.7504 243.455C40.698 243.503 40.6439 243.548 40.5887 243.586L40.5184 243.631V243.631C40.0802 243.897 39.516 243.894 39.0674 243.659L39.0161 243.631L38.9299 243.582C38.3371 243.24 37.9283 242.395 38.1742 241.724C38.7787 240.074 39.007 238.312 39.5652 236.651L39.1224 236.849V236.849L38.5387 237.104C32.2265 239.834 25.2149 242.134 18.3372 240.272C15.2984 239.449 12.4581 237.709 10.9376 234.873C9.4414 232.082 9.22992 228.841 9.15048 225.736C9.05245 221.904 9.2578 218.013 9.76295 214.214C10.102 211.664 10.5121 209.066 11.1446 206.542C10.8193 206.255 10.5801 205.843 10.517 205.333C10.2184 202.922 10.7409 200.416 11.0608 198.018C11.3732 195.677 11.7184 193.34 12.1089 191.011C12.8971 186.307 13.8129 181.612 14.8792 176.963C16.7768 168.688 19.2827 160.561 22.2996 152.627L22.5638 151.936C25.3515 144.685 28.5794 137.589 33.074 131.218C35.2241 128.171 37.4969 125.408 40.5349 123.211C43.3811 121.154 46.5915 119.672 49.9046 118.54C53.2213 117.407 56.6303 116.647 60.0996 116.175C63.6229 115.695 67.3418 115.401 70.6285 113.955C70.2127 113.21 70.5696 112.203 71.2693 111.74C73.6241 110.184 75.8016 108.159 77.9122 106.288ZM153.294 173.967C153.392 173.817 153.627 173.912 153.583 174.089C152.438 178.783 151.363 183.487 150.661 188.27C149.394 196.904 149.627 205.65 149.73 214.348L149.736 214.797C149.789 219.482 149.863 224.167 150.018 228.85C150.096 231.217 150.25 233.607 150.166 235.975C150.12 237.26 149.778 238.475 149.657 239.744C149.551 240.854 149.645 241.98 149.698 243.092C149.734 243.831 148.644 243.799 148.57 243.092L148.475 242.177C148.352 241.019 148.199 239.868 147.82 238.76C147.364 237.427 147.145 236.118 146.987 234.718C146.744 232.573 146.637 230.407 146.543 228.248L146.479 226.754C146.088 217.728 146.102 208.66 146.734 199.644L146.781 199C147.407 190.478 148.493 181.269 153.294 173.967ZM128.881 120.253C128.582 120.13 128.686 119.678 129.018 119.757L129.62 119.9C134.034 120.958 138.369 122.104 142.489 124.072C146.612 126.042 150.102 128.982 152.876 132.597C158.267 139.625 160.508 148.166 162.277 156.698C164.242 166.18 166.032 175.696 168.015 185.174L168.383 186.94C170.217 195.768 171.95 204.601 173.226 213.533L173.318 214.181C174.605 223.367 175.379 232.87 173.974 242.08C173.697 243.902 170.666 243.448 170.784 241.648C171.127 236.444 171.372 231.267 171.135 226.051C170.898 220.835 170.409 215.641 169.68 210.47C169.066 206.118 168.151 201.82 167.342 197.503L167.215 196.821C166.537 193.149 165.839 189.481 165.142 185.813L164.1 180.32C162.538 172.096 160.946 163.864 159.147 155.692L159.041 155.211C157.28 147.348 154.685 139.112 149.404 132.868C144.045 126.532 136.374 123.341 128.881 120.253ZM109.409 203.652C109.538 203.364 109.988 203.396 110.127 203.652C110.67 204.654 110.73 205.933 110.833 207.065L110.844 207.181C110.974 208.562 111.09 209.948 111.161 211.333C111.295 213.962 111.359 216.587 111.351 219.22C111.342 221.917 111.288 224.612 111.143 227.306L111.103 228.027C110.971 230.368 110.748 232.979 109.636 235.026C109.232 235.77 108.133 235.551 107.899 234.799C107.132 232.335 107.526 229.414 107.722 226.891L107.875 224.922C108.026 222.953 108.171 220.984 108.285 219.012C108.442 216.315 108.571 213.616 108.696 210.918C108.736 210.041 108.78 209.165 108.826 208.288L108.897 206.974C108.957 205.874 108.952 204.668 109.409 203.652ZM23.1803 207.143L23.5198 206.815C24.562 205.795 25.879 204.223 27.4197 204.321C28.0341 204.36 28.4255 204.87 28.2982 205.475C28.026 206.767 26.7079 207.438 25.7591 208.227C24.7197 209.091 23.7401 210.015 22.7623 210.948C21.8949 211.775 21.0607 212.625 20.2465 213.502L19.9421 213.833C19.6502 214.151 17.572 216.032 17.7967 216.52L17.8089 216.541C17.8715 216.635 17.7673 216.763 17.6636 216.731C16.7661 216.447 16.8221 215.677 17.1614 214.898C17.8134 213.4 18.9551 212.014 19.952 210.735C20.9463 209.458 22.0225 208.27 23.1803 207.143V207.143ZM112.661 169.575C111.967 167.934 109.41 167.968 107.959 168.067C104.304 168.314 100.349 169.239 97.0974 170.948C93.7258 172.719 91.4548 175.558 89.4227 178.697L89.3276 178.845C87.347 181.925 85.4394 185.571 82.338 187.689C80.7584 188.767 78.9138 189.753 76.9972 190.179C76.8656 190.411 76.6524 190.594 76.3729 190.661L76.243 190.69C75.6971 190.811 74.849 190.944 74.1165 190.864C74.1214 191.223 74.1176 191.579 74.1267 191.918C74.1525 192.892 74.1634 193.869 74.1634 194.843C74.1639 196.884 74.0542 198.928 74.1394 200.969C74.2148 202.773 74.4696 204.659 75.3358 206.272C75.9711 207.456 76.8096 208.239 77.8218 208.987C80.3118 207.469 83.1273 206.543 85.9849 205.848C89.4408 205.006 92.9794 204.445 96.3567 203.304C97.9822 202.754 99.5449 202.036 100.961 201.059C102.464 200.023 103.611 198.62 104.792 197.248L104.977 197.035C106.182 195.652 107.497 194.329 109.201 193.58C110.668 192.934 112.601 192.819 113.883 191.819C114.554 191.296 114.61 190.538 114.681 189.761C113.859 189.878 112.99 189.69 112.171 189.594L111.747 189.544C110.973 189.452 110.217 189.351 109.454 189.154C109.313 189.117 109.313 188.904 109.454 188.867C110.355 188.635 111.248 188.536 112.171 188.427L112.388 188.4C113.223 188.291 114.102 188.125 114.921 188.309C115.068 187.75 115.28 187.215 115.578 186.68C115.996 185.928 116.788 185.076 116.894 184.198C116.926 183.936 116.865 183.626 116.742 183.395L116.699 183.315C116.647 183.222 116.586 183.128 116.496 183.07C116.486 183.082 116.465 183.095 116.419 183.109C115.788 183.308 115.238 182.999 114.946 182.523C113.706 182.677 112.354 182.625 111.191 182.677L110.016 182.734C108.76 182.791 107.447 182.816 106.267 182.563C106.102 182.527 106.053 182.253 106.218 182.182C107.668 181.562 109.428 181.364 110.981 181.125C111.849 180.992 112.723 180.89 113.593 180.773C114.172 180.695 114.787 180.566 115.387 180.535C116.892 178.661 116.081 175.704 113.987 174.897C113.224 175.233 112.538 175.038 111.704 174.966C110.872 174.895 110.038 174.846 109.203 174.85C107.529 174.857 105.755 175.298 104.098 175.108C103.828 175.077 103.578 174.718 103.846 174.499C105.115 173.463 106.933 173.126 108.544 172.905L108.877 172.86C109.417 172.789 110.074 172.686 110.755 172.625C110.909 172.324 111.186 172.097 111.601 172.04C111.724 172.023 111.848 172.014 111.972 172.003L111.97 171.991V171.991C112.982 171.942 112.938 170.231 112.661 169.575ZM43.3505 201.579C43.3326 201.606 43.313 201.633 43.2922 201.658L43.2601 201.695L43.4265 201.628L43.3505 201.579V201.579ZM130.327 165.908C126.066 165.45 121.799 165.547 117.525 165.67C117.183 166.788 115.993 167.742 114.84 167.777C115.743 169.152 115.836 171.013 115.203 172.471C116.548 173.006 117.706 173.968 118.409 175.338C119.384 177.236 119.256 179.349 118.293 181.103C119.115 181.848 119.6 183.058 119.552 184.198C119.497 185.469 118.74 186.555 118.111 187.608C117.431 188.746 117.408 189.748 117.199 191.023C116.893 192.889 115.635 194.02 114.017 194.727L114.103 195.066C114.52 196.691 115.039 198.405 116.232 199.593C117.766 201.122 120.146 201.108 122.173 201.204L122.271 201.209C124.127 201.302 125.982 201.411 127.838 201.516L129.23 201.594C131.366 201.711 133.417 201.726 135.161 200.313C138.009 198.006 139.961 194.19 141.196 190.811C143.789 183.719 143.82 175.936 142.63 168.55C138.638 167.262 134.496 166.356 130.327 165.908ZM94.8897 177.675L94.921 177.677C95.7984 177.777 96.4012 178.488 96.6158 179.331C96.9276 180.556 96.7747 181.664 97.5249 182.77C98.2966 183.908 98.7712 184.818 98.8833 186.224C98.9294 186.802 98.9083 187.379 99.0369 187.945L99.1302 188.341C99.2293 188.764 99.3104 189.171 99.2611 189.625C99.2161 190.039 99.0145 190.362 98.5994 190.495C97.2466 190.928 96.2021 189.93 95.8527 188.669C95.5508 187.58 95.9539 186.282 95.528 185.259C95.292 184.692 94.8568 184.218 94.6109 183.647C94.3673 183.081 94.245 182.49 94.2059 181.875C94.1317 180.711 95.1602 179.314 94.5864 178.26C94.4642 178.035 94.6026 177.668 94.8897 177.675ZM76.9208 165.67C77.8369 165.484 78.8761 165.057 79.7795 165.412C80.2438 165.594 80.4733 166.161 80.0809 166.555C79.3998 167.238 78.4098 167.276 77.4923 167.437L77.4116 167.451C76.3267 167.652 75.24 167.843 74.1517 168.023C72.1043 168.362 70.0521 168.662 67.9926 168.917C65.8774 169.179 63.7563 169.412 61.6322 169.588L60.8099 169.655C59.0157 169.799 57.1487 169.907 55.3882 169.632C55.1323 169.592 55.1735 169.219 55.3882 169.154C57.3169 168.57 59.4325 168.413 61.4264 168.166C63.5463 167.903 65.6626 167.625 67.7733 167.296C69.8807 166.966 71.9854 166.613 74.0822 166.222C75.03 166.046 75.9762 165.862 76.9208 165.67ZM109.975 163.795C109.171 163.51 108.286 163.089 107.415 163.23C105.913 163.473 104.576 164.937 103.387 165.901L103.984 165.785C107.039 165.198 111.084 164.565 113.649 166.508C113.655 166.497 113.66 166.486 113.668 166.475C113.875 166.16 114.115 165.915 114.376 165.646C114.401 165.622 114.426 165.598 114.449 165.573L114.591 165.423L114.268 165.311C113.576 165.066 112.756 164.75 112.627 164.704L112.618 164.701C111.735 164.402 110.852 164.106 109.975 163.795ZM84.8756 99.7403C84.7499 98.1229 87.2663 98.1362 87.391 99.7403C87.6629 103.242 86.8751 106.711 85.1794 109.782C85.167 109.804 85.1532 109.824 85.1401 109.845C86.2007 110.397 87.2733 110.927 88.3698 111.4C89.7724 112.006 91.2014 112.557 92.656 113.025C93.9717 113.449 95.5928 113.616 96.699 114.497C99.0316 116.356 98.1553 120.212 97.7065 122.712L97.6365 123.106C97.4131 124.392 97.2515 125.712 97.7936 126.947C98.3724 128.265 99.5431 129.243 100.587 130.187L100.798 130.378C101.723 131.221 102.781 132.246 103.459 133.389C104.079 132.108 104.923 131.061 105.816 129.882C106.453 129.041 105.999 128.763 105.542 127.942C105.101 127.151 104.886 126.308 105.024 125.405C105.278 123.739 106.609 122.536 107.934 121.631C109.499 120.564 111.246 119.773 112.864 118.78C116.188 116.739 119.425 114.406 122.341 111.815C122.422 111.744 122.561 111.838 122.497 111.935C120.193 115.441 117.492 118.47 114.171 121.042C112.825 122.084 111.411 122.949 109.987 123.858L109.578 124.121C109.006 124.491 108.293 124.987 108.035 125.617C107.775 126.251 108.329 126.73 108.628 127.256C109.576 128.924 109.119 130.481 107.995 131.896L107.942 131.961C106.826 133.338 105.979 134.618 105.575 136.377C104.705 140.156 105.916 144.091 107.184 147.638L107.234 147.778C107.92 149.69 108.65 151.588 109.246 153.53L109.41 154.067C109.95 155.855 110.392 157.617 109.786 159.455C109.58 160.08 108.728 160.228 108.374 159.639C107.126 157.565 106.814 155.069 106.032 152.789C105.269 150.566 104.394 148.384 103.657 146.152C102.708 143.279 102.073 140.186 102.418 137.172C102.408 137.154 102.397 137.138 102.388 137.119L102.147 136.591C101.488 135.16 100.852 133.911 99.6548 132.77C98.4058 131.58 97.0501 130.527 96.0673 129.087C93.9325 125.959 95.2528 122.479 95.5106 119.059L95.5402 118.639C95.587 117.929 95.6127 116.964 95.1489 116.472C94.6273 115.919 93.4041 115.778 92.712 115.533C90.9234 114.9 89.1608 114.162 87.482 113.276C85.884 112.433 84.336 111.501 82.8948 110.41L82.1643 109.86C81.0117 108.99 79.8165 108.04 79.044 106.855C78.9548 106.719 79.1063 106.499 79.2677 106.564C80.5573 107.088 81.7355 107.921 82.9421 108.645C82.9609 108.601 82.9827 108.556 83.0074 108.512C84.5002 105.809 85.1141 102.814 84.8756 99.7403ZM126.069 118.258C126.583 116.848 128.925 116.957 128.831 118.632C128.76 119.919 128.214 121.08 127.714 122.248L127.661 122.373C127.146 123.59 126.55 124.733 125.838 125.849C124.477 127.981 122.882 129.96 121.179 131.828C119.635 133.521 117.609 134.557 115.274 134.385C114.29 134.312 113.297 134.062 112.435 133.57C111.41 132.986 110.298 131.232 108.992 131.657C108.866 131.698 108.748 131.513 108.857 131.425C110.365 130.21 112.077 132.094 113.521 132.548C115.697 133.232 117.93 132.476 119.33 130.716C120.792 128.879 122.138 126.822 123.367 124.821C123.991 123.805 124.561 122.751 125.052 121.665C125.549 120.568 125.662 119.376 126.069 118.258ZM122.562 109.584C122.499 109.389 122.74 109.204 122.911 109.315C123.902 109.96 124.761 110.813 125.675 111.561C126.69 112.39 127.711 113.202 128.749 114.002C130.261 115.169 128.507 117.316 127.176 116.042C125.354 114.299 123.358 112.02 122.562 109.584ZM117.121 102.761C117.523 101.208 119.905 101.849 119.558 103.384L119.546 103.43C118.889 105.966 119.825 108.547 121.824 110.191L121.897 110.251C123.161 111.263 121.37 113.032 120.118 112.03C117.386 109.842 116.249 106.125 117.121 102.761Z" fill="black"/>
<path fill-rule="evenodd" clip-rule="evenodd" d="M137.157 42.9846C134.985 35.1253 126.684 31.696 119.208 31.1518C98.9663 29.0423 78.3627 40.3546 69.3889 58.6979C62.2055 72.6265 61.9806 87.2583 77.4216 95.2112C78.2649 95.6772 79.1455 96.1754 80.0449 96.6276C80.8262 97.356 81.6309 98.0557 82.5092 98.6433C90.9174 104.186 101.237 106.584 111.238 106.064C126.004 105.765 131.276 95.7203 134.502 82.8387C137.904 70.0142 139.807 56.0985 137.157 42.9846V42.9846Z" fill="#FFBB8C"/>
<path fill-rule="evenodd" clip-rule="evenodd" d="M146.85 117.064C146.161 114.974 145.296 112.947 144.489 110.899C144.318 109.878 144.204 108.849 144.175 107.811C144.063 104.104 144.755 100.366 145.53 96.7557C147.107 89.4198 148.779 82.1599 149.618 74.6887C151.117 61.325 150.225 47.4287 144.162 35.2296C138.908 24.6621 130.005 16.0199 118.505 12.7821C115.105 11.8244 111.606 11.2963 108.083 11.0853C107.647 11.0158 107.212 10.9477 106.778 10.8822C101.878 10.1417 96.9171 9.77264 91.9641 10.092C83.7504 10.6218 75.6136 12.9881 68.7728 17.6683C61.8855 22.3807 56.9919 28.9884 54.7148 37.0478C52.346 45.4321 52.5469 54.5123 48.4563 62.3729C47.2479 64.6952 45.8373 66.9029 44.492 69.1475C40.9226 73.1401 37.0473 77.5787 36.1981 83.0685C35.1503 89.853 39.0442 95.587 42.7293 100.881C46.0603 105.662 50.5804 112.265 47.1524 118.151C45.5354 120.928 42.9444 123.005 40.9985 125.537C38.9809 128.167 37.4061 131.185 36.5923 134.41C35.0639 140.467 36.47 146.78 40.5579 151.514C42.6872 153.979 45.4215 155.608 48.3815 156.879C51.411 158.176 54.3709 159.408 56.8755 161.617C58.0203 162.625 59.068 163.731 60.0589 164.889C60.9823 166.336 62.0575 167.689 63.2697 168.928C64.6042 170.291 67.2184 168.425 65.9935 166.82C65.9029 166.702 65.8143 166.586 65.7237 166.468C64.8277 165.297 63.9275 164.126 62.9851 162.993C60.1749 158.529 59.0933 153.064 60.4911 147.85C60.8537 146.495 61.3639 145.21 61.9987 143.997C62.1334 144.35 62.281 144.698 62.437 145.043C63.0441 146.379 63.8961 147.961 64.9795 149.314C65.0217 150.242 65.161 151.162 65.4307 152.062C67.1004 157.644 72.6829 160.398 77.7174 162.541C78.2107 162.752 78.6977 162.955 79.1762 163.156C80.4918 163.707 81.8832 161.828 81.0631 160.695C80.8481 160.398 80.6393 160.093 80.4412 159.785C78.08 156.12 76.9563 151.736 77.593 147.37C78.2634 142.752 80.9788 138.931 83.6752 135.264C86.3231 131.658 89.1671 127.979 90.3519 123.58C91.6632 118.721 90.47 113.877 88.4461 109.405C86.593 105.313 84.1244 101.541 82.0544 97.561C82.7632 98.2697 83.4945 98.9551 84.248 99.6162C85.0953 100.36 85.9658 101.211 86.9699 101.735C87.7124 102.122 88.4562 101.195 87.8682 100.568C87.0953 99.7438 86.1064 99.1072 85.2481 98.3719C84.4242 97.6662 83.6242 96.9322 82.8439 96.1783C81.8832 95.2503 80.9693 94.2785 80.088 93.2773C79.3828 91.4764 78.8018 89.6271 78.3287 87.7501C77.6857 85.2097 77.0912 82.5065 77.1376 79.8731C77.184 77.172 78.5838 75.2804 80.4475 73.4671C81.2368 72.6992 82.0337 71.9405 82.8292 71.1803C84.5233 69.9335 86.1213 68.5407 87.6736 67.1517C90.4396 64.6766 93.1149 62.0603 95.6699 59.3675C96.3553 58.6451 97.035 57.9146 97.7062 57.1758C100.052 54.763 102.288 52.2437 104.397 49.6373C106.492 48.8722 108.506 47.8599 110.395 46.6678C109.573 47.5027 108.742 48.3269 107.915 49.1575C106.075 51.009 104.163 52.8689 102.029 54.3777C101.81 54.5343 101.943 54.8661 102.213 54.8133C104.926 54.2701 107.464 53.3655 109.834 51.9241C112.244 50.4574 114.367 48.4643 116.348 46.4649C117.47 45.9577 118.552 45.3046 119.54 44.6621C119.593 44.6283 119.646 44.5924 119.698 44.5584C118.724 47.6527 117.295 51.1569 114.249 52.2602C114.149 52.2961 114.156 52.461 114.274 52.4546C116.84 52.3037 118.903 51.1461 120.531 49.4589C121.841 48.5142 123.091 47.513 124.283 46.4231C125.439 45.3672 126.533 44.2348 127.573 43.0622C126.12 45.9469 124.493 48.7676 122.888 51.5564C122.804 51.7043 122.981 51.9051 123.133 51.8015C126.521 49.5021 129.09 46.5347 131.192 43.0261C131.503 42.5095 131.799 41.9845 132.088 41.4555C131.87 42.2834 131.632 43.106 131.377 43.9243C130.915 45.4057 130.461 46.8904 129.999 48.3709C129.749 49.1692 129.446 49.9493 129.112 50.716C128.874 51.2647 128.561 51.8123 128.513 52.414C128.51 52.454 128.553 52.4802 128.588 52.4715C129.939 52.1329 131.197 50.5884 132.159 49.6316C132.695 49.0988 133.198 48.514 133.66 47.8973C133.745 51.4494 133.804 55.002 133.726 58.5648C133.581 65.1082 133.16 71.6494 132.62 78.1715C132.143 83.9374 131.791 89.9883 128.582 94.9994C126.099 98.8777 122.072 101.562 117.698 102.862C117.312 102.978 116.924 103.081 116.534 103.174C110.201 104.681 103.893 102.974 98.2936 99.9556C96.6112 99.0489 95.1734 101.509 96.7967 102.521C102.873 106.313 110.574 107.604 117.451 105.905C117.234 114.048 121.237 121.773 125.22 128.68C127.448 132.546 129.679 136.386 131.254 140.577C132.59 144.136 133.499 147.829 133.804 151.627C134.167 156.103 133.811 160.605 133.187 165.043C133.153 165.284 133.119 165.527 133.083 165.768C132.944 166.721 133.798 167.52 134.724 167.032C138.816 164.876 140.58 160.281 141.653 156.033C142.657 152.053 143.338 147.996 143.717 143.91C144.274 145.451 144.725 147.03 145.075 148.64C145.124 148.87 145.17 149.101 145.216 149.331C145.482 150.678 147.514 150.582 147.839 149.331C147.898 149.105 147.955 148.879 148.007 148.651C149.684 141.856 150.135 134.769 149.249 127.822C148.783 124.168 148.005 120.562 146.85 117.064" fill="#451D06"/>
<path d="M146.85 117.064C146.161 114.974 145.296 112.947 144.489 110.899C144.318 109.878 144.204 108.849 144.175 107.811C144.063 104.104 144.755 100.366 145.53 96.7557C147.107 89.4198 148.779 82.1599 149.618 74.6887C151.117 61.325 150.225 47.4287 144.162 35.2296C138.908 24.6621 130.005 16.0199 118.505 12.7821C115.105 11.8244 111.606 11.2963 108.083 11.0853C107.647 11.0158 107.212 10.9477 106.778 10.8822C101.878 10.1417 96.9171 9.77264 91.9641 10.092C83.7504 10.6218 75.6136 12.9881 68.7728 17.6683C61.8855 22.3807 56.9919 28.9884 54.7148 37.0478C52.346 45.4321 52.5469 54.5123 48.4563 62.3729C47.2479 64.6952 45.8373 66.9029 44.492 69.1475C40.9226 73.1401 37.0473 77.5787 36.1981 83.0685C35.1503 89.853 39.0442 95.587 42.7293 100.881C46.0603 105.662 50.5804 112.265 47.1524 118.151C45.5354 120.928 42.9444 123.005 40.9985 125.537C38.9809 128.167 37.4061 131.185 36.5923 134.41C35.0639 140.467 36.47 146.78 40.5579 151.514C42.6872 153.979 45.4215 155.608 48.3815 156.879C51.411 158.176 54.3709 159.408 56.8755 161.617C58.0203 162.625 59.068 163.731 60.0589 164.889C60.9823 166.336 62.0575 167.689 63.2697 168.928C64.6042 170.291 67.2184 168.425 65.9935 166.82C65.9029 166.702 65.8143 166.586 65.7237 166.468C64.8277 165.297 63.9275 164.126 62.9851 162.993C60.1749 158.529 59.0933 153.064 60.4911 147.85C60.8537 146.495 61.3639 145.21 61.9987 143.997C62.1334 144.35 62.281 144.698 62.437 145.043C63.0441 146.379 63.8961 147.961 64.9795 149.314C65.0217 150.242 65.161 151.162 65.4307 152.062C67.1004 157.644 72.6829 160.398 77.7174 162.541C78.2107 162.752 78.6977 162.955 79.1762 163.156C80.4918 163.707 81.8832 161.828 81.0631 160.695C80.8481 160.398 80.6393 160.093 80.4412 159.785C78.08 156.12 76.9563 151.736 77.593 147.37C78.2634 142.752 80.9788 138.931 83.6752 135.264C86.3231 131.658 89.1671 127.979 90.3519 123.58C91.6632 118.721 90.47 113.877 88.4461 109.405C86.593 105.313 84.1244 101.541 82.0544 97.561C82.7632 98.2697 83.4945 98.9551 84.248 99.6162C85.0953 100.36 85.9658 101.211 86.9699 101.735C87.7124 102.122 88.4562 101.195 87.8682 100.568C87.0953 99.7438 86.1064 99.1072 85.2481 98.3719C84.4242 97.6662 83.6242 96.9322 82.8439 96.1783C81.8832 95.2503 80.9693 94.2785 80.088 93.2773C79.3828 91.4764 78.8018 89.6271 78.3287 87.7501C77.6857 85.2097 77.0912 82.5065 77.1376 79.8731C77.184 77.172 78.5838 75.2804 80.4475 73.4671C81.2368 72.6992 82.0337 71.9405 82.8292 71.1803C84.5233 69.9335 86.1213 68.5407 87.6736 67.1517C90.4396 64.6766 93.1149 62.0603 95.6699 59.3675C96.3553 58.6451 97.035 57.9146 97.7062 57.1758C100.052 54.763 102.288 52.2437 104.397 49.6373C106.492 48.8722 108.506 47.8599 110.395 46.6678C109.573 47.5027 108.742 48.3269 107.915 49.1575C106.075 51.009 104.163 52.8689 102.029 54.3777C101.81 54.5343 101.943 54.8661 102.213 54.8133C104.926 54.2701 107.464 53.3655 109.834 51.9241C112.244 50.4574 114.367 48.4643 116.348 46.4649C117.47 45.9577 118.552 45.3046 119.54 44.6621C119.593 44.6283 119.646 44.5924 119.698 44.5584C118.724 47.6527 117.295 51.1569 114.249 52.2602C114.149 52.2961 114.156 52.461 114.274 52.4546C116.84 52.3037 118.903 51.1461 120.531 49.4589C121.841 48.5142 123.091 47.513 124.283 46.4231C125.439 45.3672 126.533 44.2348 127.573 43.0622C126.12 45.9469 124.493 48.7676 122.888 51.5564C122.804 51.7043 122.981 51.9051 123.133 51.8015C126.521 49.5021 129.09 46.5347 131.192 43.0261C131.503 42.5095 131.799 41.9845 132.088 41.4555C131.87 42.2834 131.632 43.106 131.377 43.9243C130.915 45.4057 130.461 46.8904 129.999 48.3709C129.749 49.1692 129.446 49.9493 129.112 50.716C128.874 51.2647 128.561 51.8123 128.513 52.414C128.51 52.454 128.553 52.4802 128.588 52.4715C129.939 52.1329 131.197 50.5884 132.159 49.6316C132.695 49.0988 133.198 48.514 133.66 47.8973C133.745 51.4494 133.804 55.002 133.726 58.5648C133.581 65.1082 133.16 71.6494 132.62 78.1715C132.143 83.9374 131.791 89.9883 128.582 94.9994C126.099 98.8777 122.072 101.562 117.698 102.862C117.312 102.978 116.924 103.081 116.534 103.174C110.201 104.681 103.893 102.974 98.2936 99.9556C96.6112 99.0489 95.1734 101.509 96.7967 102.521C102.873 106.313 110.574 107.604 117.451 105.905C117.234 114.048 121.237 121.773 125.22 128.68C127.448 132.546 129.679 136.386 131.254 140.577C132.59 144.136 133.499 147.829 133.804 151.627C134.167 156.103 133.811 160.605 133.187 165.043C133.153 165.284 133.119 165.527 133.083 165.768C132.944 166.721 133.798 167.52 134.724 167.032C138.816 164.876 140.58 160.281 141.653 156.033C142.657 152.053 143.338 147.996 143.717 143.91C144.274 145.451 144.725 147.03 145.075 148.64C145.124 148.87 145.17 149.101 145.216 149.331C145.482 150.678 147.514 150.582 147.839 149.331C147.898 149.105 147.955 148.879 148.007 148.651C149.684 141.856 150.135 134.769 149.249 127.822C148.783 124.168 148.005 120.562 146.85 117.064" stroke="black"/>
<path fill-rule="evenodd" clip-rule="evenodd" d="M118.116 92.3886C119.713 92.1663 121.431 91.2615 122.956 91.9968C123.669 92.3404 124.007 93.5157 123.525 94.169C122.789 95.1668 122.029 95.3319 120.834 95.4278C119.938 95.4997 119.037 95.505 118.143 95.4016L117.916 95.3738C116.321 95.1679 114.664 94.7227 113.429 93.6506C113.176 93.4312 113.305 92.9574 113.63 92.8889C115.097 92.5801 116.631 92.5955 118.116 92.3886ZM116.237 88.71C116.236 88.6971 116.256 88.6971 116.257 88.71C116.295 89.623 116.552 90.4695 117.026 91.2506C117.032 91.2618 117.015 91.2717 117.009 91.2607C116.534 90.479 116.276 89.6238 116.237 88.71ZM121.271 69.8662C122.866 70.8363 125.297 73.0984 123.581 75.5034C121.561 77.624 118.652 75.1926 117.219 74.093C115.89 73.2407 114.396 75.4326 115.629 76.4277C125.987 84.0987 130.19 70.1198 122.078 68.7256C121.184 68.5719 120.853 69.5661 121.271 69.8662ZM129.436 59.0098C129.811 59.0098 130.169 59.137 130.495 59.3723C130.817 59.604 131.107 59.9421 131.349 60.3638C131.808 61.1618 132.094 62.2636 132.094 63.4819C132.094 64.7002 131.808 65.8021 131.349 66.6001C131.107 67.0217 130.817 67.3599 130.495 67.5915C130.169 67.8269 129.811 67.9541 129.436 67.9541C129.062 67.9541 128.703 67.8269 128.377 67.5915C128.056 67.3599 127.765 67.0217 127.523 66.6001C127.065 65.8021 126.778 64.7002 126.778 63.4819C126.778 62.2636 127.065 61.1618 127.523 60.3638C127.765 59.9421 128.056 59.604 128.377 59.3723C128.703 59.137 129.062 59.0098 129.436 59.0098ZM112.087 60.2524L112.228 60.2257C113.051 60.0759 113.467 60.1263 114.184 60.6874C114.722 61.109 114.568 61.9394 114.184 62.3828C113.514 63.1555 112.86 63.0187 111.943 63.0481L111.879 63.0505C111.115 63.0815 110.35 63.1033 109.585 63.1149C109.376 63.1183 109.167 63.1175 108.958 63.1187C108.98 65.0549 107.864 66.5291 106.394 67.6499C105.444 68.3746 104.243 67.5385 103.904 66.6365C103.624 65.89 103.563 64.9721 103.709 64.1548C103.763 63.8535 103.875 63.5265 104.046 63.2476L104.095 63.1728L104.087 63.0659C104.085 63.0395 104.087 63.0139 104.086 62.9875C102.722 62.9046 101.365 62.7677 100.01 62.5957L99.5576 62.5371C98.4003 62.3839 96.7006 62.3346 95.7641 61.5816C95.7345 61.5575 95.745 61.5049 95.7763 61.4882C96.2912 61.2108 96.8135 61.2265 97.3893 61.2009L97.4719 61.1969C98.0981 61.1646 98.7229 61.1376 99.3488 61.1161L99.975 61.0965C101.577 61.0507 103.18 60.9729 104.781 60.8877C105.059 60.8729 105.337 60.8554 105.616 60.8383C105.907 60.7161 106.217 60.643 106.523 60.6295C106.776 60.618 107.02 60.6531 107.249 60.726C107.834 60.6809 108.418 60.6316 109.002 60.5787L109.585 60.5246C110.409 60.4462 111.274 60.412 112.087 60.2524ZM122.201 45.7411C123.961 44.8756 126.102 44.8544 127.915 45.5707L128.035 45.6194C129.866 46.3796 132.072 48.1355 131.595 50.3227C131.158 52.3246 128.019 51.9854 127.86 50.0932C126.846 48.6885 124.574 48.3804 123.145 49.2736C122.279 49.8155 121.684 50.7279 121.277 51.6481C120.931 52.4318 120.866 53.3995 120.334 54.0822C120.316 54.1044 120.282 54.1084 120.256 54.1025C118.669 53.7352 118.633 51.2123 118.903 49.9886C119.296 48.2094 120.558 46.5488 122.201 45.7411Z" fill="black"/>
<path fill-rule="evenodd" clip-rule="evenodd" d="M140.179 71.1537C137.614 73.8051 133.332 74.5659 129.919 73.144C121.156 69.4815 125.445 58.058 132.203 54.9903C133.047 54.7797 134.175 54.2803 135.203 54.167C135.296 54.1214 135.499 54.2535 135.744 54.1286C143.196 54.9609 144.892 66.5327 140.179 71.1537M111.916 71.8323C109.039 75.6495 103.69 76.8272 99.3205 75.0527C90.6877 71.6516 93.7496 61.5218 99.656 57.5505C112.133 52.8605 117.285 64.7942 111.916 71.8323M93.2016 63.3745C93.1935 63.3707 93.1855 63.3688 93.1773 63.365C93.2229 63.3449 93.2685 63.3249 93.3139 63.3044C93.2992 63.343 93.2831 63.3813 93.2687 63.42C93.2463 63.4045 93.2267 63.3866 93.2016 63.3745M146.118 59.2483C145.413 59.2498 144.396 59.3656 143.813 59.8545C142.375 55.0034 137.067 50.5136 132.452 53.7875C128.817 54.9569 126.12 57.5503 124.587 60.9983C121.823 59.3536 117.476 60.0559 115.08 62.2309C113.51 57.042 109.647 55.2251 105.048 54.9569C100.03 54.1345 95.0271 59.0106 93.4663 62.9222C92.1685 62.7745 90.2292 62.3613 89.0083 63.1625C81.0843 61.0837 67.2304 59.9375 65.6195 61.0926C64.4715 61.5332 63.8415 64.244 65.445 64.3903C66.8423 64.1918 65.2819 62.404 66.6904 62.2089C74.1953 61.7435 81.4809 63.2555 88.9063 63.89C89.5692 64.7821 91.7113 65.0805 92.854 64.7221C91.0542 71.3576 94.9394 75.8721 100.761 77.2243C109.775 79.2957 117.618 71.2289 115.26 62.8383C117.991 61.4793 121.132 61.5377 124.107 62.2535C119.136 80.5543 148.599 79.7332 143.997 60.4816C147.059 62.0054 147.724 59.5558 146.118 59.2483" fill="black"/>
</g>
<defs>
<filter id="filter0_d_17_20417" x="0.0563965" y="0.0429688" width="180.817" height="259.93" filterUnits="userSpaceOnUse" color-interpolation-filters="sRGB">
<feFlood flood-opacity="0" result="BackgroundImageFix"/>
<feColorMatrix in="SourceAlpha" type="matrix" values="0 0 0 0 0 0 0 0 0 0 0 0 0 0 0 0 0 0 127 0" result="hardAlpha"/>
<feOffset dy="4"/>
<feGaussianBlur stdDeviation="2"/>
<feComposite in2="hardAlpha" operator="out"/>
<feColorMatrix type="matrix" values="0 0 0 0 0 0 0 0 0 0 0 0 0 0 0 0 0 0 0.25 0"/>
<feBlend mode="normal" in2="BackgroundImageFix" result="effect1_dropShadow_17_20417"/>
<feBlend mode="normal" in="SourceGraphic" in2="effect1_dropShadow_17_20417" result="shape"/>
</filter>
</defs>
</svg>
