<svg width="336" height="508" viewBox="0 0 336 508" fill="none" xmlns="http://www.w3.org/2000/svg">
<g filter="url(#filter0_d_44_20701)">
<path fill-rule="evenodd" clip-rule="evenodd" d="M185.089 324.942C185.65 330.792 184.502 336.378 181.768 341.1L180.878 342.637L182.571 343.228C185.653 344.304 189.08 344.827 193.049 344.827C197.133 344.827 201.38 344.26 204.793 343.803L206.977 343.511L205.904 341.616C205.041 340.093 204.881 338.247 204.712 336.293C204.666 335.768 204.619 335.225 204.558 334.688C201.324 305.827 197.237 276.589 193.284 248.314C192.244 240.874 191.168 233.18 190.125 225.612L187.132 225.727C186.327 239.735 185.545 253.98 184.79 267.756C184.457 273.814 184.125 279.872 183.79 285.929C182.596 301.243 183.008 313.643 185.089 324.942M186.31 498.012C181.915 498.012 177.51 497.555 173.221 496.654C159.797 493.84 147.601 487.201 137.224 481.2C136.694 480.9 136.156 480.6 135.604 480.291C131.542 478.021 126.486 475.197 123.317 471.752C119.841 467.972 119.243 464.206 121.434 459.9L121.781 459.218L121.419 458.545C119.149 454.326 119.318 449.107 121.829 445.853L123.94 443.119L120.47 443.487C116.971 443.857 113.445 444.36 110.035 444.846C106.251 445.385 102.338 445.942 98.4843 446.315L97.4133 446.419L97.167 447.449C97.0299 448.023 96.8606 448.371 95.6718 448.371C94.6409 448.371 93.2555 448.07 91.7893 447.751C89.9695 447.355 87.9068 446.906 85.9177 446.906C85.0428 446.906 84.256 446.989 83.5117 447.161L83.0787 447.26L82.7705 447.576C82.5734 447.777 82.2379 447.902 81.8951 447.902C81.6358 447.902 81.3953 447.83 81.2346 447.705L80.7486 447.325L80.132 447.393C69.3887 448.571 60.1249 450.638 51.8123 453.712L51.7747 453.726L51.5944 453.804C48.5885 455.099 45.4809 456.439 42.6505 456.439C40.5815 456.439 38.9014 455.736 37.3628 454.227L36.928 453.801L36.3146 453.795C30.0913 453.738 27.2477 446.491 26.8545 441.634L26.8051 441.023L26.3307 440.625C15.4848 431.536 9.08195 419.054 6.7554 402.464C4.63649 387.353 6.26341 371.42 8.13433 357.827C12.4622 322.602 16.9761 291.024 28.4503 261.074L28.9864 259.674L27.5579 259.162C22.6021 257.384 18.8147 255.262 15.9788 252.676L15.7825 252.496L15.5352 252.395C11.4709 250.727 9.4804 244.572 8.9671 242.726L8.92597 242.577L8.85426 242.44C8.025 240.851 7.83367 238.642 8.32967 236.377L8.38283 236.133L8.35199 235.885C8.08418 233.735 8.97312 231.488 9.91421 229.108C10.3443 228.021 10.7886 226.897 11.1133 225.778C12.2297 222.579 13.3448 219.324 14.4236 216.175C16.8439 209.112 19.3463 201.807 22.0121 194.702L22.3767 193.73L21.5735 193.06C20.2024 191.917 20.6602 190.57 22.6375 187.351C23.1046 186.591 23.5465 185.872 23.8825 185.163C26.4169 180.79 29.1331 176.592 31.9572 172.684L32.0154 172.604L32.0617 172.517C46.5529 145.492 72.2574 130.609 104.44 130.609L105.096 130.61L105.459 130.392C111.49 126.77 115.796 120.555 118.622 111.393L118.712 111.101L118.677 110.798C118.581 109.953 118.475 108.846 118.511 107.772C118.603 105.051 119.671 102.623 121.441 101.11C124.799 98.2403 129.896 98 134.83 98L135.538 98.0012C141.846 98.0192 146.3 99.1128 149.553 101.443C153.334 104.151 155.423 108.522 155.941 114.806C156.096 116.686 156.09 118.634 156.086 120.518L156.084 121.043L156.148 121.252C156.601 122.746 157.132 124.181 157.726 125.518L158.337 126.893L159.726 126.273C160.625 125.872 161.764 125.666 163.209 125.643C163.626 125.633 164.032 125.629 164.442 125.629C167.798 125.629 171.388 125.935 174.86 126.23C177.476 126.453 180.181 126.684 182.799 126.786L182.835 126.788C182.835 126.788 183.197 126.786 183.359 126.786C189.723 126.786 194.337 127.785 197.878 129.931C201.69 132.241 204.432 135.949 206.505 141.6C217.624 173.992 222.195 208.882 226.228 239.664C228.515 255.761 229.21 272.263 229.883 288.222C230.594 305.067 231.328 322.485 233.928 339.512L234.133 340.858L235.514 340.769C241.59 340.378 248.156 339.534 255.108 338.641C265.67 337.285 276.591 335.882 287.149 335.882C301.911 335.882 313.104 338.782 321.362 344.748C327.119 350.165 330.097 357.499 329.975 365.964C329.802 377.924 323.467 391.146 313.836 399.649L313.8 399.683C301.626 411.167 279.405 421.127 247.753 429.288C218.648 436.791 188.542 440.87 173.186 442.632L169.385 443.069L172.47 445.296C173.719 446.197 174.858 446.991 175.953 447.722L176.659 448.194L177.433 447.84C179.64 446.829 181.041 446.617 181.829 446.617C182.528 446.617 183.371 446.768 183.417 447.491C183.448 447.964 183.111 448.666 182.399 448.755L178.622 449.225L181.706 451.422C183.766 452.889 186.84 454.657 190.4 456.706C202.045 463.406 219.643 473.531 216.616 482.422L216.418 483.007L216.699 483.557C217.512 485.149 217.582 486.627 216.911 488.075C215.474 491.178 210.979 493.533 207.162 494.491L207.096 494.508L207.032 494.53C200.39 496.841 193.418 498.012 186.31 498.012" fill="#D08B5B"/>
<path fill-rule="evenodd" clip-rule="evenodd" d="M156.325 431.238C156.443 431.056 156.548 430.799 156.606 430.572C157.411 431.717 170.298 442.995 183.042 452.567C194.879 461.458 208.455 468.175 213.726 475.587C215.729 478.404 216.747 486.66 216.362 488.047C215.501 489.137 206.025 494.032 206.025 494.032C203.884 494.611 186.699 499.264 179.066 497.681C176.258 497.254 156.01 490.783 153.452 489.626L131.694 477.018C131.219 476.81 130.746 476.603 130.276 476.397L129.64 476.144C124.787 474.204 118.597 470.095 119.864 464.172C121.355 458.076 118.681 456.744 119.293 452.728C119.823 449.252 120.98 445.714 122.829 442.34C129.97 450.361 139.035 449.661 143.602 439.691L143.706 439.488L143.809 439.284C145.302 436.31 146.714 432.531 150.249 431.362C152.2 430.044 154.695 429.771 156.325 431.238ZM91.0639 408.867L91.5059 409.88C93.6543 414.788 98.2151 424.987 100.027 429.01C99.6234 428.265 99.162 427.55 98.643 426.874C97.126 424.899 98.9057 430.866 98.9196 437.093C98.9325 442.869 97.146 448.87 96.7344 448.97C96.2281 449.093 89.1622 445.625 82.5381 446.677C77.19 447.527 69.0813 448.485 61.0256 450.682C54.4778 452.467 47.9649 455.494 42.9982 456.523C38.963 457.359 38.1742 452.993 35.5377 453.263C33.1624 453.506 32.78 453.448 32.1918 452.957C28.8944 450.235 25.7774 439.474 26.0884 435.432C28.8252 414.005 71.0709 407.099 91.0639 408.867Z" fill="#DA0037"/>
<path fill-rule="evenodd" clip-rule="evenodd" d="M161.866 124.293L166.917 124.471L167.362 124.489C169.046 124.561 170.794 124.684 173.259 124.888L173.932 124.945L178.798 125.718C180.282 125.952 181.674 126.171 183.019 126.38L185.663 126.789L188.796 127.269L189.141 127.323C193.832 128.08 197.045 129.219 199.7 131.528L199.817 131.631L199.868 131.676L199.915 131.725C203.97 135.89 207.029 142.44 209.522 151.379L209.685 151.967L209.831 152.506C211.397 158.312 217.818 192.858 217.818 192.858L215.616 193.024C215.347 193.044 215.08 193.068 214.816 193.096C206.904 193.923 197.634 198.461 191.556 204.312C191.192 204.662 190.828 205.029 190.464 205.411L190.246 205.642L188.287 207.734C188.287 207.734 181.518 311.635 182.538 319.042L182.591 319.423L182.652 319.702C185.125 331.051 184.012 339.704 179.174 345.205L179.026 345.371L178.873 345.538C173.751 351.054 165.051 352.878 153.101 351.003C152.936 350.977 152.774 350.951 152.614 350.925L150.634 350.592L150.854 348.489L150.89 348.14C152.457 332.708 152.173 319.205 149.537 307.249C146.49 293.427 140.361 282.188 130.619 273.776L130.323 273.522L130.28 273.486L129.535 274.494L127.516 272.777C108.251 256.431 60.29 219.177 60.29 219.177L67.9809 208.163L67.9677 208.15C67.8915 208.075 67.7859 207.985 67.6487 207.879L67.5232 207.784L67.4616 207.739C66.7425 207.216 36.0674 193.491 26.9454 191.967L26.5041 191.895L26.0631 191.824L25.7066 191.768L25.1459 191.682L22.8064 191.331L23.6775 189.134C23.7941 188.84 23.9122 188.544 24.0318 188.247C26.0316 183.275 28.0309 182.382 30.1965 178.284L30.3751 177.947L30.7304 177.229C35.5505 167.613 42.2587 153.663 56.6598 144.325C75.9683 131.805 98.2988 129.925 98.4275 129.995C98.4275 129.995 101.683 141.772 108.567 150.084C113.041 155.487 121.508 160.155 124.766 161.262L125.017 161.347L125.274 161.432C133.953 164.262 143.425 164.252 151.382 161.32L151.577 161.247L151.7 161.193C156.336 159.129 159.636 155.513 161.751 150.53L161.825 150.356L161.897 150.18C164.272 144.363 164.987 136.973 164.312 129.053L164.288 128.777L164.252 128.381L164.25 128.358L161.866 124.293ZM27.7938 259.119L28.5232 259.353L29.0203 259.51C31.5761 260.312 34.9856 261.748 39.2902 262.923L43.8225 264.158C45.0607 264.498 46.0161 264.764 46.9539 265.031L48.3577 265.435L48.9782 265.617L51.3992 266.342L50.1429 268.416L49.6423 269.245C35.7334 292.344 24.1752 317.111 15.107 343.099C14.415 345.083 13.735 347.08 13.0676 349.09L12.6687 350.297L9.01562 349.478C9.34027 346.879 9.67148 344.35 10.0122 341.876L10.1748 340.704C10.6954 336.982 11.2692 333.146 11.904 329.127L12.1041 327.865L12.2281 326.967L12.3102 326.384C13.6278 317.078 15.2175 309.073 18.7092 293.234L20.3721 285.705C22.31 276.886 27.7938 259.119 27.7938 259.119Z" fill="#DA0037"/>
<path fill-rule="evenodd" clip-rule="evenodd" d="M208.364 343.135C209.144 338.888 207.665 334.502 207.409 330.225C203.537 299.719 199.262 269.233 193.597 238.993C192.208 231.756 190.804 224.549 189.194 217.352C189.437 212.993 189.651 208.635 189.791 204.274C197.652 199.338 206.517 196.144 215.684 194.534C218.162 208.317 220.637 222.09 222.355 235.996C227.708 270.417 224.654 305.441 229.847 339.822C222.643 340.629 215.494 341.823 208.364 343.135M222.192 369.951C216.775 371.389 211.352 372.765 205.891 374.035C196.173 376.294 186.458 378.562 176.765 380.922C171.926 382.1 167.077 383.243 162.249 384.459C159.958 385.037 157.682 385.678 155.44 386.421C154.321 386.792 153.227 387.218 152.134 387.655C151.176 388.037 150.272 388.565 149.219 388.49C149.156 388.485 149.117 388.425 149.148 388.368C149.699 387.357 150.834 386.877 151.837 386.366C152.942 385.802 154.093 385.318 155.246 384.856C157.806 383.83 160.472 383.076 163.131 382.345C172.797 379.689 182.545 377.31 192.283 374.929C202.068 372.537 211.853 370.246 221.767 368.434C222.766 368.252 223.198 369.683 222.192 369.951M174.201 451.736C174.635 451.62 175.071 451.514 175.505 451.413C182.456 457.192 215.193 472.199 212.703 481.162C211.823 482.277 209.716 482.531 208.384 482.891C206.065 483.517 203.723 484.06 201.358 484.489C193.715 485.878 185.799 486.12 178.166 484.536C175.357 484.11 172.822 482.913 170.264 481.757C161.999 478.126 152.897 474.115 144.672 470.514C134.223 466.378 115.895 458.226 123.433 444.47C130.574 452.491 139.639 451.791 144.205 441.821C145.78 438.794 147.154 434.715 150.853 433.491C152.804 432.174 155.299 431.9 156.929 433.368C157.047 433.186 157.152 432.929 157.21 432.702C159.048 435.314 160.632 438.064 162.786 440.452C162.047 440.491 154.349 446.181 156.62 446.184C159.354 444.778 162.07 443.607 165.021 442.849C167.16 444.998 169.512 446.996 171.949 448.843C169.582 450.404 167.456 452.316 165.746 454.39C165.598 454.573 165.778 454.81 165.999 454.711C168.654 453.529 171.385 452.491 174.201 451.736M209.438 490.495C182.85 502.421 154.702 489.141 132.028 474.983C126.795 472.065 119.912 467.929 120.97 461.06C124.824 466.691 131.178 469.897 137.277 472.677C147.523 477.302 157.837 481.779 168.108 486.347C169.078 489.56 173.717 489.684 176.521 490.397C189.001 492.814 202.417 491.613 214.162 486.793C213.482 488.803 211.258 489.726 209.438 490.495M103.357 444.058C102.7 444.142 102.043 444.218 101.386 444.292C101.453 443.424 100.93 442.556 100.087 442.287C100.466 440.447 100.606 438.545 100.403 436.678C101.501 439.512 105.047 438.651 107.299 437.835C110.516 436.962 113.713 436.022 116.893 435.02C118.147 437.347 119.475 439.638 121.108 441.744C115.165 442.272 109.277 443.321 103.357 444.058M100.741 435.144C100.583 435.477 100.358 435.83 100.353 436.229C100.192 434.85 99.8788 433.489 99.4024 432.184C99.8485 433.171 100.295 434.157 100.741 435.144M96.9901 427.752C94.066 423.946 88.6624 420.836 83.6673 421.896C83.3461 421.965 83.3385 422.481 83.6673 422.545C90.3773 423.455 96.2702 428.77 96.5034 435.642C97.0325 438.753 94.8662 441.806 95.5959 444.791C95.4504 444.8 95.305 444.808 95.1621 444.818C95.1094 445.017 95.0615 445.195 94.9988 445.35C95.7238 445.471 95.9367 446.636 95.0816 446.843C94.5753 446.966 94.0459 447.03 93.5071 447.057C90.7713 446.32 87.885 446.149 85.2694 445.059C82.6818 443.917 83.3287 440.708 82.4157 438.486C81.7465 435.923 80.9764 433.371 80.0062 430.911C79.936 430.714 79.6677 430.758 79.6451 430.958C78.9605 435.864 78.9831 440.854 79.1486 445.799C78.2509 445.891 77.3582 445.992 76.4627 446.103C76.5206 444.721 72.3706 427.892 70.184 432.211C71.2848 436.959 71.4177 441.92 71.5356 446.806C65.0434 447.874 58.6463 449.465 52.4227 451.63C48.0369 452.957 42.8209 456.884 38.5633 453.334C35.2658 450.612 34.1549 445.861 34.4659 441.818C38.7536 417.9 72.6213 415.106 92.6141 416.874C94.5026 421.225 96.4259 425.561 98.3743 429.888C97.9706 429.143 97.5092 428.428 96.9901 427.752M28.8012 441.352C28.4351 435.921 29.3501 429.16 33.3801 425.112C42.603 417.326 55.5171 414.876 67.042 412.057C72.4105 410.999 77.8522 410.296 83.316 409.946C85.2546 409.793 87.717 410.232 89.0859 408.648C89.7908 410.316 90.5052 411.981 91.2201 413.646C68.2757 410.644 20.4056 421.072 33.8111 452.459C30.9725 449.388 29.0918 445.649 28.8012 441.352M12.7827 340.816C13.4247 336.155 14.1266 331.498 14.8688 326.848C17.9032 304.61 24.1747 282.966 27.9135 260.878C34.3854 262.98 41.0132 264.581 47.548 266.473C33.3876 289.988 21.805 314.96 12.7827 340.816M65.9544 318.934C64.7094 313.024 63.3132 307.002 62.6785 300.994C62.6499 300.724 63.0659 300.695 63.1401 300.932C64.18 304.259 64.8887 307.709 65.7658 311.082C66.6463 314.466 67.4647 317.866 68.3316 321.255C68.6084 322.337 68.886 323.418 69.1639 324.5C69.3304 324.507 69.4964 324.513 69.6616 324.516C70.2966 324.531 70.4869 325.327 69.9761 325.658C69.8269 325.755 69.6774 325.84 69.5275 325.915C72.182 336.226 74.902 346.514 77.8705 356.745C81.3294 368.668 85.2237 380.448 88.3362 392.467C88.4081 392.745 88.2792 392.94 88.0907 393.024C89.7096 398.493 91.0662 404.034 92.5461 409.545C92.8543 410.692 91.1572 411.436 90.5769 410.362C89.6835 408.707 89.4861 406.446 89.0488 404.627C88.5561 402.579 88.0879 400.526 87.6205 398.472C86.877 395.205 86.21 391.899 85.6601 388.586C83.6109 383.445 81.7758 378.242 80.1519 372.941C76.5151 361.069 73.1605 349.116 70.1744 337.07C69.2928 333.514 68.4287 329.953 67.6042 326.383C63.8503 326.441 59.9279 322.2 56.1558 324.458C55.9812 324.562 55.8044 324.325 55.9419 324.185C57.4457 322.664 59.5242 322.531 61.5436 322.908C62.8558 323.152 64.1138 323.617 65.3985 323.966C65.9644 324.121 66.5455 324.234 67.1327 324.318C66.7278 322.526 66.3331 320.732 65.9544 318.934M146.828 430.835C144.91 432.088 143.345 433.94 142.242 435.931C135.17 454.405 127.608 444.509 118.212 434.596C126.163 431.6 136.695 429.355 142.794 423.398C143.849 426.033 145.141 428.541 146.828 430.835M144.299 385.772C143.684 382.732 143.178 379.674 142.718 376.608C142.276 373.669 141.586 370.519 141.698 367.543C141.703 367.425 141.87 367.404 141.906 367.516C142.862 370.482 143.149 373.763 143.755 376.818C144.341 379.772 144.986 382.715 145.635 385.655C146.968 391.693 148.853 397.638 149.994 403.711C150.116 404.362 149.236 404.59 148.997 403.982C146.712 398.174 145.528 391.861 144.299 385.772M14.9666 248.817C11.8775 245.495 9.4499 241.252 9.91907 236.751C11.7747 234.279 12.389 231.056 13.4698 228.199C17.6951 216.247 21.617 204.202 26.2156 192.378C35.998 195.382 45.6219 198.986 54.6996 203.719C56.3694 204.57 58.0222 205.453 59.6546 206.368C61.3648 207.325 63.2304 208.988 65.2814 208.511C63.0398 211.681 58.4234 214.979 57.6433 218.642C57.4755 219.801 58.298 220.876 59.5618 220.617C79.3439 234.649 99.7735 248.385 118.472 264.016C132.475 275.086 143.225 284.064 148.027 302.025C151.264 313.66 151.274 325.82 150.798 337.782C150.705 340.108 150.703 342.489 150.515 344.829C150.795 346.581 150.261 350.145 148.29 350.209C148.335 350.633 148.476 351.025 148.699 351.371C148.636 351.454 148.571 351.533 148.504 351.615C148.406 351.136 148.31 350.66 148.22 350.182C146.686 343.394 146.48 335.518 146.735 328.291C146.843 326.219 143.661 326.269 143.483 328.291C143.004 333.755 142.525 339.218 142.046 344.679C141.472 348.218 142.377 352.848 139.544 355.539C136.663 352.88 137.615 347.636 137.756 344.205C137.981 338.609 138.225 333.015 138.433 327.418C138.498 325.645 135.557 325.188 135.223 326.991C134.278 332.132 133.255 337.257 132.154 342.368C131.49 344.343 131.033 353.208 127.713 351.669C125.734 350.32 127.161 342.41 126.901 339.79C127.023 334.606 127.096 329.428 127.477 324.256C127.633 322.169 124.23 321.725 123.764 323.763C123.006 327.06 122.282 330.358 121.625 333.678C120.183 339.275 120.707 346.862 115.501 350.581C113.462 336.044 116.396 321.607 116.808 307.121C116.562 302.427 115.754 297.78 115.042 293.143C114.255 288.015 113.796 282.433 115.639 277.488C115.135 275.273 113.154 281.264 112.968 281.763C111.476 278.827 107.843 278.6 104.969 277.685C98.5824 275.621 92.0399 274.065 85.5781 272.229C68.4409 267.476 51.284 262.797 34.1223 258.128C27.2666 256.234 20.0497 253.992 14.9666 248.817M186.574 326.145C184.209 313.346 184.274 300.378 185.285 287.438C186.396 267.37 187.474 247.298 188.627 227.232C193.635 263.55 198.974 299.825 203.056 336.258C203.347 338.794 203.302 341.477 204.583 343.739C197.502 344.686 189.954 345.641 183.068 343.236C186.09 338.019 187.155 332.08 186.574 326.145M32.8733 177.744C44.8097 153.273 69.1481 135.902 96.4434 132.113C96.4735 132.143 96.5061 132.172 96.5362 132.204C96.446 132.286 96.3632 132.375 96.288 132.466C97.0224 131.926 98.0305 132.604 97.7048 133.351C98.1085 134.271 98.4066 135.218 98.7803 136.146C98.9385 136.131 99.099 136.116 99.2592 136.092C100.879 139.303 101.757 143.005 103.449 146.207C112.713 162.234 135.572 168.741 152.719 162.271C166.325 156.384 168.256 139.619 167.037 126.731C166.974 125.863 166.533 125.249 165.944 124.886C173.364 126.073 180.784 127.269 188.211 128.396C191.789 128.939 195.466 129.723 198.229 132.177C209.104 143.353 211.045 173.427 214.704 189.063C205.95 189.978 196.165 194.96 189.891 201.001C190.187 194.134 189.763 187.302 188.971 180.484C188.958 180.151 188.402 180.038 188.349 180.403C186.782 187.314 185.576 194.284 185.079 201.366C183.015 229.862 181.789 258.414 180.021 286.93C179.417 297.425 178.662 308.011 180.159 318.47C184.979 340 176.481 350.567 153.672 346.988C156.442 319.703 154.434 288.484 131.552 269.565C130.855 268.944 130.018 268.986 129.383 269.356C110.779 253.57 91.1449 238.948 70.2467 226.216C70.3971 223.584 63.8047 221.259 61.9588 219.443C68.8121 212.354 74.0306 203.736 78.5816 195.069C78.9831 194.127 84.2162 184.645 82.5511 185.242C77.5786 192.6 72.6339 200.004 66.7787 206.738C67.0971 203.633 59.0402 201.551 56.5602 200.132C46.9785 196.102 36.9609 192.948 26.6372 191.315C28.4953 186.695 30.5264 182.144 32.8733 177.744M160.379 127.834C160.066 127.298 159.768 126.751 159.482 126.196C160.45 126.233 161.393 126.267 162.345 126.425C162.303 127.957 162.388 129.501 162.406 131.045C161.929 129.915 160.996 128.884 160.379 127.834M322.074 343.534C299.207 326.93 261.648 337.509 235.158 339.216C230.108 306.147 232.169 272.538 227.462 239.415C223.127 206.324 218.555 172.771 207.668 141.067C203.174 128.808 195.4 125.167 182.602 125.266C176.107 125.012 169.239 123.973 162.927 124.121C161.543 124.144 160.096 124.326 158.847 124.884C157.092 120.932 156.139 116.69 155.658 112.415C155.627 112.144 155.282 112.095 155.178 112.354C153.694 116.076 153.536 120.138 154.343 124.035C154.928 126.827 158.406 137.816 162.446 133.517C162.766 142.532 160.783 153.298 151.939 157.977C136.485 164.706 115.122 158.579 106.17 144.298C104.44 141.444 102.948 138.407 101.032 135.667C114.38 131.894 121.873 115.923 118.728 103.76C116.785 113.219 113.242 123.789 104.418 129.087C72.2851 129.015 45.5695 143.629 30.4738 171.777C27.5198 175.864 24.7891 180.112 22.2862 184.433C20.9397 187.324 16.9955 191.344 20.3429 194.137C16.4764 204.442 13.046 214.89 9.42006 225.276C8.42429 228.737 6.1474 232.368 6.60153 236.006C6.11004 238.248 6.13261 240.9 7.25852 243.055C8.32675 246.898 10.7238 252.068 14.6985 253.698C18.0712 256.774 22.3366 258.893 26.7851 260.489C14.9215 291.449 10.4055 324.838 6.38588 357.549C2.4462 386.166 0.412798 420.976 25.0973 441.658C25.5765 447.575 29.0918 455.115 36.0431 455.18C40.8575 459.9 46.7252 457.31 52.0842 455.002C61.1291 451.657 70.6153 449.803 80.0413 448.769C81.0519 449.558 82.6968 449.427 83.5968 448.508C89.3068 447.193 97.2205 452.516 98.3743 447.694C105.736 446.981 113.018 445.644 120.373 444.864C117.274 448.88 117.497 454.802 119.831 459.141C113.886 470.82 127.736 477.583 136.204 482.376C147.636 488.986 159.574 495.258 172.649 497.998C184.144 500.413 196.185 499.681 207.276 495.823C213.104 494.36 221.243 489.558 217.785 482.792C222.169 469.917 191.386 456.576 182.331 450.128C186.032 449.667 186.167 441.996 176.541 446.404C175.377 445.626 174.234 444.825 173.103 444.009C212.041 439.539 286.403 427.244 314.584 400.664C330.065 386.997 338.998 359.352 322.074 343.534" fill="black"/>
<path fill-rule="evenodd" clip-rule="evenodd" d="M137.566 18.8452C151.774 18.8452 166.47 29.8658 171.678 36.8984C176.057 42.811 178.415 69.5476 178.415 87.6164C178.415 91.3954 180.499 98.5191 179.89 102.134C177.662 115.38 167.952 126.489 148.735 126.489C129.518 126.489 115.739 118.866 101.456 98.4005C94.525 98.4005 91.1662 93.0821 91.1174 84.689C91.0686 76.2959 97.8071 73.2422 97.8071 73.2422C97.8071 73.2422 95.4045 40.1195 101.456 31.4959C107.507 22.8724 123.358 18.8452 137.566 18.8452Z" fill="#D08B5B"/>
<path fill-rule="evenodd" clip-rule="evenodd" d="M131.587 14.1617C140.558 13.2527 149.348 14.0165 158.189 15.5967C158.865 15.7192 159.247 16.1626 159.39 16.6957C163.554 16.886 167.723 17.1918 171.881 17.4196C173.39 17.5023 174.246 18.9944 173.558 20.3418C173.42 20.6095 173.278 20.8699 173.132 21.1303L173.315 21.0702C174.566 20.6686 175.917 20.4706 177.136 21.108C178.687 21.9193 179.296 23.7094 178.953 25.3571C178.865 25.7777 178.718 26.1809 178.55 26.5743C178.89 26.5517 179.233 26.5592 179.574 26.6043C181.385 26.8447 182.731 28.2344 182.827 30.0849C182.967 32.8791 181.168 35.7139 179.048 37.7143C179.356 38.3481 179.473 39.0943 179.346 39.8505C179.09 41.3454 177.99 42.2405 176.714 42.8245C177.246 44.5149 177.498 46.2822 177.349 48.0884C177.3 48.6913 176.773 49.1894 176.216 49.3116C178.29 55.0242 179.339 61.1575 180.094 67.1338C180.632 71.3859 180.897 75.6627 180.93 79.9468C180.945 81.881 180.913 83.8174 180.832 85.7519L180.8 86.4772C180.7 88.5683 180.695 90.7641 180.319 92.8326C181.6 95.0133 182.116 97.7204 182.334 100.164C182.604 103.189 182.176 106.309 181.222 109.186C177.624 120.058 166.764 126.919 155.856 128.702C145.76 130.353 134.077 128.132 128.176 118.954C128.084 118.809 128.281 118.689 128.397 118.784C132.618 122.219 137.515 123.752 142.835 124.498C152.033 125.785 162.372 123.602 169.754 117.813C173.298 115.033 175.852 110.987 176.976 106.632C177.549 104.406 177.747 102.085 177.521 99.7937C177.291 97.47 176.263 95.4868 175.615 93.2908C175.397 92.5494 175.627 91.8608 176.08 91.3703C176.208 89.5872 176.508 87.7893 176.623 86.0117C176.751 83.9907 176.829 81.97 176.856 79.9468C176.909 75.7501 176.733 71.5459 176.381 67.3669C175.735 59.7145 174.021 52.2478 173.015 44.6604C172.643 44.9947 172.109 45.1319 171.549 44.8399L171.491 44.8081L171.186 44.6331C171.168 44.6331 171.148 44.6356 171.131 44.6379C169.041 44.8409 166.874 44.5505 164.873 43.9267C162.778 43.2759 160.834 42.2743 159.097 40.9397C158.767 42.6146 158.629 44.3073 158.627 46.0151C158.624 47.0818 157.496 47.6354 156.6 47.1797C152.629 45.1612 148.835 42.8352 145.234 40.2211C144.814 42.377 144.394 44.5327 143.971 46.6912C143.808 47.5227 142.749 47.8583 142.071 47.4626C139.374 45.8924 137.044 43.8368 135.148 41.3927C134.769 42.1173 134.389 42.8419 134.007 43.5648L133.431 44.6479C132.863 45.7121 132.102 46.8892 130.859 47.2295C129.543 47.5901 128.444 46.7365 128.001 45.5443C127.866 45.174 127.741 44.7931 127.626 44.41C126.505 46.9719 125.239 49.4758 123.807 51.8647C121.66 55.4476 119.083 58.6402 116.513 61.9155C115.732 62.9098 114.396 61.9605 114.289 60.9943C114.226 60.4258 114.173 59.8549 114.128 59.2863C112.631 62.3101 111.068 65.3056 109.366 68.2143L109.61 69.1701V69.1701C110.312 71.9941 110.895 74.8381 111.53 77.6772C111.734 78.5931 111.248 79.9027 110.178 80.0587C108.901 80.245 107.692 80.8983 106.383 80.4488C104.956 79.9585 104.674 78.7243 104 77.5545C103.866 77.3213 103.71 77.1072 103.541 76.9039L103.499 76.9595V76.9595C103.394 77.0975 103.143 76.9472 103.206 76.7895L103.279 76.6072V76.6072C102.7 75.9925 102.008 75.4796 101.371 74.928C99.8575 74.6729 98.1552 74.9523 97.1125 75.5675C94.7378 76.9695 93.6471 79.8591 93.6246 82.5161C93.597 85.6261 94.5602 89.1217 96.1867 91.7809C96.9026 92.9503 97.8835 94.0067 99.1794 94.5253C100.466 95.0409 101.86 94.8809 103.168 95.3664C104.034 95.6897 104.567 96.6512 104.044 97.5224C104.009 97.5827 103.969 97.6375 103.931 97.6954L104.321 98.2123C104.588 98.5704 104.867 98.9538 105.128 99.3528C105.793 100.119 106.494 100.858 107.172 101.612C108.425 103.001 109.642 104.429 110.875 105.838C112.039 107.168 113.27 108.417 114.539 109.647C115.737 110.811 117.234 111.79 118.335 113.032C119.406 114.244 119.696 116.36 117.934 117.061C115.985 117.839 114.26 116.016 112.947 114.801L112.892 114.75C110.487 112.535 108.315 110.004 106.59 107.217C104.882 108.381 102.41 108.492 100.709 107.329C99.8138 106.717 99.1269 105.688 98.7931 104.568C98.4783 104.639 98.1637 104.68 97.857 104.676C97.6991 104.767 97.5407 104.856 97.3805 104.939C96.1116 105.6 94.5529 105.305 93.9724 103.9C93.4437 102.625 93.9885 101.176 94.4647 99.9472L94.5629 99.6933C94.8332 98.9924 95.1309 98.2287 95.5013 97.5101C94.4703 96.7338 93.5893 95.7696 92.8438 94.6731C90.339 90.9797 89.0879 85.5783 89.6409 81.1715C89.9737 78.5122 91.2221 75.7578 93.2665 73.9647L93.1917 73.7694V73.7694C92.6186 72.3148 92.0979 70.8548 91.7604 69.3175C91.365 67.5197 91.1721 65.6567 90.9972 63.8263C90.6268 59.9601 90.7269 56.0063 91.2199 52.1551C92.1457 44.9061 94.4929 37.7897 98.6592 31.7575C97.4779 30.3425 96.5422 28.6774 97.0299 26.7621C97.2529 25.8829 97.7606 25.0493 98.5266 24.5458C98.9492 24.2681 99.4524 24.2255 99.8753 23.9951L100.002 23.9251C100.188 23.8166 100.046 23.8281 99.9354 23.3241C99.4975 21.3106 99.8603 19.3652 102.075 18.6967C104.159 18.0682 106.131 19.4028 107.365 20.9928C110.593 18.7014 114.847 17.5023 118.588 16.4831C122.841 15.3286 127.205 14.6076 131.587 14.1617ZM96.72 81.6946C96.7047 80.0545 98.2587 79.0429 99.7878 79.3111C100.815 79.4899 101.671 80.1031 102.475 80.7369L102.868 81.0474C103.847 81.8168 104.972 82.6463 105.555 83.7357C106.411 85.3432 104.602 87.5064 102.913 86.3796C101.755 85.6026 101.012 84.3577 100.252 83.2012L100.173 83.0819C99.8279 82.5635 99.5251 82.0127 99.0519 81.597L98.9497 81.5074C98.7942 81.3748 98.6272 81.2537 98.4263 81.1963C98.0389 81.0849 97.3212 81.241 97.1504 81.7026L97.1351 81.7497C97.0726 81.9829 96.7225 81.9325 96.72 81.6946Z" fill="black"/>
<path fill-rule="evenodd" clip-rule="evenodd" d="M153.628 106.902C151.943 106.216 150.439 105.07 149.339 103.607C148.957 103.098 148.858 102.561 148.938 102.07C149.028 101.517 149.355 101.017 149.802 100.681C150.249 100.344 150.809 100.178 151.351 100.263C151.821 100.336 152.29 100.593 152.66 101.127L152.738 101.234C153.392 102.117 154.243 102.841 155.214 103.308C156.15 103.759 157.196 103.969 158.279 103.847C160.341 103.614 161.762 102.5 163.273 100.988C163.46 100.797 163.648 100.6 163.836 100.4C163.955 100.219 164.12 100.102 164.303 100.041C164.507 99.973 164.737 99.9768 164.947 100.05C165.151 100.121 165.332 100.255 165.454 100.434C165.57 100.604 165.636 100.814 165.615 101.055C165.476 102.622 164.656 104.021 163.49 105.119C162.196 106.339 160.48 107.183 158.864 107.479C157.084 107.805 155.271 107.571 153.628 106.902V106.902ZM159.704 82.7239C161.597 83.8732 164.482 86.5533 162.445 89.4027C160.048 91.915 156.595 89.0344 154.894 87.7316C153.317 86.722 151.544 89.3188 153.008 90.4977C165.301 99.586 170.29 83.0244 160.661 81.3725C159.601 81.1905 159.208 82.3683 159.704 82.7239ZM137.674 72.1518C137.883 69.5586 141.839 68.9697 142.232 71.5358C142.584 73.8345 142.17 75.9461 141.133 78.0157C140.142 79.9928 137.652 79.0704 137.463 77.27C137.211 74.8567 137.544 73.7649 137.674 72.1518ZM167.781 71.0037C168.333 70.2826 169.129 69.7903 170.083 70.0685C173.063 70.9381 172.185 75.1631 171.138 77.2197C170.569 78.3365 168.731 78.6197 167.9 77.6363C166.546 76.0328 165.898 72.8304 167.619 71.2509C167.666 71.1693 167.718 71.0869 167.781 71.0037ZM141.091 60.8047L141.561 60.7224C143.018 60.4709 144.829 60.2292 145.859 61.3984C146.405 62.0184 146.593 63.1707 145.859 63.7642C144.567 64.8083 143.139 64.4037 141.59 64.4921C140.315 64.5652 139.088 64.776 137.859 65.1269C135.163 65.8963 132.966 67.3011 130.664 68.8435C130.361 69.0459 130.053 68.66 130.197 68.3778C131.526 65.7779 134.103 63.6422 136.683 62.3404C138.06 61.6455 139.567 61.0691 141.091 60.8047ZM165.064 59.6401L165.425 59.7137C169.346 60.5322 174.441 62.1671 176.297 66.0131C176.368 66.5569 176.293 66.6735 176.233 66.7497L176.212 66.775C176.162 66.84 176.122 66.9297 175.886 67.0037C175.821 66.9881 175.755 66.9716 175.688 66.9541C174.837 66.7314 174.163 66.4245 173.511 66.1061L172.804 65.7584C171.984 65.3568 171.157 64.9699 170.28 64.6842C168.409 64.0748 166.484 63.6454 164.53 63.4162C164.106 63.3665 163.698 63.2238 163.376 62.9791C163.071 62.7468 162.837 62.4253 162.731 61.9979C162.593 61.4447 162.633 61.0259 162.93 60.5269C163.153 60.1522 163.473 59.8924 163.84 59.7432C164.215 59.5912 164.641 59.5553 165.064 59.6401Z" fill="black"/>
<path fill-rule="evenodd" clip-rule="evenodd" d="M182.146 84.2486C179.102 87.3898 174.019 88.2913 169.969 86.6066C159.568 82.2674 164.659 68.7333 172.68 65.0987C173.682 64.8493 175.02 64.2576 176.241 64.1234C176.351 64.0693 176.591 64.2258 176.882 64.0779C185.727 65.0639 187.741 78.7738 182.146 84.2486M148.6 85.0526C145.186 89.5751 138.837 90.9703 133.651 88.868C123.404 84.8385 127.038 72.8371 134.049 68.1321C148.858 62.5755 154.973 76.714 148.6 85.0526M126.388 75.0321C126.378 75.0276 126.369 75.0253 126.359 75.0208C126.413 74.9971 126.467 74.9733 126.521 74.949C126.504 74.9948 126.485 75.0401 126.468 75.0859C126.441 75.0677 126.418 75.0464 126.388 75.0321M189.196 70.1435C188.359 70.1453 187.152 70.2825 186.46 70.8617C184.753 65.1143 178.453 59.795 172.975 63.6737C168.661 65.0592 165.459 68.1318 163.64 72.2169C160.359 70.2682 155.2 71.1003 152.356 73.6772C150.492 67.5296 145.907 65.3769 140.449 65.0592C134.492 64.0849 128.555 69.8618 126.702 74.4963C125.162 74.3212 122.86 73.8317 121.411 74.781C112.006 72.318 95.5621 70.9601 93.6501 72.3285C92.2875 72.8506 91.5397 76.0623 93.443 76.2355C95.1015 76.0004 93.2494 73.8823 94.9212 73.6512C103.829 73.0998 112.476 74.8911 121.29 75.6428C122.077 76.6998 124.619 77.0533 125.975 76.6287C123.839 84.4902 128.451 89.8388 135.36 91.4408C146.059 93.895 155.368 84.3377 152.57 74.3968C155.811 72.7868 159.539 72.8559 163.07 73.704C157.17 95.3861 192.14 94.4133 186.678 71.6046C190.313 73.41 191.103 70.5079 189.196 70.1435" fill="black"/>
</g>
<defs>
<filter id="filter0_d_44_20701" x="0" y="0" width="335.226" height="507.389" filterUnits="userSpaceOnUse" color-interpolation-filters="sRGB">
<feFlood flood-opacity="0" result="BackgroundImageFix"/>
<feColorMatrix in="SourceAlpha" type="matrix" values="0 0 0 0 0 0 0 0 0 0 0 0 0 0 0 0 0 0 127 0" result="hardAlpha"/>
<feOffset dy="4"/>
<feGaussianBlur stdDeviation="2"/>
<feComposite in2="hardAlpha" operator="out"/>
<feColorMatrix type="matrix" values="0 0 0 0 0 0 0 0 0 0 0 0 0 0 0 0 0 0 0.25 0"/>
<feBlend mode="normal" in2="BackgroundImageFix" result="effect1_dropShadow_44_20701"/>
<feBlend mode="normal" in="SourceGraphic" in2="effect1_dropShadow_44_20701" result="shape"/>
</filter>
</defs>
</svg>
