<svg width="216" height="252" viewBox="0 0 216 252" fill="none" xmlns="http://www.w3.org/2000/svg">
<path fill-rule="evenodd" clip-rule="evenodd" d="M5.37711 141.282C8.39389 141.578 11.4107 141.874 14.4274 142.17C28.8756 143.275 43.3181 145.581 57.6556 146.965C58.0126 146.384 58.7114 146.48 59.1356 146.884C60.5663 146.758 62.1697 145.664 63.4657 146.802C63.5077 146.796 63.5498 146.789 63.5923 146.785C65.8998 142.355 67.4948 137.629 69.0428 132.897C70.0309 129.988 71.3602 127.172 73.8168 125.218C78.0092 122.307 87.6151 116.403 92.538 116.652C92.6196 115.77 93.0305 114.861 93.7051 114.274C92.2182 111.738 98.1636 110.083 98.5829 110.377C98.3141 101.905 102.298 94.5466 111.083 92.8594C118.952 91.2189 130.146 90.9433 134.378 99.171C134.844 99.1186 139.6 99.0938 140.06 99.1454C140.775 98.2389 148.632 106.829 145.412 109.819C174.202 122.56 190.572 121.039 198.54 156.857C199.618 160.221 199.696 163.903 200.834 167.193C204.881 176.647 208.164 186.714 208.98 197.001C210.954 197.506 211.18 200.987 208.895 201.49C208.022 201.683 207.292 201.946 206.655 202.444C207.153 210.874 205.115 230.131 203.831 230.072C201.213 238.408 189.533 240.761 181.265 237.831C182.69 240.514 181.265 242.201 181.265 243.634C151.513 244.76 118.982 244.111 89.2378 245.656C85.433 245.602 81.4312 246.591 77.6784 246.021C75.3898 245.473 75.386 241.873 77.7074 241.427L67.5639 239.223C67.7906 239.138 63.3827 236.205 60.0512 230.724C56.9502 224.593 59.0607 217.192 57.6556 210.522C46.6815 209.624 35.5258 209.241 24.6718 207.381C23.1919 211.811 16.7855 206.513 14.7491 204.382C14.7516 204.379 14.7542 204.376 14.7567 204.372C13.7712 204.103 12.9809 203.179 12.9545 202.085C12.2634 201.097 12.1183 199.704 12.7811 198.75C9.74334 181.214 5.11233 163.311 3.43846 145.61C2.84674 145.479 2.28948 145.22 1.81703 144.82L1.85532 144.782C1.05486 143.889 0.899206 142.348 2.23365 141.589C3.31009 140.977 4.20889 141.167 5.37711 141.282Z" fill="#FFD1B0"/>
<path fill-rule="evenodd" clip-rule="evenodd" d="M120.113 206.912L117.789 208.391L98.7746 214.521L87.1549 216L77.6478 214.521V230.795L75.7464 246.012C76.5915 247.562 84.6197 247.562 99.8309 246.012C109.528 245.024 144.967 244.544 153.036 244.333L153.493 244.321C162.975 244.047 172.341 244.047 181.592 244.321V238.615L155.183 225.511L131.521 212.196L120.113 206.912ZM133.585 97.8408L131.839 99.1453L135.652 105.412L117.079 120.441V132.446L111.199 138.009L107.838 132.446L103.102 126.145L99.7359 115.932L100.882 109.203L98.5773 108.986C98.5661 109.446 98.568 109.91 98.5828 110.377C98.1635 110.083 92.2181 111.738 93.705 114.274C93.0304 114.861 92.6195 115.77 92.5379 116.651C87.615 116.403 78.0091 122.307 73.8167 125.218C71.3602 127.172 70.0308 129.988 69.0427 132.897L68.8101 133.607L68.5699 134.335L68.3279 135.063C66.991 139.065 65.5473 143.031 63.5922 146.785C63.5497 146.789 63.5077 146.796 63.4656 146.802C62.1696 145.664 60.5662 146.758 59.1355 146.883C58.7211 146.489 58.0449 146.388 57.681 146.926L57.6555 146.965L75.4805 150.478L87.2398 191.743L97.4804 183.427L102.977 184.245L117.493 189.482L134.376 193.869L172.918 204.499H177.826L206.386 197.6L208.96 196.75C208.11 186.55 204.848 176.57 200.834 167.193C199.696 163.903 199.618 160.221 198.54 156.857C190.572 121.039 174.202 122.56 145.412 109.819C148.632 106.829 140.775 98.2388 140.06 99.1453L140.015 99.1414L139.917 99.1362L139.791 99.1318C138.668 99.0991 134.796 99.1239 134.378 99.1709C134.136 98.7002 133.871 98.2572 133.585 97.8408Z" fill="#DA0037"/>
<path fill-rule="evenodd" clip-rule="evenodd" d="M2.52804 142.535L3.05899 145.495C3.18517 145.536 3.31355 145.571 3.4436 145.6C3.61047 147.364 3.80673 149.131 4.02786 150.899L7.31959 169.252C7.88735 172.499 8.42633 175.753 8.96137 179.008L9.67037 182.505L10.1095 184.678C11.0573 189.384 11.9781 194.074 12.7862 198.739C12.6642 198.915 12.5696 199.105 12.5007 199.305L12.5629 199.568L12.6062 199.744L12.6504 199.917C13.288 202.369 14.3973 204.746 17.0117 205.468C18.9837 206.012 21.1475 206.061 23.1838 206.276L23.4095 206.3L59.0417 210.309C63.3472 210.793 67.6506 211.292 71.9536 211.796L75.6839 212.234C80.8833 212.836 86.1125 213.31 91.2353 214.4C91.4235 214.44 91.5795 214.516 91.7066 214.615C90.675 210.708 89.6876 206.807 88.7926 202.861C87.7853 198.42 86.8293 193.97 85.7519 189.545C83.5813 180.63 81.1481 171.774 78.4845 162.994C77.9255 161.151 77.3536 159.312 76.7692 157.477L76.3591 156.195L76.0434 155.173C75.555 153.614 74.9506 152.012 73.5184 151.153C71.8423 150.147 69.5567 149.98 67.6557 149.632L66.3684 149.39C64.4424 149.031 62.5139 148.685 60.5831 148.353C51.3389 146.762 42.0423 145.486 32.7114 144.528C23.002 143.53 13.2587 142.882 3.50359 142.565L2.52804 142.535ZM90.9683 203.73L90.8774 203.737L92.2084 214.381C92.4212 214.232 92.6914 214.141 93.0212 214.142C97.3869 214.154 101.572 212.759 105.62 211.224L106.236 210.989L107.955 210.328C109.702 209.659 111.458 209.004 113.247 208.461L113.97 208.242L114.338 208.134C115.692 207.738 117.117 207.379 118.526 207.289L118.718 207.279L118.308 207.063C118.248 207.032 118.195 206.997 118.149 206.958C117.373 207.016 116.596 207 115.778 206.853C114.24 206.576 112.744 206.04 111.37 205.295L110.756 204.962L110.505 204.829L110.339 204.743L110.174 204.659C108.995 204.071 107.866 203.703 106.377 204.016C104.686 204.372 103.204 205.284 101.68 206.054L101.409 206.189L101.227 206.277L101.042 206.364L100.854 206.45C98.7927 207.378 95.5121 208.379 94.7216 205.576C94.4041 204.449 94.6528 203.394 95.2038 202.469C94.177 202.38 92.3427 203.592 90.9683 203.73Z" fill="white"/>
<path fill-rule="evenodd" clip-rule="evenodd" d="M133.83 97.2601C132.933 95.0065 129.903 95.8825 130.241 98.2501C130.443 99.6682 131.22 101.166 131.917 102.409C132.485 103.421 133.133 104.408 134.011 105.167C132.447 106.626 130.825 108.032 129.161 109.366C127.345 110.823 125.436 112.165 123.462 113.399C121.732 114.481 119.923 115.44 118.292 116.675C116.775 117.823 115.394 119.203 114.691 121.005C113.942 122.924 114.267 124.906 114.819 126.824L114.882 127.041C115.446 128.941 116.421 131.232 115.068 133.022C114.38 133.933 113.379 134.578 112.515 135.307C111.746 135.955 111.025 136.659 110.364 137.415C108.922 139.064 107.749 140.92 107.009 142.987L106.943 143.175C106.309 145.005 105.845 147.247 106.702 149.044C106.948 149.559 107.741 149.392 107.879 148.89C108.191 147.754 108.174 146.564 108.435 145.412C108.707 144.213 109.159 143.076 109.75 142C110.892 139.918 112.44 138.139 114.268 136.636L114.815 136.191C116.241 135.02 117.551 133.778 117.841 131.84C118.15 129.767 117.32 127.792 116.786 125.83C116.414 124.462 116.293 123.152 116.695 121.916C117.186 122.718 117.856 123.479 118.386 124.158C119.442 125.511 120.507 126.856 121.57 128.203C122.66 129.584 123.723 130.987 124.735 132.427C125.188 133.071 125.636 133.719 126.082 134.367C126.418 134.854 126.886 135.341 127.252 135.839C127.163 136.104 127.17 136.411 127.331 136.629C129.272 139.251 132.032 133.779 132.752 132.396C134.218 129.58 135.31 126.589 136.781 123.774C138.305 120.855 140.041 118.015 141.975 115.35C143.145 113.739 144.457 112.225 145.527 110.563C148.049 112.85 151.368 114.384 154.416 115.774C157.765 117.302 161.245 118.55 164.678 119.876L165.693 120.27C171.609 122.58 177.67 125.117 182.588 129.22C188.367 134.042 191.786 140.762 194.331 147.721C197.261 155.732 199.684 163.96 201.944 172.182C203.1 176.389 204.197 180.615 205.229 184.854C206.138 188.589 206.891 192.361 207.943 196.058C205.809 195.982 203.376 196.809 201.554 197.047C193.251 198.134 185.061 199.868 177.222 202.868C176.254 203.239 175.973 204.206 176.184 204.99C175.626 204.833 175.068 204.673 174.51 204.516C175.121 203.578 174.829 201.902 174.781 200.862L174.778 200.791C174.729 199.406 174.579 198.019 174.481 196.637C174.296 194.002 174.054 191.386 173.733 188.765L173.651 188.11C173.288 185.26 173.019 182.392 172.622 179.546L172.575 179.221C172.765 178.493 172.987 177.773 173.219 177.057C173.839 175.15 174.714 173.354 175.481 171.507C175.571 171.29 175.262 171.165 175.117 171.295C173.818 172.464 172.787 173.946 171.958 175.497C171.944 175.423 171.931 175.35 171.916 175.277L171.822 174.811C171.589 173.676 171.305 172.481 170.609 171.561C170.535 171.463 170.388 171.442 170.318 171.561C169.652 172.689 169.577 174.117 169.474 175.401C169.358 176.853 169.344 178.323 169.364 179.779C169.404 182.624 169.605 185.478 169.765 188.318C169.921 191.11 170.229 193.866 170.625 196.63L170.701 197.149C170.895 198.464 171.053 199.796 171.309 201.103L171.381 201.459C171.518 202.107 171.602 203.02 171.874 203.779C164.873 201.826 157.862 199.917 150.836 198.042C145.759 196.686 140.676 195.351 135.596 194.007C135.328 193.524 134.994 193.072 134.577 192.669C133.205 191.339 131.386 190.746 129.717 191.769C129.582 191.853 129.57 192.065 129.717 192.146C130.037 192.321 130.357 192.5 130.672 192.687L127.621 191.86C125.341 191.242 123.033 190.469 120.7 190.038C116.401 187.916 111.777 186.38 107.249 184.862L106.716 184.682C104.397 183.891 101.999 183.005 99.6032 182.567C97.8495 182.246 95.7909 182.633 95.0857 184.431C94.1928 185.019 93.3528 185.711 92.5422 186.391C91.9562 186.883 91.3944 187.406 90.8231 187.915L90.7178 188.007C90.2508 188.412 89.8808 188.684 89.7662 189.329C89.707 189.662 89.9187 190.113 90.3296 190.069C91.5869 189.934 92.6092 188.476 93.4619 187.606C94.1206 186.933 94.7846 186.237 95.3859 185.498C95.7364 185.688 96.2168 185.654 96.4399 185.232C97.5968 183.04 100.766 184.559 102.52 185.078L105.031 185.822C106.287 186.194 107.543 186.569 108.796 186.95C112.241 187.996 115.668 189.167 119.144 190.128C118.833 190.47 118.876 191.078 119.467 191.31C122.187 192.378 125.172 192.93 127.999 193.663C129.783 194.126 131.567 194.592 133.35 195.06C133.655 195.556 133.875 196.116 133.968 196.768C134.308 199.167 133.652 201.935 133.013 204.255L132.916 204.602C132.391 206.467 131.618 208.754 130.009 209.932C129.616 210.219 129.116 210.419 128.612 210.464C125.463 208.843 122.314 207.221 119.163 205.603C118.579 205.303 118.039 205.709 117.908 206.191C116.797 206.009 115.689 205.722 114.679 205.379C112.983 204.802 111.658 203.703 110.068 202.943C106.99 201.472 103.848 203.279 101.093 204.652L100.458 204.964C99.2219 205.564 96.6514 206.716 96.0586 205.076C95.4852 203.489 97.2981 201.793 98.4689 201.079C99.8645 200.227 101.49 199.772 103.067 199.392C103.968 199.175 104.879 198.998 105.796 198.869C106.837 198.723 107.911 198.745 108.913 198.407C109.41 198.24 109.487 197.449 108.913 197.318C107.371 196.967 105.531 197.35 103.922 197.742L103.081 197.949C101.46 198.347 99.8229 198.846 98.3464 199.64C97.2727 200.218 96.1395 201.095 95.3992 202.168C94.7563 201.571 93.9562 201.591 93.1227 201.813L92.6703 201.938C91.9233 202.146 91.3178 202.288 90.591 202.145C90.4938 201.616 90.3953 201.086 90.2899 200.557C89.254 195.355 88.1181 190.173 86.8646 185.018C84.7025 176.127 82.2007 167.334 79.3803 158.63L79.0971 157.76C78.4466 155.769 77.9231 153.601 76.8744 151.772C75.8825 150.043 74.2933 149.046 72.4052 148.519C70.2626 147.92 68.0111 147.607 65.8253 147.203C65.3377 147.113 64.8488 147.027 64.3608 146.939C64.7732 146.194 65.0811 145.348 65.3584 144.699L65.407 144.587C66.0027 143.228 66.5378 141.845 67.0546 140.454L67.4411 139.409C68.3742 136.892 69.3373 134.416 70.6492 132.061C72.03 129.583 73.8619 127.557 76.1455 125.881C80.8014 122.462 86.4133 120.718 90.9292 117.064C91.1142 116.915 90.877 116.659 90.6892 116.754C87.64 118.286 84.3482 119.328 81.1766 120.576L80.551 120.823C78.0442 121.817 75.4984 122.9 73.3287 124.509C70.9097 126.304 69.0045 128.533 67.5725 131.183C66.1612 133.796 65.2585 136.72 64.2628 139.511L63.9965 140.255C63.5948 141.37 63.18 142.481 62.7047 143.567C62.3274 144.428 61.6232 145.411 61.3031 146.395C60.4274 146.244 59.5519 146.091 58.6754 145.945C39.6894 142.774 20.4913 140.91 1.25052 140.365C0.49777 140.344 0.108408 141.062 0.219324 141.719C2.0658 152.642 3.70672 163.602 5.50714 174.533C6.29305 179.304 7.09461 184.071 7.91496 188.836C8.33053 191.25 8.81095 193.655 9.20454 196.073C9.52229 198.025 9.75299 199.993 10.2985 201.9C10.7878 203.61 11.5386 205.259 12.7718 206.564C14.1011 207.97 15.9564 208.651 17.824 208.972C22.5651 209.789 27.4281 210.122 32.2076 210.666L57.6541 213.562C57.2823 216.943 57.2545 220.272 57.4251 223.693L57.5223 225.56C57.6018 227.062 57.6968 228.566 57.9125 230.053C58.1829 231.918 59.0356 233.497 60.2916 234.889C61.4449 236.168 62.846 237.26 64.2089 238.306C65.6236 239.392 67.0853 240.44 68.7486 241.111L68.9645 241.197C70.4237 241.767 73.161 242.649 75.1555 242.327C74.8948 243.634 74.3903 245.039 74.8376 246.332C75.045 246.932 75.8299 247.232 76.3107 246.721C77.2633 245.708 77.3377 244.371 77.5633 243.05C77.7981 241.675 78.0005 240.296 78.1802 238.913C78.528 236.239 78.7986 233.541 78.8812 230.844C78.9662 228.075 78.9334 225.302 78.7843 222.536C78.7076 221.116 78.6125 219.696 78.4323 218.285C78.3554 217.683 78.2768 217.08 78.187 216.48C78.1543 216.261 78.1179 216.043 78.0788 215.826L80.3628 216.083C83.8649 216.474 87.3687 216.828 90.8956 216.882C91.3133 216.889 91.6346 216.699 91.8446 216.422C92.0683 216.786 92.4579 217.047 93.0159 217.045C97.9412 217.026 102.528 215.415 107.007 213.517C109.266 212.559 111.488 211.523 113.75 210.573C115.861 209.687 118.117 209.055 120.177 208.057L125.59 210.897C125.629 211.037 125.68 211.169 125.734 211.28C126.087 211.999 126.782 212.39 127.491 212.684C128.172 212.967 128.878 213.055 129.565 212.983C133.67 215.135 137.776 217.285 141.885 219.43L145.994 221.573C154.182 225.838 162.338 230.173 170.577 234.337L171.184 234.643C174.03 236.07 177.086 237.517 180.244 238.597C180.3 239.397 180.265 240.175 180.198 241.021L180.182 241.206C180.087 242.206 179.886 243.459 180.688 244.171C181.105 244.542 181.85 244.543 182.134 243.985C182.649 242.972 182.187 241.376 182.024 240.276C181.966 239.885 181.895 239.482 181.791 239.092C185.411 240.171 189.142 240.693 192.826 240.088C196.414 239.499 199.192 237.238 201.432 234.473C203.796 231.555 205.476 228.154 206.377 224.508C207.402 220.36 207.469 216.076 207.445 211.827C207.42 207.302 207.252 202.755 206.702 198.26C207.305 198.118 207.974 197.996 208.583 198.038C208.884 198.521 209.47 198.724 209.998 198.662C211.148 199.93 208.232 201.227 207.299 201.552C206.976 201.664 207.01 202.19 207.384 202.174L207.619 202.163C209.059 202.087 210.547 201.841 211.394 200.502C212.073 199.428 211.869 198.157 211.06 197.282C210.525 192.228 209.248 187.307 208.059 182.377C206.893 177.538 205.595 172.73 204.22 167.946L203.604 165.805C201.439 158.305 199.175 150.744 196.189 143.541C194.697 139.945 192.979 136.415 190.651 133.279C188.48 130.356 185.917 127.855 182.971 125.718C177.479 121.735 171.035 119.329 164.703 117.036L164.42 116.933C161.139 115.746 157.866 114.544 154.622 113.258C151.753 112.12 149.005 110.677 146.149 109.523C146.242 109.354 146.332 109.184 146.418 109.012L146.471 109.056C146.48 109.063 146.489 109.07 146.498 109.077C146.786 109.276 147.208 109.178 147.445 108.955C148.113 108.324 147.887 107.624 147.441 106.97L147.383 106.886C146.837 106.122 146.351 105.314 145.847 104.522L145.532 104.026C144.687 102.703 143.799 101.371 142.672 100.277C142.15 99.7701 141.579 99.391 140.974 99.1084C141.026 98.9989 140.572 98.7751 140.443 98.8877C138.525 98.1856 136.319 98.3327 134.228 98.5263M58.8854 213.702L61.5516 214.005C64.4848 214.339 67.4192 214.662 70.3539 214.982L76.7284 215.675C76.7447 216.038 76.7888 216.394 76.7969 216.668C76.8385 218.084 76.8695 219.5 76.8989 220.915C76.9578 223.753 76.8932 226.594 76.7064 229.427C76.5254 232.171 76.287 234.916 75.9165 237.642L75.8407 238.187L75.7967 238.474C75.4944 238.503 75.1973 238.647 74.9504 238.942C74.4112 239.586 72.4589 238.96 71.6964 238.689C70.4426 238.242 69.2618 237.488 68.1723 236.732C67.1083 235.994 66.1502 235.133 65.2295 234.226L64.4763 233.48C63.7269 232.735 62.9768 231.942 62.5177 231.005C61.8951 229.734 61.8146 228.175 61.6321 226.791C61.4073 225.088 61.1396 223.386 60.8567 221.693M136.284 195.834L136.561 195.907C146.607 198.577 156.638 201.326 166.715 203.879C171.701 205.142 176.712 206.314 181.705 207.553L182.513 207.755C186.452 208.751 190.438 209.95 193.454 212.808C193.566 212.913 193.727 212.751 193.623 212.639C190.372 209.177 185.748 207.712 181.309 206.442C180.489 206.207 179.667 205.977 178.846 205.744C184.883 203.591 191.016 201.718 197.29 200.382C198.906 200.038 200.54 199.785 202.154 199.44C203.28 199.199 204.379 198.85 205.493 198.561L206.37 198.341L206.381 201.111C206.396 205.035 206.389 208.955 206.189 212.879L206.151 213.605C205.917 217.971 205.553 222.428 204.004 226.545C202.746 229.89 200.74 233.041 198.116 235.478C196.789 236.711 195.362 237.67 193.598 238.144C191.96 238.584 190.244 238.636 188.56 238.518C180.483 237.955 173.294 233.566 166.278 229.932C154.803 223.988 143.326 218.047 131.839 212.126C132.15 211.914 132.442 211.669 132.708 211.394C134.248 209.802 135.061 207.624 135.595 205.514C136.163 203.268 136.502 200.861 136.542 198.543M121.668 214.42C121.567 214.366 121.449 214.434 121.445 214.549C121.409 215.426 121.894 216.292 122.256 217.083L122.295 217.167C122.735 218.147 123.217 219.113 123.715 220.064C124.711 221.964 125.746 223.844 126.827 225.697C128.999 229.426 131.414 232.997 134.268 236.244C134.912 236.977 135.972 236.037 135.559 235.247C133.564 231.441 131.239 227.847 128.846 224.284C127.648 222.5 126.451 220.715 125.241 218.939C124.736 218.198 124.225 217.46 123.7 216.733L123.383 216.298M2.52276 142.545C12.6038 142.85 22.6731 143.508 32.7061 144.538C42.037 145.497 51.3336 146.773 60.5778 148.363C62.5087 148.696 64.4371 149.041 66.3631 149.401L67.5184 149.618C69.4447 149.983 71.7981 150.134 73.5131 151.164C75.3214 152.249 75.81 154.517 76.4117 156.387C77.119 158.587 77.8084 160.793 78.4792 163.005C81.1428 171.785 83.576 180.641 85.7466 189.556C86.824 193.981 87.78 198.431 88.7873 202.872C89.6823 206.818 90.6697 210.719 91.7014 214.625C91.5742 214.526 91.4183 214.451 91.23 214.411C86.1072 213.321 80.878 212.847 75.6787 212.244L75.1756 212.186C69.7969 211.553 64.4183 210.925 59.0364 210.319L23.4042 206.311C21.3028 206.074 19.0515 206.042 17.0064 205.478C13.5294 204.519 12.7144 200.63 12.1311 197.533L12.1135 197.439C10.3547 188.082 8.95459 178.644 7.31431 169.263M90.8721 203.748C92.2555 203.657 94.1489 202.389 95.1985 202.48C94.6475 203.405 94.3988 204.46 94.7164 205.586C95.6001 208.721 99.5966 207.099 101.522 206.141C103.1 205.356 104.624 204.395 106.372 204.027C108.351 203.61 109.692 204.398 111.365 205.306C112.738 206.051 114.234 206.586 115.773 206.863C116.591 207.011 117.368 207.027 118.143 206.969C118.19 207.007 118.243 207.042 118.303 207.074L118.713 207.289C116.858 207.374 114.968 207.947 113.242 208.471C111.453 209.014 109.696 209.669 107.95 210.339L106.231 211C101.992 212.624 97.6036 214.166 93.0159 214.152C92.6861 214.151 92.4159 214.243 92.2031 214.392M98.6121 193.926C97.2454 193.758 95.9839 193.938 94.8919 194.828C93.5748 195.901 92.69 197.681 90.7967 197.798C90.2446 197.832 90.1164 198.608 90.665 198.771C92.0744 199.188 93.2155 198.425 94.1757 197.435L94.8213 196.76C95.7702 195.777 96.6453 195.017 98.2555 195.076C99.9798 195.139 101.707 195.538 103.42 195.74C105.361 195.97 107.301 196.166 109.248 196.334C109.339 196.342 109.354 196.2 109.269 196.179L107.089 195.636M99.9313 188.336L99.7059 188.314C97.7213 188.121 95.9063 188.113 94.1339 189.181L93.794 189.387C92.196 190.359 90.4566 191.503 89.4573 193.077C89.2938 193.334 89.564 193.637 89.8376 193.572C91.7582 193.11 93.1623 191.701 94.7774 190.646C96.5901 189.462 98.4626 189.657 100.529 189.841C102.531 190.019 104.531 190.264 106.512 190.597C108.374 190.911 110.242 191.405 112.123 191.563L112.122 191.559C112.337 191.559 112.459 191.236 112.24 191.126C110.332 190.173 108.121 189.722 106.045 189.286M167.888 134.35C167.891 134.193 167.67 134.135 167.593 134.27C166.301 136.543 165.626 139.329 164.939 141.833C164.218 144.456 163.637 147.105 163.114 149.774C162.056 155.178 161.492 160.552 161.454 166.06C161.448 166.846 162.729 167.056 162.854 166.25C163.686 160.892 164.483 155.528 165.321 150.172C165.743 147.478 166.234 144.794 166.703 142.108M155.105 138.309C155.2 137.995 154.744 137.891 154.627 138.177C152.036 144.541 151.158 151.752 152.822 158.466C153.077 159.493 154.58 159.048 154.388 158.034M121.679 132.654C121.692 132.42 121.387 132.383 121.272 132.544C120.045 134.275 119.535 136.593 117.381 137.487C116.305 137.934 115.095 137.856 114.145 138.61C113.509 139.115 113.022 139.911 113.499 140.675C113.653 140.922 114.083 141.046 114.292 140.778C114.597 140.387 114.758 139.919 115.172 139.626C115.756 139.213 116.543 139.187 117.212 138.993C118.078 138.742 118.841 138.303 119.466 137.65M101.165 103.787C101.038 103.723 100.917 103.764 100.836 103.874C100.72 104.03 100.734 104.181 100.876 104.288C100.687 104.675 100.464 105.643 100.432 105.784C100.302 106.356 100.165 106.924 100.021 107.491C99.7307 108.636 99.4764 109.79 99.1859 110.935C98.8778 112.149 98.5109 113.351 98.1025 114.534C98.0762 114.611 98.0472 114.689 98.0168 114.769L97.9702 114.889L97.9588 114.87C97.8758 114.739 97.703 114.831 97.7235 114.969C97.7425 115.096 97.7681 115.222 97.7896 115.348L97.7468 115.461C97.4797 116.18 97.2967 116.938 97.7869 117.573C97.9702 117.81 98.172 117.951 98.4234 117.992C98.8265 119.322 99.3323 120.626 99.8738 121.879L100.032 122.245C100.829 124.073 101.678 125.878 102.947 127.434C104.331 129.133 106.236 130.294 107.442 132.156C108.003 133.022 108.394 133.932 108.71 134.911L108.83 135.282C109.055 135.974 109.314 136.644 109.963 137.05C110.17 137.179 110.48 137.138 110.647 136.962C111.977 135.554 110.585 132.925 109.782 131.562C108.667 129.667 107.053 128.454 105.437 127.024C103.696 125.483 102.585 123.421 101.51 121.39C100.852 120.145 100.216 118.874 99.5469 117.624C100.246 117.006 100.47 115.778 100.707 114.925L100.728 114.848C101.12 113.482 101.431 112.08 101.627 110.671C101.816 109.317 101.895 107.983 101.845 106.621L101.831 106.274M98.5657 110.232C98.7202 110.02 98.4645 109.78 98.2526 109.824C96.9643 110.091 95.7047 110.871 94.5484 111.502L94.4249 111.569C93.5019 112.067 92.5731 112.677 92.0885 113.644C91.5614 114.695 91.6048 115.906 91.6767 117.049L91.6835 117.156C91.7716 118.526 91.7857 119.95 92.0756 121.295C92.2239 121.984 92.8474 122.178 93.3804 122.015C94.0146 124.018 95.7962 125.494 97.0976 127.075C98.7569 129.091 98.4447 131.812 98.2712 134.239C98.2011 135.222 99.4231 135.501 100.052 134.977L101.503 133.772C101.744 133.571 101.986 133.369 102.226 133.167C102.432 132.993 102.636 132.819 102.839 132.642L103.141 132.375C103.276 132.254 103.867 131.593 104.04 131.566C104.459 131.499 105.455 132.604 105.796 132.951L105.839 132.994C106.48 133.623 107.06 134.3 107.6 135.018C107.699 135.15 107.893 135.04 107.822 134.888C107.339 133.851 106.776 132.86 106.108 131.933L105.973 131.748C105.529 131.149 104.933 130.092 104.148 129.915C103.191 129.699 102.235 130.66 101.538 131.193L101.494 131.226C101.162 131.475 100.835 131.728 100.508 131.983C100.542 130.176 100.314 128.35 99.381 126.792C98.7233 125.694 97.738 124.88 96.8948 123.937C95.9562 122.886 95.466 121.594 94.6163 120.499C94.5069 120.358 94.356 120.283 94.1927 120.258C94.1601 119.378 94.0305 118.49 93.9304 117.619L93.9014 117.359C93.8002 116.413 93.561 115.258 94.0239 114.372C94.4612 113.535 95.4644 112.945 96.2073 112.377L96.8139 111.906M140.379 100.231C140.767 100.456 141.129 100.735 141.458 101.084C142.493 102.182 143.234 103.55 143.954 104.865C144.342 105.574 144.716 106.29 145.107 106.997C145.277 107.304 145.452 107.608 145.629 107.912C145.711 108.052 145.954 108.33 146.074 108.502C145.94 108.689 145.802 108.874 145.661 109.057C145.607 109.126 141.893 113.174 140.598 114.758C138.615 117.185 136.843 119.748 135.328 122.491C133.845 125.177 132.715 128.022 131.341 130.76C130.653 132.131 129.885 133.493 128.906 134.679C128.868 134.725 128.828 134.769 128.789 134.815C128.416 133.805 127.458 132.723 126.988 132.102L126.944 132.044C125.877 130.605 124.751 129.21 123.6 127.839C122.548 126.586 121.47 125.361 120.366 124.156L119.951 123.705C119.182 122.874 118.205 121.63 117.079 121.036C117.199 120.821 117.339 120.608 117.499 120.398C118.555 119.019 120.046 118.018 121.518 117.115L122.472 116.534C126.069 114.341 129.611 112.046 132.734 109.197C134.386 107.689 136.016 106.109 137.405 104.351L137.896 103.729M134.376 99.1454C136.061 99.2868 137.88 99.2532 139.437 99.8022C138.053 101.111 136.737 102.524 135.386 103.855C135.266 102.955 135.02 102.066 134.811 101.188" fill="black"/>
<path fill-rule="evenodd" clip-rule="evenodd" d="M87.0273 36.6106C87.8412 31.6736 85.1697 30.6493 87.0273 25.9563C91.1556 17.2606 102.406 17.6353 110.662 16.9667C119.87 16.6129 129.19 17.8316 137.679 21.5315C139.707 22.4151 141.657 23.4544 143.527 24.6351C145.143 25.6563 144.921 27.5977 143.902 28.6568C151.252 39.0916 147.048 53.0981 152.913 64.0819C153.996 66.0453 155.429 67.8059 156.371 69.8488C157.802 72.9541 157.894 77.4036 154.648 79.4659C150.076 81.926 147.524 77.0551 145.278 84.1161C134.058 108.736 111.501 110.123 90.0863 97.2868C88.2336 96.2536 86.3427 95.086 84.9437 93.4629C81.7681 89.8802 82.1421 84.842 82.0719 80.3681C82.0327 77.7462 82.0261 75.1239 82.0516 72.5016C82.1516 61.8796 85.6632 47.1451 87.0273 36.6106Z" fill="#FFD1B0"/>
<path fill-rule="evenodd" clip-rule="evenodd" d="M132.638 7.08179C119.709 1.20202 105.044 -1.02772 90.9396 0.434823C83.9781 1.15557 77.1083 2.70188 70.5706 5.21371L69.9975 5.43573C68.3836 6.05843 66.6439 6.67654 65.4175 7.9441C63.9901 9.41721 63.5897 11.6448 64.6101 13.4646C65.4028 14.8785 66.8279 15.8928 68.348 16.434C67.8125 16.8736 67.3044 17.364 66.8279 17.9114C66.0247 18.8286 65.9636 20.1367 66.8279 21.0415C68.4934 22.7851 70.6543 24.0467 72.9818 24.6513C72.7204 25.9173 72.8617 27.3186 73.4224 28.5803C75.0316 32.2022 79.5646 32.6339 83.0528 32.4188L83.1582 32.4121L83.3522 34.6376C83.4555 35.8233 84.1638 36.7427 85.3655 36.9244C85.4077 36.9308 85.45 36.935 85.492 36.939C83.5904 43.8335 82.4414 50.941 81.381 58.0066C80.8269 61.6949 80.3309 65.3917 79.8561 69.091L79.6986 70.3241C79.1926 74.3123 78.5602 78.3407 78.3409 82.3584C78.1449 86.0042 78.8385 89.4851 81.0795 92.4271C83.0907 95.0648 85.8335 97.0409 88.7829 98.5077C95.447 101.824 102.461 104.292 109.831 105.438L110.323 105.514C113.168 105.949 116.099 106.316 118.914 105.527C121.386 104.833 123.98 103.045 123.421 100.173C123.233 99.203 121.88 99.1608 121.416 99.9111L121.309 100.083C120.753 100.968 120.143 101.79 119.173 102.246C118.037 102.783 116.719 102.933 115.477 102.948C112.009 102.988 108.398 102.122 105.058 101.253C98.8223 99.6302 92.4175 96.9839 87.3093 92.9745C85.1357 91.2711 83.3901 89.1406 82.7745 86.3994C82.0134 83.0199 82.7134 79.3255 83.0591 75.9291C83.7706 68.9209 84.6174 61.9257 85.5109 54.9382L85.6902 53.5408C86.4426 47.6991 87.2332 41.8552 87.6086 35.9797C87.7647 35.7662 87.8701 35.5232 87.9122 35.2569L87.971 34.8744V34.8744C88.0219 34.5468 88.0303 34.2466 87.9944 33.9698C87.9923 32.9088 87.9628 31.8542 87.9017 30.793C87.8914 30.603 87.8827 30.4127 87.8764 30.2246C88.9769 30.4677 90.0858 30.6643 91.1989 30.8312C99.0247 32.0127 106.973 32.3086 114.862 31.721C118.798 31.427 122.704 30.9221 126.598 30.2902C128.58 29.9689 130.555 29.6138 132.524 29.2165C133.947 28.9312 135.341 28.5444 136.741 28.1809C138.185 30.288 138.965 32.8813 138.813 35.4281C138.642 38.3342 136.711 40.9697 137.253 43.9392C137.761 46.7182 140.136 47.5799 142.481 48.2682L143.478 48.557C144.246 48.7816 144.803 48.9982 144.942 49.9225C145.18 51.5097 144.887 53.2956 144.826 54.8913C144.752 56.7787 144.655 58.6661 144.611 60.5534C144.587 61.5298 144.55 62.5105 144.552 63.487C144.554 64.1802 144.657 64.6536 144.925 65.1015C144.718 65.3616 144.533 65.6427 144.368 65.9407C144.316 66.0379 144.446 66.1413 144.524 66.0612C144.733 65.8435 144.955 65.647 145.188 65.4713C145.306 65.6174 145.443 65.7653 145.604 65.9238L145.616 65.9069V65.9069C146.118 66.4078 146.915 66.4564 147.537 65.9238L147.7 65.782C148.156 65.3819 148.469 65.0486 148.595 64.3873C148.602 64.3535 148.608 64.3197 148.612 64.2859C149.769 64.2457 150.946 64.5202 151.987 65.0974C153.638 66.0126 154.8 67.3166 155.487 68.9271C155.213 69.2484 154.892 69.5358 154.519 69.7767C154.467 69.8127 154.513 69.8909 154.57 69.8634C154.951 69.6837 155.293 69.4618 155.599 69.2019C155.845 69.8359 156.018 70.5165 156.124 71.2372C156.495 73.7818 155.833 76.8908 153.539 78.3406C152.546 78.9684 151.412 79.3086 150.235 79.3129C149.662 79.3148 149.167 79.2178 148.61 79.0804C148.233 78.9874 147.857 78.8521 147.463 78.8521C147.126 78.8521 146.814 78.9367 146.525 79.1057L146.605 79.1128C146.8 79.1311 146.762 79.1393 146.491 79.1393C145.648 79.1755 145.165 80.0336 145.553 80.7796L145.604 80.8949C145.615 80.9182 145.624 80.9374 145.631 80.9527L145.661 81.1506C145.665 81.1694 145.668 81.1888 145.671 81.2087L145.683 81.2487C145.685 81.2552 145.687 81.2615 145.69 81.2679L144.425 83.2014C142.875 85.5667 141.289 87.9228 139.486 90.0833C138.221 91.5987 136.88 93.0844 135.463 94.4603C134.19 95.6967 132.663 96.2927 131.221 97.265C130.452 97.7806 130.226 98.8606 130.926 99.556C132.98 101.6 135.887 99.9766 137.571 98.3154C139.165 96.7408 140.542 94.8471 141.729 92.9513C143.835 89.5803 145.511 85.9958 146.245 82.1048C146.55 82.3859 146.94 82.5613 147.334 82.6987C148.125 82.9734 148.996 83.0876 149.831 83.1172C151.431 83.17 153.033 82.7811 154.473 82.0921C160.332 79.2917 161.192 70.9053 157.61 65.9597C158.093 64.5556 158.363 63.0321 158.656 61.7329L158.789 61.1521C160.27 54.6652 161.265 47.8355 158.639 41.479C158.301 40.659 157.922 39.8601 157.473 39.095C157.112 38.48 156.493 37.8248 156.322 37.1252C155.942 35.5887 158.285 33.974 158.968 32.7545C159.771 31.3237 159.885 29.635 158.791 28.3265C158.651 28.1619 158.5 28.0095 158.335 27.8765C159.372 25.9913 159.421 23.6199 158.055 21.7601C157.157 20.5342 155.786 19.6762 154.29 19.4162C153.375 19.2577 152.274 19.3169 151.268 19.6001C145.762 14.4748 139.479 10.1929 132.638 7.08179ZM153.784 71.2118C152.314 69.912 150.691 69.2315 148.688 69.4027C146.675 69.5758 144.25 70.4108 143.068 72.1418C142.133 73.5092 144.037 75.5149 145.407 74.4878C146.656 73.5515 147.488 72.4947 149.038 71.9917C150.429 71.5415 152.152 71.252 153.609 71.5098C153.769 71.5373 153.929 71.3386 153.784 71.2118Z" fill="black"/>
<path fill-rule="evenodd" clip-rule="evenodd" d="M97.1826 82.7091C96.4578 81.4296 94.2948 81.6376 93.9642 83.1299C93.2934 86.1552 96.8995 88.9488 99.6384 89.0186C102.36 89.0877 105.414 86.7702 105.02 83.843C104.923 83.1189 103.956 83.2068 103.626 83.6608L103.498 83.835C102.603 85.038 101.422 86.2832 99.7607 85.9899C99.0722 85.8686 98.4468 85.4383 98.0306 84.8843C97.5287 84.2158 97.5838 83.4176 97.1826 82.7091ZM114.489 60.5764C114.121 60.4747 113.748 60.514 113.421 60.6531C112.692 60.7869 112.082 61.3956 111.868 62.0905C111.851 62.1507 111.832 62.2101 111.811 62.2689L111.779 62.3566L111.866 62.1338C111.826 62.3532 111.647 62.5838 111.583 62.804C111.504 63.0748 111.485 63.3823 111.512 63.6803C111.28 63.6826 111.048 63.6904 110.816 63.7105L110.592 63.7306C109.341 63.8469 107.967 64.0603 107.225 65.142C106.809 65.7498 107.2 66.8442 107.965 66.9613C109.143 67.1416 110.158 66.4893 111.333 66.3587C112.443 66.2351 113.604 66.3059 114.7 66.5064C116.962 66.9202 119.04 67.8374 121.245 68.4129L121.545 68.4891V68.4891L121.544 68.4876C121.922 68.5789 122.351 68.0535 121.977 67.7462C120.211 66.2949 117.95 65.1187 115.723 64.4025C116.047 63.8861 116.148 63.206 115.926 62.6516C115.892 62.5367 115.849 62.425 115.804 62.3137L115.71 62.0846V62.0846C115.701 61.9766 115.681 61.8698 115.651 61.7652L115.646 61.7333V61.7333L115.643 61.7352V61.7352C115.477 61.1961 115.044 60.7294 114.489 60.5764ZM91.9588 60.6598C91.4758 60.1764 90.7971 60.2479 90.293 60.6283L90.2261 60.6807V60.6807C89.751 60.8919 89.3578 61.3533 89.0997 61.7808C88.8316 62.2249 88.6535 62.6772 88.6465 63.166C87.4773 63.1698 86.3574 63.5207 85.499 64.465C85.2219 64.7697 85.0326 65.2398 85.1851 65.653L85.2759 65.8988V65.8988C85.5642 66.6792 86.86 67.1284 87.3005 66.2107L87.3208 66.1659C87.7888 65.0762 89.5852 65.1905 90.5399 65.3019C91.2054 65.3799 91.8626 65.5454 92.5053 65.7307C92.7317 65.7961 92.9561 65.867 93.1803 65.9393L93.4045 66.0121C93.524 66.0507 94.1469 66.3891 93.7594 66.309C93.6552 66.2874 93.5769 66.4392 93.6831 66.4901C94.145 66.711 94.6376 66.2712 94.6068 65.7749C94.5534 64.9135 93.186 64.4412 92.528 64.1441L92.4886 64.1262C92.2364 64.0095 91.9721 63.8977 91.6993 63.7939C91.8527 63.5657 91.9795 63.3121 92.0849 63.0398C92.1846 62.7828 92.2511 62.533 92.2877 62.2597C92.3236 62.1262 92.3236 61.9926 92.2877 61.8588L92.2822 61.8206V61.8206C92.3008 61.7322 92.3097 61.6409 92.3084 61.549L92.3122 61.5133H92.3084C92.2955 61.1914 92.1677 60.8688 91.9588 60.6598ZM99.676 69.8334C97.8204 70.407 94.7591 71.9696 95.7261 74.3813C97.0763 76.5962 100.657 74.9684 102.392 74.2528C103.951 73.7362 104.763 75.9218 103.255 76.5806C90.7994 81.5103 90.8452 68.4998 99.2243 68.6909C100.147 68.7118 100.176 69.6428 99.676 69.8334ZM116.156 52.8689L115.839 52.7765C114.195 52.2999 112.516 51.4769 111.055 52.7611C110.482 53.2654 110.364 54.3133 110.774 54.9422C111.709 56.3754 113.095 56.1565 114.605 56.2786C115.754 56.3716 116.886 56.7093 117.959 57.1314C118.836 57.4765 119.649 57.9624 120.416 58.5043C121.171 59.0372 121.686 59.8701 122.46 60.3496C122.743 60.5255 123.071 60.3446 123.172 60.0595C123.533 59.0481 122.924 57.7883 122.408 56.9266C121.778 55.8754 120.821 55.0156 119.793 54.365C118.666 53.6526 117.421 53.2412 116.156 52.8689V52.8689ZM92.1902 51.7808C89.4101 51.7799 86.735 53.3268 85.1801 55.5944C84.6517 56.3647 85.039 57.506 85.7974 57.9497C86.6483 58.4476 87.5581 58.089 88.1188 57.3755L88.152 57.3323C89.0438 56.1443 90.1933 55.2087 91.5559 54.5995C92.2208 54.3022 92.956 54.061 93.6752 53.9386L93.9076 53.8988C94.2333 53.8442 94.6112 53.7921 94.9058 53.8431C95.0636 53.8638 95.2086 53.916 95.3421 53.9955C95.2779 54.1358 95.4437 54.3049 95.5969 54.2208C96.2877 53.8412 96.203 53.1641 95.6324 52.6378C94.8251 51.8932 93.2328 51.781 92.1902 51.7808Z" fill="black"/>
<path fill-rule="evenodd" clip-rule="evenodd" d="M74.0703 53.7318C74.2441 53.7028 74.4182 53.6756 74.5923 53.65C74.7281 53.5729 74.8877 53.5135 75.0731 53.4778C75.4967 53.3702 75.9174 53.2977 76.3374 53.2586C82.3653 51.9015 96.3104 53.8284 96.8859 58.9743C98.8055 59.6154 100.466 59.0413 102.691 59.0984C104.385 52.0171 133.663 53.0166 135.071 57.2859C135.076 57.2844 135.082 57.2831 135.087 57.2814C136.44 56.8625 138.435 56.9636 139.983 56.8972C143.29 56.8279 146.6 57.1227 149.835 57.8204C155.893 58.7835 164.161 59.911 159.948 67.4791C159.947 67.4803 159.947 67.4818 159.945 67.4831L159.945 67.4825C159.219 68.227 157.986 67.6274 157.941 66.6195C159.357 63.0342 156.158 62.6036 153.696 61.5733C147.571 59.3719 141.334 59.0667 134.999 59.7477C134.523 60.309 133.8 60.7985 133.035 61.0547C128.8 61.758 131.032 64.9012 128.354 65.3584C128.846 76.3152 115.549 82.296 107.844 75.0934C104.768 72.0846 104.035 67.6274 103.321 63.6099C102.944 63.5251 102.704 63.3189 102.564 63.0458C101.657 62.1399 101.088 61.3034 99.2941 61.0547C97.5007 60.8061 96.12 61.3051 95.9333 61.4579C95.8862 61.5528 95.8357 61.6479 95.7769 61.743C95.695 61.8848 95.5834 61.9979 95.4567 62.0869C97.2277 72.9976 88.7607 79.8978 80.2131 74.2389C76.499 70.7438 75.7141 65.3928 75.5591 60.6167C75.0556 60.3128 74.7368 59.7238 74.9111 58.9832C75.1513 57.9624 74.5881 57.0785 73.691 56.6347C72.5255 56.0583 72.7317 53.9535 74.0703 53.7318M110.799 58.908C111.86 58.6745 112.313 60.311 111.248 60.5451C110.495 60.7108 109.856 61.0911 109.424 61.7352L109.379 61.8052C108.8 62.7271 107.335 61.8761 107.918 60.9483C108.575 59.9042 109.594 59.1728 110.799 58.908ZM79.7241 57.8934C80.0981 57.6298 80.6641 57.8254 80.8812 58.1979C81.1202 58.608 80.9636 59.0647 80.6133 59.333L80.5776 59.3592C80.2563 59.5857 79.9434 59.9918 79.9041 60.4079L79.9006 60.46C79.8585 61.5489 78.1669 61.5544 78.2092 60.46C78.2504 59.3893 78.8701 58.4948 79.7241 57.8934Z" fill="black"/>
</svg>
