<svg width="181" height="260" viewBox="0 0 181 260" fill="none" xmlns="http://www.w3.org/2000/svg">
<g filter="url(#filter0_d_20_20643)">
<path fill-rule="evenodd" clip-rule="evenodd" d="M154.022 138.554C152.181 131.411 150.488 128.382 147.216 125.899C144.157 123.577 139.69 121.626 133.173 120.201C126.385 119.014 126.193 115.485 124.491 109.814C123.994 108.109 121.534 107.655 120.472 108.884C120.322 108.723 120.166 108.575 120.004 108.441C120.149 107.628 118.965 105.297 119.005 104.519C119.418 96.4009 116.763 92.324 110.136 90.8085C108.695 90.4788 98.9065 90.2847 97.5013 90.6733C91.3585 92.372 85.3114 97.7654 86.2368 104.262C84.3086 106.783 82.4214 108.321 79.4466 109.133C74.8139 109.722 77.1411 175.367 85.187 214.696C88.6392 231.57 171.184 202.849 167.454 194.398C167.982 192.849 167.019 191.146 167.454 189.547C167.769 188.389 168.575 187.91 168.98 186.764C169.551 185.151 168.931 182.986 168.288 181.34C168.024 180.52 168.773 179.637 168.98 178.8C169.967 174.851 167.708 175.199 166.08 172.559C166.104 172.551 166.527 170.667 166.526 170.676C166.775 169.331 166.15 167.607 165.605 166.484C165.237 165.725 164.448 165.25 163.665 165.337C164.454 162.657 165.452 160.427 166.526 157.844C168.424 153.293 170.229 148.531 172.955 144.412C174.072 142.725 173.17 141.173 171.364 141.058C165.516 140.686 159.733 139.844 154.022 138.554Z" fill="#FFBB8C"/>
<path fill-rule="evenodd" clip-rule="evenodd" d="M144.894 139.106L131.546 161.701C131.546 161.701 134.713 162.017 135.994 162.633C137.276 163.249 143.16 170.731 143.16 170.731L144.095 174.851L141.879 178.173L142.743 180.258C142.743 180.258 143.36 178.845 144.894 177.748C146.429 176.652 149.813 174.851 149.813 174.851C149.813 174.851 148.688 174.249 148.688 173.543C148.688 172.836 147.698 169.822 149.813 168.683C151.928 167.544 162.859 164.88 162.859 164.88L173.937 141.506L144.894 139.106Z" fill="#DA0037" stroke="#22252B"/>
<path fill-rule="evenodd" clip-rule="evenodd" d="M85.3504 109.287L127.734 116.727L147.217 125.899L150.397 128.35L131.547 161.701L102.44 167.013L95.0245 186.28L96.5382 207.997L143.889 202.35L164.314 199.923L169.115 219.311L168.247 227.287L166.986 231.332L116.351 245.006C116.351 245.006 90.5677 242.506 85.9971 242.506C81.4265 242.506 47.9156 245.835 47.9156 245.835L40.1621 245.006C40.1621 245.006 23.0074 226.921 20.3468 220.484C17.6861 214.048 11.9326 174.922 11.9326 174.922L12.5661 168.91L27.3873 130.758C27.3873 130.758 29.3665 128.96 31.8617 125.899C34.3569 122.838 85.3504 109.287 85.3504 109.287Z" fill="#DA0037"/>
<path fill-rule="evenodd" clip-rule="evenodd" d="M162.06 164.398C158.229 164.592 154.395 165.503 150.93 167.154C149.512 167.83 148.228 168.807 147.852 170.413C147.662 171.233 147.708 172.081 147.809 172.909C147.886 173.537 147.905 174.338 148.45 174.762C148.543 174.834 148.642 174.889 148.746 174.929C147.467 175.506 146.25 176.2 145.169 176.914C144.18 177.567 143.164 178.573 142.708 179.708C142.67 179.579 142.631 179.459 142.593 179.345C141.816 177.045 140.618 175.162 138.731 173.896C138.517 173.115 136.218 169.754 134.082 169.88C131.744 170.018 129.862 170.189 127.747 171.265C126.977 171.248 126.207 171.258 125.447 171.292C125.316 171.296 125.322 171.474 125.447 171.489C126.064 171.567 126.681 171.653 127.298 171.755C128.764 171.99 130.226 172.288 131.656 172.657C133.372 173.101 135.146 173.547 136.75 174.323C139.859 175.83 141.784 179.77 141.389 183.197C141.324 183.76 141.106 185.459 140.326 185.283C139.667 185.136 139.405 183.76 139.175 183.25C138.558 181.898 137.447 181.014 136.114 180.416C134.548 179.712 132.873 179.237 131.25 178.683C130.331 178.368 129.412 178.053 128.491 177.74C127.549 177.417 126.653 176.971 125.65 177.197C125.043 177.335 124.974 178.057 125.314 178.472C125.831 179.104 126.601 179.29 127.346 179.55C128.331 179.892 129.313 180.235 130.296 180.577C131.814 181.105 133.405 181.551 134.886 182.198L134.84 182.303C134.719 182.27 134.578 182.39 134.601 182.538C134.823 183.905 135.131 185.486 134.789 186.856C134.519 187.942 133.566 189.145 132.328 188.826C132.522 188.648 132.594 188.342 132.463 188.059C131.973 187.01 125.551 182.872 124.978 184.409C124.959 184.463 125.018 184.504 125.065 184.495C125.553 184.394 126.37 185.226 126.761 185.491C127.325 185.871 127.897 186.243 128.455 186.634C129.066 187.061 129.662 187.509 130.243 187.972C130.699 188.336 131.043 188.714 131.567 188.898C131.293 189.029 131.075 189.272 130.982 189.582C130.746 190.392 130.289 191.079 129.497 191.436C128.667 191.808 127.731 191.573 126.856 191.664C125.665 191.785 124.625 192.351 123.757 193.161C121.934 194.864 121.019 197.865 118.469 198.67C116.946 199.15 115.255 198.848 113.713 198.63C111.991 198.387 110.314 198.195 108.579 198.448C106.919 198.692 105.349 199.266 103.832 199.968C102.41 200.625 100.839 201.37 99.5773 202.35C99.3174 201.549 99.0554 200.756 98.8566 199.939C98.3878 198.005 98.1343 196.035 98.0728 194.048C98.016 192.157 98.1216 190.257 98.2841 188.373C98.3646 187.433 98.4913 186.497 98.5716 185.556C98.5925 185.319 98.635 185.066 98.6667 184.812C100.919 183.483 103.285 182.464 105.67 181.416C105.677 181.414 105.683 181.409 105.689 181.408C105.763 181.373 105.835 181.342 105.909 181.31C105.907 181.306 105.905 181.302 105.901 181.297C106.173 181.131 106.363 180.909 106.477 180.659C109.915 178.379 112.788 175.266 114.93 171.634C115.828 170.113 116.692 168.534 117.867 167.201C119.117 165.778 120.603 164.933 122.441 164.493C124.589 163.977 126.803 163.669 129.005 163.493C130.207 163.398 131.55 163.25 132.86 163.257C133.773 163.263 134.666 163.341 135.486 163.567C136.701 163.901 137.411 164.825 138.174 165.759C138.903 166.655 139.627 167.554 140.308 168.488C140.952 169.373 141.56 170.288 142.089 171.248C142.405 171.823 142.699 172.415 142.946 173.025C143.033 173.241 143.147 173.486 143.2 173.71C143.253 173.936 143.155 174.175 143.409 174.175C142.363 174.19 141.668 176.798 142.708 176.737C144.169 176.652 144.904 174.899 144.617 173.344C144.106 170.57 141.347 167.219 140.802 166.509C139.595 164.941 138.351 162.895 136.42 162.166C136.393 162.155 136.363 162.145 136.336 162.136C136.898 161.604 137.341 160.966 137.766 160.317C138.203 159.649 138.725 158.884 138.869 158.091C138.96 157.586 138.332 157.299 138.034 157.74C137.601 158.385 137.392 159.201 137.069 159.909C136.739 160.627 136.338 161.306 136.021 162.031C135.258 161.796 134.434 161.689 133.596 161.653C134.654 160.22 136.462 157.455 136.68 157.1C137.681 155.456 138.634 153.761 139.545 152.063C140.529 150.225 141.372 148.31 142.315 146.45C142.849 145.396 143.388 144.332 143.981 143.309C144.186 142.958 144.406 142.608 144.655 142.288C144.704 142.225 144.765 142.172 144.822 142.113C144.888 142.077 144.955 142.037 144.993 142.016C145.335 141.82 145.456 141.363 145.697 141.073C146.081 140.606 146.534 140.551 147.112 140.545C148.346 140.532 149.584 140.581 150.816 140.615C152.627 140.665 154.435 140.737 156.243 140.832C156.791 140.862 157.336 140.891 157.883 140.925C160.513 141.082 163.141 141.287 165.763 141.538C168.083 141.76 170.403 142.122 172.724 142.295C169.581 149.766 166.095 157.102 162.148 164.182C162.108 164.254 162.078 164.326 162.06 164.398ZM144.617 183.646C144.11 183.878 143.618 184.168 143.16 184.497C143.236 183.984 143.255 183.443 143.234 182.899C143.612 183.305 144.096 183.538 144.617 183.646ZM166.262 170.794C166.226 170.798 166.192 170.817 166.175 170.852C165.474 172.3 165.767 173.917 166.912 175.052C167.512 175.644 168.82 176.312 168.778 177.284C168.742 178.07 167.886 178.73 167.521 179.378C167.181 179.983 167.054 180.646 167.327 181.302C167.675 182.141 168.649 182.475 168.983 183.299C169.405 184.345 168.719 185.607 168.237 186.518C167.789 187.361 167.21 188.204 166.826 189.096C164.251 190.43 158.407 192.852 157.703 192.987C156.846 193.154 155.986 193.313 155.124 193.461C153.469 193.748 151.811 194.014 150.148 194.249C149.202 194.382 148.253 194.513 147.305 194.617C146.477 194.705 145.543 194.826 144.875 194.203C143.529 192.943 144.284 190.831 145.135 189.559C145.152 189.534 145.152 189.51 145.146 189.489C145.948 189.301 146.749 189.081 147.548 188.927C149.084 188.631 150.63 188.382 152.179 188.16C155.36 187.706 158.563 187.405 161.762 187.103C162.554 187.027 162.562 185.78 161.762 185.854C157.166 186.275 152.548 186.674 148.015 187.56C146.878 187.78 145.75 188.029 144.628 188.31C144.098 188.441 143.529 188.646 142.974 188.653C142.94 188.653 142.906 188.653 142.872 188.65C141.784 188.617 141.626 187.685 142.224 186.909C142.298 186.814 142.374 186.719 142.452 186.628C143.508 185.368 144.824 184.527 146.181 183.656C147.7 183.449 149.215 182.988 150.702 182.65C154.374 181.813 158.046 180.976 161.72 180.141C162.44 179.976 162.134 178.869 161.413 179.032C158.624 179.664 155.836 180.296 153.047 180.928L148.965 181.853C148.15 182.037 147.131 182.407 146.172 182.54C145.699 182.606 145.241 182.614 144.827 182.517C143.489 182.2 143.422 180.528 143.998 179.535C144.645 178.419 145.866 177.721 146.95 177.089C148.828 175.993 150.827 175.204 152.779 174.295C153.125 174.219 153.472 174.143 153.818 174.067C155.834 173.623 158.136 173.406 160.034 172.592C160.602 172.351 160.291 171.455 159.729 171.468C158.257 171.499 156.717 172.023 155.278 172.334C153.721 172.672 152.162 173.008 150.605 173.344C150.448 173.378 149.523 173.674 149.384 173.608C149.295 173.566 149.263 173.258 149.234 173.055C149.138 172.387 149.069 171.685 149.172 171.015C149.401 169.513 150.653 168.807 151.921 168.23C154.743 166.947 157.839 166.144 160.919 165.822C161.629 165.748 162.339 165.702 163.053 165.679C163.891 165.653 164.582 165.505 165.007 166.332C165.674 167.634 166.042 169.308 166.262 170.794ZM162.342 217.997C161.727 215.869 161.894 213.597 161.473 211.427C161.256 210.307 160.959 209.196 160.635 208.103C160.373 207.22 159.937 206.281 159.887 205.36C159.884 205.298 159.957 205.263 160.007 205.291C160.874 205.788 161.541 206.863 162.036 207.706C162.628 208.715 163.08 209.772 163.445 210.883C164.172 213.097 164.769 215.767 163.832 217.997C163.552 218.661 162.572 218.794 162.342 217.997ZM138.34 234.106C137.424 233.466 136.756 232.571 135.979 231.782C135.214 231.006 136.409 229.81 137.174 230.587C137.837 231.26 138.413 232.101 139.193 232.646C139.569 232.907 139.743 233.381 139.496 233.802C139.279 234.174 138.715 234.367 138.34 234.106ZM133.229 209.516C134.902 208.792 136.548 208.004 138.299 207.483C139.345 207.171 139.788 208.803 138.748 209.113C137.135 209.593 135.623 210.309 134.082 210.975C133.093 211.403 132.234 209.946 133.229 209.516ZM115.561 209.009C115.152 207.999 116.788 207.564 117.191 208.56C117.655 209.706 118.187 210.822 118.651 211.968C119.06 212.978 117.424 213.414 117.021 212.418C116.557 211.272 116.025 210.155 115.561 209.009ZM98.1218 229.176C97.8493 229.54 97.3949 229.737 96.9656 229.48C96.606 229.264 96.3865 228.691 96.6624 228.323C97.468 227.249 98.2841 226.188 99.2282 225.23C99.9937 224.454 101.188 225.65 100.423 226.426C99.5802 227.281 98.8414 228.217 98.1218 229.176ZM95.6282 116.021C96.404 116.551 97.0837 117.195 97.7464 117.858C98.5169 118.628 97.3216 119.823 96.5511 119.053C95.9927 118.495 95.4294 117.928 94.7751 117.481C94.3972 117.223 94.2275 116.742 94.472 116.324C94.6911 115.95 95.2511 115.764 95.6282 116.021ZM121 143.23C120.561 144.108 120.166 144.969 120.141 145.968C120.115 147.056 118.424 147.057 118.451 145.968C118.484 144.661 118.965 143.528 119.54 142.376C120.026 141.401 121.484 142.259 121 143.23ZM130.308 121.377C131.217 120.772 132.062 122.237 131.162 122.838C130.432 123.324 129.701 123.811 128.971 124.298C128.063 124.904 127.218 123.439 128.118 122.838C128.848 122.351 129.578 121.864 130.308 121.377ZM89.932 159.584C89.777 160.658 88.1485 160.199 88.3021 159.135C88.5398 157.49 88.8299 155.867 89.2758 154.265C89.5678 153.217 91.1977 153.665 90.9056 154.714C90.4596 156.316 90.1695 157.939 89.932 159.584ZM84.0062 178.952C82.9184 178.929 82.9182 177.238 84.0062 177.261C84.9907 177.282 85.9585 177.541 86.9082 177.778C87.9645 178.042 87.5141 179.673 86.4588 179.409C85.656 179.208 84.8386 178.97 84.0062 178.952ZM81.8187 217.967C81.445 218.149 81.0616 218.313 80.6838 218.486C79.9273 218.832 79.1711 219.178 78.4152 219.526C76.8404 220.249 75.2665 220.974 73.694 221.703C70.5461 223.16 67.3739 224.567 64.2185 226.008C61.0006 227.479 57.7913 228.969 54.5859 230.467C53.0758 231.172 51.5542 231.851 50.0356 232.538C48.7372 233.126 47.1322 234.152 45.7068 234.248C45.6335 234.254 45.6089 234.161 45.6508 234.113C46.1893 233.501 47.0483 233.144 47.7561 232.746C48.479 232.339 49.2155 231.956 49.9486 231.568C51.4769 230.758 53.0071 229.954 54.5502 229.173C57.6368 227.61 60.7294 226.059 63.8225 224.509C66.9772 222.929 70.1278 221.338 73.3101 219.814C74.8085 219.097 76.3082 218.381 77.8089 217.668C78.6218 217.281 79.4352 216.896 80.2486 216.511C80.5999 216.344 80.9477 216.165 81.3068 216.016C81.7841 215.819 82.1468 215.859 82.6391 215.737C83.4419 215.539 83.7894 216.56 83.1732 217.005C82.6657 217.371 82.3987 217.684 81.8187 217.967ZM70.5356 235.305C70.3621 234.883 70.7253 234.37 71.1258 234.265C71.6056 234.138 71.9904 234.43 72.1655 234.855C72.6288 235.983 73.2888 237.017 74.1383 237.891C74.8976 238.672 73.7031 239.868 72.9432 239.086C71.8786 237.991 71.1138 236.711 70.5356 235.305ZM62.2346 208.165C61.4642 207.394 62.6595 206.199 63.4298 206.969L65.6202 209.161C66.3907 209.931 65.1951 211.127 64.4251 210.356L62.2346 208.165ZM39.7621 204.592C38.1873 205.054 36.3506 205.479 35.2769 206.823C35.2245 206.889 35.1364 206.805 35.1679 206.739C36.5424 203.888 40.4842 202.889 43.2134 201.89C45.1437 201.183 47.1244 200.597 49.1217 200.074C48.922 197.795 49.4726 195.352 49.664 193.084C49.8683 190.662 50.0346 188.234 50.1199 185.805C50.2072 183.327 50.2283 180.832 50.1468 178.353C50.0656 175.883 49.7451 173.444 49.6049 170.983C49.5913 170.745 49.9226 170.733 49.994 170.93C50.8235 173.214 51.1777 175.744 51.4477 178.153C51.7258 180.634 51.8181 183.107 51.7826 185.603C51.7458 188.169 51.5967 190.728 51.392 193.286C51.295 194.498 51.1824 195.709 51.0761 196.92C50.995 197.845 50.9574 198.762 50.7689 199.657C51.9736 199.361 53.181 199.081 54.3846 198.809C58.2225 197.943 62.0764 197.139 65.8982 196.202C67.7743 195.742 69.6235 195.192 71.4911 194.703C73.2497 194.242 75.1059 193.684 76.9114 193.478C77.5558 193.405 77.6378 194.286 77.2112 194.586C75.7437 195.616 73.7948 196.334 72.0998 196.911C70.3987 197.49 68.6304 197.907 66.8868 198.335C63.2506 199.23 59.5801 199.962 55.915 200.723C52.255 201.485 48.588 202.24 44.9692 203.179C43.2265 203.631 41.4896 204.085 39.7621 204.592ZM31.1325 159.359C30.1915 159.911 29.342 158.449 30.2796 157.899C31.5064 157.178 32.8139 156.637 34.132 156.109C35.1436 155.704 35.5788 157.34 34.5814 157.74C33.3968 158.214 32.2349 158.711 31.1325 159.359ZM27.7251 222.175C26.7816 222.722 25.9315 221.261 26.8723 220.715C28.1935 219.949 29.6405 219.438 31.0097 218.767C31.9839 218.29 32.8395 219.749 31.8626 220.227C30.4936 220.898 29.0464 221.409 27.7251 222.175ZM26.1926 186.518C27.1049 187.385 28.3224 187.793 29.4704 188.248C30.4714 188.645 30.0324 190.279 29.0211 189.878C27.5908 189.311 26.1339 188.793 24.9975 187.713C24.2069 186.962 25.4042 185.768 26.1926 186.518ZM36.2851 138.092C37.288 138.485 36.8487 140.12 35.8357 139.722C34.7122 139.282 33.5519 138.946 32.4284 138.505C31.4257 138.112 31.8647 136.477 32.8777 136.875C34.0013 137.315 35.1615 137.651 36.2851 138.092ZM54.0892 118.857C55.1549 118.678 55.6087 120.307 54.5386 120.488C53.211 120.712 51.9037 120.974 50.6445 121.462C49.6277 121.855 49.1914 120.22 50.1951 119.831C51.4545 119.344 52.7618 119.082 54.0892 118.857ZM59.972 165.689C58.9949 165.208 59.8522 163.751 60.8249 164.229C61.8499 164.733 62.912 165.123 64.0304 165.361C65.0954 165.588 64.6418 167.218 63.5811 166.992C62.3223 166.723 61.1246 166.256 59.972 165.689ZM65.5281 139.309C66.5802 139.021 67.0251 140.652 65.9775 140.94C64.1342 141.445 62.2363 141.708 60.3795 142.157C59.3213 142.413 58.8736 140.783 59.9301 140.527C61.787 140.077 63.685 139.815 65.5281 139.309ZM89.0984 131.031C90.1682 131.229 89.7123 132.858 88.6492 132.662C87.5175 132.452 86.3705 132.449 85.2231 132.448C84.1338 132.448 84.1357 130.757 85.2231 130.757C86.5266 130.758 87.8135 130.793 89.0984 131.031ZM165.97 139.865C163.209 139.6 160.443 139.389 157.674 139.23C157.545 139.224 157.418 139.216 157.289 139.209C157.274 139.18 157.255 139.152 157.236 139.122C156.332 137.795 155.667 136.468 155.09 134.967C154.539 133.539 154.004 132.066 153.155 130.776C152.186 129.308 150.878 128.158 149.445 127.162C148.576 127.747 147.769 128.432 147.031 129.158C146.254 129.921 145.059 128.726 145.836 127.962C146.492 127.317 147.192 126.721 147.932 126.183C147.077 125.663 146.205 125.175 145.355 124.689C142.166 122.87 138.903 121.187 135.571 119.649C134.022 118.932 132.455 118.296 130.877 117.651C130.027 117.305 129.189 116.859 128.339 116.457C128.4 115.857 128.221 115.185 127.76 114.79C127.42 114.5 127.156 114.392 126.75 114.188C126.66 114.156 126.605 114.137 126.579 114.126C126.598 114.13 126.653 114.147 126.744 114.177C126.96 114.276 126.977 114.247 126.795 114.09C126.784 113.748 126.11 113.025 125.956 112.672C125.42 111.461 125.253 110.18 124.46 109.077C123.368 107.557 121.534 106.983 119.825 107.498C119.648 105.67 119.601 103.762 118.912 102.13C118.893 102.086 118.832 102.066 118.805 102.115C118.086 103.339 118.025 104.702 117.97 106.114C117.917 107.439 117.968 108.794 118.141 110.11C118.031 110.195 117.92 110.275 117.803 110.353C117.258 110.713 116.671 110.99 116.054 111.195C114.879 111.584 113.648 111.753 112.416 111.812C109.236 111.964 105.96 111.643 102.833 111.097C99.6702 110.546 94.8216 109.717 92.0075 108.134C90.1503 107.09 88.4371 105.816 86.7003 104.581C87.3301 102.553 87.4906 100.371 86.8568 98.6573C86.7808 98.4523 86.4597 98.4143 86.3984 98.6573C86.0012 100.293 85.885 101.937 85.3568 103.554C85.3484 103.578 85.3399 103.603 85.3315 103.626C85.1667 103.514 85.0019 103.404 84.8371 103.294C84.4568 103.043 83.9392 103.231 83.7111 103.59C80.0623 109.341 74.2843 109.671 68.2167 110.698C61.5763 111.822 54.9026 113.035 48.5181 115.236C42.4125 117.341 36.5773 120.405 31.9547 124.983C30.9083 126.02 29.9297 127.124 29.0061 128.277C29.8997 128.39 30.786 128.565 31.6608 128.84C32.6967 129.166 32.2515 130.797 31.2115 130.47C30.0871 130.117 28.9503 129.942 27.8018 129.855C24.6609 134.154 22.2119 139.028 20.0942 143.825C16.0321 153.023 13.3881 162.819 12.1714 172.792C12.8394 172.391 13.5195 172.01 14.2165 171.655C15.1849 171.162 16.0391 172.621 15.0696 173.115C13.993 173.663 12.9472 174.267 11.9339 174.921C11.4913 179.287 11.3198 183.68 11.4237 188.067C11.6709 198.525 13.0822 209.289 16.2744 219.266C17.8399 224.163 19.9146 229.021 23.0054 233.159C24.404 235.033 25.9927 236.724 27.8646 238.134C28.7709 238.819 29.7301 239.43 30.742 239.945C32.0456 240.613 33.7442 240.833 34.8681 241.777C35.2378 242.088 35.523 242.498 35.7385 242.961C35.6139 243.84 35.5991 244.722 35.8399 245.601C35.916 245.876 36.123 246.1 36.3787 246.207C36.3829 246.283 36.3829 246.357 36.3829 246.429C36.3829 246.463 36.4336 246.472 36.4399 246.438C36.4505 246.372 36.4611 246.307 36.4716 246.239C36.554 246.266 36.6406 246.279 36.7294 246.279C39.9385 246.291 43.1517 246.213 46.3651 246.104C46.1166 245.343 45.8475 244.588 45.5891 243.826C45.2382 242.792 46.8711 242.352 47.2188 243.377C47.5211 244.267 47.8372 245.15 48.1184 246.043C51.5614 245.915 55.0034 245.761 58.4392 245.647C65.747 245.404 73.0526 245.324 80.3623 245.17C91.7139 244.929 103.148 244.436 114.517 244.918C114.91 244.083 115.35 243.268 115.768 242.444C116.26 241.473 117.718 242.329 117.227 243.298C116.937 243.87 116.637 244.435 116.351 245.006C118.654 245.126 120.954 245.284 123.25 245.5C127.166 245.867 131.046 246.52 134.958 246.926C138.936 247.34 142.828 247.266 146.774 246.609C147.484 246.491 147.903 246.061 148.076 245.529C148.082 245.527 148.086 245.523 148.09 245.516C148.293 245.279 148.484 245.083 148.68 244.912C148.915 244.76 149.168 244.631 149.466 244.517C150.022 244.305 150.601 244.176 151.188 244.09C151.834 243.993 152.489 243.984 153.136 243.904C153.681 243.834 154.213 243.73 154.745 243.604C155.703 243.375 156.611 243.077 157.515 242.682C158.303 242.338 159.015 241.843 159.687 241.304C161.077 240.287 162.281 238.99 163.334 237.641C163.946 236.853 164.523 236.035 165.047 235.183C165.96 233.708 166.737 232.176 167.523 230.631C167.808 230.173 168.069 229.704 168.306 229.226C166.77 228.773 165.22 228.404 163.592 228.378C162.503 228.36 162.503 226.669 163.592 226.687C165.459 226.717 167.225 227.153 168.98 227.673C169.066 227.446 169.148 227.217 169.224 226.985C169.433 226.501 169.606 226.004 169.75 225.501C169.834 225.273 169.919 225.045 170.003 224.817C170.193 224.026 170.384 223.234 170.576 222.441C170.958 221.173 171.26 219.886 171.482 218.582C171.668 217.724 171.812 216.859 171.909 215.984C172.205 213.864 172.446 211.749 172.462 209.606C172.437 208.285 172.353 206.966 172.209 205.653C172.148 204.762 172.044 203.874 171.905 202.993C171.723 201.682 171.543 200.385 171.241 199.091C171.015 198.216 170.789 197.341 170.563 196.466C169.999 194.642 169.334 192.854 168.566 191.106C168.524 190.996 168.311 190.755 168.182 190.753C168.085 190.751 167.95 190.84 167.994 190.958C167.998 190.969 168.002 190.981 168.007 190.992C167.962 190.893 167.92 190.791 167.876 190.692C167.838 190.599 167.69 190.413 167.576 190.415C167.57 190.415 167.563 190.415 167.555 190.417C167.584 190.396 167.612 190.369 167.639 190.337C168.398 189.439 168.89 188.257 169.433 187.217C169.883 186.359 170.308 185.455 170.43 184.485C170.538 183.633 170.392 182.794 169.858 182.105C169.249 181.321 168.104 180.953 168.74 179.82C169.462 178.531 170.525 177.413 169.467 175.948C168.928 175.202 168.074 174.792 167.441 174.143C166.712 173.393 166.365 172.389 166.384 171.364C166.429 171.389 166.488 171.377 166.509 171.313C167.122 169.462 166.678 167.429 166.051 165.626C165.708 164.647 164.983 164.379 164.141 164.33C167.791 157.197 171.207 149.95 174.252 142.536C174.353 142.293 174.453 142.05 174.552 141.807C174.7 141.443 174.387 140.959 174.026 140.879C171.393 140.302 168.651 140.118 165.97 139.865Z" fill="black"/>
<path fill-rule="evenodd" clip-rule="evenodd" d="M142.589 57.0757C141.79 43.9293 137.535 29.0247 125.011 22.57C97.4023 11.4619 61.1022 39.4354 59.1803 68.0125C58.5103 77.7946 63.928 88.4836 73.8284 91.2033C76.0296 94.1269 79.3585 95.9124 82.6442 97.462C121.778 117.817 147.057 101.271 142.589 57.0757V57.0757Z" fill="#FFBB8C"/>
<path fill-rule="evenodd" clip-rule="evenodd" d="M151.504 48.898C150.122 45.0472 148.661 41.226 147.124 37.4343C145.627 33.7442 144.275 29.9742 142.416 26.4589C131.314 5.46338 111.126 5.46338 100.69 8.2067C95.2783 5.86917 85.1418 6.52853 79.5067 8.63786C70.384 12.0526 59.2634 25.4856 55.4612 31.521C47.0665 44.8464 41.8276 62.5823 47.4038 77.9804C48.1326 79.9929 49.0621 81.8568 50.1087 83.653C49.4494 84.5487 48.6907 85.3971 47.8501 86.2307C45.3523 88.7081 42.8545 91.104 40.6967 93.8983C38.5525 96.6752 36.7748 99.6282 35.4515 102.884C32.9562 109.024 32.836 115.977 36.135 121.836C39.0051 126.933 44.0895 130.729 49.8177 131.091C50.1118 131.132 50.4063 131.17 50.7021 131.2C51.4611 132.453 52.3866 133.607 53.4428 134.613C56.6789 137.699 64.3929 139.282 68.7928 139.383C69.0183 139.565 69.246 139.747 69.4737 139.927C72.1659 142.051 74.9909 144.194 78.0816 145.705C80.175 146.73 82.9199 147.586 85.104 146.846C86.0949 147.51 87.7203 147.37 88.7028 146.827C90.3177 145.935 91.6311 144.329 92.4301 142.685C94.3676 138.692 93.9016 134.324 93.4041 130.059C92.856 125.348 92.3289 120.634 91.7934 115.923C91.3739 112.24 90.9354 108.495 89.818 104.946C89.2404 103.107 88.4835 101.34 87.5053 99.6791C87.5306 99.5396 87.5264 99.4001 87.4863 99.2691C87.1659 98.225 86.5039 97.6776 85.7196 96.9675C85.6184 96.8766 85.5172 96.7836 85.4182 96.6885C85.026 96.2404 84.6065 95.8241 84.1574 95.4711C83.9846 95.2957 83.8138 95.1182 83.643 94.9406C82.2242 93.4506 80.8834 91.8845 79.6922 90.2064C78.5369 88.579 77.4934 86.8797 76.5004 85.1488C75.4906 83.3882 74.8223 81.4459 73.8145 79.6981C73.7281 79.548 73.5088 79.5184 73.3866 79.6431C73.0745 79.9665 72.8743 80.3258 72.9122 80.7041L72.7562 80.7273C72.6972 80.1567 72.1722 79.6917 71.4596 79.8164C70.3929 80.0024 69.5159 80.0721 68.5925 79.7171C68.7548 78.6371 68.9045 77.555 69.0521 76.4707C69.3219 74.4756 69.5728 72.4741 69.7878 70.4726C70.3086 70.5973 70.8251 70.777 71.331 71.0052C72.0521 71.3286 72.733 71.764 73.3149 72.2987C73.8883 72.8271 74.2847 73.5393 74.9846 73.907C75.7899 74.3276 76.7618 73.6323 76.5257 72.7193C76.0471 70.8742 73.3381 69.8174 71.662 69.4687C71.0865 69.3482 70.4983 69.2975 69.9101 69.3102C70.0429 68.0252 70.161 66.7402 70.258 65.453C70.3043 64.8443 70.3465 64.2357 70.3866 63.6249C71.6894 63.2296 73.0851 63.1113 74.4407 63.2973C74.8876 63.6545 75.3346 64.0074 75.7667 64.3646C77.1392 65.5016 78.5053 66.6451 79.8546 67.8096C79.9768 67.9132 80.097 68.0167 80.2193 68.1224C81.0204 68.8135 82.0197 68.1287 81.8848 67.1502C80.7843 59.1316 85.6838 52.753 91.4203 47.8116C97.7702 42.3398 109.315 41.7026 116.866 32.2245C120.344 32.9342 128.11 35.0418 131.314 40.1608C135.8 47.334 135.214 53.7611 135.556 61.8981C135.897 70.0415 136.766 78.5356 134.921 86.5648C133.22 93.9684 128.613 100.294 121.467 103.202C121.29 103.274 121.11 103.344 120.931 103.412C117.235 104.809 113.202 105.204 109.315 104.468C105.012 103.652 101.42 101.678 97.8398 99.2501C97.6332 99.1127 97.3317 99.3959 97.4877 99.603C102.206 105.872 111.474 107.966 118.825 106.311C119.169 106.233 119.51 106.149 119.85 106.056C118.205 110.796 118.536 116 120.678 120.615C121.966 123.393 123.931 125.796 126.324 127.691C128.961 129.78 132.233 131.466 134.063 134.398C135.739 137.084 135.242 140.102 132.372 141.653C131.649 142.046 131.371 143.317 132.088 143.875C132.362 144.086 132.636 144.301 132.916 144.513C134.523 145.728 138.935 148.011 139.65 148.095C145.996 148.85 150.263 144.179 152.997 138.669C156.208 132.202 155.373 124.32 151.835 118.162C148.998 113.22 143.409 108.351 145.631 102.097C146.424 99.863 148.045 97.9587 149.62 96.2383C151.416 94.2791 153.347 92.4446 155.07 90.4156C156.781 88.4015 158.299 86.2097 159.147 83.682C160.384 79.9876 159.769 75.9931 158.839 72.305C156.847 64.3878 154.26 56.5763 151.504 48.898Z" fill="#451D06" stroke="black" stroke-width="2"/>
<path fill-rule="evenodd" clip-rule="evenodd" d="M121.262 90.0689C119.706 90.5198 118.035 90.5601 116.449 90.0944C115.01 89.672 113.533 88.7423 112.474 87.5122C111.533 86.4194 110.924 85.0914 110.948 83.6738C110.95 83.5119 111.008 83.3768 111.097 83.2719C111.193 83.159 111.327 83.0815 111.47 83.0478C111.618 83.0132 111.774 83.0255 111.906 83.0858C112.026 83.1404 112.129 83.2331 112.194 83.3687C112.357 83.5826 112.519 83.7933 112.681 83.9981C113.99 85.6146 115.257 86.8226 117.225 87.2559C118.293 87.4911 119.359 87.3868 120.337 87.028C121.385 86.644 122.331 85.9688 123.073 85.1048C123.408 84.7143 123.804 84.5549 124.191 84.5522C124.63 84.5492 125.063 84.7531 125.39 85.079C125.711 85.3993 125.926 85.8345 125.945 86.2899C125.963 86.6895 125.832 87.107 125.486 87.4794C124.344 88.7062 122.864 89.6049 121.262 90.0689ZM121.214 69.8233C122.81 70.7934 125.24 73.0555 123.524 75.4605C121.504 77.5811 118.595 75.1497 117.162 74.05C115.833 73.1978 114.34 75.3897 115.573 76.3848C125.93 84.0558 130.133 70.0769 122.021 68.6826C121.128 68.529 120.796 69.5231 121.214 69.8233ZM106.29 65.5546C105.778 65.2265 105.174 65.1139 104.506 65.4182C103.984 65.6558 103.067 66.4481 102.43 67.4896C101.994 68.2021 101.684 69.0379 101.749 69.9086C101.764 70.1108 101.689 70.2599 101.571 70.3701C101.478 70.4572 101.344 70.5212 101.186 70.5412C101.052 70.5581 100.902 70.5428 100.78 70.5047C100.548 70.4323 100.425 70.2817 100.379 70.1588C99.9323 68.9727 100.125 67.6491 100.625 66.4549C101.3 64.8433 102.527 63.4934 103.33 63.0582C104.705 62.3132 106.327 62.2789 107.704 63.0379C108.876 63.6839 109.608 64.7268 110.337 65.7899C110.492 66.0159 110.646 66.2402 110.805 66.4606C111.123 66.9022 111.155 67.3402 111.032 67.7158C110.895 68.1318 110.547 68.4829 110.111 68.6667C109.708 68.8365 109.241 68.8605 108.827 68.6859C108.478 68.5385 108.157 68.2512 107.954 67.7635C107.613 66.9424 107.043 66.0364 106.29 65.5546V65.5546ZM132.332 67.3816C131.981 67.5646 131.707 67.6198 131.317 67.503C131.102 67.4383 130.889 67.3143 130.722 67.1475C130.557 66.9822 130.438 66.7767 130.391 66.5487C130.277 65.986 129.97 65.4593 129.531 65.116C129.156 64.8225 128.683 64.6669 128.158 64.7547C127.592 64.8493 127.052 65.2126 126.681 65.641C126.557 65.7843 126.459 65.9471 126.361 66.1088C126.178 66.4111 126 66.6922 125.748 66.9143C125.652 66.9988 125.508 67.0573 125.368 67.0573C125.312 67.0573 125.254 67.048 125.199 67.0309C124.635 66.465 124.527 66.0357 124.545 65.6098C124.564 65.1633 124.74 64.7112 125.025 64.2893C125.692 63.2998 126.958 62.4885 127.813 62.3047C128.984 62.0531 130.146 62.3552 131.078 63.0092C132.037 63.6821 132.748 64.7269 132.969 65.9044C133.022 66.188 133 66.4941 132.892 66.7595C132.786 67.0188 132.602 67.2409 132.332 67.3816ZM108.872 55.0045C108.17 55.6892 107.338 55.7953 106.497 55.8896C106.03 55.9425 105.657 55.9851 105.289 56.068C104.28 56.2959 103.283 56.6391 102.373 57.1333C101.422 57.65 100.385 58.2732 99.6391 59.0715C99.4618 59.2614 99.2946 59.4608 99.1272 59.6605C98.9746 59.8427 98.8275 60.0181 98.6725 60.1872C98.4946 60.3814 98.3255 60.5849 98.1574 60.788C98.0535 60.9593 98.0329 61.0014 98.012 61.0453C97.9805 61.1112 97.9439 61.1849 97.902 61.2641C97.8447 61.3724 97.7776 61.4911 97.7072 61.5986C97.5902 61.7952 97.5275 61.8494 97.4732 61.8736C97.3832 61.9137 97.2979 61.9334 97.2151 61.9227C97.1374 61.9127 97.0643 61.8754 96.992 61.8143C96.6314 61.5095 96.525 61.0092 96.5359 60.4782C96.5524 59.6724 96.8496 58.7802 97.1234 58.2317C97.7603 56.9573 98.6435 55.6325 99.7055 54.6814C100.917 53.5957 102.243 52.7738 103.766 52.2074C104.712 51.8553 105.808 51.5322 106.839 51.573C107.581 51.6024 108.29 51.823 108.875 52.3742C109.234 52.7125 109.406 53.1937 109.406 53.6745C109.406 54.165 109.227 54.6583 108.872 55.0045ZM133.761 61.2742C133.716 61.3475 133.655 61.3979 133.586 61.4283C133.514 61.46 133.433 61.4692 133.356 61.4562C133.279 61.4432 133.206 61.4083 133.148 61.355C133.092 61.3039 133.05 61.2361 133.031 61.1531C132.565 59.104 131.659 57.5794 129.726 56.5962C128.775 56.1126 127.682 55.8053 126.647 55.5603C126.346 55.4891 126.028 55.4429 125.708 55.3962C124.705 55.2497 123.695 55.0819 123.041 54.2708C122.647 53.7822 122.482 53.1573 122.575 52.5859C122.663 52.0478 122.978 51.5545 123.549 51.2588C124.971 50.5231 126.739 51.245 128.175 51.86C128.282 51.9056 128.386 51.9504 128.489 51.9936C129.893 52.5868 131.174 53.3697 132.227 54.4894C133.063 55.3776 133.837 56.6908 134.149 58.0417C134.408 59.1656 134.347 60.3129 133.761 61.2742Z" fill="black"/>
</g>
<defs>
<filter id="filter0_d_20_20643" x="0" y="0" width="180.817" height="259.929" filterUnits="userSpaceOnUse" color-interpolation-filters="sRGB">
<feFlood flood-opacity="0" result="BackgroundImageFix"/>
<feColorMatrix in="SourceAlpha" type="matrix" values="0 0 0 0 0 0 0 0 0 0 0 0 0 0 0 0 0 0 127 0" result="hardAlpha"/>
<feOffset dy="4"/>
<feGaussianBlur stdDeviation="2"/>
<feComposite in2="hardAlpha" operator="out"/>
<feColorMatrix type="matrix" values="0 0 0 0 0 0 0 0 0 0 0 0 0 0 0 0 0 0 0.25 0"/>
<feBlend mode="normal" in2="BackgroundImageFix" result="effect1_dropShadow_20_20643"/>
<feBlend mode="normal" in="SourceGraphic" in2="effect1_dropShadow_20_20643" result="shape"/>
</filter>
</defs>
</svg>
