<svg width="346" height="512" viewBox="0 0 346 512" fill="none" xmlns="http://www.w3.org/2000/svg">
<g filter="url(#filter0_d_44_20764)">
<path fill-rule="evenodd" clip-rule="evenodd" d="M338.603 476.335C331.16 465.758 315.472 464.007 305.394 456.594C300.085 452.529 294.466 449.838 290.34 444.364C296.91 436.656 288.785 418.585 287.114 408.15C280.489 380.828 274.362 353.07 266.482 325.781C280.137 330.027 276.58 304.606 274.63 298.728C274.495 297.92 273.493 297.759 272.879 297.504C273.05 296.35 273.524 296.097 272.089 295.778C271.609 288.862 273.568 281.117 270.027 275.008C266.036 268.339 256.496 262.758 248.614 262.666C243.076 240.703 242.062 230.344 215.828 239.654C216.408 237.515 216.589 235.553 215.578 233.392C211.633 221.487 206.675 208.462 202.364 196.397C197.396 182.512 192.258 168.155 185.613 154.815C180.985 146.343 166.506 144.078 156.692 145.481C154.351 141.355 148.449 129.945 140.984 132.583C140.928 129.141 140.875 125.7 140.83 122.258C140.791 119.266 141.107 116.199 139.955 113.358C138.735 110.349 136.25 108.761 133.332 107.609C124.501 104.696 114.354 100.015 105.035 102.911C96.8919 106.623 97.8403 120.579 93.8999 128.166C88.3777 119.988 78.9604 125.472 76.9681 134.242C54.2832 143.273 34.785 133.014 33.3333 168.466C34.5841 174.928 35.6476 180.99 35.0548 187.516L34.3685 187.586C28.5624 218.999 26.3296 252.671 27.7331 287.677C27.452 301.46 22.4231 314.324 17.5598 326.762C13.9828 335.908 10.2891 345.365 8.53804 355.067C6.59641 363.149 -0.540939 402.01 15.3298 389.108C15.9379 433.319 55.3838 438.98 90.9051 429.214C128.614 421.384 171.065 423.636 194.6 385.757C202.584 399.403 205.339 407.828 207.343 422.097C209.542 432.551 212.736 444.422 218.606 451.337C213.551 460.424 211.076 471.495 211.32 478.71C211.416 481.544 210.118 482.856 211.983 484.618C220.931 493.069 240.894 493.164 256.074 496.926C266.482 498.25 304.119 503.311 309.871 500.012C313.882 501.132 309.217 490.706 313.229 490.483C314.601 490.493 314.785 488.748 316.194 488.812C325.19 489.221 344.587 491.863 339.898 484.618L338.603 476.335Z" fill="#FFA769"/>
<path fill-rule="evenodd" clip-rule="evenodd" d="M299.394 501.889C276.614 501.026 245.07 494.627 222.883 489.819C217.122 488.738 213.024 485.731 211.825 483.179C211.281 482.021 211.455 479.934 211.98 477.497C212.401 475.541 211.157 473.36 211.387 471.255C211.713 468.27 213.749 463.393 214.802 461.611C216.894 458.069 218.327 449.029 218.483 449.124C221.266 450.82 224.422 451.557 227.672 452.465C227.713 452.477 228.508 454.492 228.549 454.504C228.563 454.544 228.578 454.585 228.592 454.625C229.457 457.03 230.633 458.051 232.029 459.297C233.555 460.66 235.344 460.638 237.268 460.883C242.043 461.492 245.127 459.135 249.657 456.003L249.993 455.994C250.497 455.982 251.016 455.983 251.543 455.984C254.2 455.99 257.078 456.017 259.133 454.349C259.188 454.305 259.243 454.259 259.295 454.213C259.345 454.26 259.396 454.306 259.45 454.35C259.551 454.432 259.655 454.505 259.762 454.57C260.218 454.3 260.666 454.028 261.111 453.758C262.618 452.841 266.748 450.531 266.785 450.594C268.03 452.697 288.353 440.872 290.116 442.544C292.374 444.684 297.494 452.834 305.059 456.351C318.452 462.576 327.73 467.083 334.751 472.341C341.772 477.6 338.072 480.809 338.763 481.105C340.519 481.857 339.853 487.309 339.766 488.117C339.69 488.831 329.99 490.039 323.968 489.869C317.144 489.677 313.872 488.097 313.257 489.017C310.8 492.365 312.434 499.635 312.434 499.635C312.434 499.635 306.917 503.391 299.394 501.889Z" fill="white"/>
<path fill-rule="evenodd" clip-rule="evenodd" d="M103.388 291.107L105.299 291.875C112.325 294.673 120.039 295.813 131.537 296.281L145.647 296.834C153.176 297.123 158.704 297.318 164.233 297.483L166.029 297.536L168.814 297.614L169.743 297.654L170.276 298.415C171.21 299.75 173.001 300.822 175.598 301.639L175.872 301.724C177.89 302.335 180.135 302.747 183.317 303.167L183.531 303.195L186.125 303.525L186.67 303.597L187.083 303.653C187.259 303.678 187.424 303.701 187.581 303.725L187.815 303.76L187.832 303.742C187.864 303.702 187.895 303.656 187.92 303.609L187.943 303.561L187.958 303.524C188.609 301.658 189.292 299.758 190.016 297.806L190.234 297.218C190.234 297.218 190.12 296.244 190.815 296.06C192.271 295.675 196.687 296.513 196.687 296.513C199.662 297.055 202.805 296.606 206.808 297.294L211.549 298.106L220.463 299.629L225.503 300.506L225.967 300.588L226.204 300.774L226.286 300.803L226.38 300.833C226.413 300.844 226.449 300.855 226.488 300.866L226.609 300.902C226.96 301.003 227.432 301.122 228.057 301.268L228.753 301.427C229.862 301.675 232.43 302.245 233.323 302.453L233.864 302.58L234.568 302.749C237.198 303.39 239.041 303.953 240.291 304.556L240.37 304.594L240.446 304.632L240.472 304.642C243.78 306.016 247.097 308.619 253.022 314.044L253.388 314.38L255.729 316.535C260.867 321.257 263.756 323.623 266.404 325.035L266.566 325.12L267.766 325.732L267.885 326.877L267.909 327.091L267.935 327.313C268.055 328.277 268.238 329.284 268.54 330.724L268.609 331.052L268.934 332.571L269.036 333.062L269.108 333.411C269.257 334.149 269.372 334.771 269.469 335.378L269.499 335.569L271.254 343.744C272.725 350.57 274.301 357.812 276.182 366.407L277.612 372.93L284.415 403.938L286.059 411.479L286.751 414.66L286.861 415.208L286.931 415.542C287.047 416.085 287.191 416.71 287.395 417.561L287.715 418.891L288.066 420.335L288.235 421.046L288.402 421.755C289.981 428.527 290.582 432.915 290.142 437.064C289.651 441.692 287.704 445.092 284.029 446.841L283.974 446.867L283.932 446.89L283.736 446.994C281.781 448.016 280.004 448.373 276.478 448.714L275.381 448.817L275.24 448.832L275.077 448.852C273.86 449.008 271.541 449.472 269.672 449.973L269.375 450.054L269.086 450.135C268.139 450.406 267.345 450.679 266.765 450.935C266.608 451.004 266.473 451.07 266.362 451.129L266.3 451.163L266.268 451.365L265.718 451.818C263.962 453.268 262.146 454.406 260.074 455.393L259.843 455.502L259.414 455.702L258.528 455.653L257.602 455.607C256.703 455.565 255.721 455.526 254.55 455.486L253.555 455.452L249.923 455.334L248.37 455.279L247.285 455.236C243.575 455.083 240.754 454.888 237.894 454.562C233.453 454.056 229.607 453.273 226.225 452.106L225.984 452.022L225.644 451.9C219.594 449.695 215.237 446.232 212.842 441.22L212.747 441.018L212.653 440.779L212.58 440.588C211.393 437.419 210.256 431.827 208.738 422.718L207.677 416.294L207.488 415.184C207.371 414.508 207.272 413.956 207.184 413.498C205.335 404.214 201.347 395.225 194.703 384.208C194.321 383.576 193.908 383.152 193.512 382.92L193.469 382.896L193.896 383.668L193.339 384.697C186.751 396.834 176.199 405.833 162.134 412.3C150.877 417.475 137.901 420.863 122.131 423.294L121.652 423.367L121.177 423.43C113.811 424.424 87.4694 428.982 85.0183 429.906L84.9501 429.933L84.7456 430.022L84.5259 430.061C74.2094 431.869 66.1487 432.733 58.8234 432.612L58.5711 432.607C49.6891 432.433 42.1985 430.751 35.8627 427.24C24.7613 421.089 17.4617 409.44 14.021 391.191L13.9179 390.636L13.7795 389.879L14.2124 389.243C14.5215 388.789 14.8044 388.396 15.1452 387.943L15.3875 387.623L16.0716 386.733L16.2852 386.459C16.3346 386.397 16.3818 386.337 16.4287 386.278L17.3237 385.169C19.4275 382.552 21.531 379.848 24.3365 376.174L25.6837 374.406L28.9096 370.161C38.3308 357.772 43.722 351.327 50.5728 344.957L51.0205 344.542L51.9826 343.729C53.8387 342.167 55.7772 340.566 58.2009 338.589L59.9846 337.137L65.2285 332.881L66.9305 331.493C74.2635 325.497 78.9505 321.446 83.5964 316.977L83.7509 316.828C90.1653 310.644 95.3754 304.604 99.6615 298.183L99.9157 297.8L99.9522 297.752C100.632 296.855 101.52 295.225 102.576 292.901L103.388 291.107ZM238.499 238.43L238.633 238.513L238.774 238.603L238.898 238.716C241.244 240.863 242.922 243.522 244.176 246.807L244.305 247.15L244.39 247.383C245.188 249.586 245.727 251.763 246.527 255.62L246.904 257.435L247.054 258.147C247.62 260.786 248.048 262.432 248.624 264.067L248.68 264.223L248.695 264.277C249.923 268.512 251.186 272.232 252.606 275.689L252.739 276.012L254.953 281.308L250.88 279.78C247.627 278.559 244.115 277.712 240.077 277.114L239.51 277.031L239.079 276.971C236.397 276.604 235.187 275.358 230.885 275.054L230.191 275.005L228.192 274.867L225.556 274.682L225.552 274.66L221.202 274.367L220.453 274.311L220.276 274.296C220.159 274.286 220.066 274.276 219.991 274.267C219.928 274.26 219.873 274.252 219.812 274.24L219.418 274.166L219.265 274.136C219.17 274.116 219.087 274.097 219.015 274.078L218.946 274.058L218.634 274.02C213.322 273.366 208.883 271.63 204.724 270.063L204.469 269.967L204.225 269.872L202.074 269.021L201.481 268.193C201.505 268.144 201.53 268.092 201.555 268.035C201.633 267.859 201.681 267.719 201.707 267.615L201.716 267.578L201.721 267.551L201.689 267.522C201.593 267.437 201.404 267.297 201.077 267.089L200.955 267.012L200.182 266.537L199.929 266.38L199.696 266.232C199.583 266.159 199.476 266.089 199.37 266.018L199.197 265.901L199.045 265.806C196.448 264.196 194.359 262.17 192.262 261.575L192.109 261.533L191.98 261.498L191.892 261.478C191.099 261.305 190.086 261.272 189.359 261.419L189.257 261.442L189.164 261.465C189.037 261.499 188.938 261.536 188.866 261.569L188.832 261.585L188.806 261.599L184.826 263.629C184.795 263.56 184.762 263.511 184.734 263.483L184.725 263.474L184.72 263.471L184.383 263.362C182.678 262.824 180.917 262.404 178.369 261.897L177.576 261.741L174.664 261.181L174.06 261.063C173.006 260.855 172.228 260.691 171.436 260.509L170.857 260.374L166.498 259.463L161.084 258.343L147.951 255.631L142.001 254.386L145.849 251.908L146.373 251.572C148.39 250.287 150.424 249.076 152.472 247.941L153.06 247.618L153.089 247.603C160.435 243.917 167.995 241.175 175.559 239.52C183.517 237.774 191.414 237.244 199.084 238.022L199.544 238.07L199.637 238.09C202.036 238.596 203.743 239.874 205.393 242.06L205.505 242.209L207.825 241.565C208.88 241.269 209.594 241.062 209.952 240.949L210.113 240.897L212.349 240.127C218.24 238.103 221.869 237.066 225.673 236.526C230.8 235.797 235.064 236.313 238.499 238.43Z" fill="#DA0037"/>
<path fill-rule="evenodd" clip-rule="evenodd" d="M145.547 253.294C144.585 253.186 136.164 251.724 133.665 250.882C133.158 249.869 129.296 234.91 129.296 234.91C127.165 227.344 125.069 219.767 122.973 212.191C120.11 201.842 114.192 179.563 114.142 179.386C114.226 179.427 123.278 182.778 132.138 182.879C140.813 182.977 153.06 178.824 153.106 178.79C153.139 178.902 175.109 239.16 175.002 239.19C172.943 239.759 166.684 241.768 159.4 245.303C153.716 248.062 146.623 252.435 145.547 253.294Z" fill="white"/>
<path fill-rule="evenodd" clip-rule="evenodd" d="M336.369 486.573C329.736 488.004 322.914 487.604 316.194 488.164C316.411 487.601 316.593 487.026 316.736 486.442C323.68 485.602 330.963 485.203 337.583 482.911C337.739 483.656 337.856 484.41 337.903 485.172C337.909 485.273 337.895 486.412 338.058 486.202C337.856 486.463 336.67 486.516 336.369 486.573M302.858 469.378C290.742 465.4 277.888 461.97 268.575 452.703C277.191 449.58 283.393 453.56 290.799 445.569C291.081 445.629 291.355 445.713 291.621 445.817C299.575 459.336 316.52 461.911 328.931 469.743C333.961 472.669 343.332 480.547 331.344 480.724C326.612 481.441 321.853 481.971 317.081 482.338C316.712 474.726 309.166 471.391 302.858 469.378M311.297 488.873C308.896 492.144 304.562 493.436 300.642 493.117C297.758 492.725 295.213 491.712 292.214 491.93C269.477 491.067 247.118 486.361 224.946 481.557C205.085 477.834 220.263 463.184 218.606 451.333C221.408 453.041 224.586 454.287 227.857 455.203C232.072 466.925 243.59 463.865 251.748 458.25C259.729 458.883 261.112 456.194 267.637 453.08C274.653 465.639 290.36 468.439 302.781 473.211C310.329 475.243 316.51 481.072 311.297 488.873M310.884 499.349C304.504 501.255 297.751 500.924 291.167 500.388C269.539 498.515 248.054 494.831 227.072 489.259C222.095 487.937 212.441 486.402 211.983 480.162C216.413 485.966 224.321 486.65 230.964 488.147C252.77 492.418 275.107 497.933 297.409 496.87C302.119 498.209 307.252 497.152 311.237 494.545C311.111 496.145 310.996 497.747 310.884 499.349M242.787 457.691C237.984 459.698 233.504 459.204 229.598 455.655C234.059 456.743 238.323 457.191 242.787 457.691M214.72 439.607C212.566 434.238 210.369 418.138 209.294 412.524C207.167 401.846 202.277 392.051 196.548 382.551C184.807 363.086 169.537 344.867 167.24 322.868C167.283 321.579 167.332 320.29 167.356 319.001C167.408 316.32 167.652 313.413 167.145 310.78C167.128 310.693 167.013 310.712 166.987 310.78C165.98 313.417 165.673 316.548 165.284 319.345C164.925 321.934 164.63 324.513 164.609 327.13C164.59 329.616 164.751 332.146 165.323 334.572C165.346 334.67 165.37 334.767 165.394 334.864C165.056 335.832 164.688 336.789 164.282 337.73C163.324 339.958 162.255 342.148 161.182 344.323C159.003 348.739 156.811 353.149 154.605 357.553C152.358 362.04 150.12 366.532 147.824 370.995C147.109 372.385 146.437 373.797 145.784 375.219C140.104 383.821 133.927 392.094 127.253 399.951C121.455 406.213 116.292 413.705 108.434 417.501C100.632 421.465 92.1192 423.952 84.12 427.422C52.652 432.926 23.9476 432.956 16.0339 389.695C16.8289 388.748 17.5533 387.736 18.2707 386.853C22.1675 382.042 25.9038 377.104 29.6477 372.177C36.7115 362.879 43.8404 353.514 52.4567 345.574C69.8039 330.868 88.9321 317.747 101.68 298.464C102.884 296.876 103.87 295.151 104.529 293.293C113.073 296.696 122.697 297.505 131.822 297.863C144.084 298.344 156.351 298.849 168.618 299.177C172.056 304.09 182.713 304.524 187.776 305.347C188.814 305.46 189.682 304.549 189.99 303.665C190.843 301.218 191.728 298.787 192.638 296.365C203.451 298.393 214.314 300.133 225.152 302.044C225.881 302.652 226.172 303.485 226.451 304.53C226.881 306.138 227.294 307.75 227.73 309.357C228.557 312.406 229.487 315.433 230.343 318.477C230.821 320.173 231.238 321.951 231.798 323.669C241.189 363.489 254.429 407.65 263.942 445.081C264.254 446.465 264.528 448.271 264.292 449.773C262.617 451.074 260.853 452.132 258.96 453.015C245.594 452.081 221.439 454 214.72 439.607M121.35 420.704C117.471 421.202 113.524 421.851 109.544 422.572C113.025 421.015 116.295 419.064 118.94 416.249C137.865 397.146 153.221 374.27 163.137 349.26C164.49 345.898 165.859 342.497 167.024 339.046C167.236 339.365 167.472 339.669 167.737 339.952C172.326 355.069 182.762 368.858 191.485 383.124C177.836 408.267 147.81 416.673 121.35 420.704M13.911 391.747C13.996 391.684 14.0825 391.624 14.1655 391.558C14.1736 391.676 14.1849 391.791 14.1931 391.909C14.0991 391.855 14.0046 391.801 13.911 391.747M81.212 160.49C82.4043 164.061 83.621 167.628 85.507 170.896C88.5938 168.894 91.1571 166.138 94.366 164.343C97.6793 162.489 101.042 162.99 104.265 164.801C105.11 165.275 104.35 166.572 103.506 166.098C101.878 165.183 100.086 164.448 98.1808 164.619C96.6911 164.753 95.35 165.44 94.1248 166.258C91.1789 168.226 88.6888 170.761 85.6326 172.588C85.2773 172.801 84.8139 172.662 84.6035 172.319C82.4216 168.765 81.0748 164.823 79.7611 160.889C79.4536 159.968 80.9073 159.577 81.212 160.49M111.198 246.579C112.001 247.112 111.247 248.413 110.439 247.876C101.348 241.839 100.812 229.837 95.4363 221.213C94.9225 220.389 96.2246 219.635 96.7352 220.454C101.916 228.766 102.469 240.781 111.198 246.579M142.584 183.913C144.505 183.41 148.745 182.907 150.95 181.459C156.248 199.603 163.46 217.136 170.963 234.472C171.479 235.654 171.941 237.219 172.671 238.458C168.992 239.475 165.632 240.651 162.938 241.838C159.583 243.306 156.299 245.031 153.188 247.018C150.456 248.613 147.847 250.391 145.383 252.357C144.629 252.2 143.875 252.042 143.121 251.882C140.568 251.331 137.983 250.743 135.493 249.904C134.856 248.344 134.648 246.511 134.106 244.973C133.166 241.601 132.226 238.225 131.285 234.852C126.243 216.951 121.398 198.992 116.282 181.111C124.359 184.85 133.938 185.371 142.584 183.913M152.557 168.711C153.25 165.793 154.662 162.192 158.232 162.299C160.967 162.382 163.585 163.984 166.063 165.189C165.947 164.306 165.324 163.553 164.766 162.799C164.189 162.02 165.496 161.272 166.065 162.041C167.087 163.423 167.949 164.758 167.441 166.514C167.293 167.023 166.778 167.155 166.336 166.963C163.923 165.919 161.488 164.297 158.858 163.866C155.667 163.344 154.608 166.582 154.008 169.11C153.785 170.052 152.334 169.651 152.557 168.711M199.241 239.617C202.531 240.313 204.098 243.263 205.75 245.897C209.861 252.445 213.802 259.098 217.586 265.839C218.612 267.665 219.625 269.498 220.625 271.338C220.896 271.791 221.135 272.282 221.38 272.765C215.284 272.222 209.264 271.326 203.524 269.087C204.727 266.365 202.684 265.899 200.392 264.317C197.937 262.782 195.341 261.372 192.523 260.628C190.91 260.203 187.202 260.11 186.766 262.249C186.562 261.67 186.134 261.162 185.487 260.916C180.905 259.411 176.038 258.856 171.347 257.739C163.416 256.07 155.472 254.465 147.538 252.808C149.675 251.447 151.855 250.155 154.073 248.942C161.036 245.448 168.435 242.703 176.035 241.04C183.648 239.369 191.465 238.786 199.241 239.617M181.74 186.018C183.906 197.298 185.696 208.661 188.673 219.768C188.924 220.705 187.472 221.101 187.222 220.168C184.246 209.061 182.456 197.698 180.289 186.418C180.108 185.472 181.558 185.07 181.74 186.018M237.512 239.753C244.227 245.907 243.786 256.221 246.672 264.324C247.893 268.541 249.285 272.713 250.995 276.759C251.033 276.849 251.07 276.939 251.108 277.03C243.038 274.125 234.44 273.724 225.884 273.118C225.819 272.83 225.723 272.565 225.601 272.347C224.227 269.708 222.734 267.121 221.295 264.515C217.468 257.704 213.459 250.998 209.289 244.39C209.028 243.979 208.767 243.556 208.501 243.133C217.316 240.253 229.758 234.85 237.512 239.753M269.195 279.093C269.995 282.871 269.481 286.845 269.265 290.691C265.607 285.836 260.97 281.692 255.546 278.933C255.185 276.504 253.653 274.388 252.946 272.029C251.639 268.701 250.581 265.301 249.628 261.868C258.472 263.708 267.081 270.124 269.195 279.093M186.891 263.223C186.896 263.137 186.898 263.055 186.896 262.97C186.901 262.967 186.906 262.965 186.908 262.962C187.139 262.737 187.395 262.564 187.676 262.441C187.41 262.694 187.149 262.955 186.891 263.223M188.21 295.517C187.558 297.179 186.918 298.847 186.289 300.517C183.172 299.984 176.537 298.727 173.821 297.294C174.789 297.327 175.747 296.824 175.993 295.669C176.101 295.159 176.271 294.68 176.404 294.182C178.042 288.851 179.438 283.412 181.751 278.302C184.012 272.906 186.703 267.662 188.759 262.186C192.245 261.966 197.751 266.287 200.241 268.05C195.8 276.997 191.856 286.174 188.225 295.477C188.157 295.477 188.087 295.477 188.019 295.479C188.082 295.492 188.147 295.504 188.21 295.517M271.093 301.348C271.339 302.678 271.617 303.998 271.805 305.34C272.282 310.586 272.931 316.112 270.905 321.145C269.649 324.228 267.074 321.749 265.366 320.542C262.588 318.604 260.03 316.38 257.48 314.156C249.646 306.797 240.491 300.54 229.503 299.506C217.639 297.858 204.785 295.8 192.964 295.499C196.194 286.938 199.697 278.492 203.085 269.983C209.371 273.504 216.468 274.791 223.715 275.612C223.885 275.697 224.066 275.773 224.261 275.833C224.605 275.903 224.893 275.87 225.124 275.765C234.789 276.787 244.646 277.187 253.147 281.136C256.436 282.664 259.523 284.722 262.317 287.556C265.373 290.481 267.836 294.012 269.489 297.908C270.005 299.11 270.278 300.359 271.093 301.348M284.687 414.552C286.209 422.444 292.528 440.03 283.032 444.407C278.791 446.754 273.452 445.4 269.25 447.549C269.143 446.202 268.889 444.868 268.586 443.631C256.342 403.67 245.024 351.357 230.764 311.426C230.315 309.804 229.86 308.185 229.374 306.574C228.968 305.228 228.648 303.791 228.052 302.556C232.019 303.283 235.964 304.138 239.568 306.006C247.176 309.096 257.831 322.515 265.785 326.544C266.101 329.508 266.973 332.461 267.42 335.388C273.064 361.798 278.955 388.157 284.687 414.552M341.342 480.652C341.207 480.01 340.852 479.593 340.404 479.368C340.472 465.901 312.126 461.524 303.536 452.948C299.606 450.174 296.747 445.592 292.183 443.874C292.265 443.759 292.351 443.647 292.43 443.531C297.27 435.563 289.627 416.199 288.273 407.884C282.059 381.89 276.033 355.833 269.002 330.044C268.859 329.551 268.593 328.574 268.26 327.495C269.017 327.678 269.742 327.738 270.421 327.65C280.283 325.467 278.069 305.545 275.753 298.326C275.504 297.475 274.925 296.936 274.245 296.683C274.333 296.243 274.253 295.775 273.94 295.326C273.772 295.086 273.513 294.913 273.232 294.826C272.934 287.975 274.646 280.61 271.036 274.35C266.978 267.504 257.299 261.84 249.511 261.442C248.395 257.406 247.417 253.329 246.338 249.285C245.155 245.051 243.47 240.501 239.927 237.662C235.343 233.59 225.558 234.832 217.441 237.709C217.885 235.588 216.874 233.67 216.255 231.682C214.236 225.733 212.158 219.803 210.036 213.891C202.421 193.959 196.166 173.299 186.64 154.188C182.696 147.711 175.11 144.791 167.828 144.19C164.413 143.847 160.78 143.714 157.332 144.117C157.221 143.907 157.108 143.699 156.993 143.491C154.167 138.601 148.432 129.496 141.832 131.059C141.135 126.409 141.125 121.644 141.699 116.991C141.739 116.661 141.198 116.518 141.062 116.819C136.689 126.614 137.502 138.669 142.837 147.943C143.229 148.587 143.761 148.92 144.312 149.015C145.162 158.753 147.286 168.364 149.907 177.796C149.513 177.811 149.134 177.894 148.818 178.034C140.458 181.091 131.265 181.59 122.564 179.804C120.114 179.288 117.742 178.595 115.357 177.889C114.906 176.326 114.454 174.769 114 173.209C112.862 168.281 112.571 163.546 109.682 159.577C109.512 159.284 109.336 158.994 109.168 158.703C106.849 154.501 104.491 150.322 102.117 146.153C101.54 145.469 97.6836 137.88 94.6817 133.29C95.0579 133.28 95.4468 133.185 95.8252 132.995C97.9416 131.94 97.919 128.883 98.3052 126.832C99.4888 120.46 100.858 114.077 101.234 107.594C101.254 107.263 100.748 107.123 100.6 107.424C97.7137 113.138 95.7126 119.253 93.5761 125.275C93.5333 125.395 93.4884 125.518 93.4407 125.643C91.4597 123.149 87.9817 122.555 84.9523 123.226C79.8897 124.546 77.3367 128.655 75.8648 133.328C61.3082 140.266 43.9858 133.18 35.1516 151.537C32.9386 156.871 31.981 162.604 32.009 168.588C32.3227 169.949 32.5612 171.328 32.7766 172.695C33.2977 176.003 33.6425 179.338 34.2293 182.636C34.8707 186.239 35.8948 189.784 37.0237 193.262C39.5145 200.937 42.819 208.306 46.038 215.695C46.4207 216.574 45.124 217.337 44.7388 216.453C42.966 212.384 41.1685 208.325 39.4874 204.216C37.0538 198.269 34.7589 192.13 33.3463 185.83C27.0147 219.351 25.045 253.599 26.4078 287.669C25.9111 311.289 11.4022 331.782 7.2446 354.769C5.17082 363.828 3.86938 373.116 4.03012 382.423C3.7435 386.848 5.47474 393.167 10.4202 392.996C11.2868 393.346 12.1509 393.661 13.0246 393.962C13.2703 394.055 13.5055 394.135 13.7227 394.201C13.9679 394.276 14.1936 394.26 14.3905 394.187C18.189 431.714 48.3299 438.929 82.9565 432.225C84.3906 432.25 85.7998 431.92 87.3072 431.496C88.0394 431.278 88.7663 431.051 89.4935 430.81C90.0404 430.68 90.5893 430.547 91.1385 430.41C114.823 425.594 139.648 424.801 162.033 414.937C174.98 409.281 187.164 400.449 194.502 388.22C198.78 395.724 202.348 403.416 204.141 411.552C205.422 417.419 207.619 433.595 209.269 439.381C210.039 442.261 211.367 444.685 213.103 446.726C213.098 446.735 213.094 446.743 213.089 446.753C214.577 447.586 215.899 448.686 216.958 450.01C215.83 459.557 206.086 468.74 211.069 478.71C208.718 484.113 214.488 488.51 219.237 489.625C226.516 491.949 234.029 493.697 241.485 495.357C256.245 498.105 302.442 508.263 313.5 500.356C313.341 498.668 315.419 493.184 312.966 493.103C314.054 492.032 314.955 490.778 315.638 489.418C322.406 491.617 329.927 490.83 336.818 490.018C342.391 490.138 342.187 484.717 341.342 480.652" fill="black"/>
<path fill-rule="evenodd" clip-rule="evenodd" d="M133.469 36.3489C104.67 35.2973 77.1516 54.6655 67.8863 82.0414C67.2131 84.1889 69.3082 86.1948 71.4222 85.8317C69.2601 96.7256 73.9854 111.389 86.2938 112.935C88.8149 113.253 91.3492 113.07 93.8738 113.301C96.124 113.507 108.374 120.403 112.962 122.019C122.619 125.395 146.922 124.777 156.589 122.019C156.942 122.82 164.45 92.0096 166.159 82.4569C166.783 78.3179 161.086 75.2536 161.506 70.9885C162.045 65.5098 168.449 58.8299 166.487 53.614C161.316 40.3388 146.307 36.6346 133.469 36.3489Z" fill="#FFA769"/>
<path fill-rule="evenodd" clip-rule="evenodd" d="M119.166 12.2164C120.46 12.3241 121.761 12.5068 123.04 12.7472C126.926 12.1112 130.947 12.8173 134.716 14.0418C143.541 16.9089 152.037 21.8868 158.688 28.3847C162.111 31.7301 164.911 35.5837 166.635 40.0659C167.511 42.3395 168.004 44.7659 168.146 47.1973L168.162 47.4919C168.202 48.2986 168.22 49.2659 168.124 50.2241C168.432 52.1584 168.707 54.1086 168.727 56.0649C168.737 56.9711 168.678 57.8758 168.568 58.7745L168.606 58.8599V58.8599C168.446 59.9329 168.256 61.0013 168.039 62.0643L167.984 62.1346C167.954 62.3507 167.92 62.5663 167.888 62.7819C167.77 63.3283 167.646 63.8734 167.516 64.4165C167.232 65.5926 166.919 66.761 166.581 67.9224C166.522 68.1259 166.579 68.2865 166.69 68.3919C166.443 69.2758 166.174 70.1532 165.876 71.0211C166.022 71.7805 166.17 72.5398 166.327 73.2965C167.145 77.2327 167.839 81.1941 168.769 85.1078C170.656 93.0505 173.524 100.865 174.312 109.031C174.925 115.364 173.907 122.287 169.973 127.46C166.582 131.918 161.483 134.549 155.975 135.25C153.34 135.588 150.638 135.433 148.06 134.767L147.78 134.693C146.489 134.345 144.846 133.801 143.646 132.924C142.345 132.466 141.117 131.62 140.376 130.793C139.365 129.664 138.261 127.733 138.537 126.128C137.033 126.251 135.519 126.286 134.03 126.281C130.362 126.274 126.661 125.983 123.133 124.916C119.985 123.965 116.316 122.375 114.455 119.505C114.367 119.37 114.512 119.175 114.665 119.227C116.169 119.756 117.575 120.469 119.126 120.872C120.653 121.268 122.179 121.641 123.753 121.804C126.83 122.121 129.954 122.079 133.041 121.926L134.101 121.871C137.405 121.694 140.819 121.442 143.909 120.204C145.122 119.719 146.244 119.041 147.267 118.236L147.427 118.108C147.975 117.662 148.541 117.287 149.116 116.931C149.199 116.826 149.282 116.721 149.364 116.613C150.673 114.933 152.079 113.313 153.258 111.538C155.6 108.014 156.503 104.354 156.626 100.152C156.754 95.7168 156.769 91.2756 156.822 86.8393L156.841 85.3607C156.909 80.2876 156.919 75.197 157.309 70.1364C157.489 67.7853 157.745 65.4451 158.138 63.122L158.225 62.6244L158.86 59.0412C159.013 58.1781 159.103 57.2886 159.298 56.4293C159.078 56.0687 158.824 55.7216 158.53 55.3911C158.258 55.0864 157.983 54.7906 157.707 54.4969L157.509 54.3217C157.056 53.9168 156.666 53.5303 156.301 52.9733L156.213 52.8355V52.8355C155.821 52.362 155.451 51.8667 155.124 51.3226L155.064 51.2169V51.2169C154.982 51.1145 154.901 51.0119 154.817 50.9107C154.555 50.5954 154.28 50.2977 153.996 50.0125C153 51.9381 151.591 53.606 149.596 54.6487C148.874 55.0258 147.994 54.7028 147.758 53.9005C147.161 51.8752 146.255 49.992 145.055 48.2865C143.053 51.6213 139.877 54.2297 136.135 55.5025C135.2 55.8205 134.377 54.839 134.596 53.9623C135.271 51.2678 135.406 48.5276 135.009 45.8188C133.597 46.8289 132.14 47.7802 130.644 48.6621C127.315 51.237 123.788 53.5542 119.909 55.2181C119.012 55.6027 117.663 54.9564 118.071 53.8043C118.414 52.8343 118.696 51.848 118.876 50.8352L118.916 50.601C118.917 50.5939 118.918 50.5869 118.919 50.5797C109.934 62.9824 88.1452 74.9343 86.4728 75.0494L86.4273 75.0498V75.0498C87.4718 76.0481 88.3148 77.2816 88.8663 78.6991C89.4455 80.1879 87.0837 80.8361 86.4729 79.4126L86.4534 79.3649C85.5137 76.9495 83.1896 75.2183 80.661 74.8089C79.1326 75.0866 77.6881 75.824 76.7024 76.9423C74.7631 79.1433 74.7456 81.7975 76.0693 84.3015L76.2635 84.6664C76.9802 86.0041 77.735 87.3447 78.1387 88.8137C78.6317 90.6166 78.2588 92.4445 78.5816 94.2449L78.5992 94.3404C78.7522 95.1409 79.0827 96.0516 80.0355 95.8325C80.109 95.8154 80.1801 95.7926 80.2509 95.7684C80.4518 95.9286 80.6936 96.0611 80.9948 96.149C81.7325 96.3641 82.5475 96.2596 83.2817 96.0859C83.9908 95.9181 84.6795 95.6549 85.3423 95.3469C85.4157 95.5282 85.4609 95.7178 85.4654 95.9001C85.488 96.8316 85.1026 97.5978 84.5096 98.2213C85.4554 99.4182 86.2637 100.735 87.1745 101.957C88.4832 103.71 89.822 105.425 91.2458 107.085C92.7271 108.816 94.3411 110.451 96.0151 111.996C97.1887 113.078 99.128 114.234 99.8637 115.804C100.709 116.067 101.428 116.716 101.69 117.783C102.168 119.716 102.308 124.245 101.933 126.211C101.56 128.159 100.139 129.374 98.5675 130.4C98.1321 130.686 97.6391 130.656 97.2388 130.443C96.8859 130.786 96.4881 131.101 96.0327 131.382C94.3511 132.421 92.3968 132.799 90.46 133.017C87.8451 133.853 85.025 134.074 82.2375 133.553C81.3266 133.66 80.4158 133.758 79.5025 133.838C70.1589 134.652 60.6602 133.958 51.5468 131.732C47.3654 130.711 43.4171 128.854 39.7384 126.469C33.3981 122.358 30.7146 110.82 34.3935 99.7888L34.6848 98.919C36.3426 93.9912 38.1303 89.0892 40.5267 84.4918L40.8128 83.9449C43.0155 79.7518 45.4385 75.5632 48.6566 72.0645C50.2681 70.3142 52.1398 68.7242 54.2543 67.6124C55.057 67.1907 55.9941 66.8982 56.91 66.5665L56.9287 66.3371V66.3371L56.9485 66.108C57.0088 65.3733 57.0856 64.6399 57.1847 63.9082C57.5546 61.1718 58.0765 58.4758 58.818 55.8138C59.5604 53.1483 60.4732 50.5276 61.5715 47.9875C63.4037 43.7498 65.7048 39.7298 68.361 35.9578C68.5507 35.5682 68.7431 35.1801 68.9403 34.795C71.1798 30.4155 74.08 26.2388 77.8209 23.0061C82.1149 19.2952 87.2871 16.9915 92.6846 15.3739C98.2822 13.6988 104.123 12.5519 109.955 12.1663C113.026 11.9635 116.101 11.961 119.166 12.2164ZM78.2288 82.5739C81.0389 80.7335 84.8674 81.9952 86.2912 84.9853C87.3197 87.1512 83.9191 88.3707 83.3811 86.2122C82.8456 84.0488 80.546 82.4988 78.3364 82.8293C78.1838 82.8544 78.0887 82.6641 78.2288 82.5739Z" fill="black"/>
<path fill-rule="evenodd" clip-rule="evenodd" d="M118.731 96.1029C121.469 94.4562 131.706 95.6632 139.748 96.1029C146.133 96.4521 150.694 95.7601 152.154 96.7412C155.452 98.9579 153.85 109.676 148.167 111.142C142.484 112.608 121.417 114.655 117.785 111.142C114.152 107.629 113.817 99.0574 118.731 96.1029Z" fill="white"/>
<path fill-rule="evenodd" clip-rule="evenodd" d="M122.278 93.2679C126.577 92.747 130.743 94.0611 134.946 94.7235C137.164 95.0731 139.386 95.334 141.631 95.4311C142.083 95.4508 142.535 95.4623 142.986 95.4715C143.028 95.0743 143.251 94.7095 143.734 94.491C144.722 94.0434 145.514 93.8415 146.6 93.8847C147.593 93.9239 148.591 94.0259 149.569 94.2048C151.347 94.5301 153.132 95.2684 154.431 96.5511C157.44 99.5191 156.982 104.287 154.657 107.519C149.855 114.199 141.09 114.509 133.582 114.422L132.89 114.413C126.054 114.316 116.274 115.333 113.169 107.567C112.027 104.712 112.186 101.402 113.584 98.6626C115.252 95.3957 118.762 93.6941 122.278 93.2679ZM143.63 104.39L143.569 104.393C140.417 104.514 137.266 104.599 134.113 104.655C134.207 105.464 134.304 106.273 134.414 107.079C134.5 107.714 134.593 108.349 134.689 108.982C134.73 109.25 134.879 109.667 134.837 109.932L134.822 110.037V110.037C134.984 110.111 135.131 110.228 135.24 110.399C135.278 110.458 135.305 110.518 135.333 110.577C137.781 110.597 140.416 110.549 142.911 110.105L142.916 110.051V110.051C142.962 109.732 143.094 109.518 143.27 109.371C143.446 108.356 143.43 107.274 143.498 106.267C143.54 105.641 143.586 105.016 143.63 104.39ZM131.705 104.698C129.433 104.737 127.16 104.766 124.889 104.739L123.858 104.723V104.723C124.076 105.889 124.313 107.051 124.51 108.226C124.715 109.449 123.637 110.227 122.703 110.196C122.808 110.213 122.913 110.231 123.017 110.246C125.934 110.657 128.963 110.548 131.923 110.545C131.764 109.617 131.828 108.569 131.804 107.795L131.8 107.675C131.755 106.682 131.723 105.69 131.705 104.698ZM116.275 104.484C116.354 105.09 116.507 105.684 116.737 106.237C117.706 108.571 119.929 109.661 122.281 110.12C121.873 109.979 121.549 109.641 121.467 109.062C121.263 107.622 121.19 106.158 121.185 104.696C119.545 104.681 117.895 104.646 116.275 104.484ZM152.178 103.985C151.011 104.26 149.655 104.134 148.51 104.186C147.437 104.235 146.364 104.277 145.291 104.321C145.342 105.052 145.391 105.783 145.445 106.514C145.514 107.458 145.52 108.457 145.702 109.397C147.86 108.661 149.795 107.482 151.246 105.595C151.608 105.125 151.932 104.573 152.178 103.985ZM121.785 97.0987C119.842 97.5581 118.004 98.5284 117.016 100.304C116.429 101.357 116.171 102.605 116.221 103.836C117.863 103.645 119.533 103.572 121.195 103.513C121.201 103.214 121.208 102.915 121.217 102.617L121.242 101.854C121.287 100.397 121.31 98.5682 121.785 97.0987ZM131.84 97.2764L130.985 97.1805C128.61 96.9102 126.236 96.6265 123.86 96.7891C123.516 96.8128 123.167 96.8502 122.817 96.9014C123.237 98.4143 123.202 100.191 123.377 101.689C123.445 102.268 123.531 102.842 123.626 103.415L124.038 103.395V103.395C126.587 103.257 129.138 103.173 131.689 103.071C131.689 102.593 131.692 102.115 131.699 101.636L131.709 101.157C131.738 99.9343 131.659 98.5568 131.84 97.2764ZM143.769 97.0823C141.281 97.4832 138.71 97.5685 136.266 97.5715C135.29 97.5728 134.314 97.5129 133.339 97.4266C133.402 97.945 133.436 98.4695 133.483 98.9807C133.58 100.014 133.69 101.045 133.809 102.076L133.916 102.978V102.978C137.051 102.836 140.187 102.682 143.321 102.523L143.764 102.5V102.5L143.888 100.767C143.972 99.611 144.065 98.4557 144.196 97.3053L144.098 97.2699V97.2699C143.982 97.2225 143.873 97.1571 143.769 97.0823ZM144.849 97.5124C144.986 99.1464 145.062 100.787 145.163 102.424L147.23 102.314C147.574 102.295 147.918 102.276 148.263 102.256C149.602 102.179 151.323 101.774 152.647 102.152C152.748 100.95 152.404 99.7788 151.317 98.9715C149.411 97.5533 146.982 98.0583 144.849 97.5124ZM137.789 82.9057C140.866 81.1459 148.587 79.3473 149.076 84.8773C149.301 87.4221 147.406 89.5307 145.194 90.4716L145.111 90.5063C143.036 91.3582 139.358 92.3202 137.562 90.473C136.068 88.9356 138.05 86.1789 139.907 87.4384C140.862 88.0855 142.87 87.6087 143.935 87.3008L144.002 87.2814C145.151 86.9441 146.683 85.8647 146.208 84.4517C145.788 83.2017 143.998 82.9733 142.878 82.9327C141.205 82.8729 139.577 83.2608 137.919 83.387C137.657 83.407 137.576 83.0274 137.789 82.9057ZM150.536 74.0133C154.713 73.818 157.311 78.3718 156.35 82.103C156.184 82.7468 155.463 83.3788 154.767 83.3064L154.592 83.2903C154.503 83.2817 154.413 83.2705 154.331 83.2478C153.67 83.065 153.077 82.3784 153.125 81.6668L153.138 81.4594C153.236 79.6968 153.044 77.6661 150.947 77.2392C149.167 76.8771 148.174 78.5871 148.153 80.1611C148.149 80.4406 147.835 80.6356 147.587 80.4854C146.301 79.7039 146.078 78.1492 146.57 76.8103C147.192 75.1138 148.75 74.0967 150.536 74.0133ZM119.541 74.99C122.581 73.9773 125.86 75.5952 127.332 78.2785C127.848 78.4277 128.364 78.8251 128.292 79.4336C128.188 80.309 128.032 80.8608 127.425 81.5247C126.474 82.5631 124.693 82.0321 124.298 80.7538L124.281 80.6961C123.832 79.0437 122.011 77.9534 120.352 78.5319C118.413 79.2075 118.469 81.2517 117.11 82.4426C116.95 82.5826 116.759 82.6049 116.567 82.5125C115.123 81.8156 115.382 79.7183 115.897 78.5179C116.572 76.9426 117.885 75.5416 119.541 74.99ZM115.402 65.7734C117.865 63.2639 124.287 60.8355 125.972 65.4697C126.293 66.3523 125.61 67.5425 124.69 67.7255C123.183 68.025 121.846 67.3717 120.349 67.4889C119.137 67.5843 117.873 67.9887 116.904 68.7384C114.22 70.8147 113.63 74.3266 111.76 76.9693C111.669 77.098 111.492 77.0439 111.475 76.8922C111.049 73.0448 112.704 68.5218 115.402 65.7734ZM147.523 63.303C149.158 62.7266 151.008 62.7759 152.651 63.2872C154.306 63.8025 155.826 64.7811 156.996 66.0597C157.527 66.6401 158.019 67.2806 158.413 67.9624C158.622 68.3238 158.843 69.0702 159.081 69.5147C160.368 70.257 160.918 71.9484 159.766 73.1518L159.714 73.2046L159.56 73.3573C158.94 73.9698 158.006 74.2352 157.16 73.9906C155.267 73.4437 155.037 71.9551 154.382 70.375C153.949 69.3314 153.208 68.4079 152.309 67.7296C150.184 66.127 146.7 65.6164 144.142 66.3716C144.006 66.412 143.846 66.2387 143.943 66.113C144.428 65.486 144.707 64.9714 145.356 64.4656C146.015 63.9523 146.734 63.5814 147.523 63.303Z" fill="black"/>
</g>
<defs>
<filter id="filter0_d_44_20764" x="0" y="0" width="345.791" height="511.311" filterUnits="userSpaceOnUse" color-interpolation-filters="sRGB">
<feFlood flood-opacity="0" result="BackgroundImageFix"/>
<feColorMatrix in="SourceAlpha" type="matrix" values="0 0 0 0 0 0 0 0 0 0 0 0 0 0 0 0 0 0 127 0" result="hardAlpha"/>
<feOffset dy="4"/>
<feGaussianBlur stdDeviation="2"/>
<feComposite in2="hardAlpha" operator="out"/>
<feColorMatrix type="matrix" values="0 0 0 0 0 0 0 0 0 0 0 0 0 0 0 0 0 0 0.25 0"/>
<feBlend mode="normal" in2="BackgroundImageFix" result="effect1_dropShadow_44_20764"/>
<feBlend mode="normal" in="SourceGraphic" in2="effect1_dropShadow_44_20764" result="shape"/>
</filter>
</defs>
</svg>
