<svg width="184" height="260" viewBox="0 0 184 260" fill="none" xmlns="http://www.w3.org/2000/svg">
<g filter="url(#filter0_d_16_20351)">
<path fill-rule="evenodd" clip-rule="evenodd" d="M159.399 145.162C156.466 131.263 146.066 120.478 132.078 115.105C129.39 113.584 126.783 107.056 123.17 105.861C122.591 105.669 123.505 107.194 123.17 107.285C121.975 107.61 120.636 107.644 119.316 106.471C116.958 104.374 116.218 98.2484 114.785 95.4798C107.223 80.8784 88.3438 86.5915 85.8145 102.733C84.0509 103.883 81.5579 104.896 79.6382 105.823C77.6614 106.777 75.9226 109.088 73.8854 109.914C72.0678 110.651 69.0728 110.129 67.2412 110.772C58.8171 113.728 51.6822 117.458 46.0884 125.016C44.9097 126.61 43.5811 128.57 42.5085 130.18C36.9788 136.548 33.1379 143.686 29.6004 151.344C19.7034 173.821 17.0114 198.708 14.5962 222.926C14.6511 227.164 11.8404 238.913 15.9976 240.945C15.7491 241.202 15.8391 241.72 16.3001 241.716C26.8409 241.609 37.3571 242.553 47.7344 244.388C52.7412 245.273 57.7212 246.487 62.8212 246.686C73.408 246.613 83.9569 244.839 94.5297 246.518C107.24 246.518 122.687 246.147 136.827 245.604C150.042 245.095 163.329 246.243 176.38 243.995C177.413 243.831 177.918 242.571 177.701 241.668C176.17 236.086 175.418 230.341 174.559 224.628C174.73 220.964 174.424 217.138 173.069 213.725C169.528 190.684 164.989 167.793 159.399 145.162Z" fill="#FFA769"/>
<path fill-rule="evenodd" clip-rule="evenodd" d="M123.17 107.37C123.505 107.279 122.591 105.754 123.17 105.945C126.783 107.141 129.39 113.669 132.078 115.19C146.066 120.563 156.466 131.348 159.399 145.247C164.989 167.878 169.528 190.769 173.069 213.81C174.424 217.223 174.73 221.048 174.559 224.713L174.694 225.615C175.499 231.03 176.25 236.465 177.701 241.752C177.918 242.656 177.413 243.916 176.38 244.08C163.477 246.303 150.344 245.206 137.278 245.672L134.554 245.774C121.047 246.271 106.562 246.603 94.5297 246.603C83.9569 244.923 73.408 246.698 62.8212 246.771C57.7212 246.572 52.7412 245.358 47.7344 244.472C37.3571 242.638 26.8409 241.694 16.3001 241.8C15.8391 241.805 15.7491 241.287 15.9976 241.03C11.8404 238.998 14.6511 227.248 14.5962 223.011L14.8145 220.83C17.1794 197.302 20.0003 173.232 29.6004 151.429L29.888 150.809C33.3468 143.385 37.1282 136.461 42.5085 130.265L42.8375 129.772C43.8453 128.266 45.0276 126.535 46.0884 125.101C51.6822 117.543 58.8171 113.813 67.2412 110.857C69.0728 110.214 72.0678 110.736 73.8854 109.999C75.7908 109.226 77.4351 107.154 79.2573 106.109L79.2573 113.908L105.624 139.891L120.578 116.952L122.099 107.557C122.465 107.534 122.824 107.464 123.17 107.37Z" fill="#DA0037"/>
<path fill-rule="evenodd" clip-rule="evenodd" d="M155.134 175.448C154.855 176.803 154.464 178.157 153.944 179.44C153.444 180.679 152.69 181.788 152.17 183.012C152.1 183.177 151.986 183.302 151.849 183.397L151.892 183.73V183.73L151.931 184.063C152.19 186.309 152.482 188.549 152.734 190.795L152.857 191.919C153.353 196.608 154.137 201.275 154.745 205.952C155.341 210.532 155.947 215.112 156.596 219.686C157.266 224.401 157.948 229.11 158.744 233.806C159.081 235.789 159.432 237.771 159.797 239.751L160.08 241.267C162.987 241.966 163.781 246.02 160.821 247.516C159.478 248.193 157.752 248.03 156.644 246.967C155.494 245.859 155.446 243.862 155.179 242.361L154.922 240.967C152.997 230.483 151.326 219.879 150.545 209.247C150.344 206.502 150.175 203.754 150.066 201.004C149.961 198.418 150.011 195.832 149.971 193.245L149.958 192.54C149.897 189.782 149.947 187.028 150.019 184.27C150.028 183.934 150.042 183.598 150.059 183.259C149.962 183.145 149.892 183.01 149.863 182.879L149.825 182.706C149.73 182.26 149.837 181.738 150.18 181.419C150.328 179.54 150.522 177.663 150.575 175.786C150.579 175.632 150.801 175.636 150.814 175.786C150.938 177.384 151.187 178.986 151.437 180.586C153.04 179.297 154.225 177.17 154.925 175.391C154.975 175.262 155.164 175.308 155.134 175.448ZM117.194 100.752C117.461 101.97 117.987 103.063 118.692 104.079C119.028 104.565 119.411 105.018 119.869 105.396C120.262 105.719 120.71 105.93 121.128 106.212C121.737 106.116 122.373 106.347 122.799 106.795L122.732 106.14C122.711 105.929 123.062 105.886 123.102 106.091C124.95 115.416 126.636 124.747 128.095 134.14L128.734 138.288L129.336 142.182C130.335 148.671 131.302 155.157 132.03 161.693C133 170.416 133.815 179.161 134.411 187.92C135.009 196.739 135.376 205.565 135.638 214.402C135.704 216.63 135.774 218.855 135.841 221.083L136.292 218.419C136.743 215.756 137.184 213.089 137.563 210.414C138.921 200.837 140.007 191.193 140.537 181.535C141.024 172.696 140.861 163.682 138.613 155.071C138.047 152.905 137.354 150.773 136.517 148.695C135.706 146.675 134.599 144.802 133.726 142.811C132.712 140.495 132.408 138.309 132.93 135.816C133.386 133.643 134.187 131.599 134.33 129.363C134.599 125.212 133.249 121.192 131.341 117.559C130.838 116.602 130.308 115.657 129.754 114.72C128.079 111.891 126.19 109.164 124.23 106.55C124.124 106.41 124.348 106.256 124.462 106.37C126.249 108.137 128.204 109.874 129.812 111.804C130.593 112.742 131.356 113.7 132.078 114.683C140.005 116.008 146.816 120.947 151.473 127.469C156.756 134.871 159.429 143.779 161.407 152.552C163.606 162.302 165.461 172.14 167.436 181.938C169.481 192.077 171.516 202.215 173.573 212.352C174.596 217.384 175.619 222.416 176.639 227.451C177.156 230 177.7 232.542 178.268 235.083C178.559 236.384 178.872 237.684 179.143 238.99C179.447 240.464 179.163 241.406 178.166 242.488C177.799 242.89 177.218 242.884 176.761 242.67L176.619 242.603L176.481 242.536C175.916 242.259 175.473 241.971 175.122 241.353C174.735 240.675 174.674 239.922 174.541 239.168C174.296 237.779 174.053 236.391 173.808 235C173.442 232.92 173.044 230.847 172.638 228.773L170.605 218.412C170.063 215.65 169.52 212.888 168.974 210.126C167.024 200.252 165.072 190.38 163.12 180.508C161.246 171.028 159.587 161.484 157.454 152.06L157.332 151.529L157.209 150.999C155.301 142.874 152.636 135.015 147.799 128.131C144.076 122.837 138.907 118.109 132.818 115.716C133.247 116.333 133.659 116.963 134.052 117.606C136.519 121.638 138.321 126.425 137.899 131.227C137.692 133.573 136.8 135.879 136.885 138.244C136.963 140.345 138.262 142.19 139.16 144.018C141.199 148.161 142.674 152.563 143.624 157.079C145.532 166.148 145.526 175.48 144.868 184.686C144.154 194.694 142.798 204.699 141.254 214.609C140.462 219.692 139.407 224.733 138.6 229.807C138.201 232.309 137.658 234.806 137.182 237.295L136.956 238.485C136.829 239.145 136.697 239.803 136.545 240.454L136.452 240.844V240.914C136.447 241.393 136.316 241.791 136.105 242.108C135.816 243.035 135.457 243.94 134.979 244.809C134.734 245.253 134.379 245.502 133.992 245.593C133.604 246.483 132.723 247.167 131.671 247.163L117.835 247.111C109.798 247.079 101.761 247.026 93.7247 246.981C91.6967 246.971 89.6707 246.933 87.6446 246.88C85.7453 246.827 83.9242 246.599 82.046 246.362C79.9247 246.096 78.7756 244.593 79.0925 242.473C79.1622 242.006 79.2381 241.541 79.3101 241.076C78.8876 241.216 78.3848 241.15 78.0446 240.819L77.7257 240.506C77.2837 240.069 76.8883 239.639 76.608 239.056C76.3186 238.456 76.0839 237.822 75.8282 237.209C75.2768 235.89 74.7404 234.567 74.2184 233.237C73.1728 230.579 72.127 227.909 71.155 225.223C69.2305 219.903 67.5275 214.503 66.0467 209.042C63.4059 199.299 61.4958 189.368 60.2916 179.347L60.0037 176.959L59.92 176.254C59.4633 172.37 59.079 168.426 59.2606 164.551C59.3728 162.124 59.7486 159.679 60.6552 157.413C61.4916 155.323 62.7824 153.535 64.0099 151.667L64.1504 151.451L64.2916 151.23C65.3651 149.533 66.2192 147.759 66.262 145.698C66.3054 143.607 65.6964 141.572 65.0154 139.614L64.8457 139.131L64.7318 138.811C63.2831 134.765 61.6345 130.776 62.1782 126.372C62.9812 119.888 66.9106 114.662 71.8545 110.631C67.4578 111.502 63.1059 113.222 59.2651 115.403C54.7289 117.982 50.6451 121.385 47.1233 125.225C40.4684 132.482 35.717 141.19 31.8277 150.181C27.7564 159.59 24.7374 169.45 22.4622 179.438C20.1742 189.484 18.6425 199.69 17.5965 209.936C17.0749 215.036 16.6648 220.148 16.3249 225.263C16.1517 227.884 16.0207 230.509 15.8179 233.125C15.615 235.74 15.524 238.394 14.886 240.939C14.5881 242.125 12.5789 242.245 12.3636 240.939C11.8859 238.022 12.0194 235.006 12.1527 232.052L12.1648 231.783C12.296 228.841 12.4672 225.902 12.6698 222.962C13.0841 216.953 13.6374 210.953 14.3599 204.971C16.893 183.976 21.5643 163.09 30.727 143.925C35.0411 134.898 40.5784 126.127 48.2812 119.609C51.9486 116.509 56.0831 114.034 60.5388 112.242C64.5235 110.637 68.5714 109.879 72.8052 109.881C74.9284 108.253 77.208 106.835 79.4853 105.624C79.6226 105.55 79.7662 105.728 79.6524 105.842C79.5932 105.899 79.536 105.958 79.477 106.013C79.7348 106.03 80.0008 106.15 80.2395 106.402C81.0763 107.279 81.782 108.376 82.4134 109.515C83.3747 110.716 84.2916 111.956 85.251 113.144C86.7867 115.046 88.3585 116.921 89.9496 118.781C92.6215 121.906 95.3805 124.973 98.2577 127.916L98.7383 128.405C100.23 129.917 101.74 131.726 103.504 132.922L103.598 132.985C104.343 133.47 104.87 133.558 105.505 132.833C106.082 132.174 106.562 131.409 107.056 130.682L107.17 130.515C109.69 126.852 112.027 123.054 114.142 119.144C115.106 117.365 116.023 115.56 116.893 113.734L117.152 113.186C117.626 112.18 118.139 111.193 118.53 110.157C118.62 109.915 118.709 109.672 118.796 109.431C117.465 108.558 116.434 106.668 116.06 105.189C115.671 103.652 115.868 102.075 116.561 100.67C116.692 100.406 117.131 100.471 117.194 100.752ZM51.5349 163.192C51.3508 169.034 51.239 174.882 50.9642 180.719L50.8693 182.712C51.298 183.19 51.5494 183.741 51.3487 184.498C51.2707 184.788 51.0402 185.05 50.7529 185.147L50.6633 187C50.2556 195.336 49.7776 203.656 48.9043 211.971C47.812 222.378 46.5487 232.768 45.2876 243.156C45.108 244.627 44.0853 245.794 42.4944 245.578C40.8848 245.36 40.232 243.959 40.4432 242.499C41.2735 236.769 42.0719 231.035 42.7714 225.287L43.5679 218.737C44.5666 210.55 45.5888 202.364 46.7665 194.203C47.2587 190.792 47.77 187.383 48.2832 183.974L48.1038 183.741C47.3705 182.788 46.612 181.856 45.862 180.918C44.4214 179.109 42.9996 177.314 41.6792 175.42C41.6134 175.325 41.7468 175.186 41.8416 175.258C43.6923 176.625 45.4439 178.088 47.2059 179.574L48.7482 180.88C49.6355 174.989 50.5144 169.097 51.298 163.192C51.3172 163.044 51.539 163.033 51.5349 163.192ZM78.1566 107.285C77.043 108.336 75.9045 109.363 74.7824 110.407L74.3715 110.791L73.9624 111.177C71.9905 113.048 70.1012 114.995 68.527 117.232C65.6369 121.338 63.915 126.345 65.117 131.358C66.1143 135.511 68.4024 139.275 69.0172 143.532C69.3254 145.664 69.1756 147.808 68.3726 149.822C67.5529 151.876 66.243 153.637 65.0662 155.49C62.5099 159.519 62.1613 163.94 62.415 168.607C62.6812 173.48 63.2409 178.356 63.932 183.186C65.3303 192.971 67.4388 202.655 70.2296 212.138C71.6263 216.887 73.2761 221.535 74.9179 226.202C75.7353 228.524 76.6883 230.792 77.6705 233.049C78.1881 234.237 78.7186 235.418 79.2573 236.598C79.0585 234.933 79.0585 233.223 78.9613 231.568C78.8219 229.196 78.6444 226.829 78.4817 224.46C78.1503 219.652 77.8545 214.839 77.5904 210.027C76.6545 192.865 75.9658 175.689 76.0162 158.5C76.0418 149.904 76.2172 141.309 76.5869 132.721C76.7602 128.677 77.0958 124.637 77.3992 120.599L77.4636 119.734C77.7319 116.109 78.0531 112.476 78.6043 108.883C78.4411 108.515 78.2994 108.142 78.1943 107.759L78.1566 107.615L78.1841 107.619C78.1587 107.507 78.1503 107.395 78.1566 107.285ZM87.7862 92.5162C87.8092 92.4169 87.9508 92.4253 87.9762 92.5162C88.6036 94.6297 88.3818 96.9545 87.8412 99.0807C87.5496 100.233 87.1355 101.351 86.6348 102.429L86.4596 102.806C86.0306 103.724 85.5475 104.67 84.7121 105.242C84.3637 105.48 83.7402 105.495 83.3916 105.242L83.2139 105.107C83.1846 105.084 83.1557 105.061 83.1276 105.037C82.8024 104.764 82.6416 104.162 82.7916 103.764C83.1783 102.739 84.0552 101.987 84.6614 101.074C85.1982 100.262 85.6735 99.4062 86.0684 98.5164C86.9198 96.591 87.3022 94.5473 87.7862 92.5162Z" fill="black"/>
<path fill-rule="evenodd" clip-rule="evenodd" d="M114.276 30.6805C90.0129 29.7928 66.8282 46.1405 59.0221 69.2472C58.4549 71.0598 60.2201 72.7529 62.0012 72.4465C60.1796 81.6415 64.1607 94.0181 74.5307 95.3226C76.6548 95.5912 78.7899 95.4365 80.9169 95.632C82.8128 95.8062 93.1337 101.627 96.9986 102.99C105.135 105.84 125.611 105.318 133.756 102.99C134.052 103.667 140.378 77.6609 141.818 69.5979C142.344 66.1044 137.544 63.518 137.898 59.918C138.352 55.2937 143.748 49.6555 142.095 45.2531C137.738 34.0481 125.092 30.9216 114.276 30.6805Z" fill="#FFA769"/>
<path fill-rule="evenodd" clip-rule="evenodd" d="M102.226 10.3111C103.316 10.402 104.412 10.5563 105.49 10.7592C108.764 10.2223 112.152 10.8183 115.327 11.8518C122.762 14.2718 129.92 18.4734 135.523 23.958C138.407 26.7816 140.767 30.0343 142.219 33.8175C142.957 35.7365 143.372 37.7845 143.493 39.8367L143.506 40.0854C143.54 40.7663 143.555 41.5828 143.474 42.3915C143.733 44.0242 143.965 45.6702 143.982 47.3215C143.99 48.0864 143.941 48.85 143.848 49.6085L143.88 49.6806V49.6806C143.745 50.5862 143.585 51.4881 143.402 52.3852L143.356 52.4446C143.331 52.627 143.302 52.809 143.275 52.991C143.175 53.4521 143.071 53.9122 142.961 54.3707C142.722 55.3634 142.458 56.3495 142.174 57.3298C142.124 57.5016 142.172 57.6371 142.265 57.7261C142.058 58.4721 141.831 59.2127 141.58 59.9452C141.703 60.5863 141.828 61.2271 141.96 61.8658C142.649 65.1882 143.233 68.5318 144.017 71.8352C145.607 78.5392 148.023 85.1354 148.687 92.0276C149.204 97.3726 148.346 103.216 145.032 107.583C142.175 111.345 137.878 113.566 133.238 114.158C131.018 114.443 128.741 114.312 126.57 113.75L126.333 113.688C125.245 113.394 123.862 112.934 122.851 112.195C121.755 111.808 120.72 111.093 120.095 110.396C119.244 109.443 118.314 107.813 118.546 106.459C117.279 106.562 116.003 106.592 114.749 106.587C111.658 106.581 108.54 106.336 105.568 105.436C102.916 104.633 99.825 103.29 98.2564 100.868C98.1827 100.754 98.3049 100.589 98.4335 100.634C99.7006 101.08 100.885 101.682 102.192 102.022C103.479 102.356 104.765 102.671 106.091 102.809C108.683 103.076 111.315 103.04 113.916 102.912L114.809 102.865C117.592 102.716 120.469 102.503 123.072 101.458C124.094 101.048 125.039 100.477 125.901 99.7972L126.036 99.689C126.498 99.3128 126.975 98.9958 127.459 98.6957C127.529 98.6069 127.599 98.5181 127.668 98.4273C128.771 97.0091 129.956 95.6417 130.949 94.1432C132.922 91.1695 133.683 88.0796 133.786 84.5331C133.894 80.7897 133.907 77.0411 133.951 73.2966L133.968 72.0486C134.024 67.7667 134.033 63.4699 134.362 59.1985C134.513 57.2141 134.729 55.2389 135.061 53.278L135.133 52.858L135.669 49.8336C135.798 49.1051 135.873 48.3544 136.038 47.629C135.853 47.3247 135.639 47.0317 135.39 46.7527C135.162 46.4955 134.929 46.2459 134.697 45.998L134.53 45.8501C134.148 45.5083 133.82 45.1822 133.512 44.712L133.438 44.5957V44.5957C133.108 44.196 132.796 43.778 132.521 43.3187L132.47 43.2295V43.2295C132.401 43.1431 132.333 43.0564 132.262 42.9711C132.041 42.705 131.81 42.4537 131.571 42.2129C130.731 43.8382 129.544 45.246 127.863 46.1261C127.256 46.4444 126.514 46.1717 126.315 45.4946C125.812 43.7852 125.049 42.1956 124.038 40.7561C122.351 43.5709 119.676 45.7725 116.523 46.8468C115.735 47.1152 115.041 46.2867 115.226 45.5468C115.795 43.2724 115.908 40.9596 115.574 38.6733C114.384 39.5258 113.156 40.3288 111.896 41.0731C109.092 43.2464 106.12 45.2023 102.852 46.6067C102.096 46.9313 100.96 46.3858 101.303 45.4134C101.592 44.5946 101.829 43.7622 101.982 42.9073L102.015 42.7096C102.016 42.7037 102.017 42.6978 102.018 42.6917C94.4477 53.1602 76.0905 63.2482 74.6815 63.3453L74.6431 63.3456V63.3456C75.5231 64.1883 76.2334 65.2294 76.698 66.4259C77.186 67.6825 75.1961 68.2296 74.6815 67.0281L74.6651 66.9878C73.8734 64.9492 71.9153 63.4879 69.785 63.1423C68.4973 63.3767 67.2802 63.9991 66.4497 64.943C64.8159 66.8008 64.8011 69.0411 65.9164 71.1546L66.08 71.4626C66.6838 72.5916 67.3197 73.7232 67.6599 74.9632C68.0752 76.4849 67.7611 78.0277 68.033 79.5473L68.0478 79.6279C68.1767 80.3036 68.4552 81.0722 69.2579 80.8873C69.3199 80.8729 69.3798 80.8537 69.4394 80.8332C69.6087 80.9685 69.8124 81.0803 70.0662 81.1544C70.6877 81.336 71.3743 81.2479 71.9929 81.1012C72.5904 80.9596 73.1705 80.7375 73.729 80.4775C73.7908 80.6305 73.8289 80.7905 73.8327 80.9444C73.8517 81.7306 73.527 82.3773 73.0274 82.9036C73.8243 83.9138 74.5053 85.0255 75.2726 86.0569C76.3752 87.5364 77.5031 88.9841 78.7027 90.3854C79.9508 91.8458 81.3106 93.2259 82.721 94.53C83.7097 95.443 85.3436 96.4194 85.9634 97.7446C86.676 97.9665 87.2811 98.5139 87.5024 99.4143C87.9051 101.046 88.0232 104.869 87.7069 106.528C87.3928 108.173 86.1953 109.198 84.8714 110.064C84.5045 110.305 84.0892 110.28 83.7519 110.1C83.4546 110.39 83.1194 110.656 82.7357 110.893C81.319 111.77 79.6725 112.089 78.0407 112.273C75.8376 112.979 73.4617 113.165 71.1131 112.725C70.3457 112.816 69.5783 112.898 68.8088 112.966C60.9368 113.653 52.934 113.067 45.2558 111.189C41.733 110.326 38.4064 108.759 35.3071 106.746C29.9653 103.276 27.7045 93.5372 30.804 84.2266L31.0494 83.4925C32.4461 79.3332 33.9523 75.1956 35.9712 71.3152L36.2123 70.8536C38.0681 67.3144 40.1095 63.779 42.8208 60.8259C44.1785 59.3486 45.7555 58.0065 47.5369 57.0681C48.2132 56.7122 49.0028 56.4654 49.7744 56.1853L49.7901 55.9917V55.9917L49.8068 55.7983C49.8576 55.1782 49.9224 54.5592 50.0059 53.9416C50.3174 51.632 50.7572 49.3564 51.3819 47.1095C52.0074 44.8597 52.7765 42.6477 53.7018 40.5038C55.2454 36.9269 57.1841 33.5338 59.422 30.3501C59.5818 30.0212 59.7439 29.6936 59.9101 29.3686C61.7969 25.672 64.2403 22.1467 67.3921 19.4182C71.0098 16.286 75.3675 14.3415 79.9149 12.9762C84.631 11.5623 89.5516 10.5943 94.4659 10.2688C97.0527 10.0976 99.6437 10.0955 102.226 10.3111ZM67.7358 69.6964C70.1033 68.143 73.3289 69.208 74.5285 71.7317C75.3949 73.5599 72.5299 74.5892 72.0766 72.7673C71.6254 70.9413 69.688 69.633 67.8264 69.912C67.6978 69.9331 67.6177 69.7725 67.7358 69.6964Z" fill="black"/>
<path fill-rule="evenodd" clip-rule="evenodd" d="M101.859 81.116C104.166 79.726 112.791 80.7449 119.566 81.116C124.946 81.4107 128.789 80.8267 130.018 81.6548C132.797 83.5257 131.447 92.5727 126.659 93.8099C121.871 95.0472 104.122 96.7753 101.062 93.8099C98.0015 90.8446 97.719 83.6097 101.859 81.116Z" fill="white"/>
<path fill-rule="evenodd" clip-rule="evenodd" d="M104.848 78.723C108.469 78.2833 111.98 79.3925 115.52 79.9516C117.389 80.2466 119.261 80.4669 121.153 80.5488C121.533 80.5655 121.914 80.5752 122.295 80.583C122.33 80.2477 122.518 79.9398 122.924 79.7553C123.757 79.3775 124.424 79.2072 125.339 79.2436C126.176 79.2767 127.016 79.3628 127.841 79.5138C129.338 79.7884 130.842 80.4115 131.937 81.4942C134.472 83.9993 134.086 88.0233 132.128 90.7519C128.081 96.3902 120.696 96.6519 114.372 96.5783L113.788 96.5707C108.029 96.4883 99.7894 97.3473 97.173 90.7925C96.2108 88.3821 96.3445 85.5882 97.5225 83.2764C98.9276 80.5189 101.885 79.0827 104.848 78.723ZM122.837 88.1109L122.785 88.113C120.13 88.2153 117.475 88.2874 114.819 88.3343C114.898 89.0168 114.979 89.6996 115.072 90.3806C115.145 90.9166 115.223 91.4519 115.304 91.9866C115.338 92.2129 115.464 92.5644 115.429 92.7887L115.416 92.8774V92.8774C115.552 92.9391 115.676 93.0385 115.768 93.1827C115.8 93.2326 115.823 93.2829 115.846 93.3331C117.909 93.3493 120.129 93.3093 122.231 92.9342L122.236 92.8885V92.8885C122.274 92.6198 122.385 92.4389 122.534 92.3149C122.682 91.458 122.668 90.5449 122.725 89.6947C122.761 89.1666 122.799 88.6388 122.837 88.1109ZM112.789 88.3705C110.876 88.4031 108.961 88.4282 107.048 88.4048L106.179 88.3914V88.3914C106.362 89.3759 106.562 90.357 106.728 91.3481C106.901 92.381 105.992 93.0376 105.206 93.0111C105.294 93.0256 105.382 93.0406 105.47 93.053C107.928 93.4007 110.48 93.3084 112.973 93.3057C112.839 92.5223 112.894 91.6383 112.874 90.9844L112.87 90.8831C112.832 90.0451 112.805 89.2078 112.789 88.3705ZM99.7898 88.1898C99.8562 88.7018 99.9855 89.2028 100.179 89.6692C100.996 91.6399 102.869 92.5596 104.85 92.9468C104.506 92.8281 104.233 92.5427 104.164 92.054C103.993 90.8386 103.931 89.6031 103.926 88.3691C102.545 88.3562 101.155 88.3267 99.7898 88.1898ZM130.039 87.7691C129.056 88.0012 127.913 87.8948 126.948 87.9386C126.045 87.9797 125.14 88.0155 124.237 88.0521C124.279 88.6694 124.321 89.2864 124.366 89.9032C124.424 90.7005 124.429 91.5431 124.582 92.337C126.401 91.716 128.031 90.7201 129.254 89.1276C129.558 88.7309 129.831 88.2652 130.039 87.7691ZM104.432 81.9564C102.795 82.3441 101.246 83.1631 100.414 84.6614C99.9197 85.5505 99.7023 86.6043 99.7441 87.6427C101.127 87.4816 102.535 87.4206 103.935 87.37C103.94 87.1177 103.946 86.8657 103.953 86.6143L103.975 85.9697C104.013 84.7404 104.032 83.1967 104.432 81.9564ZM112.904 82.1064L112.183 82.0254C110.182 81.7973 108.182 81.5578 106.18 81.6951C105.891 81.7151 105.597 81.7467 105.302 81.7898C105.656 83.0668 105.626 84.5667 105.774 85.8308C105.831 86.3196 105.903 86.8044 105.983 87.2873L106.33 87.271V87.271C108.478 87.1546 110.627 87.083 112.777 86.9977C112.776 86.594 112.779 86.1901 112.785 85.786L112.793 85.3819C112.817 84.3498 112.751 83.1871 112.904 82.1064ZM122.954 81.9425C120.858 82.2809 118.691 82.353 116.632 82.3555C115.81 82.3565 114.988 82.306 114.166 82.2331C114.22 82.6707 114.248 83.1134 114.288 83.5449C114.369 84.4169 114.462 85.2876 114.563 86.1574L114.653 86.9185V86.9185C117.294 86.7987 119.936 86.6692 122.577 86.535L122.95 86.515V86.515L123.054 85.0523C123.125 84.0769 123.203 83.1017 123.314 82.1308L123.231 82.1009V82.1009C123.134 82.0609 123.041 82.0057 122.954 81.9425ZM123.864 82.3056C123.98 83.6847 124.043 85.0696 124.128 86.451L125.87 86.358C126.16 86.3421 126.45 86.326 126.74 86.3093C127.868 86.2442 129.318 85.9024 130.433 86.2213C130.519 85.2069 130.229 84.2186 129.314 83.5371C127.707 82.3401 125.661 82.7663 123.864 82.3056ZM117.915 69.9768C120.508 68.4914 127.013 66.9733 127.425 71.6409C127.615 73.7889 126.018 75.5686 124.154 76.3628L124.084 76.3921C122.336 77.1111 119.238 77.9231 117.725 76.364C116.466 75.0663 118.136 72.7395 119.7 73.8026C120.504 74.3488 122.197 73.9464 123.094 73.6865L123.15 73.6701C124.118 73.3854 125.409 72.4743 125.009 71.2816C124.655 70.2266 123.147 70.0338 122.203 69.9996C120.794 69.9491 119.422 70.2765 118.026 70.383C117.804 70.3999 117.736 70.0795 117.915 69.9768ZM128.655 62.4711C132.174 62.3063 134.363 66.1499 133.554 69.2992C133.414 69.8426 132.806 70.3761 132.22 70.315L132.072 70.3014C131.997 70.2942 131.922 70.2847 131.852 70.2655C131.295 70.1112 130.796 69.5317 130.837 68.9311L130.848 68.756C130.93 67.2683 130.768 65.5543 129.001 65.194C127.502 64.8884 126.665 66.3317 126.648 67.6602C126.644 67.8961 126.379 68.0607 126.171 67.9339C125.087 67.2743 124.9 65.962 125.313 64.8319C125.838 63.4 127.151 62.5415 128.655 62.4711ZM102.542 63.2955C105.103 62.4408 107.865 63.8063 109.105 66.0712C109.54 66.1971 109.975 66.5325 109.914 67.0461C109.827 67.785 109.696 68.2508 109.184 68.8111C108.383 69.6876 106.882 69.2394 106.549 68.1605L106.535 68.1117C106.157 66.717 104.622 65.7968 103.225 66.285C101.591 66.8553 101.639 68.5807 100.493 69.5859C100.359 69.7041 100.197 69.7229 100.036 69.6449C98.8192 69.0567 99.0378 67.2864 99.4716 66.2732C100.041 64.9436 101.146 63.7611 102.542 63.2955ZM99.0544 55.5163C101.129 53.3981 106.54 51.3484 107.96 55.2599C108.23 56.0049 107.655 57.0095 106.879 57.1639C105.61 57.4167 104.483 56.8653 103.222 56.9642C102.201 57.0447 101.136 57.3861 100.319 58.0189C98.0585 59.7714 97.5612 62.7356 95.9858 64.9662C95.9091 65.0748 95.7601 65.0291 95.746 64.9011C95.3872 61.6537 96.7816 57.836 99.0544 55.5163ZM126.117 53.4311C127.494 52.9446 129.053 52.9862 130.437 53.4178C131.832 53.8527 133.112 54.6787 134.098 55.7579C134.546 56.2478 134.96 56.7884 135.292 57.3639C135.468 57.6689 135.654 58.2989 135.854 58.6741C136.939 59.3006 137.403 60.7283 136.431 61.744L136.388 61.7885L136.258 61.9174C135.736 62.4344 134.948 62.6584 134.236 62.452C132.641 61.9904 132.447 60.7339 131.895 59.4003C131.531 58.5194 130.906 57.7399 130.149 57.1673C128.359 55.8147 125.423 55.3838 123.268 56.0212C123.154 56.0552 123.019 55.909 123.101 55.8029C123.509 55.2737 123.744 54.8393 124.291 54.4124C124.846 53.9791 125.452 53.6661 126.117 53.4311Z" fill="black"/>
</g>
<defs>
<filter id="filter0_d_16_20351" x="0" y="0" width="183.259" height="259.93" filterUnits="userSpaceOnUse" color-interpolation-filters="sRGB">
<feFlood flood-opacity="0" result="BackgroundImageFix"/>
<feColorMatrix in="SourceAlpha" type="matrix" values="0 0 0 0 0 0 0 0 0 0 0 0 0 0 0 0 0 0 127 0" result="hardAlpha"/>
<feOffset dy="4"/>
<feGaussianBlur stdDeviation="2"/>
<feComposite in2="hardAlpha" operator="out"/>
<feColorMatrix type="matrix" values="0 0 0 0 0 0 0 0 0 0 0 0 0 0 0 0 0 0 0.25 0"/>
<feBlend mode="normal" in2="BackgroundImageFix" result="effect1_dropShadow_16_20351"/>
<feBlend mode="normal" in="SourceGraphic" in2="effect1_dropShadow_16_20351" result="shape"/>
</filter>
</defs>
</svg>
