<svg width="399" height="780" viewBox="0 0 399 780" fill="none" xmlns="http://www.w3.org/2000/svg">
<g filter="url(#filter0_d_10_20021)">
<path fill-rule="evenodd" clip-rule="evenodd" d="M88.5643 364.501C88.6044 367.225 88.8778 373.479 89.5625 376.116C81.9346 363.91 70.5048 350.569 68.7665 335.619C69.3083 335.471 71.7119 335.25 72.1316 334.935C76.0781 336.766 75.3314 331.133 75.9147 328.527C77.4898 323.011 80.799 317.585 82.2368 312.033C86.0164 310.401 78.4264 309.71 77.3237 309.678C81.9081 304.582 84.0169 297.577 87.281 291.633C92.0773 281.53 96.3729 271.203 100.209 260.714C101.047 267.287 101.197 273.93 100.686 280.539C99.1091 308.845 88.4574 336.063 88.5643 364.501ZM353.305 314.218C350.932 314.617 346.978 314.994 344.609 315.187C347.718 313.337 356.906 309.813 351.116 306.645C349.33 305.994 347.415 306.923 345.614 307.21C338.138 308.438 328.906 308.373 321.343 307.754C324.1 305.495 327.73 302.241 330.421 299.903C331.851 298.661 333.237 298.19 331.629 296.335C328.794 293.699 323.723 295.64 320.445 296.799C311.402 301.857 301.191 307.343 291.486 311.234C291.384 309.877 291.447 308.122 290.136 307.21C286.29 305.4 283.459 305.929 279.367 305.448C274.597 304.734 270.358 303.922 265.635 302.663C262.545 300.311 260.661 293.374 255.721 294.149C260.097 283.157 253.428 271.689 250.923 261.164C247.797 250.393 246.154 239.207 246.11 228.007C246.079 210.076 235.676 196.318 220.644 187.117C214.717 183.122 210.738 173.404 203.401 171.457C202.468 167.883 202.412 166.313 201.592 162.712C201.181 161.677 200.875 156.063 199.841 156.255C198.7 150.694 192.886 148.464 187.856 147.299C181.315 145.946 172.187 144.307 166.307 148.125C164.604 149.54 163.855 151.909 163.731 154.025C163.077 156.843 161.718 159.763 160.134 162.208C157.431 161.296 158.961 159.597 156.287 159.201C131.872 155.588 104.772 173.47 88.9314 190.914C60.2177 220.351 37.2793 260.536 41.0341 302.491C40.0243 302.342 35.5484 301.642 35.613 303.054C35.8322 309.193 36.9636 314.314 37.276 320.449C36.9655 328.576 45.4231 329.555 51.5327 331.56C51.1565 355.139 59.737 378.725 73.1671 398.107C76.4298 401.921 81.3256 415.157 87.2811 409.884C87.9829 409.065 82.5401 403.388 81.5718 401.985C78.2653 397.83 69.507 377.254 75.6969 373.145C77.0729 377.586 90.3976 398.943 92.7728 386.821C95.9275 388.649 101.14 389.897 104.912 389.708C112.001 393.542 118.9 397.683 125.708 401.985C128.879 408.203 133.531 414.175 137.428 420.145C110.458 482.342 84.1325 584.71 49.4249 643.292C46.3987 647.117 63.0464 653.62 65.9869 655.023C60.3636 664.139 59.6596 674.702 55.3816 684.518C54.5667 684.387 53.7447 684.56 53.0097 684.952C47.7325 688.52 45.7411 701.293 45.4401 707.591C45.6838 710.401 44.6407 714.649 46.9174 716.718C46.5991 717.062 46.3616 717.482 46.1925 717.911C44.5904 719.156 44.7877 721.908 45.6442 723.614C48.6575 729.858 70.6833 729.278 77.831 730.614C103.15 732.755 124.4 733.092 149.715 730.752C152.823 730.102 150.473 725.263 148.939 723.95C149.647 723.519 150.1 722.733 149.79 721.723C144.035 705.292 123.235 706.403 110.648 697.628C113.958 695.717 111.822 696.327 109.742 697.07C107.536 695.686 105.389 694.128 103.4 692.406C104.928 691.465 104.174 690.843 102.522 691.631C99.9179 689.546 97.8897 686.323 94.5723 685.313C91.3231 684.518 91.3231 683.131 91.3231 682.256C93.2568 674.494 95.3691 666.533 96.4547 658.661C97.6128 660.366 107.605 646.703 109.742 643.292C118.049 630.157 118.027 617.213 123.84 602.929C135.778 571.823 160.231 506.628 175.143 476.878C210.035 533.642 193.04 610.415 214.565 670.945C215.521 672.764 217.32 679.584 219.811 677.616C220.78 677.843 221.809 677.964 222.731 678.095C222.465 684.712 221.969 691.311 220.867 697.859C219.841 698.13 218.97 698.667 218.518 699.607C216.791 698.341 213.483 717.025 213.2 718.929C213.196 721.384 211.076 726.85 213.012 728.31C210.222 729.449 209.766 733.661 211.728 735.827C217.554 743.644 245.949 741.496 256.425 742.806C269.672 742.478 325.09 747.43 328.938 734.883C329.703 732.019 328.392 728.403 325.724 727.301C326.792 724.814 324.236 722.412 322.672 720.667C313.452 711.092 299.275 709.584 286.999 705.417C287.457 704.948 270.975 696.517 267.402 694.433C267.638 691.602 261.745 694.44 261.729 694.433C258.919 689.475 256.929 681.762 255.045 676.414C258.522 675.338 266.899 674.382 268.451 670.945C273.441 669.274 268.436 662.049 267.402 658.661C238.152 585.595 265.902 493.434 222.731 424.471C230.645 419.947 239.723 410.045 231.907 401.738C230.342 399.741 226.516 393.524 226.579 394.609C225.125 388.689 221.879 378.493 220.867 372.507C217.154 350.531 219.588 329.949 222.731 307.754C227.096 324.455 242.139 338.369 257.442 345.999C263.414 348.459 271.3 353.537 277.857 351.935C283.775 350.187 294.522 338.059 295.789 332.234C313.04 334.281 330.952 332.638 347.438 327.224C349.555 326.425 352.059 326.492 351.405 323.494C350.752 320.949 346.098 321.598 344.098 322.07C347.156 320.378 355.096 319.935 355.035 315.509C354.932 314.587 354.25 314.06 353.305 314.218Z" fill="#A55728"/>
<path fill-rule="evenodd" clip-rule="evenodd" d="M266.897 692.787C267.959 693.837 276.108 700.081 287.113 705.342C293.84 708.557 302.036 710.218 308.962 713.4C316.436 716.834 322.52 721.792 326.237 725.378L330.064 735.587C329.482 739.288 312.276 741.633 294.219 742.23C267.766 743.105 234.899 740.571 231.758 740.237C226.341 739.74 209.461 740.294 212.572 731.466C213.456 731.745 213.735 726.069 214.357 725.522L214.893 721.195C216.43 708.848 217.331 702.204 217.597 701.263C217.666 701.155 217.737 701.049 217.815 700.949C218.73 699.768 220.278 699.437 221.704 699.524C221.819 699.531 221.936 699.546 222.053 699.563C222.247 699.664 222.434 699.783 222.611 699.925L222.761 699.945C222.786 699.949 222.811 699.953 222.837 699.957C222.888 699.965 222.934 699.979 222.977 699.996C223.012 699.937 223.043 699.873 223.075 699.809C223.958 700.078 224.856 700.442 225.718 700.483L226.341 700.757L227.147 701.115L229.475 702.16L229.995 702.391C232.995 703.705 240.526 706.524 247.453 705.579C254.16 704.663 259.793 698.01 261.867 696.258C263.374 694.877 265.493 694.234 266.897 692.787ZM93.706 684.824C94.3652 684.997 97.2776 686.764 99.7865 689.158C102.157 691.42 104.04 694.242 107.571 696.809C112.673 700.518 132.264 707.599 142.946 714.398C148.485 717.923 152.016 729.423 152.108 729.954C118.494 731.879 78.4042 731.503 45.1118 726.199C44.4787 726.015 44.7488 711.41 46.2532 701.608L46.2992 701.313C47.3844 694.428 48.618 690.643 48.6932 690.481L48.7782 690.339C50.1602 688.088 53.9406 685.67 56.3888 687.315L56.4118 687.335L56.87 687.748C59.057 689.708 68.1956 697.561 74.5404 695.655C76.6179 694.981 78.3428 693.635 80.1501 692.461C85.0134 689.326 88.219 686.709 93.706 684.824ZM94.6772 684.39C95.1237 684.677 95.5485 685.001 95.9589 685.348C95.4246 685.028 94.8584 684.763 94.2487 684.573C94.3817 684.525 94.5106 684.471 94.6346 684.411L94.6772 684.39Z" fill="#DA0037"/>
<path fill-rule="evenodd" clip-rule="evenodd" d="M153.299 158.069L153.684 158.117C155.182 158.312 156.436 158.636 157.502 159.172L157.624 159.235L158.112 159.491L158.231 160.029C158.603 161.715 159.987 165.518 160.734 167.01L160.773 167.088L160.798 167.137L160.886 167.299L161.071 167.723C164.7 175.987 169.601 183.843 175.573 191.053L175.867 191.406L176.053 191.656C181.489 198.897 188.402 204.098 194.153 204.237L194.327 204.24L194.633 204.238C197.921 204.162 200.852 202.437 203.382 198.775C205.113 196.231 206.1 193.068 206.469 189.275C206.764 186.252 206.67 183.027 206.268 178.982L206.241 178.717L206.176 178.089L206.13 177.665C206.11 177.485 206.077 177.445 206.011 177.439L205.997 177.438L205.971 177.438L205.955 177.439L205.941 177.44L205.915 177.445L204.698 177.934L204.241 176.549L204.143 176.262L204.036 175.949L203.597 174.696L203.458 174.291L203.348 173.96C203.19 173.483 203.06 173.056 202.944 172.631L202.901 172.472L202.27 169.997L204.38 170.762C204.491 170.802 204.601 170.844 204.71 170.887L204.873 170.954L205.026 171.018L205.156 171.122C205.603 171.478 206.053 171.768 206.848 172.222L206.949 172.279L207.993 172.868L208.225 173.065L208.383 173.202C209.347 174.05 210.165 174.957 211.414 176.495L211.516 176.621L212.423 177.747L212.852 178.274L213.1 178.682L213.287 178.994L213.391 179.171L213.981 180.18L214.258 180.648C214.964 181.832 215.414 182.508 215.97 183.194L216.075 183.323L216.152 183.414C217.073 184.504 218.218 185.475 219.931 186.694L220.231 186.905L220.677 187.216L220.842 187.355C221.244 187.689 221.629 187.97 222.004 188.201L222.112 188.267L222.244 188.314L222.814 188.72L223.251 189.035C226.344 191.272 228.655 193.182 230.767 195.331C232.24 196.83 233.612 198.386 234.87 199.993L235.121 200.315C235.33 200.586 235.522 200.843 235.745 201.149L235.981 201.474L237.104 203.047L237.408 203.466C237.839 204.055 238.168 204.481 238.515 204.896L238.574 204.966L238.732 205.152L238.89 205.283L239 205.491C240.182 207.732 241.097 210.054 241.74 212.506L241.799 212.736L241.868 212.933C242.726 215.42 243.279 218.052 243.615 221.012L243.648 221.309L243.703 221.848C243.885 223.677 243.974 225.286 244.049 227.908L244.073 228.8L244.155 232.361L244.178 233.182C244.275 236.512 244.423 238.726 244.733 240.983L244.751 241.119L244.789 241.381L244.793 241.416C245.983 251.765 248.406 261.876 252.027 271.574L252.198 272.028L252.325 272.363L253.252 274.779L253.464 275.339C254.451 277.958 255.041 279.768 255.484 281.683C256.097 284.334 256.279 286.754 255.959 289.074L255.932 289.259L255.917 289.381C255.737 290.855 255.704 292.241 255.798 293.267L255.811 293.4L256.152 293.402C257.268 293.41 258.18 293.768 258.906 294.462L258.975 294.53L259.044 294.601C259.594 295.178 259.985 295.88 260.44 296.974L260.547 297.241C260.678 297.574 261.01 298.416 261.254 299.012L261.427 299.431L261.541 299.689C261.704 300.055 262.938 301.504 265.027 302.425C266.248 302.963 269.568 303.519 269.568 303.519L269.783 303.606C272.777 304.803 275.461 305.376 280.738 306.089L281.709 306.218L283.895 306.501C286.092 306.789 287.479 306.998 288.903 307.267L289.311 307.346L292.186 307.919L289.975 309.509C286.175 312.242 272.375 326.996 271.677 332.051C270.847 338.055 283.638 334.089 285.417 332.138L285.617 331.918L285.81 331.701L286.405 331.027L286.99 331.067L287.568 331.109C288.732 331.196 289.941 331.307 291.233 331.444L293.48 331.687L291.889 334.125L291.472 334.758L291.188 335.187L290.898 335.623L290.603 336.063C286.5 342.149 283.031 346.127 278.734 349.076L278.589 349.175L278.508 349.233C277.425 349.997 276.234 350.388 274.929 350.451L274.798 350.456L274.667 350.459L274.562 350.46C273.842 350.461 273.098 350.366 272.303 350.186L272.12 350.144C271.394 349.971 270.703 349.753 269.69 349.392L269.43 349.299L268.584 348.991L267.93 348.757L267.73 348.688C264.857 347.662 262.053 346.501 259.326 345.208C241.796 336.982 228.437 324.529 222.903 309.351L222.738 308.891L222.558 308.37L219.692 308.994L219.615 309.651C216.151 339.892 216.839 363.944 223.035 386.355L223.224 387.033L223.402 387.657L223.699 388.373C224.593 390.515 225.568 392.726 226.797 395.421L227.306 396.533L227.66 396.641L227.885 397.117C228.169 397.72 228.497 398.312 228.867 398.893L228.957 399.032C229.332 399.608 229.719 400.115 230.388 400.919L230.554 401.118L231.542 402.292L231.757 402.551C231.801 402.605 231.844 402.658 231.887 402.71L232.012 402.866L232.221 403.129C232.318 403.253 232.409 403.37 232.495 403.486L232.622 403.656L232.754 403.888C233.294 404.847 233.69 405.705 233.971 406.58L234.023 406.744L234.048 406.828L234.061 406.915C234.819 412.026 232.61 416.593 228.116 420.568C224.764 423.533 220.314 426.031 215.294 428.073L215.003 428.191C208.636 430.579 202.26 431.796 195.798 431.926L195.475 431.931L194.656 431.937C184.935 431.937 175.138 429.519 164.493 424.86L164.02 424.652C156.471 421.315 149.544 417.459 138.395 410.641L137.693 410.211L136.193 409.29L132.082 406.756L131.993 406.553L131.799 406.397L131.67 406.296C130.868 405.682 129.999 405.17 128.479 404.376L128.227 404.245L127.486 403.864L126.635 403.421L126.031 403.056L125.123 402.508C121.831 400.529 118.96 398.862 116.218 397.349L115.969 397.212L115.281 396.835L115.242 396.813C113.593 395.832 111.967 394.883 110.359 393.962L109.713 393.593L109.164 393.215L108.676 392.88L108.185 392.546L107.813 392.297C105.549 390.785 103.762 389.752 101.911 388.943C100.037 388.124 98.4391 387.584 96.9431 387.34L96.7887 387.316L96.548 387.279L96.3409 387.151C95.4666 386.611 94.6864 386.032 93.9877 385.391C92.3408 383.881 91.3807 382.068 90.9202 379.848L90.8909 379.703L90.7984 379.231L91.0615 378.828C91.1053 378.761 91.1469 378.498 91.165 377.967L91.169 377.829L91.1794 377.412L91.1858 377.231C91.2066 376.712 91.2459 376.394 91.3479 376.079L91.374 376.003L91.397 375.817C91.7131 373.234 91.8908 370.965 92.1021 367.036L92.1456 366.213L92.3699 361.762C92.4894 359.478 92.5943 357.805 92.7263 356.2L92.7714 355.667L92.8392 354.913L92.9026 354.162C93.5836 346.275 94.6718 339.631 97.313 325.982L98.6937 318.862C99.4215 315.075 99.9073 312.444 100.355 309.83L100.537 308.759L100.803 307.146L100.937 306.318C102.315 297.665 103.022 290.34 103.041 283.333C103.062 275.178 102.125 267.625 100.074 260.392L99.9724 260.036L99.9333 259.902L97.7969 261.945C97.7969 261.945 84.2859 289.951 77.7919 302.538L77.4841 303.133L77.4236 303.281C77.1348 304.031 77.0715 305.988 77.2865 307.963L77.3125 308.191L77.3416 308.423L77.3765 308.677C77.5279 309.728 77.7458 310.644 77.9971 311.278C78.0776 311.48 78.1574 311.643 78.229 311.76L78.2555 311.802L78.2729 311.827L78.4047 311.827C78.6189 311.826 78.8326 311.824 79.0455 311.821L79.3643 311.816L79.8399 311.805L82.6646 311.722L81.1921 313.688C76.9466 319.357 73.6895 326.006 71.7234 332.96L71.6375 333.267L71.2913 334.53L70.1798 334.425L69.9794 334.409L69.362 334.362L68.6314 334.294L68.3976 333.928L67.9599 334.201L67.1632 334.049L66.5215 333.922C61.567 332.932 56.9897 331.644 49.3022 329.205L48.5484 328.966L45.6942 328.053L44.1657 327.565L43.9437 327.49L43.7464 327.42L43.5582 327.351C41.3948 326.547 40.1603 325.479 39.5562 323.495L39.5109 323.341L39.4668 323.111L37.405 312.297L37.069 310.57C36.7057 308.716 36.373 307.059 36.042 305.462L35.7936 304.273L35.3596 302.229L37.4894 302.047L37.7399 302.024C38.3895 301.962 38.8936 301.892 39.317 301.8L39.4108 301.778L39.4304 301.284L39.4494 300.846C39.4728 300.329 39.5003 299.789 39.5331 299.219L39.5625 298.721L39.6074 298.011C39.8575 294.194 40.2704 289.989 40.8939 285.443C42.6923 272.335 45.8298 259.245 50.6565 247.005C54.3087 237.742 59.9717 228.151 67.2948 218.307C73.105 210.497 79.6452 202.926 86.9451 195.272C96.3964 185.211 103.899 178.261 111.988 172.593C122.007 165.573 132.124 161.272 142.892 159.929L143.169 159.895L143.617 159.807C144.244 159.687 144.86 159.579 145.702 159.442L145.852 159.418L148.662 158.972L149.428 158.847C150.437 158.678 151.203 158.537 151.952 158.377L152.273 158.307L152.62 158.229L153.299 158.069Z" fill="#DA0037"/>
<path fill-rule="evenodd" clip-rule="evenodd" d="M163.79 150.501C164.053 150.607 164.232 151.006 164.338 151.604C164.63 151.695 164.88 151.911 164.956 152.235C165.177 153.189 164.918 154.184 164.719 155.135L164.696 155.245C164.507 156.166 164.277 157.081 163.994 157.978L163.953 158.205C163.266 161.914 161.943 165.44 160.388 164.841L160.747 165.494C166.847 176.548 184.273 206.229 197.878 201.998C205.801 198.828 205.688 188.522 205.108 181.349C199.226 184.952 198.125 157.374 199.331 154.327C200.291 153.621 200.754 159.965 201.112 160.84C201.891 164.32 202.847 167.755 203.744 171.205C205.641 171.58 207.435 172.335 209.021 173.417C209.097 173.461 209.175 173.5 209.249 173.545C210.201 174.123 210.943 174.861 211.606 175.678C212.354 176.514 212.994 177.429 213.598 178.37C214.927 179.877 216.193 181.44 217.502 182.963C218.123 183.686 218.759 184.387 219.409 185.07L219.91 185.49C219.994 185.56 220.078 185.63 220.162 185.699C235.193 195.068 245.598 209.088 245.628 227.348C245.672 238.756 247.314 250.15 250.441 261.122C252.946 271.843 261.039 282.8 256.664 293.996C261.604 293.206 262.063 299.547 265.152 301.943L266.122 302.206C270.462 303.372 274.443 304.344 278.883 305.021C282.976 305.512 287.707 304.973 291.552 306.816C292.863 307.745 292.394 309.421 292.496 310.803C302.201 306.839 310.917 301.363 319.96 296.212L320.263 296.103C323.61 294.917 329.581 293.135 332.331 295.739C333.94 297.629 332.316 299.316 330.886 300.581C328.195 302.962 325.341 305.146 322.584 307.448C330.012 308.067 337.464 307.573 344.811 306.37L345.211 306.304C347.011 306.011 349.133 305.311 350.919 305.974C356.708 309.201 350.009 312.967 346.901 314.852C349.269 314.654 351.634 314.36 354.007 313.955C354.951 313.794 355.633 314.33 355.737 315.27C355.797 319.777 349.85 320.02 346.792 321.744L347.037 321.686C349.037 321.224 351.912 320.818 352.538 323.306C353.193 326.361 349.069 327.595 346.952 328.409C330.467 333.924 312.555 335.598 295.305 333.512C294.039 339.445 283.291 351.799 277.374 353.58C270.817 355.212 262.931 350.039 256.959 347.533C241.656 339.761 227.478 326.94 223.114 309.93C219.446 336.305 220.929 362.896 226.434 388.846C227.326 390.869 228.266 392.861 229.324 394.802C229.644 394.853 229.914 395.067 229.977 395.498C230.009 395.735 230.057 395.965 230.111 396.191C231.164 397.979 232.319 399.696 233.391 401.473C233.613 401.839 233.831 402.221 234.031 402.611C241.168 411.015 232.47 421.845 224.69 426.376C267.86 496.62 239.977 585.141 269.226 659.564L269.291 659.776C270.401 663.315 273.782 670.601 268.892 672.269C267.34 675.77 259.516 676.183 256.04 677.279C257.924 682.726 260.018 688.114 262.827 693.164L262.878 693.186C263.997 692.365 266.397 691.516 267.389 692.411C267.63 692.441 267.87 692.509 268.105 692.625C269.64 693.387 270.875 694.843 272.343 695.76C273.137 696.256 273.962 696.706 274.812 697.099C275.603 697.465 276.444 697.706 277.089 698.31C277.293 698.5 277.345 698.742 277.294 698.965C277.804 699.229 278.313 699.494 278.821 699.76L279.096 699.588C283.583 696.797 287.19 695.285 280.664 700.647C283.002 701.726 285.401 702.671 287.814 703.555C289.647 702.675 291.604 702.033 293.621 701.944C293.983 702.392 291.211 704.123 290.753 704.6C303.029 708.844 316.53 712.168 325.75 721.921L325.956 722.154C327.526 723.909 329.823 726.254 328.802 728.678C331.469 729.801 332.78 733.484 332.015 736.401C328.167 749.181 269.189 744.137 255.942 744.471C245.467 743.136 217.073 745.325 211.247 737.362C209.286 735.156 209.741 730.866 212.531 729.705C210.595 728.219 212.714 722.651 212.719 720.15L212.764 719.861C213.06 717.994 214.346 710.687 215.68 705.58C215.707 705.178 215.76 704.766 215.825 704.351L215.867 704.087C216.132 702.46 216.539 700.804 217.592 699.495C218.348 698.555 219.396 697.975 220.533 697.765C220.838 695.821 221.088 693.872 221.302 691.921C221.454 689.625 221.511 687.326 221.485 685.026C221.472 683.865 221.441 682.704 221.384 681.544C221.343 680.69 221.392 679.676 221.174 678.803C221.03 678.951 220.824 679.031 220.593 678.952C220.103 678.784 219.652 678.475 219.203 678.222C219.186 678.212 219.172 678.201 219.158 678.191C216.756 679.748 215.018 673.084 214.083 671.275C192.56 609.619 209.554 538.663 174.663 480.844C169.846 491.167 165.707 500.637 161.071 511.032C146.592 543.496 128.717 600.68 116.73 635.054C113.468 642.081 109.635 648.873 105.078 655.147C103.621 656.797 102.643 659.224 100.535 660.11L100.35 660.138C99.7872 661.189 99.0059 662.073 97.8441 662.044C97.5591 662.036 97.2684 662.004 96.9748 661.954C95.9451 669.107 94.6503 676.305 92.929 683.343L93.1612 683.246C94.2878 682.781 95.4727 682.385 96.6291 682.489C99.4352 683.198 98.3962 685.648 96.1781 686.457C98.9391 687.313 100.807 689.729 102.858 691.74C104.59 690.808 106.533 690.324 108.608 690.528C108.926 690.559 109.168 690.697 109.336 690.888C109.455 690.889 109.571 690.895 109.681 690.913L109.455 691.049C109.824 691.669 109.56 692.611 108.608 692.616C107.86 692.62 107.141 692.688 106.445 692.817C105.961 693.099 105.48 693.384 105.006 693.682C106.606 695.093 108.31 696.394 110.064 697.584C110.99 697.111 111.97 696.715 112.989 696.397C114.304 695.987 114.878 698.075 113.557 698.454C113.277 698.534 112.999 698.624 112.723 698.719L112.452 698.883C112.388 698.921 112.322 698.96 112.253 699.001C124.84 707.939 146.114 706.806 151.869 723.544C152.06 724.175 151.962 724.72 151.694 725.149C152.941 726.292 153.517 728.346 153.236 729.922L153.26 730.054C153.474 731.33 153.166 732.449 151.794 732.74C142.641 733.592 133.51 734.133 124.317 734.3L123.576 734.306C110.405 734.394 46.3416 733.916 43.4519 725.469C42.6812 723.905 42.4437 721.479 43.5713 720.084C43.7022 719.334 43.9599 718.651 44.418 718.116C42.5625 716.244 43.4751 711.526 43.2481 709.149C43.6554 701.216 45.267 692.709 50.1222 686.216C50.2016 686.114 50.2975 686.051 50.3965 686.02C51.2444 685.169 52.3584 684.631 53.6323 684.559C53.672 684.46 53.7124 684.361 53.7511 684.263C54.7414 681.93 55.6821 679.555 56.6166 677.168C57.3101 674.457 58.0335 671.752 58.7581 669.062C59.4822 666.375 60.1906 663.683 60.8836 660.988C61.4355 658.839 61.9103 656.418 62.8654 654.364C62.8395 654.276 62.8146 654.189 62.7861 654.101L61.7922 653.7C55.2817 651.057 44.9659 646.599 47.2325 643.655C71.3849 593.53 95.0267 522.17 117.191 470.205C117.537 469.186 117.904 468.173 118.306 467.169C119.285 464.726 120.276 462.287 121.282 459.854L121.887 458.396L131.543 435.191C132.554 432.762 133.693 430.346 134.49 427.836C135.257 425.419 135.463 423.013 134.005 420.814C132.7 418.845 130.862 417.216 129.391 415.367C128.278 413.968 127.194 412.475 126.222 410.905C125.34 409.743 124.602 408.413 123.944 407.341C122.889 405.623 121.548 403.721 120.783 401.736C119.795 401.115 118.806 400.496 117.814 399.884C116.099 398.924 114.412 397.919 112.77 396.832C110.697 395.6 108.609 394.391 106.506 393.208C105.747 392.831 104.987 392.456 104.226 392.083C101.947 392.28 95.6516 389.474 93.5068 387.576C93.2617 387.527 93.0178 387.471 92.7753 387.411C92.6784 388.623 92.2818 389.721 91.3577 390.535C85.2122 393.581 77.3794 379.786 75.2206 375.183C70.9306 379.369 81.1668 400.075 84.4734 404.307L84.6498 404.57C85.5342 405.893 86.4614 407.379 87.7159 408.357L87.8424 408.453C88.7024 409.089 88.862 410.081 88.1604 410.916C82.2049 416.286 75.9532 404.495 72.6906 400.61C59.2615 380.867 50.6808 356.843 51.057 332.825C44.9478 330.784 36.4903 329.786 36.8007 321.508C36.4884 315.259 35.357 309.078 35.1371 302.824C35.0735 301.386 39.5492 302.099 40.5592 302.251C39.0714 287.882 41.3194 273.294 45.329 259.485C55.8555 224.15 99.2027 160.464 141.868 158.165C141.831 158.095 141.848 158.002 141.944 157.977C143.875 157.476 146.009 157.556 147.994 157.619C150.059 157.685 152.158 157.699 154.213 157.932C156.342 158.173 158.597 158.955 160.027 160.502L160.523 159.609C161.098 158.566 161.652 157.513 162.071 156.363C162.283 155.782 162.449 155.18 162.6 154.571C162.772 153.702 162.815 152.798 163.226 152.01C163.237 151.989 163.251 151.972 163.262 151.953C163.41 151.456 163.58 150.969 163.79 150.501ZM216.155 729.675C215.545 730.294 214.488 730.564 213.551 730.268C210.44 739.096 227.32 738.542 232.738 739.039C238.515 739.653 343.745 745.119 325.949 732.176C305.07 740.123 235.238 740.999 216.155 729.675ZM267.402 694.67C265.997 696.117 263.879 696.76 262.372 698.141C258.112 701.739 254.685 706.802 248.798 707.755C241.063 709.197 234.091 705.385 227.172 702.366C226.311 702.325 225.412 701.962 224.529 701.692C224.498 701.756 224.467 701.82 224.431 701.879C224.388 701.862 224.342 701.848 224.291 701.84C224.214 701.827 224.141 701.819 224.066 701.808C223.888 701.666 223.701 701.547 223.507 701.447C223.39 701.429 223.274 701.414 223.158 701.407C221.732 701.32 220.185 701.651 219.27 702.832C219.191 702.932 219.12 703.038 219.052 703.146C218.608 704.715 218.551 706.614 218.765 707.942C218.835 708.375 218.654 708.802 218.347 709.048C218.074 715.615 217.334 722.211 216.817 728.692C219.404 729.62 222.089 730.327 224.777 730.775C243.322 733.052 262.064 734.109 280.752 733.537C291.876 733.135 302.985 732.143 313.994 730.493C317.553 730.158 321.195 728.783 324.752 729.338C324.903 729.053 325.14 728.808 325.468 728.642C316.352 716.176 300.771 712.806 287.187 707.341C284.944 708.773 283.562 711.756 281.064 712.645C280.093 712.79 278.744 712.219 278.887 710.99C279.29 708.474 282.012 707.326 283.844 705.866C281.878 704.948 279.949 703.951 278.067 702.843C276.218 704.507 274.03 705.773 272.299 707.548C273.283 709.946 269.182 709.739 269.136 707.186C269.42 704.362 273.9 703.166 275.902 701.519C272.776 699.62 269.984 697.224 267.402 694.67ZM47.1655 719.35C47.0565 719.565 46.8786 719.76 46.6152 719.912C46.1593 720.176 46.3784 721.568 46.4013 722.038L46.4027 722.072C46.4276 722.915 46.4803 723.755 46.5535 724.594C47.3229 725.288 48.3069 725.814 49.4 726.131C82.6925 731.436 116.624 731.866 150.238 729.941C150.083 729.049 149.43 728.314 148.851 727.57C127.601 729.374 105.84 727.486 84.5544 725.729C72.1104 724.095 59.0723 723.419 47.1655 719.35ZM95.6354 686.707C90.1485 688.592 85.0429 691.209 80.1796 694.344C78.3723 695.518 76.6474 696.864 74.5699 697.538C67.3763 699.699 56.5912 689.315 56.4183 689.198C53.9202 687.519 51.2712 689.085 49.9121 691.412C49.7864 691.628 47.7029 703.532 47.7659 709.364C47.392 711.346 48.3895 714.587 47.8587 716.748C48.276 717.25 48.8709 717.486 49.2715 718.01C49.4166 718.2 49.3756 718.415 49.2502 718.577C68.6758 720.173 87.9885 723.202 107.507 723.842C120.865 724.547 134.249 724.385 147.609 724.223C144.569 715.312 134.216 712.958 126.307 710.024C120.332 707.881 114.831 704.687 109.99 700.582C107.891 702.054 106.236 704.116 104.749 706.187C104.073 707.029 102.686 707.665 101.962 706.498C101.217 705.288 102.672 703.758 104.468 702.417C105.413 701.02 106.604 699.83 107.976 698.849C106.459 697.499 104.999 696.093 103.63 694.597C100.793 696.517 98.7088 699.278 96.6678 701.958C95.6869 703.026 93.8526 701.614 94.6572 700.41C95.302 699.579 96.0277 698.814 96.8048 698.096C97.9761 695.89 99.6625 693.853 101.708 692.441L101.552 692.244C99.8434 690.054 98.366 687.426 95.6354 686.707ZM47.2911 717.952C47.2441 718.01 47.1947 718.066 47.142 718.119C47.189 718.215 47.2251 718.316 47.2517 718.418L47.7502 718.458C47.5771 718.314 47.4246 718.14 47.2911 717.952ZM254.215 677.64C244.037 679.559 233.523 680.297 223.251 678.712C224.44 685.337 225.185 692.003 224.795 698.73C240.155 703.158 246.537 710.54 259.316 695.786C258.699 694.847 258.342 693.695 257.928 692.583C256.162 687.759 254.702 682.769 254.215 677.64ZM67.2799 655.912C67.1348 656.233 66.8731 656.496 66.4959 656.613C66.3615 657.206 66.2226 657.799 66.0744 658.39C65.825 661.442 64.6713 664.468 63.4782 667.284L63.2347 667.867C62.4477 670.209 61.6227 672.546 60.8088 674.886C60.1923 677.317 59.6491 679.768 59.0815 682.21C58.972 683.867 58.7364 685.51 58.3743 687.133C58.3574 687.209 58.3348 687.279 58.3099 687.346C58.8787 687.599 59.4278 687.892 59.9455 688.189C75.5286 699.878 72.8374 692.063 87.7994 685.518C87.7134 684.889 88.0287 684.322 88.2859 683.671L88.3191 683.586C88.3347 683.545 88.3502 683.503 88.3659 683.462C88.3412 683.214 88.3556 682.948 88.4214 682.664C89.9368 676.475 92.0469 670.394 94.0219 664.339C94.338 663.427 94.704 662.536 95.078 661.646C85.5913 661.524 76.2076 659.002 67.2799 655.912ZM63.1758 658.919C62.9922 659.727 62.7924 660.525 62.6101 661.296L62.3415 662.445C62.7237 661.283 63.025 660.105 63.1758 658.919ZM153.421 159.675C150.12 160.477 146.736 160.805 143.415 161.47C120.529 164.195 102.982 180.398 87.8674 196.486C59.2359 226.51 42.5777 263.452 43.8071 305.206C54.0318 307.065 64.151 309.787 74.5684 310.382C73.0544 308.092 75.5899 305.229 76.4627 303.037C91.5306 273.972 103.165 241.887 112.613 211.288L112.356 212.623C109.389 227.981 105.934 243.273 100.66 258.025C102.188 256.525 127.285 236.597 125.323 243.187C117.655 249.17 108.995 253.912 100.96 259.402C110.513 291.261 96.7027 323.542 94.0787 355.414C93.4194 362.501 93.4766 369.637 92.5906 376.697C92.2536 377.495 92.6084 379.119 92.1123 379.879C92.4796 381.753 93.2524 383.46 94.8472 384.923C95.5186 385.539 96.2515 386.072 97.0219 386.548C98.9453 386.837 100.877 387.577 102.444 388.262C105.929 389.786 108.997 392.033 112.113 394.179L112.196 394.235C117.22 396.812 122.238 399.74 127.275 402.793L127.5 402.91C129.373 403.892 131.289 404.777 132.921 406.139C132.996 406.201 133.045 406.272 133.078 406.346L136.137 408.233C160.643 423.331 185.91 438.263 214.642 427.485C222.714 424.239 234.45 417.662 232.943 407.492C232.645 406.517 232.193 405.601 231.682 404.709C231.54 404.517 231.394 404.329 231.247 404.144C230.134 402.739 228.888 401.45 227.921 399.933C227.528 399.316 227.175 398.68 226.867 398.026C226.649 397.96 226.455 397.806 226.333 397.54C224.95 394.529 223.595 391.513 222.334 388.448C207.039 335.217 225.604 278.022 230.856 224.332C231.22 221.257 231.756 218.151 231.754 215.055C231.754 214.909 231.965 214.914 231.977 215.055C233.829 228.758 232.424 242.589 230.663 256.231C228.408 273.296 225.445 290.291 223.41 307.388C228.821 324.621 243.975 337.073 259.888 344.54C262.595 345.824 265.363 346.968 268.186 347.976L268.375 348.042C271.476 349.125 274.977 350.8 277.969 348.605C283.711 344.714 287.765 338.778 291.486 333.061C289.98 332.898 288.473 332.757 286.964 332.654C283.261 336.883 278.722 340.474 273.933 343.408C271.981 344.525 269.764 344.052 268.862 341.866C268.011 339.804 269.053 337.394 269.808 335.406L269.917 335.115C273.739 324.826 280.376 315.396 289.337 308.952C282.576 307.603 275.554 307.644 269.069 304.977C269.422 305.348 268.959 305.763 268.734 306.077C268.814 306.687 268.37 307.133 267.824 307.296C262.533 314.198 258.522 322.372 257.685 331.126C257.908 334.108 255.235 337.551 252.662 334.421C250.649 325.706 258.566 312.088 265.528 306.71C258.547 301.926 260.582 295.023 256.199 294.991C255.066 297.161 253.588 299.239 251.726 300.851C250.884 301.535 249.861 302.05 248.958 302.656C248.007 303.294 247.018 301.891 247.771 301.121L247.969 300.882C250.828 297.469 254.222 294.113 254.813 289.495C255.666 283.808 253.106 278.047 251.143 272.852C247.381 262.892 244.885 252.53 243.67 241.955C242.292 232.48 243.967 222.653 240.718 213.484C240.072 210.931 239.144 208.605 238.005 206.447C237.978 206.424 237.951 206.401 237.927 206.373C236.575 204.813 235.496 203.076 234.235 201.442C232.918 199.732 231.489 198.104 229.976 196.565C227.447 193.992 224.654 191.845 221.744 189.778C221.69 189.758 221.635 189.733 221.581 189.701C221.036 189.379 220.512 188.989 220.006 188.559L219.957 188.525C218.265 187.351 216.537 186.076 215.216 184.482C213.92 182.916 212.997 181.091 211.938 179.367C210.491 177.604 209.111 175.716 207.366 174.247C206.379 173.685 205.351 173.155 204.47 172.451C204.326 172.391 204.179 172.334 204.03 172.28C204.406 173.808 204.974 175.214 205.486 176.766C206.227 176.454 207.242 176.8 207.367 177.941L207.413 178.366C208.157 185.349 208.534 193.799 204.42 199.845C195.362 212.956 181.832 201.762 174.989 192.543C168.848 185.19 163.686 177.011 159.873 168.222L159.81 168.106C159.1 166.76 157.562 162.659 157.127 160.688C156.028 160.11 154.69 159.83 153.421 159.675ZM124.42 404.043C124.393 404.078 124.361 404.108 124.327 404.134C125.612 405.955 126.836 407.839 128.098 409.667C127.063 407.979 126.091 406.279 125.23 404.56C124.961 404.386 124.69 404.215 124.42 404.043ZM52.5199 333.279C57.4298 359.887 64.4464 387.881 83.9975 407.775C77.9128 399.22 73.181 389.233 71.8043 378.772C71.7473 375.965 72.7716 372.999 75.8836 372.583C76.4148 372.512 76.8183 372.987 77.008 373.409L77.0262 373.451C78.2505 376.368 79.8424 379.143 81.7273 381.685L81.9121 381.925C83.3345 383.761 89.372 391.245 90.2142 387.668C89.5977 369.583 70.8733 362.127 67.8069 337.22C62.5603 336.665 57.5815 334.676 52.5199 333.279ZM92.7727 386.057C92.7929 386.341 92.8026 386.622 92.7984 386.899C93.0765 386.785 93.3624 386.693 93.6548 386.621C93.3579 386.438 93.0643 386.249 92.7727 386.057ZM92.4951 384.109C92.5979 384.628 92.6848 385.153 92.7383 385.672C93.2726 385.842 93.8013 386.027 94.3271 386.22C94.0084 385.934 93.7051 385.632 93.4208 385.31C93.0895 384.934 92.7789 384.531 92.4951 384.109ZM99.7311 260.664C95.8959 271.347 91.6002 281.867 86.8041 292.157C83.5838 298.178 81.4352 305.195 76.979 310.42C76.9355 310.462 76.8918 310.501 76.8471 310.537L76.9209 310.54C78.2488 310.598 85.4639 311.307 81.7603 312.936C80.3223 318.592 78.4383 324.118 76.8631 329.737L76.8279 329.9C76.2516 332.617 75.5228 338.091 71.6552 336.264C71.2355 336.584 70.7318 336.81 70.1901 336.96C71.9285 352.188 81.5779 362.101 89.2059 374.534C87.5007 367.972 87.999 361.12 88.5927 354.421L88.7399 352.772C91.8916 322.054 103.458 291.848 99.7311 260.664ZM131.764 358.306C125.547 350.571 94.9691 273.991 116.578 320.386C124.258 336.537 130.58 353.828 143.25 366.915C144.126 367.855 142.972 369.506 141.834 368.747C137.744 366.022 134.434 362.407 131.764 358.306ZM109.633 265.748C109.607 265.624 109.767 265.555 109.837 265.662C118.145 282.032 124.077 299.625 133.464 315.499C139.131 325.329 145.93 334.492 153.716 342.755C154.301 343.375 153.421 344.233 152.788 343.682C130.561 323.215 119.754 293.464 109.633 265.748ZM273.456 333.145L273.443 333.147L273.238 333.674C273.169 333.852 273.098 334.032 273.027 334.213C273.061 334.198 273.095 334.184 273.129 334.17C273.202 334.097 273.275 334.023 273.348 333.945C273.332 333.675 273.365 333.405 273.456 333.145ZM40.6474 302.894C39.5188 303.336 38.1323 303.419 36.8848 303.527C38.2815 310.094 39.4872 316.712 40.7514 323.296C41.3358 325.318 42.7099 326.027 44.6118 326.668L46.1403 327.156C53.276 329.438 60.4521 331.782 67.81 333.181C68.3272 332.845 69.062 332.862 69.4054 333.4C69.7633 333.434 70.1307 333.453 70.4938 333.488C72.4598 326.242 75.8238 319.221 80.3254 313.21C67.743 313.615 55.0696 310.304 43.0997 306.601C42.615 306.836 41.9766 306.689 41.7721 306.133L41.5878 306.08C39.5782 305.485 36.9138 304.024 41.1368 304.766C40.8818 304.173 40.7402 303.535 40.6474 302.894ZM329.97 297.532C321.629 296.156 315.255 302.9 308.137 305.996C303.876 307.821 292.519 313.479 288.39 311.597C282.729 317.035 277.95 323.389 274.608 330.517C275.519 330.463 276.43 330.423 277.342 330.394C278.992 329.865 280.754 329.838 282.467 330.347C299.631 330.536 316.806 333.864 333.9 329.646L334.294 329.572C337.805 328.908 349.794 326.378 350.477 323.9C350.298 322.821 347.074 323.961 346.454 324.083C341.527 325.052 336.521 325.513 331.529 325.999C330.14 326.133 330.158 323.977 331.529 323.84C337.538 323.243 343.232 320.992 348.746 318.649C349.333 318.39 350.885 317.853 351.96 317.156C346.865 318.02 341.615 318.17 336.46 317.987C334.685 317.758 334.56 315.067 336.46 315.12C339.94 315.504 343.265 313.79 346.106 311.98L346.724 311.579C351.46 308.498 351.129 308.365 345.144 309.51C336.35 311.108 327.45 311.049 318.568 310.439C317.301 310.418 316.426 308.715 317.474 307.804C321.564 304.279 325.948 301.137 329.97 297.532ZM289.655 310.367L289.559 310.459C289.354 310.654 289.187 310.827 289.093 310.919L289.056 310.956C288.93 311.073 288.808 311.195 288.684 311.314C289.229 311.497 289.83 311.507 290.451 311.411C290.077 311.178 289.798 310.796 289.655 310.367ZM132.944 282.158L132.99 282.208C138.355 288.002 143.793 297.399 148.238 304.808C148.824 310.882 135.682 285.683 132.964 282.184L132.944 282.158ZM267.968 304.575C268.02 304.639 268.07 304.705 268.119 304.773L268.19 304.875L268.306 304.804C268.348 304.779 268.393 304.763 268.439 304.752C268.281 304.694 268.125 304.634 267.968 304.575ZM243.422 284.796C248.249 285.552 238.378 291.537 237.075 292.395C236.241 292.711 228.308 299.247 228.79 297.126L229.014 296.839C232.708 292.147 237.743 286.782 243.422 284.796ZM54.5873 272.252C56.3728 269.383 66.0897 273.16 69.1611 273.613C70.8877 274.068 72.5954 274.606 74.3405 274.988C75.7042 275.482 82.0627 275.003 79.7291 277.694C77.2942 279 74.1151 277.99 71.6215 277.297C66.6601 275.944 61.6816 274.366 56.601 273.615C56.4485 273.539 56.4393 273.591 56.5727 273.77C57.6657 276.194 59.9641 278.468 62.553 279.249C62.7318 279.3 62.6565 279.573 62.4755 279.527C59.6499 278.967 53.0691 275.838 54.5873 272.252Z" fill="black"/>
<path fill-rule="evenodd" clip-rule="evenodd" d="M223.149 100.435C222.586 93.1479 223.459 85.5105 220.649 78.5846C215.751 67.0932 202.016 63.2616 191.368 58.8867C187.102 57.6261 172.748 57.4499 167.754 55.7815C156.449 52.0055 153.748 47.5065 144.766 54.6961C143.25 55.9243 142.301 57.2591 141.609 59.0829L141.637 59.0907C141.44 59.8511 141.652 60.6097 142.097 61.1892C138.202 65.1705 136.572 71.1394 138.571 76.4392C145.092 90.2305 144.785 97.6876 142.684 112.514C139.94 126.355 146.21 131.412 156.594 138.943C156.171 139.763 156.084 140.852 156.635 141.575C168.642 158.45 191.283 166.507 210.681 157.942C218.555 154.437 222.07 146.051 224.076 138.484C226.413 130.011 227.131 121.083 225.229 112.452C224.461 108.46 223.462 104.498 223.149 100.435Z" fill="#A55728"/>
<path fill-rule="evenodd" clip-rule="evenodd" d="M137.146 79.764L144.286 84.5207L169.843 57.5757L161.338 50.8813C161.338 50.8813 145.909 62.2859 142.875 65.2958C139.841 68.3057 137.146 79.764 137.146 79.764Z" fill="#DA0037"/>
<path fill-rule="evenodd" clip-rule="evenodd" d="M153.887 19.7044C155.345 19.4855 156.445 20.3898 156.969 21.6645L156.997 21.7332C157.165 22.1669 157.352 22.5888 157.554 23.0035C161.201 21.2141 166.405 21.6739 168.713 25.2978C170.36 27.8859 169.356 30.9576 168.735 33.7022L168.327 35.5106C169.115 36.012 169.709 36.91 169.681 37.8399L169.678 37.9115L169.512 40.4333C170.038 39.9 170.519 39.3193 170.948 38.7007C171.244 38.158 171.564 37.6247 171.908 37.108C173.929 34.0672 178.468 36.7098 176.799 39.9663C176.479 40.5944 176.119 41.1893 175.733 41.7629C175.297 42.609 174.939 43.4788 174.664 44.3724C175.453 44.716 176.06 45.4792 176.124 46.6311C176.273 49.3211 174.861 51.5656 172.614 52.9758C171.953 53.3906 171.27 53.4712 170.652 53.3171C170.543 53.4641 170.434 53.611 170.33 53.7603C171.225 54.4879 172.033 55.3175 172.728 56.2371C174.818 55.9242 176.92 55.7773 179.022 55.7725C181.591 54.514 184.667 54.5401 187.428 55.0117C189.206 55.3151 190.912 55.9053 192.661 56.3295C194.505 56.7751 196.377 56.7917 198.242 57.0951C200.593 57.4766 202.655 58.5621 203.951 60.2947C205.375 60.3374 206.873 60.9204 208.115 61.712C211.006 63.556 213.881 65.426 216.765 67.2817C217.872 67.9942 218.286 69.1316 218.082 70.4002L218.068 70.4814L217.971 71.0075L218.199 71.3314C219.082 72.5779 220.042 73.8836 220.614 75.2595C221.671 76.7835 222.626 78.3809 223.472 80.0281C224.612 82.2418 225.553 84.5882 226.19 86.9962C226.349 87.6054 226.508 88.2192 226.612 88.8402C226.761 89.7171 226.531 90.3973 226.406 91.2387C226.249 92.3053 226.192 93.386 226.027 94.4549C225.915 95.1636 225.313 95.512 224.683 95.531C224.92 97.3346 225.09 99.1501 225.254 100.951C225.484 103.525 225.64 106.106 225.775 108.687C226.472 109.699 227.896 110.501 228.925 110.778C230.349 111.159 231.842 110.745 233.188 110.259C234.034 109.953 234.729 111.017 234.316 111.728C233.02 113.961 230.247 113.951 228.148 112.963C227.259 112.546 226.479 111.942 225.901 111.155C225.936 111.904 225.974 112.653 226.012 113.404L226.048 114.084C226.475 122.032 227.396 130.253 225.903 138.122C223.318 151.752 212.039 162.131 198.261 162.937C191.031 163.36 185.01 161.224 182.016 160.032C179.022 158.841 180.186 156.412 182.264 157.106C185.845 158.303 192.422 160.085 198.308 159.315C212.182 157.501 223.946 150.567 222.737 120.699C222.566 116.464 222.038 112.226 221.924 107.991C221.815 103.85 221.856 99.7071 221.673 95.5689L221.612 94.157C221.541 92.5072 221.465 90.8498 221.341 89.1981C221.192 88.5581 221.069 87.9087 220.886 87.2807C220.391 85.5718 219.744 83.9104 218.941 82.3248C218.763 82.4599 218.564 82.557 218.348 82.595C216.711 82.8889 215.175 82.8059 213.642 82.1233C212.926 81.8081 212.295 81.3886 211.708 80.8695C211.428 80.6254 211.241 80.3884 211.094 80.1419C210.352 80.1538 209.61 79.931 209.146 79.3977C208.616 78.7899 208.528 78.1621 208.735 77.5809L208.757 77.5229L208.705 77.504C208.079 79.1228 206.833 80.5472 205.465 81.5095C203.304 83.0358 200.6 83.4766 198.007 83.5169C195.145 83.5596 192.125 83.1188 189.3 82.6684C188.554 82.5499 187.812 82.4148 187.085 82.2323C187.056 82.2608 187.028 82.294 186.997 82.3224C184.573 84.6427 181.162 85.24 178.086 83.9151C176.309 83.1496 174.818 81.9171 173.5 80.5045C173.481 81.244 173.444 81.9835 173.38 82.7158L173.353 83.0067C173.222 84.3707 172.969 85.8175 171.939 86.8019C170.273 88.397 167.855 87.757 165.933 86.7189C165.936 86.7687 165.936 86.8209 165.936 86.873C166.455 88.6364 166.976 90.4021 167.498 92.1678L167.61 92.5439C167.989 93.7977 168.405 95.0531 168.519 96.3652C168.737 98.8728 167.069 101.35 164.282 100.508C162.82 100.068 161.649 98.8392 160.525 97.8546L159.817 97.2422C161.649 103.231 162.919 109.434 163.037 115.684C163.045 116.023 162.753 116.279 162.431 116.291C161.677 116.321 160.867 116.172 160.108 115.871C160.066 115.869 160.023 115.866 159.978 115.859C158.684 115.672 157.482 115.205 156.423 114.515C156.667 115.29 156.776 116.122 156.712 116.992C156.696 117.203 156.366 117.277 156.319 117.044C155.707 114.037 152.188 111.764 149.155 112.34C145.898 112.958 143.5 115.76 142.912 118.948C142.282 122.372 143.488 126.333 145.723 128.975C146.752 130.194 148.105 131.21 149.712 131.466C150.446 131.583 151.209 131.542 151.923 131.334C152.226 131.244 152.51 131.118 152.8 131C153.221 130.829 153.714 130.803 154.112 130.623C155.015 130.217 155.923 131.049 155.466 131.976C155.068 132.784 154.71 133.329 154.048 133.746C154.584 134.401 155.07 135.311 155.25 135.555C156.169 136.797 157.103 137.97 158.151 139.105C159.217 140.257 160.381 141.309 161.611 142.284L162.128 142.692C163.312 143.632 164.344 144.503 165.18 145.851C165.839 146.915 164.985 148.358 163.751 148.342C159.888 148.287 157.08 144.893 155.079 141.928C154.795 141.504 154.527 141.056 154.278 140.596C154.188 140.741 154.089 140.876 153.977 140.999L154.198 141.592C154.852 143.336 152.034 144.476 151.216 142.848C150.622 141.667 149.932 140.544 149.164 139.482C148.711 139.418 148.268 139.143 148.022 138.788C147.399 137.885 146.699 136.972 146.109 136.01C145.782 135.699 145.446 135.401 145.102 135.109C145.003 135.197 144.901 135.285 144.804 135.377C144.372 136.361 143.839 137.259 143.178 138.105L143.036 138.286C141.769 139.882 140.119 141.516 138.078 141.907C137.455 142.025 136.855 141.25 137.407 140.755C138.836 139.47 140.526 138.596 141.844 137.162C142.493 136.455 143.089 135.677 143.601 134.862L143.718 134.673C143.803 134.533 143.891 134.394 143.981 134.251C143.386 133.846 142.792 133.438 142.197 133.031C140.559 134.43 138.427 135.07 136.615 136.229L136.435 136.346C134.798 137.441 133.073 135.019 134.386 133.69C135.833 132.229 137.041 130.488 138.323 128.865C137.72 127.754 137.435 126.441 137.328 125.114C137.286 124.738 137.253 124.362 137.22 123.986C136.3 124.001 135.376 123.685 134.594 123.143L134.298 122.932C133.348 123.235 132.35 123.382 131.395 123.356C129.148 123.29 128.229 120.723 129.634 119.099C131.068 117.44 133.577 117.078 135.566 117.883C135.63 117.85 135.696 117.815 135.76 117.779C135.665 117.343 135.686 116.947 135.794 116.6L135.763 116.388C135.326 115.717 135.038 114.951 134.929 114.142C134.843 113.501 134.86 112.865 135.009 112.232C135.058 112.021 135.161 111.803 135.239 111.583C135.078 111.175 134.983 110.753 134.953 110.329C134.908 110.275 134.863 110.22 134.82 110.16C133.834 108.775 134.033 107.106 134.972 105.985C134.976 105.913 134.983 105.842 134.992 105.771C134.937 105.648 134.887 105.523 134.841 105.396C133.924 104.471 133.25 103.357 133.376 101.977C133.449 101.165 133.783 100.434 134.288 99.8877C134.199 99.6227 134.19 99.3158 134.299 99.0596C133.493 96.9156 133.594 94.3334 134.175 91.9355C134.047 91.5705 133.98 91.1747 133.994 90.7552C134.061 88.9753 135.601 87.3399 137.426 87.3612C137.646 87.3631 137.851 87.3918 138.049 87.4338L138.052 87.3913C138.122 86.8571 138.269 86.3634 138.483 85.9205C138.378 85.8823 138.28 85.8275 138.194 85.7548C137.025 86.3786 135.788 86.8555 134.491 87.1804C133.537 87.4193 132.56 86.335 133.152 85.4396C133.428 85.0241 133.731 84.651 134.058 84.3102C133.593 84.3128 133.121 84.3443 132.644 84.4057C131.786 84.5171 130.828 83.9317 130.271 83.1401C129.579 83.8132 128.885 84.4839 128.191 85.1547C126.432 86.8588 123.776 85.605 123.498 83.3581C122.975 83.2183 122.486 82.9813 122.057 82.6424C119.285 83.8464 116.301 84.5076 113.251 84.6333C111.061 84.7233 109.781 82.1731 110.805 80.3718C111.492 79.1631 112.346 78.0776 113.329 77.1343C111.803 77.6012 110.227 77.9377 108.618 78.1534C107.748 78.2695 106.518 77.549 106.17 76.7503C104.838 73.6786 104.952 70.4766 106.485 67.4879C106.544 67.3694 106.61 67.2557 106.674 67.1419C106.833 66.7461 107.006 66.355 107.193 65.9711C105.307 64.0039 105.144 61.0792 106.16 58.6309C105.753 57.9696 105.596 57.1733 105.873 56.4528C106.663 54.3789 107.8 52.4639 109.236 50.819C109.099 50.5536 108.978 50.2715 108.876 49.9682C108.068 47.5151 109.004 44.5549 110.893 42.846C112.08 41.77 113.445 41.1253 114.903 40.7129C115.517 39.6274 116.306 38.6486 117.225 37.8238C117.261 37.7456 117.296 37.6673 117.337 37.5891C118.768 34.892 121.375 33.4462 124.169 33.112C124.278 32.0573 124.989 31.05 126.022 30.7229C126.307 29.8105 126.731 28.9383 127.314 28.1467C128.231 26.9 129.755 26.3122 131.191 27.1299C131.978 27.5778 132.731 28.0921 133.438 28.661C133.755 28.5122 134.114 28.4159 134.52 28.3852L134.623 28.3789L136.959 28.2604C137.938 27.8267 138.914 27.3716 139.893 26.9284C140.481 26.4425 141.137 26.0373 141.853 25.7363C142.664 25.3973 143.493 25.2054 144.325 25.1414C145 24.9209 145.68 24.7266 146.372 24.5749C147.998 24.2194 149.7 24.0203 151.387 24.0369C151.422 23.6001 151.439 23.1581 151.435 22.7109L151.432 22.4869C151.394 21.0529 152.539 19.9082 153.887 19.7044ZM152.25 134.429C152.017 134.479 151.783 134.519 151.548 134.548C151.619 134.723 151.69 134.898 151.759 135.074C151.949 135.18 152.141 135.282 152.333 135.377C152.276 135.055 152.243 134.73 152.25 134.429ZM140.074 130.811L139.916 131.101C139.891 131.148 139.866 131.195 139.841 131.241C140.175 131.215 140.512 131.222 140.843 131.26L140.843 131.225C140.8 131.21 140.757 131.197 140.716 131.177C140.488 131.067 140.275 130.944 140.074 130.811ZM146.654 117.573C148.751 117.695 150.527 118.017 152.434 118.934L152.598 119.014C154.283 119.851 157.07 121.396 156.835 123.612C156.769 124.242 156.312 124.906 155.591 124.856C153.617 124.721 152.489 122.73 151.152 121.488C149.804 120.237 148.147 118.95 146.515 118.09C146.284 117.968 146.375 117.585 146.626 117.573L146.654 117.573ZM137.146 88.3756C136.644 88.3922 136.812 88.8805 137.071 88.4728C137.092 88.4396 137.118 88.4064 137.146 88.3756ZM164.266 55.7815C159.508 55.9067 154.719 58.7164 151.155 61.5565C148.054 64.0274 145.376 66.9663 143.005 70.1339C142.395 71.7115 141.871 73.3219 141.429 74.9443C141.137 76.0156 140.955 77.0987 140.711 78.1795L140.635 78.5108C140.443 78.8692 140.301 79.2548 140.197 79.6532C140.629 80.0865 141.189 80.3967 141.807 80.5439C142.005 80.5913 142.171 80.6939 142.301 80.83C142.798 80.0009 143.232 79.1259 143.485 78.1982L143.494 78.1553C144.449 76.5913 145.486 75.0758 146.598 73.6123C149.664 69.5713 153.041 65.8881 157.101 62.8236C160.179 60.5009 163.62 58.6807 167.28 57.498C166.384 56.7753 165.367 56.2037 164.266 55.7815Z" fill="black"/>
<path fill-rule="evenodd" clip-rule="evenodd" d="M188.991 140.015C190.891 136.223 208.32 137.928 208.32 137.928L209.792 149.982C209.792 149.982 201.383 152.679 196.377 152.114C191.371 151.549 187.09 143.808 188.991 140.015Z" fill="white"/>
<path fill-rule="evenodd" clip-rule="evenodd" d="M190.219 146.347C189.617 145.061 202.077 141.556 205.934 143.951C209.792 146.347 208.586 149.614 208.586 149.614C208.586 149.614 192.36 153.308 190.219 146.347Z" fill="#FF8181"/>
<path fill-rule="evenodd" clip-rule="evenodd" d="M187.91 137.771C190.818 134.399 195.716 134.164 199.774 135.007C202.378 135.548 204.913 136.45 207.558 136.784C208.793 136.94 210.041 136.987 211.285 136.964C212.508 136.942 213.732 136.696 214.949 136.742C215.137 136.748 215.207 136.994 215.045 137.093C213.374 138.118 211.124 138.446 209.15 138.646C209.156 138.792 209.165 138.934 209.185 139.055C209.239 139.377 209.288 139.696 209.328 140.02C209.418 140.75 209.518 141.478 209.618 142.207C209.815 143.641 209.877 145.121 210.224 146.53L210.284 146.764C210.364 147.061 210.383 147.328 210.356 147.569L210.436 147.532L210.69 147.41L210.856 147.332C211.462 147.051 212.041 146.847 212.754 146.915C213.297 146.966 213.753 147.336 213.756 147.914C213.77 150.511 210.263 151.346 208.258 151.843L207.67 151.987C205.117 152.609 202.51 153.154 199.885 153.284C195.671 153.493 190.936 152.333 188.18 148.922C185.608 145.74 185.137 140.987 187.91 137.771ZM207.045 148.68C206.603 144.771 201.789 144.556 200.404 147.035C199.79 143.58 190.7 146.737 191.41 147.424C194.105 150.027 198.193 150.262 201.708 149.78C203.497 149.535 205.289 149.135 207.045 148.68ZM201.703 138.435L200.492 138.261L200.016 138.195C197.016 137.794 193.642 137.587 191.175 139.507C190.275 140.207 189.768 141.121 189.578 142.103C191.912 141.758 194.255 141.494 196.604 141.275L197.245 141.216C198.715 141.084 200.185 140.945 201.653 140.798L202.697 140.693L203.74 140.585C204.108 140.546 206.582 140.42 207.047 140.505C207.097 140.088 207.162 139.185 207.267 138.779C205.509 138.839 203.758 138.708 202.011 138.477L201.703 138.435ZM207.273 120.962C209.067 122.05 211.799 124.587 209.87 127.284C207.599 129.662 204.329 126.935 202.718 125.702C201.224 124.746 199.546 127.204 200.932 128.32C212.574 136.922 217.299 121.246 208.18 119.683C207.176 119.511 206.803 120.625 207.273 120.962ZM210.483 125.545L210.569 125.498L210.598 125.481C210.648 125.448 210.616 125.452 210.502 125.491L210.416 125.522V125.583C210.438 125.569 210.461 125.559 210.483 125.545ZM187.515 115.88L187.514 115.826C187.518 114.315 188.4 110.864 190.58 110.864C191.942 110.864 192.769 113.213 192.912 115.634L192.917 115.732C192.98 117.237 192.566 120.527 190.58 120.527C188.573 120.527 187.535 117.411 187.515 115.88ZM219.613 115.406L219.613 115.352C219.61 113.841 218.728 110.39 216.548 110.39C215.22 110.39 214.4 112.623 214.227 114.978L214.215 115.16C214.129 116.614 214.517 120.053 216.548 120.053C218.555 120.053 219.592 116.937 219.613 115.406ZM188.759 100.56C190.538 100.29 192.894 100.803 193.724 102.608C194.093 103.412 193.655 104.302 192.724 104.347C190.472 104.454 188.453 103.954 186.476 105.415C185.626 106.044 184.911 106.915 184.311 107.784L184.084 108.114L183.896 108.386C183.488 108.984 183.102 109.634 183.163 110.355C183.18 110.569 182.962 110.771 182.754 110.763C181.459 110.71 181.319 109.089 181.489 108.116C181.806 106.309 182.682 104.613 183.897 103.248C185.172 101.813 186.855 100.849 188.759 100.56ZM213.265 102.752C214.492 101.965 216.061 101.663 217.499 101.778C220.332 102.006 225.087 104.41 224.461 107.865C224.268 108.93 222.783 109.492 221.908 108.901C220.968 108.266 220.739 107.278 220.038 106.448C219.48 105.784 218.772 105.304 218.014 104.896C217.267 104.492 216.402 104.248 215.554 104.159L215.413 104.145C214.903 104.102 212.326 104.114 212.704 105.074C212.778 105.262 212.498 105.411 212.369 105.268C211.579 104.396 212.474 103.26 213.265 102.752Z" fill="black"/>
</g>
<defs>
<filter id="filter0_d_10_20021" x="0.263672" y="0" width="398.67" height="788" filterUnits="userSpaceOnUse" color-interpolation-filters="sRGB">
<feFlood flood-opacity="0" result="BackgroundImageFix"/>
<feColorMatrix in="SourceAlpha" type="matrix" values="0 0 0 0 0 0 0 0 0 0 0 0 0 0 0 0 0 0 127 0" result="hardAlpha"/>
<feOffset dy="4"/>
<feGaussianBlur stdDeviation="2"/>
<feComposite in2="hardAlpha" operator="out"/>
<feColorMatrix type="matrix" values="0 0 0 0 0 0 0 0 0 0 0 0 0 0 0 0 0 0 0.25 0"/>
<feBlend mode="normal" in2="BackgroundImageFix" result="effect1_dropShadow_10_20021"/>
<feBlend mode="normal" in="SourceGraphic" in2="effect1_dropShadow_10_20021" result="shape"/>
</filter>
</defs>
</svg>
