<svg width="224" height="260" viewBox="0 0 224 260" fill="none" xmlns="http://www.w3.org/2000/svg">
<g filter="url(#filter0_d_20_20443)">
<path fill-rule="evenodd" clip-rule="evenodd" d="M214.44 141.282C211.423 141.578 208.406 141.874 205.389 142.17C190.941 143.274 176.499 145.581 162.161 146.965C161.804 146.384 161.106 146.479 160.681 146.883C159.251 146.758 157.647 145.664 156.351 146.802C156.309 146.796 156.267 146.789 156.225 146.785C153.917 142.354 152.322 137.629 150.774 132.897C149.786 129.988 148.457 127.171 146 125.218C141.808 122.307 132.202 116.403 127.279 116.651C127.197 115.77 126.786 114.861 126.112 114.274C127.599 111.738 121.653 110.083 121.234 110.377C121.503 101.904 117.519 94.5464 108.734 92.8592C100.865 91.2187 89.6711 90.9431 85.4385 99.1707C84.9732 99.1183 80.2174 99.0936 79.7572 99.1451C79.0417 98.2387 71.1848 106.828 74.405 109.819C45.615 122.559 29.245 121.039 21.2764 156.856C20.1991 160.221 20.1207 163.903 18.9831 167.193C14.936 176.647 11.6534 186.714 10.8364 197C8.86331 197.506 8.63639 200.986 10.9219 201.49C11.7949 201.682 12.5249 201.945 13.1615 202.444C12.6638 210.874 14.7019 230.131 15.986 230.071C18.6043 238.408 30.2836 240.76 38.552 237.831C37.1267 240.514 38.552 242.2 38.552 243.634C68.3042 244.76 100.835 244.111 130.579 245.656C134.384 245.601 138.386 246.59 142.138 246.021C144.427 245.472 144.431 241.872 142.109 241.427L152.253 239.223C152.026 239.138 156.434 236.205 159.766 230.724C162.867 224.592 160.756 217.191 162.161 210.522C173.135 209.624 184.291 209.24 195.145 207.381C196.625 211.811 203.031 206.513 205.068 204.382C205.065 204.379 205.063 204.375 205.06 204.372C206.046 204.102 206.836 203.178 206.862 202.084C207.554 201.097 207.699 199.704 207.036 198.749C210.074 181.214 214.705 163.31 216.378 145.61C216.97 145.479 217.527 145.22 218 144.82L217.962 144.781C218.762 143.889 218.918 142.348 217.583 141.589C216.507 140.977 215.608 141.167 214.44 141.282Z" fill="#FDC8A3"/>
<path fill-rule="evenodd" clip-rule="evenodd" d="M99.7043 206.912L102.028 208.391L121.042 214.521L132.662 216L142.169 214.521V230.795L144.07 246.012C143.225 247.562 135.197 247.562 119.986 246.012C110.289 245.024 74.8499 244.544 66.7812 244.333L66.324 244.321C56.8424 244.047 47.4762 244.047 38.2254 244.321V238.615L64.6338 225.511L88.2958 212.196L99.7043 206.912ZM86.2315 97.8408L87.9778 99.1453L84.1651 105.412L102.738 120.441V132.446L108.618 138.009L111.979 132.446L116.715 126.145L120.081 115.932L118.935 109.203L121.24 108.986C121.251 109.446 121.249 109.91 121.234 110.377C121.653 110.083 127.599 111.738 126.112 114.274C126.786 114.861 127.197 115.77 127.279 116.651C132.202 116.403 141.808 122.307 146 125.218C148.457 127.172 149.786 129.988 150.774 132.897L151.007 133.607L151.247 134.335L151.489 135.063C152.826 139.065 154.27 143.031 156.225 146.785C156.267 146.789 156.309 146.796 156.351 146.802C157.647 145.664 159.251 146.758 160.681 146.883C161.096 146.489 161.772 146.388 162.136 146.926L162.161 146.965L144.336 150.478L132.577 191.743L122.336 183.427L116.84 184.245L102.324 189.482L85.4407 193.869L46.8991 204.499H41.9909L13.4308 197.6L10.8569 196.75C11.7069 186.55 14.969 176.57 18.9832 167.193C20.1208 163.903 20.1992 160.221 21.2765 156.857C29.2451 121.039 45.6151 122.56 74.4051 109.819C71.1849 106.829 79.0418 98.2388 79.7573 99.1453L79.8024 99.1414L79.8999 99.1362L80.0255 99.1318C81.1486 99.0991 85.0211 99.1239 85.4386 99.1709C85.6807 98.7002 85.9457 98.2572 86.2315 97.8408Z" fill="#DA0037"/>
<path fill-rule="evenodd" clip-rule="evenodd" d="M217.289 142.535L216.758 145.495C216.632 145.536 216.503 145.571 216.373 145.6C216.206 147.364 216.01 149.131 215.789 150.899L212.497 169.252C211.93 172.499 211.391 175.753 210.856 179.008L210.147 182.505L209.707 184.678C208.76 189.384 207.839 194.074 207.031 198.739C207.153 198.915 207.247 199.105 207.316 199.305L207.254 199.568L207.211 199.744L207.166 199.917C206.529 202.369 205.42 204.746 202.805 205.468C200.833 206.012 198.669 206.061 196.633 206.276L196.407 206.3L160.775 210.309C156.47 210.793 152.166 211.292 147.863 211.796L144.133 212.234C138.934 212.836 133.704 213.31 128.582 214.4C128.393 214.44 128.237 214.516 128.11 214.615C129.142 210.708 130.129 206.807 131.024 202.861C132.032 198.42 132.988 193.97 134.065 189.545C136.236 180.63 138.669 171.774 141.332 162.994C141.891 161.151 142.463 159.312 143.048 157.477L143.458 156.195L143.773 155.173C144.262 153.614 144.866 152.012 146.298 151.153C147.975 150.147 150.26 149.98 152.161 149.632L153.449 149.39C155.375 149.031 157.303 148.685 159.234 148.353C168.478 146.762 177.775 145.486 187.105 144.528C196.815 143.53 206.558 142.882 216.313 142.565L217.289 142.535ZM128.849 203.73L128.939 203.737L127.608 214.381C127.396 214.232 127.126 214.141 126.796 214.142C122.43 214.154 118.245 212.759 114.197 211.224L113.581 210.989L111.862 210.328C110.115 209.659 108.359 209.004 106.57 208.461L105.847 208.242L105.479 208.134C104.125 207.738 102.7 207.379 101.291 207.289L101.099 207.279L101.509 207.063C101.569 207.032 101.622 206.997 101.668 206.958C102.444 207.016 103.221 207 104.039 206.853C105.577 206.576 107.073 206.04 108.447 205.295L109.06 204.962L109.312 204.829L109.478 204.743L109.643 204.659C110.822 204.071 111.95 203.703 113.44 204.016C115.131 204.372 116.613 205.284 118.137 206.054L118.408 206.189L118.59 206.277L118.775 206.364L118.963 206.45C121.024 207.378 124.305 208.379 125.095 205.576C125.413 204.449 125.164 203.394 124.613 202.469C125.64 202.38 127.474 203.592 128.849 203.73Z" fill="white"/>
<path fill-rule="evenodd" clip-rule="evenodd" d="M85.9871 97.2599C86.8835 95.0062 89.9137 95.8823 89.5759 98.2498C89.3737 99.668 88.5973 101.166 87.8999 102.409C87.332 103.421 86.6843 104.408 85.806 105.166C87.3694 106.625 88.9921 108.031 90.6561 109.366C92.4717 110.823 94.3809 112.165 96.3544 113.399C98.0849 114.481 99.8936 115.44 101.525 116.675C103.041 117.822 104.423 119.203 105.126 121.005C105.875 122.924 105.55 124.906 104.998 126.824L104.935 127.041C104.371 128.941 103.396 131.231 104.748 133.021C105.437 133.933 106.438 134.578 107.302 135.307C108.07 135.954 108.792 136.659 109.453 137.415C110.895 139.064 112.067 140.919 112.807 142.987L112.874 143.175C113.508 145.005 113.972 147.247 113.114 149.044C112.869 149.559 112.075 149.391 111.938 148.89C111.626 147.754 111.643 146.564 111.381 145.411C111.11 144.213 110.658 143.076 110.067 141.999C108.925 139.917 107.377 138.139 105.549 136.635L105.002 136.19C103.576 135.019 102.266 133.777 101.976 131.84C101.667 129.767 102.497 127.792 103.031 125.83C103.403 124.462 103.524 123.151 103.122 121.916C102.631 122.718 101.961 123.479 101.431 124.158C100.375 125.511 99.3094 126.855 98.2465 128.203C97.1568 129.584 96.0939 130.987 95.0817 132.427C94.629 133.071 94.1811 133.718 93.7347 134.367C93.399 134.854 92.9308 135.341 92.5649 135.838C92.6538 136.104 92.6471 136.411 92.4859 136.628C90.5454 139.251 87.7847 133.778 87.0647 132.396C85.5986 129.58 84.5074 126.589 83.0363 123.773C81.512 120.855 79.7762 118.014 77.8417 115.35C76.6714 113.739 75.3599 112.225 74.2894 110.562C71.7675 112.85 68.4489 114.383 65.4007 115.774C62.0516 117.302 58.5722 118.55 55.1385 119.875L54.1242 120.269C48.2077 122.579 42.1466 125.117 37.2288 129.22C31.45 134.042 28.0313 140.762 25.4862 147.721C22.5563 155.732 20.1324 163.959 17.8729 172.181C16.7167 176.388 15.6195 180.614 14.5881 184.854C13.6793 188.589 12.9259 192.361 11.8738 196.057C14.0076 195.982 16.4412 196.808 18.2629 197.047C26.5655 198.134 34.7564 199.867 42.595 202.868C43.5633 203.239 43.8434 204.206 43.6326 204.99C44.191 204.832 44.7489 204.673 45.3073 204.516C44.6955 203.578 44.9875 201.901 45.0356 200.862L45.0386 200.791C45.088 199.406 45.2382 198.019 45.3356 196.637C45.5211 194.001 45.7625 191.385 46.0835 188.765L46.1655 188.11C46.5293 185.259 46.7982 182.392 47.1952 179.546L47.2421 179.22C47.0517 178.492 46.8301 177.773 46.5975 177.057C45.9776 175.15 45.1028 173.354 44.3361 171.507C44.2457 171.289 44.5554 171.164 44.7001 171.295C45.9986 172.463 47.03 173.946 47.8586 175.496C47.8729 175.423 47.8856 175.35 47.9006 175.277L47.9951 174.811C48.2283 173.676 48.5119 172.481 49.2081 171.56C49.2823 171.462 49.4289 171.442 49.499 171.56C50.1654 172.688 50.24 174.117 50.3424 175.4C50.4584 176.852 50.473 178.323 50.4525 179.779C50.4126 182.624 50.2121 185.477 50.0524 188.318C49.8957 191.11 49.588 193.866 49.1914 196.63L49.116 197.148C48.9222 198.464 48.7635 199.796 48.5078 201.103L48.4355 201.459C48.2988 202.107 48.2148 203.02 47.9426 203.779C54.9436 201.826 61.9554 199.917 68.9805 198.041C74.0578 196.686 79.1405 195.351 84.2211 194.007C84.4892 193.523 84.823 193.072 85.2396 192.668C86.6122 191.339 88.4312 190.745 90.0996 191.769C90.2352 191.852 90.2467 192.065 90.0996 192.146C89.78 192.32 89.4597 192.5 89.1451 192.686L92.1958 191.86C94.476 191.242 96.7835 190.469 99.1174 190.038C103.416 187.916 108.039 186.38 112.568 184.862L113.101 184.681C115.42 183.89 117.818 183.005 120.214 182.567C121.967 182.246 124.026 182.633 124.731 184.43C125.624 185.019 126.464 185.711 127.275 186.391C127.861 186.883 128.422 187.405 128.994 187.914L129.099 188.007C129.566 188.412 129.936 188.684 130.051 189.329C130.11 189.662 129.898 190.113 129.487 190.069C128.23 189.934 127.208 188.476 126.355 187.606C125.696 186.933 125.032 186.237 124.431 185.497C124.081 185.688 123.6 185.654 123.377 185.231C122.22 183.04 119.051 184.558 117.297 185.078L114.785 185.822C113.53 186.194 112.274 186.569 111.021 186.949C107.576 187.996 104.149 189.167 100.673 190.128C100.984 190.47 100.941 191.078 100.35 191.309C97.6296 192.377 94.6448 192.93 91.8183 193.662C90.0337 194.126 88.2502 194.591 86.4673 195.06C86.1616 195.555 85.9417 196.116 85.8491 196.768C85.5089 199.167 86.1651 201.935 86.8043 204.255L86.9006 204.601C87.426 206.467 88.199 208.754 89.8079 209.932C90.2006 210.219 90.7007 210.419 91.2048 210.464C94.3541 208.842 97.5033 207.221 100.654 205.602C101.238 205.302 101.777 205.708 101.908 206.191C103.019 206.009 104.128 205.721 105.138 205.378C106.834 204.802 108.159 203.703 109.749 202.943C112.827 201.472 115.969 203.278 118.724 204.652L119.359 204.964C120.595 205.564 123.165 206.716 123.758 205.076C124.332 203.489 122.519 201.793 121.348 201.079C119.952 200.227 118.327 199.772 116.75 199.392C115.849 199.175 114.938 198.998 114.021 198.869C112.98 198.723 111.906 198.745 110.904 198.407C110.406 198.24 110.33 197.449 110.904 197.318C112.446 196.967 114.286 197.35 115.895 197.741L116.736 197.949C118.357 198.347 119.994 198.846 121.471 199.64C122.544 200.217 123.677 201.094 124.418 202.168C125.061 201.571 125.861 201.591 126.694 201.812L127.147 201.938C127.894 202.145 128.499 202.288 129.226 202.144C129.323 201.615 129.422 201.086 129.527 200.557C130.563 195.355 131.699 190.172 132.952 185.018C135.114 176.127 137.616 167.333 140.437 158.63L140.72 157.76C141.37 155.769 141.894 153.6 142.943 151.772C143.934 150.042 145.524 149.046 147.412 148.519C149.554 147.92 151.806 147.607 153.992 147.203C154.479 147.113 154.968 147.027 155.456 146.938C155.044 146.193 154.736 145.348 154.459 144.699L154.41 144.586C153.814 143.228 153.279 141.845 152.762 140.454L152.376 139.409C151.443 136.891 150.48 134.415 149.168 132.061C147.787 129.583 145.955 127.557 143.671 125.881C139.015 122.462 133.404 120.718 128.888 117.064C128.703 116.915 128.94 116.659 129.128 116.753C132.177 118.286 135.469 119.328 138.64 120.576L139.266 120.823C141.773 121.817 144.318 122.899 146.488 124.509C148.907 126.304 150.812 128.533 152.244 131.183C153.656 133.796 154.558 136.72 155.554 139.511L155.82 140.254C156.222 141.37 156.637 142.481 157.112 143.566C157.49 144.428 158.194 145.411 158.514 146.395C159.389 146.243 160.265 146.091 161.142 145.944C180.127 142.773 199.326 140.91 218.566 140.365C219.319 140.344 219.708 141.062 219.598 141.719C217.751 152.642 216.11 163.602 214.31 174.533C213.524 179.304 212.722 184.071 211.902 188.836C211.486 191.25 211.006 193.655 210.612 196.072C210.295 198.025 210.064 199.993 209.518 201.9C209.029 203.61 208.278 205.259 207.045 206.563C205.716 207.97 203.86 208.651 201.993 208.972C197.252 209.788 192.389 210.122 187.609 210.666L162.163 213.562C162.535 216.943 162.562 220.272 162.392 223.692L162.295 225.56C162.215 227.062 162.12 228.566 161.904 230.053C161.634 231.917 160.781 233.496 159.525 234.889C158.372 236.168 156.971 237.26 155.608 238.305C154.193 239.391 152.732 240.439 151.068 241.111L150.852 241.197C149.393 241.766 146.656 242.649 144.661 242.326C144.922 243.633 145.427 245.038 144.979 246.331C144.772 246.932 143.987 247.231 143.506 246.72C142.554 245.708 142.479 244.37 142.254 243.05C142.019 241.675 141.816 240.295 141.637 238.913C141.289 236.239 141.018 233.54 140.936 230.844C140.851 228.075 140.883 225.302 141.033 222.536C141.109 221.115 141.204 219.696 141.385 218.284C141.462 217.682 141.54 217.08 141.63 216.48C141.663 216.261 141.699 216.043 141.738 215.825L139.454 216.083C135.952 216.474 132.448 216.827 128.921 216.882C128.504 216.889 128.182 216.698 127.972 216.421C127.749 216.786 127.359 217.047 126.801 217.045C121.876 217.026 117.289 215.415 112.809 213.516C110.551 212.559 108.328 211.522 106.067 210.573C103.956 209.687 101.7 209.055 99.6398 208.057L94.2271 210.897C94.1874 211.037 94.1365 211.169 94.0824 211.28C93.73 211.999 93.0352 212.39 92.3255 212.684C91.6444 212.966 90.939 213.054 90.2517 212.983C86.1467 215.135 82.0408 217.285 77.9321 219.43L73.8225 221.573C65.6346 225.838 57.479 230.172 49.2396 234.337L48.633 234.643C45.7871 236.07 42.7311 237.517 39.5729 238.597C39.5167 239.397 39.5521 240.175 39.6191 241.021L39.6352 241.205C39.7294 242.206 39.9313 243.459 39.1292 244.171C38.7119 244.541 37.9666 244.543 37.6829 243.985C37.168 242.972 37.6302 241.376 37.7933 240.276C37.8512 239.884 37.9218 239.482 38.0262 239.092C34.4055 240.17 30.6751 240.693 26.9906 240.088C23.4033 239.499 20.6249 237.238 18.385 234.472C16.0212 231.554 14.3414 228.154 13.4401 224.508C12.4144 220.36 12.3474 216.076 12.3715 211.826C12.3971 207.302 12.5644 202.754 13.1145 198.26C12.5118 198.118 11.8433 197.996 11.2343 198.038C10.9326 198.521 10.3474 198.724 9.81856 198.661C8.66863 199.93 11.5854 201.227 12.5175 201.551C12.8412 201.664 12.8065 202.19 12.4332 202.174L12.1981 202.163C10.7578 202.086 9.26976 201.84 8.42292 200.501C7.74433 199.428 7.9482 198.157 8.75715 197.281C9.29144 192.228 10.5688 187.306 11.7576 182.376C12.9242 177.537 14.2216 172.73 15.5967 167.946L16.2132 165.805C18.3783 158.305 20.6414 150.744 23.6281 143.541C25.1194 139.945 26.8374 136.415 29.1662 133.279C31.337 130.356 33.8999 127.854 36.8458 125.718C42.3377 121.735 48.7819 119.328 55.1136 117.035L55.397 116.933C58.6782 115.745 61.9514 114.544 65.1952 113.257C68.064 112.12 70.8124 110.677 73.6676 109.522C73.5749 109.354 73.4853 109.184 73.3991 109.011L73.3463 109.056C73.3373 109.063 73.3281 109.07 73.3184 109.076C73.0313 109.276 72.6086 109.178 72.3719 108.954C71.7038 108.324 71.93 107.624 72.376 106.969L72.434 106.886C72.9795 106.122 73.4661 105.314 73.9695 104.521L74.2848 104.026C75.1299 102.703 76.0179 101.37 77.1447 100.277C77.6665 99.7699 78.2378 99.3907 78.8431 99.1081C78.7913 98.9987 79.2451 98.7748 79.3738 98.8875C81.2914 98.1854 83.4977 98.3325 85.5884 98.5261M160.932 213.702L158.265 214.005C155.332 214.339 152.398 214.662 149.463 214.981L143.088 215.674C143.072 216.038 143.028 216.393 143.02 216.668C142.978 218.083 142.947 219.499 142.918 220.915C142.859 223.753 142.924 226.594 143.11 229.427C143.291 232.171 143.53 234.916 143.9 237.642L143.976 238.187L144.02 238.474C144.323 238.503 144.62 238.647 144.867 238.942C145.406 239.586 147.358 238.96 148.12 238.689C149.374 238.242 150.555 237.488 151.645 236.732C152.709 235.993 153.667 235.132 154.587 234.225L155.341 233.48C156.09 232.735 156.84 231.942 157.299 231.005C157.922 229.734 158.002 228.174 158.185 226.79C158.41 225.088 158.677 223.386 158.96 221.692M83.5326 195.834L83.256 195.906C73.21 198.577 63.1791 201.326 53.1022 203.878C48.1155 205.142 43.105 206.313 38.1121 207.553L37.3038 207.755C33.3649 208.751 29.3788 209.949 26.3625 212.807C26.2512 212.913 26.0895 212.751 26.1943 212.639C29.4451 209.177 34.0685 207.712 38.5076 206.441C39.3282 206.207 40.1498 205.977 40.9706 205.744C34.9334 203.591 28.801 201.717 22.5269 200.381C20.9114 200.037 19.277 199.785 17.6627 199.439C16.5369 199.198 15.4374 198.85 14.3235 198.561L13.4473 198.341L13.4357 201.111C13.4211 205.035 13.428 208.955 13.6281 212.878L13.666 213.605C13.8995 217.971 14.2639 222.428 15.8126 226.544C17.0712 229.89 19.0771 233.041 21.7005 235.478C23.0279 236.71 24.455 237.67 26.219 238.144C27.857 238.584 29.5731 238.635 31.2569 238.518C39.3335 237.954 46.5229 233.565 53.5387 229.931C65.0141 223.988 76.4908 218.047 87.9779 212.126C87.6673 211.913 87.3749 211.669 87.1089 211.394C85.5686 209.802 84.756 207.624 84.2224 205.514C83.6543 203.268 83.3145 200.861 83.275 198.542M98.1487 214.42C98.2501 214.366 98.3676 214.434 98.3722 214.549C98.4077 215.426 97.9229 216.292 97.5606 217.083L97.5223 217.167C97.0822 218.146 96.6003 219.113 96.102 220.064C95.1058 221.964 94.0706 223.844 92.9902 225.697C90.8175 229.426 88.4032 232.997 85.5494 236.243C84.9048 236.977 83.8446 236.037 84.2583 235.247C86.2527 231.44 88.5777 227.846 90.9709 224.284C92.169 222.5 93.3663 220.714 94.5762 218.939C95.0809 218.198 95.5921 217.459 96.1171 216.732L96.4339 216.297M217.294 142.545C207.213 142.85 197.144 143.507 187.111 144.538C177.78 145.497 168.483 146.772 159.239 148.363C157.308 148.695 155.38 149.041 153.454 149.401L152.298 149.618C150.372 149.983 148.019 150.134 146.304 151.163C144.496 152.249 144.007 154.517 143.405 156.387C142.698 158.587 142.008 160.793 141.338 163.004C138.674 171.785 136.241 180.641 134.07 189.555C132.993 193.981 132.037 198.43 131.03 202.871C130.135 206.817 129.147 210.719 128.116 214.625C128.243 214.526 128.399 214.451 128.587 214.411C133.71 213.32 138.939 212.846 144.138 212.244L144.641 212.185C150.02 211.553 155.399 210.924 160.78 210.319L196.413 206.31C198.514 206.074 200.765 206.042 202.81 205.478C206.287 204.518 207.102 200.63 207.686 197.533L207.703 197.439C209.462 188.082 210.862 178.643 212.503 169.263M128.945 203.748C127.561 203.656 125.668 202.389 124.618 202.48C125.169 203.405 125.418 204.459 125.101 205.586C124.217 208.721 120.22 207.099 118.295 206.141C116.717 205.356 115.193 204.394 113.445 204.026C111.466 203.61 110.125 204.398 108.452 205.305C107.079 206.051 105.583 206.586 104.044 206.863C103.226 207.011 102.449 207.026 101.673 206.969C101.627 207.007 101.574 207.042 101.514 207.074L101.104 207.289C102.959 207.374 104.849 207.947 106.575 208.471C108.364 209.014 110.12 209.669 111.867 210.339L113.586 210.999C117.825 212.623 122.213 214.166 126.801 214.152C127.131 214.151 127.401 214.242 127.614 214.391M121.205 193.925C122.572 193.758 123.833 193.937 124.925 194.827C126.242 195.901 127.127 197.681 129.02 197.798C129.572 197.832 129.701 198.608 129.152 198.77C127.742 199.188 126.601 198.425 125.641 197.435L124.996 196.76C124.047 195.777 123.172 195.017 121.561 195.076C119.837 195.139 118.11 195.537 116.397 195.74C114.456 195.97 112.516 196.165 110.569 196.334C110.478 196.342 110.463 196.199 110.548 196.179L112.728 195.636M119.886 188.336L120.111 188.313C122.096 188.121 123.911 188.113 125.683 189.181L126.023 189.387C127.621 190.358 129.36 191.503 130.36 193.076C130.523 193.334 130.253 193.637 129.979 193.571C128.059 193.11 126.655 191.7 125.039 190.645C123.227 189.461 121.354 189.657 119.287 189.841C117.286 190.019 115.286 190.263 113.305 190.597C111.443 190.91 109.575 191.405 107.694 191.563L107.695 191.559C107.48 191.558 107.357 191.236 107.576 191.126C109.485 190.173 111.696 189.722 113.772 189.286M51.9288 134.35C51.9262 134.193 52.147 134.134 52.2241 134.27C53.5154 136.543 54.1904 139.329 54.8783 141.833C55.5987 144.455 56.1803 147.105 56.7028 149.774C57.761 155.178 58.3249 160.552 58.3632 166.06C58.3684 166.846 57.0877 167.055 56.9624 166.25C56.1307 160.892 55.3338 155.528 54.4957 150.172C54.074 147.478 53.5832 144.794 53.1136 142.108M64.7122 138.309C64.6171 137.995 65.073 137.89 65.1896 138.177C67.781 144.54 68.6586 151.752 66.9949 158.466C66.7403 159.493 65.2367 159.048 65.4288 158.034M98.1384 132.654C98.1253 132.42 98.4297 132.383 98.5444 132.544C99.7723 134.275 100.282 136.593 102.436 137.487C103.512 137.934 104.722 137.856 105.672 138.61C106.307 139.115 106.795 139.911 106.318 140.675C106.164 140.922 105.733 141.046 105.525 140.777C105.22 140.387 105.059 139.919 104.645 139.626C104.061 139.213 103.274 139.187 102.605 138.993C101.739 138.742 100.976 138.302 100.351 137.649M118.652 103.787C118.779 103.723 118.9 103.764 118.981 103.873C119.097 104.029 119.082 104.181 118.941 104.288C119.13 104.675 119.353 105.643 119.385 105.784C119.514 106.355 119.652 106.924 119.796 107.491C120.086 108.636 120.341 109.79 120.631 110.935C120.939 112.149 121.306 113.35 121.714 114.534C121.741 114.611 121.77 114.689 121.8 114.768L121.847 114.888L121.858 114.87C121.941 114.739 122.114 114.831 122.093 114.969C122.074 115.096 122.049 115.221 122.027 115.348L122.07 115.461C122.337 116.18 122.52 116.938 122.03 117.572C121.847 117.81 121.645 117.95 121.393 117.992C120.99 119.322 120.485 120.626 119.943 121.879L119.784 122.245C118.988 124.073 118.138 125.877 116.87 127.434C115.486 129.133 113.581 130.293 112.375 132.155C111.814 133.021 111.423 133.932 111.106 134.91L110.987 135.282C110.762 135.973 110.503 136.644 109.854 137.05C109.647 137.179 109.337 137.138 109.17 136.961C107.84 135.554 109.232 132.925 110.034 131.562C111.15 129.667 112.763 128.454 114.379 127.024C116.121 125.483 117.232 123.421 118.307 121.389C118.965 120.145 119.601 118.874 120.27 117.624C119.571 117.006 119.347 115.778 119.11 114.925L119.089 114.848C118.697 113.482 118.386 112.079 118.19 110.671C118.001 109.317 117.922 107.983 117.972 106.621L117.986 106.274M121.251 110.232C121.097 110.02 121.352 109.78 121.564 109.824C122.853 110.091 124.112 110.871 125.269 111.502L125.392 111.569C126.315 112.066 127.244 112.676 127.728 113.644C128.256 114.695 128.212 115.906 128.14 117.049L128.133 117.156C128.045 118.526 128.031 119.949 127.741 121.295C127.593 121.983 126.97 122.177 126.437 122.015C125.802 124.018 124.021 125.494 122.719 127.075C121.06 129.091 121.372 131.812 121.546 134.239C121.616 135.222 120.394 135.501 119.764 134.977L118.314 133.772C118.073 133.571 117.831 133.369 117.591 133.167C117.385 132.993 117.18 132.818 116.978 132.641L116.676 132.374C116.541 132.254 115.95 131.593 115.777 131.565C115.357 131.499 114.362 132.604 114.021 132.95L113.978 132.994C113.336 133.623 112.757 134.3 112.217 135.018C112.118 135.15 111.924 135.04 111.995 134.888C112.478 133.851 113.041 132.86 113.709 131.933L113.843 131.748C114.288 131.149 114.884 130.091 115.668 129.915C116.626 129.699 117.582 130.659 118.279 131.193L118.323 131.226C118.654 131.475 118.982 131.728 119.309 131.983C119.275 130.176 119.503 128.35 120.436 126.792C121.094 125.694 122.079 124.88 122.922 123.936C123.861 122.885 124.351 121.594 125.201 120.499C125.31 120.358 125.461 120.282 125.624 120.258C125.657 119.378 125.786 118.49 125.886 117.619L125.916 117.358C126.017 116.413 126.256 115.257 125.793 114.372C125.356 113.535 124.352 112.945 123.61 112.377L123.003 111.906M79.4382 100.231C79.0503 100.455 78.6878 100.734 78.3588 101.083C77.3234 102.182 76.5831 103.55 75.8627 104.865C75.4748 105.574 75.1009 106.29 74.7098 106.997C74.5398 107.304 74.3648 107.608 74.188 107.912C74.1062 108.052 73.8633 108.33 73.7429 108.501C73.8767 108.689 74.015 108.874 74.1561 109.056C74.21 109.126 77.9242 113.174 79.2189 114.758C81.2015 117.184 82.9736 119.747 84.4886 122.491C85.9721 125.177 87.1015 128.021 88.4758 130.76C89.1637 132.131 89.9319 133.492 90.9111 134.679C90.9489 134.725 90.9888 134.769 91.0275 134.815C91.4012 133.804 92.3588 132.723 92.8292 132.102L92.8731 132.043C93.9398 130.605 95.0663 129.21 96.2173 127.838C97.2686 126.586 98.3465 125.361 99.4506 124.156L99.8659 123.705C100.635 122.874 101.612 121.63 102.738 121.036C102.618 120.821 102.478 120.608 102.317 120.398C101.262 119.019 99.7709 118.018 98.2993 117.115L97.3449 116.534C93.7475 114.341 90.2061 112.046 87.0829 109.196C85.4306 107.689 83.8011 106.109 82.4122 104.35L81.921 103.729M85.4407 99.1451C83.7561 99.2865 81.9369 99.2529 80.38 99.802C81.7641 101.111 83.0796 102.524 84.4311 103.855C84.5513 102.955 84.7972 102.066 85.0055 101.188" fill="black"/>
<path fill-rule="evenodd" clip-rule="evenodd" d="M112.127 107.676C107.448 107.704 103.471 106.373 100.436 104.171C96.6493 102.817 92.0817 100.729 89.3073 98.5373C88.2251 98.8142 86.9302 97.6617 86.1021 97.0534C80.9528 93.1986 76.9109 87.5562 75.7133 81.9043C73.8643 84.2439 71.2333 84.3411 68.7129 83.1783C63.4297 80.1746 63.6273 73.8499 65.5293 69.1246C61.5306 60.1301 58.7594 36.3858 64.8633 26.8029C66.1118 25.3691 67.944 24.5115 69.2632 23.0411C70.437 21.7569 71.5535 20.4434 72.9192 19.4272C77.0863 16.2477 84.2636 14.5548 88.7574 13.7586C107.517 9.69264 121.93 17.0007 138.923 23.1652C137.945 25.6168 136.592 27.8527 135.042 29.9375C139.26 31.516 137.323 35.0652 134.05 36.8645L132.101 35.9151C135.139 46.8093 142.129 73.9006 139.113 82.6005C136.708 96.1734 126.153 107.775 112.127 107.676" fill="#FDC8A3"/>
<path fill-rule="evenodd" clip-rule="evenodd" d="M121.248 16.7665C110.964 13.3191 100.72 11.2479 88.6879 13.8558C84.194 14.6519 77.0168 16.3448 72.8496 19.5244C71.6743 20.3989 70.6835 21.4938 69.6818 22.6005C69.5196 22.7798 69.3572 22.9593 69.1936 23.1383C68.5392 23.8677 67.7586 24.4463 66.9856 25.0192C66.2003 25.6013 65.4229 26.1775 64.7937 26.9001C58.7605 36.372 61.3981 59.6793 65.3213 68.9034H65.5131H65.9157L66.1374 68.5689L66.1375 68.5688L66.1378 68.5684L66.138 68.5681L121.248 16.7665ZM132.631 38.1862C132.484 37.6485 132.343 37.1358 132.209 36.6508L132.062 38.1862H132.631ZM132.26 36.1234L133.679 21.3356C135.382 21.9809 137.104 22.6277 138.853 23.2623C137.875 25.714 136.522 27.9499 134.972 30.0346C139.191 31.6132 137.253 35.1624 133.98 36.9616L132.26 36.1234Z" fill="#F4D49B"/>
<path fill-rule="evenodd" clip-rule="evenodd" d="M114.837 108.845C108.762 109.471 101.543 108.031 97.493 103.082C97.3719 102.934 97.3188 102.767 97.3157 102.605C97.3122 102.425 97.3724 102.251 97.4766 102.115C97.5861 101.973 97.742 101.874 97.9207 101.842C98.0711 101.815 98.2426 101.832 98.4195 101.932L98.7918 102.139C101.558 103.671 104.431 104.977 107.566 105.536C110.794 106.112 114.081 106.048 117.28 105.317C123.107 103.986 127.823 100.59 131.294 96.1131C135.168 91.1169 137.494 84.7747 138.087 78.4321C138.806 70.7456 137.139 63.1059 135.414 55.6634C133.603 47.8432 131.622 40.0629 129.321 32.3729C129.252 32.1415 129.233 31.9248 129.253 31.7252C128.575 31.4587 127.853 31.5327 127.134 31.776C125.821 32.2205 124.512 33.223 123.421 34.0504C123.026 34.3501 122.658 34.6287 122.328 34.8553C120.975 35.7835 119.496 36.4513 117.842 36.5564C116.122 36.6653 114.435 36.1294 112.873 35.4587C112.079 35.118 111.299 34.7645 110.521 34.4124C108.306 33.41 106.118 32.4174 103.726 31.7723C100.521 30.9077 97.2127 30.4819 93.8938 30.5124C87.9707 30.5667 82.0293 32.0951 78.3991 37.1172C76.9286 39.1516 75.9698 41.4898 76.7175 44.0005C77.1243 45.3663 77.8919 46.6062 78.7297 47.7466L79.0172 48.135C79.4768 48.761 79.876 49.3844 79.9963 50.0482C80.0972 50.6043 80.0185 51.1925 79.6224 51.8373C79.3732 52.2432 79.0559 52.6071 78.7369 52.9699C78.5067 53.2316 78.276 53.4928 78.0774 53.774C77.6773 54.341 77.323 54.9517 77.0451 55.5886C76.501 56.8353 76.2702 58.1764 76.222 59.529C76.1635 61.1608 76.3924 62.7572 76.6194 64.3558C76.7804 65.4893 76.941 66.624 77.0058 67.7724C77.0171 67.9728 76.956 68.1221 76.8704 68.2326C76.7657 68.3678 76.6128 68.453 76.4388 68.4766C76.386 68.4838 76.3313 68.4849 76.2764 68.4801C76.3034 68.5905 76.3272 68.7015 76.3479 68.8129C76.2379 68.6712 76.121 68.5336 75.9975 68.4007C75.9896 68.3967 75.9818 68.3926 75.974 68.3883C75.8467 68.3182 75.7389 68.2114 75.6709 68.0738C75.4961 67.9109 75.3109 67.7564 75.1167 67.6111C74.106 66.8552 72.9258 66.4071 71.7419 66.3922C70.6006 66.3779 69.4565 66.7675 68.5769 67.5903C66.8284 69.2255 66.3163 71.895 66.298 74.187C66.2795 76.5267 66.8196 79.3346 68.8544 80.7873C69.6707 81.37 70.6676 81.7201 71.6719 81.7302C72.5044 81.7386 73.301 81.4433 74.0853 81.162C74.3272 81.0752 74.5679 80.989 74.8081 80.9106C75.0809 80.8216 75.3296 80.8272 75.5463 80.8923C75.7906 80.9657 75.9979 81.1171 76.1528 81.3192C76.3071 81.5204 76.4082 81.7723 76.4396 82.0362C76.4699 82.2916 76.435 82.5569 76.3271 82.796C76.3 82.8562 76.2714 82.9147 76.2417 82.9718L76.6893 83.7095C78.403 86.5271 80.1466 89.2933 82.4332 91.715C83.7456 93.1051 85.1367 94.4168 86.6627 95.5651L86.8828 95.7289C87.0145 95.8258 87.1605 95.9453 87.3163 96.0731C87.7614 96.4381 88.2949 96.9276 88.7929 96.9469C88.9407 96.9526 89.0697 96.9341 89.187 96.9187C89.4706 96.8813 89.7086 96.8704 89.9423 96.966C90.1304 97.0429 90.3255 97.1865 90.5259 97.4831C90.6615 97.6839 90.731 97.9356 90.731 98.1911C90.731 98.4477 90.6606 98.7044 90.5353 98.9073C90.2761 99.3273 89.9624 99.5875 89.6222 99.7352C89.2428 99.8999 88.8235 99.9251 88.3877 99.8436C87.3141 99.6428 86.1256 98.7513 85.3694 98.1696L85.2231 98.0572C83.5473 96.7758 81.9591 95.3579 80.563 93.7722C78.1853 91.0719 76.0499 87.8898 74.9531 84.4129C74.18 84.922 73.2248 85.1637 72.2262 85.2017C70.7713 85.2572 69.2315 84.8819 68.0968 84.3425C65.596 83.1536 64.0771 80.9051 63.3653 78.3192C62.5386 75.3163 62.8073 71.864 63.8538 69.1664C63.8841 69.088 63.9158 69.0099 63.9483 68.9306C60.7266 60.7477 59.736 51.6612 60.0119 42.9285C60.141 38.8409 60.4187 34.5524 61.3806 30.5658C61.8117 28.779 62.5608 27.0774 63.7569 25.6707C64.4389 24.8685 65.2756 24.2441 66.1161 23.6213C66.8442 23.0819 67.575 22.5437 68.1899 21.8702L68.4807 21.5504C68.5437 21.4809 68.6066 21.4114 68.6693 21.3421C69.7313 20.1687 70.7651 19.0301 72.0538 18.0678C73.5482 16.9521 75.1974 16.0789 76.9111 15.3536C80.6028 13.7917 84.5761 12.8551 88.5067 12.1306C97.0104 10.5634 105.74 10.4861 114.139 12.689C118.044 13.7131 121.834 15.1149 125.618 16.515C125.969 16.645 126.32 16.775 126.672 16.9046C129.612 17.99 132.554 19.0706 135.496 20.1514C136.863 20.6536 138.23 21.1559 139.597 21.6586C139.894 21.7677 140.184 22.0028 140.35 22.2948C140.511 22.5797 140.559 22.912 140.429 23.2428C139.59 25.3735 138.532 27.3724 137.243 29.2392C137.691 29.5444 138.072 29.9504 138.36 30.4256C138.725 31.0266 138.941 31.7381 138.955 32.493C139.004 35.0209 136.709 36.7346 134.806 37.9741C134.628 38.0897 134.453 38.158 134.283 38.1893C136.128 45.2605 137.893 52.3556 139.394 59.507L139.497 60.0027C141.043 67.487 142.04 75.1249 140.578 82.7086C139.32 89.239 136.395 95.5416 131.826 100.407C127.348 105.175 121.339 108.176 114.837 108.845ZM74.8299 65.7908C74.0343 63.2598 73.6127 60.5059 73.9171 57.9403C74.1087 56.3275 74.5924 54.7749 75.3799 53.3534C75.831 52.5393 76.3807 51.7856 76.9807 51.0757L77.1876 50.8373C77.2924 50.7155 77.3966 50.6036 77.4289 50.4633C77.4477 50.3818 77.4286 50.2926 77.3792 50.1861C77.2696 49.9501 77.0661 49.7227 76.8756 49.5008C76.7545 49.3597 76.6362 49.2213 76.5369 49.0866C74.7932 46.7203 73.4929 43.9033 73.9156 40.9027C74.3279 37.9751 76.2418 35.2462 78.2792 33.1897C82.7656 28.6613 89.7212 27.6207 95.8145 27.8704C99.3615 28.0157 102.903 28.6424 106.281 29.7372C107.946 30.2771 109.575 30.9347 111.158 31.6883L111.508 31.857C111.697 31.9489 111.886 32.0417 112.075 32.1347C113.312 32.7429 114.554 33.357 115.897 33.6876C118.52 34.3332 120.299 32.9735 122.169 31.6022C122.809 31.1322 123.46 30.6557 124.152 30.2376L124.294 30.1532C125.542 29.4282 127.034 28.9403 128.467 28.9622C129.713 28.9812 130.914 29.3797 131.892 30.3216C132.093 30.5152 132.208 30.7263 132.263 30.9365C132.371 31.0885 132.458 31.2699 132.515 31.4842C132.865 32.8021 133.214 34.121 133.562 35.4402L133.846 35.2566C134.688 34.7083 135.603 34.0818 136.017 33.1645C136.176 32.8115 136.153 32.2233 135.953 31.7909C135.883 31.6398 135.79 31.5054 135.662 31.4216C135.569 31.3606 135.457 31.3319 135.326 31.3425C135.009 31.3834 134.717 31.3369 134.47 31.2322C134.185 31.1115 133.958 30.9129 133.811 30.6735C133.66 30.4284 133.591 30.1402 133.628 29.8413C133.66 29.5844 133.77 29.316 133.988 29.0639C135.425 27.404 136.634 25.573 137.554 23.5855L131.472 21.3299C129.304 20.526 127.135 19.7232 124.965 18.9235L123.777 18.4859C119.832 17.0352 115.864 15.6174 111.761 14.6834C103.607 12.8273 95.1039 13.2635 86.9724 15.0107L86.4811 15.1171C83.0689 15.863 79.6108 16.7655 76.4788 18.3342C74.9415 19.1042 73.4802 20.0404 72.2253 21.2233C71.6711 21.7457 71.17 22.3177 70.6688 22.8888C69.9664 23.6893 69.2631 24.4876 68.428 25.1619L67.6527 25.7842C66.4994 26.7158 65.4592 27.6235 64.8085 29.0683C64.1281 30.5787 63.8033 32.2474 63.5383 33.8732C62.87 37.9689 62.6062 42.1301 62.6314 46.2786C62.6739 53.2444 63.7296 60.0682 65.0632 66.868C66.1332 65.3329 67.6362 64.1428 69.5653 63.889C70.823 63.7236 72.0699 63.9587 73.1511 64.5162C73.776 64.8384 74.3456 65.2683 74.8299 65.7908V65.7908ZM72.8087 74.0621C71.4 73.515 69.9209 73.3358 68.4305 73.5974C68.2744 73.6247 68.1255 73.5921 68.0003 73.5192C67.8734 73.4453 67.7734 73.3284 67.7191 73.1993C67.6564 73.0501 67.6532 72.8886 67.7085 72.7451C67.7566 72.6207 67.8482 72.4998 68.0166 72.4191C69.6304 71.647 71.4242 71.3063 73.2046 71.5487L73.3805 71.5738C74.2907 71.7091 75.5707 71.9939 76.5305 72.5545C77.2846 72.995 77.8366 73.6022 77.9739 74.3954C78.0455 74.8087 77.9431 75.2402 77.7055 75.553C77.4757 75.8554 77.1245 76.0569 76.6699 76.044C75.8679 76.0211 75.3931 75.6814 74.8218 75.2413C74.7525 75.1879 74.6814 75.1332 74.6075 75.0777C74.0555 74.6637 73.4523 74.312 72.8087 74.0621Z" fill="black"/>
<path fill-rule="evenodd" clip-rule="evenodd" d="M121.262 90.0689C119.706 90.5198 118.035 90.5601 116.449 90.0944C115.01 89.672 113.533 88.7423 112.474 87.5122C111.533 86.4194 110.924 85.0914 110.948 83.6738C110.95 83.5119 111.008 83.3768 111.097 83.2719C111.193 83.159 111.327 83.0815 111.47 83.0478C111.618 83.0132 111.774 83.0255 111.906 83.0858C112.026 83.1404 112.129 83.2331 112.194 83.3687C112.357 83.5826 112.519 83.7933 112.681 83.9981C113.99 85.6146 115.257 86.8226 117.225 87.2559C118.293 87.4911 119.359 87.3868 120.337 87.028C121.385 86.644 122.331 85.9688 123.073 85.1048C123.408 84.7143 123.804 84.5549 124.191 84.5522C124.63 84.5492 125.063 84.7531 125.39 85.079C125.711 85.3993 125.926 85.8345 125.945 86.2899C125.963 86.6895 125.832 87.107 125.486 87.4794C124.344 88.7062 122.864 89.6049 121.262 90.0689ZM121.214 69.8233C122.81 70.7934 125.24 73.0555 123.524 75.4605C121.504 77.5811 118.595 75.1497 117.162 74.05C115.833 73.1978 114.34 75.3897 115.573 76.3848C125.93 84.0558 130.133 70.0769 122.021 68.6826C121.128 68.529 120.796 69.5231 121.214 69.8233ZM106.29 65.5546C105.778 65.2265 105.174 65.1139 104.506 65.4182C103.984 65.6558 103.067 66.4481 102.43 67.4896C101.994 68.2021 101.684 69.0379 101.749 69.9086C101.764 70.1108 101.689 70.2599 101.571 70.3701C101.478 70.4572 101.344 70.5212 101.186 70.5412C101.052 70.5581 100.902 70.5428 100.78 70.5047C100.548 70.4323 100.425 70.2817 100.379 70.1588C99.9323 68.9727 100.125 67.6491 100.625 66.4549C101.3 64.8433 102.527 63.4934 103.33 63.0582C104.705 62.3132 106.327 62.2789 107.704 63.0379C108.876 63.6839 109.608 64.7268 110.337 65.7899C110.492 66.0159 110.646 66.2402 110.805 66.4606C111.123 66.9022 111.155 67.3402 111.032 67.7158C110.895 68.1318 110.547 68.4829 110.111 68.6667C109.708 68.8365 109.241 68.8605 108.827 68.6859C108.478 68.5385 108.157 68.2512 107.954 67.7635C107.613 66.9424 107.043 66.0364 106.29 65.5546V65.5546ZM132.332 67.3816C131.981 67.5646 131.707 67.6198 131.317 67.503C131.102 67.4383 130.889 67.3143 130.722 67.1475C130.557 66.9822 130.438 66.7767 130.391 66.5487C130.277 65.986 129.97 65.4593 129.531 65.116C129.156 64.8225 128.683 64.6669 128.158 64.7547C127.592 64.8493 127.052 65.2126 126.681 65.641C126.557 65.7843 126.459 65.9471 126.361 66.1088C126.178 66.4111 126 66.6922 125.748 66.9143C125.652 66.9988 125.508 67.0573 125.368 67.0573C125.312 67.0573 125.254 67.048 125.199 67.0309C124.635 66.465 124.527 66.0357 124.545 65.6098C124.564 65.1633 124.74 64.7112 125.025 64.2893C125.692 63.2998 126.958 62.4885 127.813 62.3047C128.984 62.0531 130.146 62.3552 131.078 63.0092C132.037 63.6821 132.748 64.7269 132.969 65.9044C133.022 66.188 133 66.4941 132.892 66.7595C132.786 67.0188 132.602 67.2409 132.332 67.3816ZM108.872 55.0045C108.17 55.6892 107.338 55.7953 106.497 55.8896C106.03 55.9425 105.657 55.9851 105.289 56.068C104.28 56.2959 103.283 56.6391 102.373 57.1333C101.422 57.65 100.385 58.2732 99.6391 59.0715C99.4618 59.2614 99.2946 59.4608 99.1272 59.6605C98.9746 59.8427 98.8275 60.0181 98.6725 60.1872C98.4946 60.3814 98.3255 60.5849 98.1574 60.788C98.0535 60.9593 98.0329 61.0014 98.012 61.0453C97.9805 61.1112 97.9439 61.1849 97.902 61.2641C97.8447 61.3724 97.7776 61.4911 97.7072 61.5986C97.5902 61.7952 97.5275 61.8494 97.4732 61.8736C97.3832 61.9137 97.2979 61.9334 97.2151 61.9227C97.1374 61.9127 97.0643 61.8754 96.992 61.8143C96.6314 61.5095 96.525 61.0092 96.5359 60.4782C96.5524 59.6724 96.8496 58.7802 97.1234 58.2317C97.7603 56.9573 98.6435 55.6325 99.7055 54.6814C100.917 53.5957 102.243 52.7738 103.766 52.2074C104.712 51.8553 105.808 51.5322 106.839 51.573C107.581 51.6024 108.29 51.823 108.875 52.3742C109.234 52.7125 109.406 53.1937 109.406 53.6745C109.406 54.165 109.227 54.6583 108.872 55.0045ZM133.761 61.2742C133.716 61.3475 133.655 61.3979 133.586 61.4283C133.514 61.46 133.433 61.4692 133.356 61.4562C133.279 61.4432 133.206 61.4083 133.148 61.355C133.092 61.3039 133.05 61.2361 133.031 61.1531C132.565 59.104 131.659 57.5794 129.726 56.5962C128.775 56.1126 127.682 55.8053 126.647 55.5603C126.346 55.4891 126.028 55.4429 125.708 55.3962C124.705 55.2497 123.695 55.0819 123.041 54.2708C122.647 53.7822 122.482 53.1573 122.575 52.5859C122.663 52.0478 122.978 51.5545 123.549 51.2588C124.971 50.5231 126.739 51.245 128.175 51.86C128.282 51.9056 128.386 51.9504 128.489 51.9936C129.893 52.5868 131.174 53.3697 132.227 54.4894C133.063 55.3776 133.837 56.6908 134.149 58.0417C134.408 59.1656 134.347 60.3129 133.761 61.2742Z" fill="black"/>
</g>
<defs>
<filter id="filter0_d_20_20443" x="0" y="0" width="223.616" height="259.929" filterUnits="userSpaceOnUse" color-interpolation-filters="sRGB">
<feFlood flood-opacity="0" result="BackgroundImageFix"/>
<feColorMatrix in="SourceAlpha" type="matrix" values="0 0 0 0 0 0 0 0 0 0 0 0 0 0 0 0 0 0 127 0" result="hardAlpha"/>
<feOffset dy="4"/>
<feGaussianBlur stdDeviation="2"/>
<feComposite in2="hardAlpha" operator="out"/>
<feColorMatrix type="matrix" values="0 0 0 0 0 0 0 0 0 0 0 0 0 0 0 0 0 0 0.25 0"/>
<feBlend mode="normal" in2="BackgroundImageFix" result="effect1_dropShadow_20_20443"/>
<feBlend mode="normal" in="SourceGraphic" in2="effect1_dropShadow_20_20443" result="shape"/>
</filter>
</defs>
</svg>
