<svg width="257" height="260" viewBox="0 0 257 260" fill="none" xmlns="http://www.w3.org/2000/svg">
<g filter="url(#filter0_d_49_20467)">
<path fill-rule="evenodd" clip-rule="evenodd" d="M141.441 90.8166C152.777 90.0045 168.319 92.2524 171.597 105.183C172.614 109.888 174.618 111.953 177.984 115.03C199.349 142.387 124.806 146.985 120.974 120.309C112.901 123.25 104.113 123.873 96.0349 126.846C91.6539 128.465 87.6812 131.02 83.8744 133.691C68.3506 144.721 53.0466 156.066 37.5782 167.175C43.5641 169.932 54.9447 180.461 50.3073 187.535C49.2271 188.914 47.6236 189.864 46.2051 190.871L45.4571 191.405C43.848 192.559 41.1392 194.525 39.6413 195.593L39.365 195.795C39.2567 195.873 39.1345 195.961 39.0242 196.04C49.8263 211.839 62.4683 226.417 76.4914 239.432C77.6855 240.543 77.1964 243.026 75.4682 243.315L73.4094 243.617C66.7615 244.586 59.9873 245.457 53.2881 244.932C46.7635 244.222 42.8318 238.444 38.3716 234.258C29.4647 225.151 21.1735 215.436 13.6216 205.173L13.4643 204.957C11.1139 201.743 7.99417 198.46 7.76585 194.31C7.34944 193.063 8.44529 191.276 9.49825 190.425L9.85772 189.906C15.5052 181.781 21.8968 173.945 29.9046 168.061C29.8748 167.184 30.28 166.262 31.0824 165.681L64.5489 141.453V141.453C73.1838 135.508 81.2097 128.522 90.5692 123.721C100.14 119.111 110.94 118.93 120.748 115.083C120.955 112.31 126.783 111.602 126.599 112.031C132.747 108.318 135.913 103.901 136.889 99.8407C137.865 95.7808 136.652 92.0784 141.441 90.8166ZM224.201 177.802C234.55 162.225 244.413 179.46 248.722 189.847C253.812 204.062 243.271 221.548 236.461 233.802C233.953 237.206 230.654 244.384 226.233 244.904C215.095 244.859 203.942 244.074 192.797 243.84C185.601 242.054 195.697 231.236 202.672 235.188C204.785 235.978 205.84 238.378 207.901 239.148C208.652 239.309 208.703 238.974 209.009 238.226L209.052 238.121C209.596 236.827 210.124 235.526 210.661 234.228C215.198 223.05 219.995 211.97 224.764 200.896C225.783 198.491 224.354 196.51 222.497 195.079C221.074 193.908 214.96 191.048 220.721 192.307C218.502 187.155 221.168 181.927 224.201 177.802ZM198.509 156.479C199.506 156.354 200.785 157.359 200.939 158.332C202.209 166.398 200.793 174.373 199.096 182.264L198.783 183.708C198.157 186.586 197.458 189.521 195.896 192.043C194.302 194.618 191.892 196.558 189.124 197.737C180.246 201.277 169.204 197.776 162.672 191.159C158.494 185.434 162.167 178.241 162.869 171.966C162.206 170.275 161.961 168.319 161.578 166.576L161.531 166.367L160.042 159.864C159.714 158.429 160.759 156.466 162.476 156.663C174.449 158.037 186.551 157.975 198.509 156.479Z" fill="#D08B5B"/>
<rect x="159.366" y="156.822" width="42.0423" height="42.2701" fill="#DA0037"/>
<path fill-rule="evenodd" clip-rule="evenodd" d="M240.323 175.764C240.288 175.603 240.48 175.481 240.604 175.601C242.711 177.632 244.198 180.228 245.831 182.633C247.386 184.924 249.078 187.126 250.238 189.654C251.316 192.004 252.011 194.388 252.218 196.971C252.425 199.535 252.157 202.105 251.704 204.63C250.815 209.605 248.914 214.316 246.826 218.892C244.797 223.34 242.504 227.662 240.082 231.905L239.214 233.42C238.156 235.265 237.086 237.106 235.94 238.892C234.514 241.116 233.212 243.411 231.332 245.267C229.997 246.588 227.48 245.267 228.089 243.379C228.353 242.557 228.56 241.783 228.97 241.02C229.28 240.439 229.631 239.875 229.961 239.302C230.62 238.157 231.273 237.007 231.932 235.861C233.316 233.454 234.773 231.091 236.145 228.676C238.523 224.487 240.769 220.219 242.755 215.828L242.989 215.309C244.816 211.242 246.548 207.03 247.35 202.631C248.195 197.996 247.439 193.627 245.793 189.271C244.942 187.018 243.985 184.816 242.99 182.622L242.798 182.203C241.837 180.109 240.819 178.027 240.323 175.764ZM138.038 95.5943C138.057 95.5121 138.197 95.5058 138.209 95.5943C138.801 99.5301 137.485 103.693 135.34 106.967C134.17 108.755 132.727 110.37 131.026 111.668L130.894 111.768C129.156 113.067 126.809 114.322 124.652 113.479C124.585 113.453 124.521 113.424 124.462 113.39C124.705 113.766 124.929 114.162 125.157 114.557C125.835 115.734 126.444 116.954 127.105 118.141C128.288 120.265 129.697 122.166 131.478 123.829C138.6 130.479 148.6 132.059 157.991 131.983L158.655 131.977C162.78 131.948 168.175 132.159 171.359 129.172C173.071 127.568 174.013 125.287 174.864 123.146C175.701 121.047 176.273 118.881 176.969 116.746C175.517 115.751 174.186 114.536 173.14 113.115C172.05 111.636 171.226 109.971 170.751 108.193L170.681 107.928C170.313 106.51 169.944 104.635 170.535 103.296C170.603 103.142 170.857 103.152 170.928 103.296C171.247 103.937 171.309 104.659 171.505 105.344C171.733 106.141 171.991 106.933 172.331 107.688C172.988 109.151 173.857 110.541 174.898 111.759C175.758 112.767 176.69 113.692 177.754 114.47C178.382 113.386 179.838 113.24 181.057 113.597C182.691 114.075 184.302 114.688 185.878 115.336L186.192 115.466C187.749 116.112 189.509 116.706 190.967 117.588C191.852 118.01 192.702 118.435 193.5 118.811C197.479 120.681 201.4 122.666 205.302 124.688L206.138 125.122C207.773 125.974 209.394 126.834 210.816 128.022C212.263 129.231 213.387 130.884 214.443 132.433C216.858 135.975 219.133 139.619 221.521 143.18C226.342 150.366 231.163 157.552 236.011 164.721C237.184 166.456 238.507 168.149 239.559 169.958C240.566 171.687 240.539 173.462 240.342 175.392L240.306 175.746C239.929 179.286 239.281 182.685 237.296 185.721C234.171 190.493 229.249 193.465 224.041 195.51C224.677 195.984 225.275 196.495 226.033 196.821C227.199 197.32 228.444 197.578 229.705 197.681C231.051 197.789 232.568 197.453 233.658 198.368C234.095 198.733 234.108 199.613 233.658 199.978C232.61 200.834 231.255 200.589 229.978 200.445L229.902 200.437C228.716 200.306 227.548 200.086 226.435 199.651C226.16 199.543 225.888 199.422 225.623 199.289C225.632 199.313 225.636 199.34 225.632 199.37C225.442 200.826 225.029 202.203 224.594 203.594L224.318 204.476C223.756 206.277 223.19 208.073 222.607 209.87C221.497 213.289 220.288 216.677 219.075 220.06L218.028 222.98C216.953 225.975 215.864 228.966 214.661 231.911C213.917 233.729 213.169 235.546 212.423 237.362C211.695 239.135 211.088 241.05 210.184 242.739C209.44 244.129 207.412 243.134 207.738 241.705C208.164 239.831 208.969 237.971 209.584 236.147C210.209 234.295 210.822 232.442 211.458 230.594C212.564 227.385 213.789 224.219 215.02 221.056L216.24 217.92C217.437 214.848 218.648 211.778 219.942 208.745L220.084 208.413C221.429 205.241 222.817 201.674 225.26 199.216C225.292 199.182 225.336 199.165 225.38 199.16C224.78 198.835 224.219 198.44 223.724 197.973L223.7 197.948C223.505 197.741 222.697 196.721 222.438 196.111C222.099 196.231 221.761 196.347 221.423 196.461C220.834 196.66 220.346 196.516 220.002 196.201L219.346 196.608C218.644 197.036 217.89 197.442 217.116 197.463C216.14 197.489 215.373 196.95 214.851 196.155C214.382 195.445 214.103 194.678 213.509 194.041C212.926 193.416 212.25 192.888 211.56 192.385L210.746 191.792C209.253 190.702 207.807 189.601 206.605 188.162C206.001 187.435 205.192 186.572 204.824 185.699C204.752 185.531 204.708 185.372 204.699 185.218C204.619 185.763 204.537 186.31 204.454 186.856C203.301 194.53 202.369 202.257 202.071 210.017C201.926 213.845 201.86 217.677 202.031 221.506C202.116 223.419 202.255 225.33 202.447 227.236C202.542 228.191 202.642 229.145 202.758 230.096L202.785 230.316C202.818 230.607 202.84 230.889 202.815 231.157C203.745 231.615 204.279 232.774 204.651 233.678C204.934 234.367 204.714 235.037 204.258 235.521C204.803 236.018 205.289 236.601 205.697 237.269C205.779 237.404 205.602 237.51 205.496 237.425C204.826 236.893 204.106 236.455 203.354 236.119C202.959 236.269 202.528 236.309 202.13 236.2C201.699 236.081 201.328 235.794 201.059 235.428C198.923 235.077 196.703 235.506 194.78 236.844C194.381 237.123 194.02 237.438 193.676 237.78C193.616 237.84 193.555 237.916 193.494 237.99L193.913 238.151C194.087 238.217 194.23 238.268 194.284 238.279C194.65 238.354 195.022 238.394 195.394 238.426L195.951 238.472C198.091 238.649 200.225 238.708 202.215 239.604C202.633 239.792 202.488 240.437 202.092 240.545C200.639 240.939 199.197 240.909 197.718 240.803L197.4 240.779C196.025 240.674 194.548 240.68 193.207 240.3C193.528 241.179 193.09 242.327 191.749 242.506C187.72 243.043 183.666 242.79 179.633 242.434C175.559 242.075 171.488 241.735 167.404 241.522C154.195 240.826 140.965 240.96 127.743 241.149L120.271 241.257C114.313 241.341 108.353 241.406 102.395 241.361L99.6059 241.335C98.4272 241.323 97.2478 241.309 96.0704 241.274L95.3643 241.251C93.9615 241.2 92.1044 241.411 90.8854 240.581C89.8798 239.896 89.6558 238.641 90.2622 237.628C90.4375 237.337 90.6784 237.077 90.9298 236.823C91.4453 232.417 91.7347 227.989 92.0305 223.563C93.0572 208.075 92.4572 192.668 90.0889 177.336C83.734 179.279 77.4762 181.716 71.3791 184.33C68.0812 185.744 64.8002 187.211 61.5572 188.749C58.5974 190.155 55.6248 191.911 52.4622 192.824C52.1747 193.079 51.7727 193.201 51.4161 193.088L51.3699 193.071H51.3678C51.0424 193.147 50.6812 193.101 50.3262 192.888C50.2544 192.844 50.1826 192.8 50.1107 192.755L50.003 192.687C48.8896 191.985 47.7699 191.121 46.9819 190.064C46.0248 190.952 44.996 191.765 43.984 192.59C42.8854 193.486 41.791 194.386 40.7051 195.295C40.2741 195.656 39.7988 196.001 39.4185 196.417L39.3633 196.478C39.3544 196.488 39.346 196.498 39.3382 196.508C40.984 197.573 42.4248 199.19 43.7157 200.595C45.1018 202.104 46.44 203.66 47.7673 205.223L49.0522 206.739C58.138 217.472 67.3168 228.594 79.0798 236.483C80.9389 237.73 79.1664 240.767 77.3199 239.492C73.8255 237.085 70.5192 234.412 67.3438 231.598C61.7791 226.672 56.772 221.145 52.084 215.386C49.7115 212.471 47.4086 209.485 45.1523 206.479L44.3865 205.46C43.366 204.1 42.3509 202.736 41.3791 201.342L41.1757 201.049C40.3233 199.819 39.4168 198.436 38.8671 197.019C38.6558 197.233 38.4171 197.412 38.0685 197.548C37.4727 197.78 36.7417 197.292 36.596 196.711C36.241 195.301 37.4664 194.462 38.4636 193.714C39.6741 192.809 40.9079 191.936 42.1438 191.068L42.5853 190.756C44.1309 189.659 45.6845 188.534 47.3685 187.667C47.4192 187.6 47.4805 187.536 47.5502 187.481C47.6305 187.418 47.7086 187.356 47.7889 187.295C45.7777 184.032 43.572 180.896 41.1108 177.932C39.26 175.703 37.2953 173.574 35.2164 171.558L34.2825 170.653C32.8699 169.289 31.4011 167.904 29.8333 166.718L29.3425 167.275C28.6871 168.016 28.0253 168.752 27.3255 169.449C25.9481 170.818 24.5896 172.216 23.2375 173.612C20.992 175.937 18.8226 178.332 16.6601 180.731L15.5791 181.931C13.3269 184.431 10.9143 186.885 8.86709 189.556L8.76485 189.692C7.87109 190.891 7.23487 192.218 7.65018 193.741C8.05091 195.21 9.00366 196.512 9.82487 197.78L9.90652 197.907C13.2593 203.132 16.8509 208.223 20.6981 213.095C28.403 222.853 37.1917 232.101 47.6791 238.886C49.1326 239.826 47.7741 242.164 46.3185 241.213C40.1938 237.208 34.5678 232.398 29.3917 227.232C24.6403 222.491 20.3347 217.271 16.2995 211.913C14.3326 209.299 12.4481 206.63 10.6417 203.901C8.89032 201.253 6.86427 198.529 5.59455 195.608C4.92911 194.071 4.68399 192.408 5.22906 190.789C5.72893 189.301 6.7175 188.065 7.74592 186.903L7.84244 186.794C10.2065 184.138 12.6129 181.513 15.0403 178.913C17.4762 176.305 20.0241 173.79 22.6248 171.349C24.6678 169.428 26.7974 167.735 29.0748 166.167C28.8699 166.021 28.665 165.881 28.4558 165.746C27.8199 165.332 27.6593 164.446 28.2171 163.884C29.7403 162.345 31.496 161.007 33.1481 159.606C34.7009 158.289 36.2537 156.971 37.8065 155.652C40.9671 152.972 44.1276 150.29 47.2882 147.608C52.965 142.791 58.61 137.941 64.2678 133.103C66.6269 131.086 69.0081 129.095 71.3832 127.097L75.6029 123.545V123.545L77.6667 121.811C78.7241 120.925 79.804 120.049 81.0065 119.374C83.8359 117.784 87.2375 117.096 90.3548 116.253L90.5622 116.197C94.0586 115.24 97.5741 114.339 101.109 113.536C104.647 112.733 108.201 112.002 111.769 111.34C114.976 110.744 118.259 110.233 121.53 110.157C122.341 109.848 123.359 109.74 124.158 110.07C124.488 110.207 124.832 110.408 125.138 110.662C126.738 110.1 128.316 109.831 129.809 108.88C131.301 107.931 132.621 106.684 133.733 105.31C136.029 102.466 137.231 99.1051 138.038 95.5943ZM174.801 191.926C173.533 191.837 172.392 192.361 171.26 192.919C171.898 193.196 172.536 193.471 173.174 193.744L177.421 195.557V195.557C178.823 196.155 180.309 196.675 181.642 197.412C181.737 197.465 181.813 197.529 181.87 197.603C183.256 196.715 184.722 195.923 186.127 195.079C186.448 194.887 186.771 194.695 187.095 194.502C185.421 195.062 183.706 195.343 181.889 194.817C179.466 194.118 177.361 192.106 174.801 191.926ZM178.274 187.674L178.046 187.519C176.817 186.675 175.35 185.59 173.857 186.348C173.153 186.706 172.576 187.283 171.883 187.667C171.186 188.056 170.419 188.354 169.642 188.534C168.351 188.832 166.872 188.876 165.484 188.588L165.505 190.465V190.465C166.555 190.899 167.599 191.343 168.642 191.791C169.32 191.559 169.972 191.281 170.658 190.975L171.121 190.768C172.441 190.174 173.774 189.777 175.234 189.965C177.983 190.318 180.059 192.361 182.688 193.042C185.909 193.879 188.816 191.474 191.861 190.88C192.363 190.781 192.88 190.723 193.394 190.714L193.566 190.713L193.642 190.668C194.297 190.284 195.277 189.916 195.733 189.269C196.23 188.568 196.272 187.392 196.435 186.568C196.452 186.486 196.469 186.401 196.483 186.319C196.196 186.319 195.904 186.333 195.609 186.389C194.679 186.56 193.804 186.889 192.938 187.257C191.301 187.953 189.699 188.745 187.976 189.208C186.288 189.662 184.523 189.878 182.785 189.626C181.088 189.381 179.679 188.616 178.274 187.674ZM178.539 181.075L178.284 180.911C177.613 180.482 176.843 180.038 176.02 180.196C175.285 180.338 174.653 180.923 174.013 181.284C172.608 182.077 171.032 182.51 169.424 182.62C168.087 182.711 166.699 182.548 165.412 182.151L165.457 186.306V186.306C165.928 186.456 166.416 186.564 166.929 186.602C168.488 186.718 170.009 186.344 171.317 185.484L171.979 185.045C173.111 184.3 174.173 183.71 175.671 183.981C177.154 184.252 178.399 185.203 179.611 186.031L179.81 186.165C181.203 187.085 182.615 187.678 184.323 187.693C186.167 187.707 187.99 187.194 189.708 186.562C191.413 185.936 193.033 185.186 194.857 184.956C195.414 184.886 196.095 184.865 196.735 184.975C196.819 184.503 196.899 184.034 196.976 183.563C197.14 182.55 197.282 181.54 197.404 180.528C194.17 179.657 191.183 182.474 188.178 183.343C186.435 183.846 184.538 183.84 182.795 183.354C181.182 182.903 179.915 181.969 178.539 181.075ZM178.547 174.077C177.856 173.944 177.173 174.263 176.586 174.591C175.088 175.422 173.795 176.578 172.099 177.015C169.916 177.577 167.529 177.093 165.361 176.174C165.37 177.457 165.38 178.74 165.391 180.023C165.799 180.177 166.217 180.302 166.644 180.401C168.161 180.748 169.768 180.701 171.262 180.264C172.785 179.817 173.954 178.613 175.481 178.237C177.043 177.851 178.515 178.602 179.774 179.455L180.153 179.714C181.592 180.691 182.987 181.539 184.788 181.705C186.691 181.88 188.345 181.284 190.046 180.494L190.442 180.311C192.595 179.321 195.39 178.195 197.54 179.321C197.709 177.723 197.831 176.126 197.914 174.525C197.618 174.416 197.311 174.335 196.959 174.333C196.116 174.329 195.23 174.595 194.445 174.872C192.727 175.479 191.128 176.383 189.427 177.032C187.815 177.649 186.03 177.97 184.31 177.694C182.717 177.438 181.521 176.605 180.421 175.464L180.261 175.295C179.778 174.781 179.262 174.216 178.547 174.077ZM179.808 168.145C179.011 167.724 178.042 167.333 177.121 167.456C176.242 167.572 175.656 168.168 175.115 168.806L174.822 169.155C173.854 170.301 172.901 171.264 171.408 171.736C169.861 172.222 168.222 172.031 166.783 171.319C166.272 171.066 165.797 170.751 165.319 170.44L165.345 173.811V173.811C166.299 174.286 167.271 174.716 168.338 174.976C170.307 175.455 171.98 175.1 173.664 174.014L173.841 173.899C175.109 173.066 176.41 172.074 177.976 171.981C179.505 171.889 180.652 172.737 181.659 173.775L181.777 173.898C183.047 175.237 184.329 175.891 186.218 175.736C188.049 175.587 189.763 174.778 191.44 174.081L191.592 174.018C193.126 173.388 194.895 172.74 196.578 172.98C196.982 173.038 197.504 173.162 197.968 173.38C198.036 171.803 198.068 170.224 198.074 168.644C197.117 167.813 195.628 167.676 194.43 168.016C192.554 168.548 191.018 169.922 189.226 170.668C187.638 171.33 185.981 171.478 184.361 170.852C182.688 170.205 181.376 168.973 179.808 168.145ZM197.969 161.504C195.165 161.601 192.423 163.425 189.746 164.121C186.756 164.897 184.315 163.839 181.652 162.664L181.308 162.512C179.941 161.912 178.473 161.373 176.958 161.618C175.481 161.859 174.176 162.677 172.906 163.417L172.662 163.557C170.349 164.874 167.994 165.776 165.294 165.551C165.309 166.399 165.302 167.244 165.304 168.073C165.748 168.327 166.175 168.614 166.58 168.876L166.726 168.968C168.013 169.774 169.341 170.303 170.876 169.806C172.359 169.324 173.056 168.033 174.074 166.97C175.01 165.993 176.231 165.4 177.6 165.456C179.073 165.515 180.465 166.164 181.682 166.957C182.899 167.75 184.076 168.774 185.499 169.172C188.694 170.059 191.43 166.68 194.451 166.154C195.718 165.932 197.117 166.213 198.074 166.978C198.064 165.156 198.023 163.33 197.969 161.504ZM173.838 160.739C173.442 160.754 173.047 160.771 172.652 160.788C171.19 160.851 169.728 160.923 168.266 161.005C167.254 161.06 166.01 161.371 165.017 161.062C164.992 161.164 164.958 161.261 164.914 161.356C165.064 162.104 165.157 162.878 165.214 163.66C166.13 163.759 167.062 163.725 167.966 163.537C170.136 163.087 171.898 161.718 173.838 160.739ZM197.926 160.111C192.588 160.479 187.208 160.353 181.861 160.468L181.219 160.483C181.194 160.483 181.169 160.486 181.143 160.486C181.756 160.723 182.365 160.996 182.971 161.273L183.577 161.551C185.009 162.21 186.467 162.749 188.071 162.633C189.788 162.508 191.407 161.807 193.012 161.24C194.544 160.699 196.308 160.335 197.941 160.572C197.937 160.418 197.933 160.266 197.926 160.111Z" fill="black"/>
<path fill-rule="evenodd" clip-rule="evenodd" d="M153.563 15.9062C165.534 15.9062 177.915 25.2082 182.303 31.144C185.993 36.1346 187.979 58.7016 187.979 73.9526C187.979 77.1423 189.735 83.155 189.222 86.2061C187.345 97.3863 179.164 106.763 162.973 106.763C146.783 106.763 135.174 100.329 123.14 83.055C117.301 83.055 114.471 78.5659 114.43 71.4817C114.389 64.3975 120.066 61.8201 120.066 61.8201C120.066 61.8201 118.042 33.8628 123.14 26.5841C128.238 19.3054 141.593 15.9062 153.563 15.9062Z" fill="#D08B5B"/>
<path fill-rule="evenodd" clip-rule="evenodd" d="M148.526 11.953C156.084 11.1858 163.49 11.8304 170.938 13.1642C171.507 13.2676 171.83 13.6419 171.95 14.0918C175.458 14.2525 178.97 14.5105 182.474 14.7028C183.745 14.7726 184.466 16.032 183.887 17.1693C183.771 17.3952 183.65 17.615 183.528 17.8348L183.682 17.7841C184.736 17.4451 185.874 17.278 186.901 17.816C188.208 18.5008 188.721 20.0117 188.432 21.4024C188.358 21.7575 188.234 22.0978 188.093 22.4298C188.379 22.4108 188.668 22.4171 188.955 22.4552C190.481 22.6581 191.615 23.8311 191.696 25.3929C191.814 27.7514 190.298 30.1441 188.512 31.8326C188.771 32.3675 188.871 32.9973 188.763 33.6356C188.548 34.8974 187.621 35.6529 186.546 36.1458C186.994 37.5726 187.206 39.0643 187.081 40.5888C187.039 41.0977 186.595 41.5181 186.127 41.6213C187.873 46.443 188.758 51.6198 189.393 56.6641C189.847 60.2531 190.07 63.8629 190.097 67.4789C190.111 69.1115 190.084 70.7459 190.015 72.3787L189.988 72.9909C189.904 74.7559 189.899 76.6092 189.583 78.3552C190.663 80.1959 191.097 82.4808 191.28 84.5433C191.508 87.0964 191.147 89.7299 190.344 92.1585C187.312 101.335 178.163 107.126 168.973 108.631C160.467 110.024 150.623 108.149 145.652 100.403C145.574 100.28 145.741 100.179 145.838 100.26C149.394 103.159 153.52 104.453 158.002 105.082C165.752 106.169 174.463 104.326 180.682 99.4395C183.667 97.0935 185.82 93.6781 186.767 90.0025C187.249 88.1238 187.416 86.1644 187.226 84.2307C187.032 82.2694 186.166 80.5955 185.62 78.742C185.436 78.1162 185.63 77.535 186.012 77.1209C186.119 75.6159 186.372 74.0984 186.469 72.598C186.577 70.8922 186.642 69.1866 186.665 67.4789C186.71 63.9367 186.562 60.3881 186.265 56.8609C185.721 50.4018 184.277 44.0996 183.429 37.6954C183.115 37.9776 182.666 38.0934 182.194 37.8469L182.145 37.8201L181.888 37.6724C181.873 37.6724 181.857 37.6745 181.842 37.6764C180.081 37.8478 178.256 37.6026 176.569 37.0762C174.804 36.5269 173.166 35.6815 171.703 34.555C171.425 35.9687 171.309 37.3974 171.307 38.8388C171.305 39.7392 170.354 40.2065 169.599 39.8218C166.254 38.1181 163.058 36.1549 160.024 33.9484C159.669 35.7681 159.315 37.5876 158.959 39.4095C158.822 40.1114 157.93 40.3946 157.359 40.0606C155.086 38.7353 153.124 37.0003 151.526 34.9373C151.207 35.549 150.887 36.1605 150.564 36.7707L150.079 37.6849C149.601 38.5831 148.96 39.5767 147.912 39.8639C146.803 40.1682 145.877 39.4477 145.504 38.4415C145.391 38.1289 145.285 37.8074 145.188 37.4841C144.244 39.6464 143.177 41.7599 141.971 43.7762C140.162 46.8004 137.991 49.4951 135.826 52.2596C135.168 53.0988 134.042 52.2976 133.951 51.482C133.899 51.0023 133.854 50.5204 133.816 50.0404C132.555 52.5927 131.238 55.121 129.804 57.5761L130.01 58.3828V58.3828C130.601 60.7664 131.093 63.1669 131.627 65.5632C131.799 66.3363 131.39 67.4417 130.488 67.5734C129.412 67.7306 128.394 68.282 127.291 67.9027C126.089 67.4888 125.851 66.4471 125.284 65.4597C125.17 65.2629 125.039 65.0822 124.897 64.9106L124.861 64.9575V64.9575C124.772 65.074 124.561 64.9471 124.614 64.814L124.676 64.6601V64.6601C124.188 64.1413 123.605 63.7084 123.068 63.2428C121.793 63.0274 120.359 63.2633 119.48 63.7826C117.48 64.966 116.561 67.4049 116.542 69.6476C116.519 72.2725 117.33 75.223 118.7 77.4675C119.304 78.4545 120.13 79.3462 121.222 79.7839C122.306 80.2191 123.48 80.084 124.583 80.4939C125.312 80.7667 125.761 81.5783 125.32 82.3136C125.291 82.3645 125.257 82.4108 125.225 82.4596L125.553 82.896C125.779 83.1982 126.014 83.5218 126.233 83.8586C126.794 84.5055 127.384 85.129 127.956 85.7651C129.012 86.9379 130.036 88.1428 131.076 89.3325C132.056 90.455 133.093 91.5094 134.162 92.5472C135.172 93.5302 136.433 94.3563 137.36 95.4048C138.263 96.4278 138.507 98.2135 137.023 98.8055C135.381 99.462 133.927 97.9233 132.822 96.8975L132.775 96.8545C130.749 94.9851 128.919 92.8488 127.466 90.4966C126.026 91.479 123.944 91.5728 122.511 90.5907C121.756 90.0739 121.178 89.2055 120.896 88.2608C120.631 88.3204 120.366 88.3552 120.108 88.3512C119.975 88.4286 119.841 88.5038 119.706 88.574C118.637 89.1317 117.324 88.8826 116.835 87.6967C116.389 86.6201 116.848 85.3975 117.25 84.3603L117.332 84.146C117.56 83.5544 117.811 82.9098 118.123 82.3032C117.254 81.648 116.512 80.8341 115.884 79.9086C113.774 76.7912 112.72 72.2322 113.186 68.5126C113.466 66.2681 114.518 63.9432 116.24 62.4297L116.177 62.2649V62.2649C115.694 61.0372 115.256 59.8048 114.971 58.5073C114.638 56.9898 114.476 55.4174 114.328 53.8724C114.016 50.6091 114.1 47.2719 114.516 44.0214C115.296 37.9028 117.273 31.8962 120.784 26.8048C119.788 25.6104 119 24.2049 119.411 22.5883C119.599 21.8463 120.026 21.1427 120.672 20.7177C121.028 20.4833 121.452 20.4473 121.808 20.2529L121.915 20.1938C122.072 20.1022 121.952 20.1119 121.859 19.6865C121.49 17.987 121.795 16.345 123.661 15.7807C125.417 15.2502 127.079 16.3767 128.118 17.7188C130.838 15.7847 134.422 14.7726 137.573 13.9124C141.157 12.9379 144.834 12.3294 148.526 11.953ZM119.15 68.9542C119.137 67.5698 120.446 66.716 121.734 66.9423C122.599 67.0933 123.321 67.6108 123.999 68.1458L124.329 68.4079C125.154 69.0573 126.102 69.7575 126.594 70.6769C127.315 72.0338 125.791 73.8596 124.368 72.9086C123.391 72.2527 122.766 71.2019 122.125 70.2258L122.059 70.1251C121.768 69.6876 121.513 69.2226 121.114 68.8718L121.028 68.7962C120.897 68.6842 120.757 68.582 120.587 68.5336C120.261 68.4395 119.656 68.5713 119.512 68.9609L119.499 69.0007C119.447 69.1975 119.152 69.155 119.15 68.9542Z" fill="black"/>
<path fill-rule="evenodd" clip-rule="evenodd" d="M157.414 88.1651C157.414 84.278 163.133 83.4414 168.069 83.4414C173.005 83.4414 178.552 84.5809 178.552 88.1651C178.552 91.7494 172.736 92.3215 169.114 92.3215C165.493 92.3215 157.414 92.0523 157.414 88.1651Z" fill="white"/>
<path fill-rule="evenodd" clip-rule="evenodd" d="M157.465 70.3794C161.899 70.3794 165.493 67.3515 165.493 63.6162C165.493 59.881 161.899 56.853 157.465 56.853C153.031 56.853 149.437 59.881 149.437 63.6162C149.437 67.3515 153.031 70.3794 157.465 70.3794Z" fill="white"/>
<path fill-rule="evenodd" clip-rule="evenodd" d="M180.81 70.3794C184.486 70.3794 187.465 67.3515 187.465 63.6162C187.465 59.881 184.486 56.853 180.81 56.853C177.135 56.853 174.155 59.881 174.155 63.6162C174.155 67.3515 177.135 70.3794 180.81 70.3794Z" fill="white"/>
<path fill-rule="evenodd" clip-rule="evenodd" d="M168.215 82.7927C170.184 82.0868 172.274 82.3522 174.261 83.0854L174.439 83.1522C176.264 83.8483 178.495 85.0571 179.241 86.9451C179.389 87.3194 179.458 87.7024 179.468 88.0834C179.712 88.1075 179.954 88.1392 180.193 88.1813C180.687 88.2681 180.664 89.0527 180.193 89.1558C179.896 89.2211 179.592 89.2689 179.286 89.3046C179.003 90.1851 178.417 90.9842 177.677 91.5447C175.945 92.8566 173.558 93.1036 171.465 93.3042C169.149 93.526 166.823 93.4719 164.516 93.1913L163.704 93.0875C161.815 92.8419 159.709 92.5263 158.103 91.5153C156.592 90.564 155.558 88.7272 156.198 86.9432C156.853 85.1163 159.099 84.341 160.765 83.7545C163.161 82.9117 165.709 82.5811 168.215 82.7927ZM164.873 88.9151C164.897 89.449 164.917 89.9832 164.938 90.5175C164.944 90.6813 164.897 90.8293 164.817 90.9574C165.962 91.092 167.118 91.1554 168.27 91.1546C168.059 90.5173 168.048 89.7856 168.036 89.1053C166.981 89.0537 165.927 88.9924 164.873 88.9151ZM169.115 89.1552L169.206 89.5003C169.349 90.0412 169.478 90.5975 169.459 91.1313C169.996 91.111 170.532 91.0789 171.065 91.0326L171.744 90.9748C171.898 90.9615 172.055 90.9477 172.212 90.9328C172.247 90.3795 172.312 89.8188 172.37 89.2655C171.285 89.2361 170.199 89.201 169.115 89.1552ZM173.42 89.2896C173.47 89.7784 173.516 90.2783 173.535 90.7735C174.407 90.6376 175.263 90.426 175.994 90.0521C176.361 89.864 176.656 89.6366 176.876 89.3847C176.137 89.3674 175.401 89.33 174.687 89.3183C174.547 89.316 174.406 89.3131 174.265 89.3099L173.42 89.2896ZM158.271 88.165C158.328 89.1852 159.941 89.9133 160.771 90.153C161.563 90.3819 162.369 90.5674 163.183 90.7149C163.168 90.6467 163.16 90.5795 163.166 90.5175C163.218 89.9418 163.269 89.3663 163.323 88.7914L162.886 88.7567C161.35 88.6384 159.752 88.5436 158.271 88.165ZM168.332 84.2778C168.461 85.5561 168.64 86.8272 168.879 88.0893L169.316 88.0986V88.0986C170.366 88.1153 171.415 88.1221 172.465 88.1234C172.468 88.0718 172.47 88.0204 172.472 87.9695C172.511 86.9018 172.496 85.8338 172.457 84.7665C171.124 84.4721 169.728 84.3761 168.332 84.2778ZM173.005 84.9005C173.122 85.9722 173.219 87.0459 173.308 88.1208L174.228 88.1193C174.381 88.1189 174.534 88.1181 174.687 88.1168C175.549 88.1088 176.434 88.0523 177.318 88.0287C177.252 87.5671 176.98 87.0977 176.479 86.6705C175.42 85.7666 174.244 85.2331 173.005 84.9005ZM167.512 84.0325C166.499 84.1411 165.494 84.3191 164.503 84.5682C164.761 85.3187 164.712 86.1777 164.767 86.9616C164.791 87.3067 164.811 87.652 164.829 87.9972C165.889 88.0232 166.949 88.0481 168.009 88.0707C167.976 86.7999 167.997 85.5292 168.069 84.2592L167.953 84.251V84.251C167.782 84.2387 167.629 84.1531 167.512 84.0325ZM163.831 84.7485C163.368 84.881 162.908 85.0281 162.453 85.193L161.956 85.3725C160.759 85.8089 159.175 86.4407 158.507 87.4166C158.395 87.5806 158.328 87.7393 158.295 87.8926C159.973 87.7376 161.713 87.8938 163.406 87.9577C163.429 87.7362 163.453 87.5148 163.478 87.2935L163.517 86.9616C163.604 86.2449 163.603 85.4487 163.831 84.7485ZM172.215 69.4002C173.81 70.3703 176.241 72.6324 174.524 75.0374C172.504 77.158 169.596 74.7266 168.162 73.627C166.833 72.7748 165.34 74.9666 166.573 75.9617C176.93 83.6327 181.133 69.6539 173.021 68.2596C172.128 68.1059 171.797 69.1001 172.215 69.4002ZM152.66 57.6376C154.927 53.6959 160.536 53.6505 163.745 56.6606C166.809 59.5347 167.188 64.4382 164.741 67.7996C162.133 71.3819 157.066 72.373 152.958 71.0962C149.106 69.8993 147.036 65.719 148.356 61.8889C149.07 59.8173 150.714 58.385 152.66 57.6376ZM150.548 51.0355C152.464 49.3388 155.945 47.7002 158.529 48.5353C160.014 49.0152 160.662 51.4096 159.003 52.1686C157.083 53.0474 154.869 52.6898 152.915 53.6007C152.094 53.9834 151.322 54.4617 150.751 55.1632C150.3 55.7161 149.842 56.4436 149.191 56.7623C149.02 56.8462 148.788 56.8483 148.651 56.6927C147.224 55.0776 149.301 52.139 150.548 51.0355ZM177.916 48.451C179.1 48.1186 180.414 48.1253 181.617 48.3342C182.819 48.543 184.04 49.0415 185.022 49.7688L185.136 49.854C186.208 50.6619 187.487 51.8375 187.418 53.2688C187.361 54.4639 186.104 55.2724 185.019 54.6459C184.135 54.1351 183.718 53.1117 182.969 52.4303C182.351 51.8679 181.626 51.4245 180.851 51.1138C179.991 50.7687 179.129 50.607 178.206 50.5916C177.495 50.5798 176.78 50.8131 176.082 50.8877C176.14 51.0056 175.588 50.9507 175.272 50.8461C175.038 50.7463 175.037 50.4502 175.118 50.2581C175.52 49.3064 176.985 48.7123 177.916 48.451ZM179.205 55.139C181.189 54.745 183.394 55.1764 185.054 56.3397C188.031 58.4255 189.366 62.7392 187.983 66.1129C186.61 69.4614 182.858 71.5916 179.28 70.9518C175.627 70.2987 172.802 66.6191 173.196 62.912C173.363 61.3339 174.051 59.9115 175.07 58.8364C175.077 58.7994 175.086 58.762 175.101 58.7235C175.816 56.8178 177.173 55.5429 179.205 55.139ZM161.054 58.1696C158.78 56.8 155.436 57.5647 153.483 59.2181C153.095 59.5465 152.657 59.4504 152.419 59.1638C151.093 60.2345 150.157 61.7323 150.006 63.5563C149.737 66.8278 152.066 68.9793 155.204 69.2268C158.41 69.4798 161.729 68.5845 163.239 65.5108C164.543 62.8573 163.586 59.6941 161.054 58.1696ZM182.584 58.3112C180.804 57.6126 178.25 58.0254 176.695 59.2208C175.511 60.7476 174.935 62.8425 175.39 64.5582C176.047 67.0361 178.424 68.9664 181.035 68.6918C183.452 68.4378 185.635 66.5027 185.894 64.0457C186.144 61.6826 184.847 59.1988 182.584 58.3112ZM181.073 62.0192C181.479 61.7296 181.964 62.0557 182.112 62.4419L182.197 62.6168C182.242 62.7105 182.288 62.8073 182.29 62.8109L182.306 62.8576C182.327 62.8979 182.353 62.9356 182.378 62.9738C182.397 62.9869 182.554 63.1845 182.576 63.2103C182.83 63.5248 182.965 63.8125 182.957 64.2263C182.942 65.0444 182.179 65.6206 181.388 65.4225C180.537 65.2095 180.174 64.329 180.252 63.5206C180.313 62.8806 180.546 62.3951 181.073 62.0192ZM157.969 62.1754C158.345 61.8339 158.924 61.8051 159.295 62.1754C159.498 62.3787 159.581 62.6053 159.727 62.8418L159.796 62.9504C159.948 63.1838 160.107 63.4079 160.147 63.6942C160.244 64.3682 160.035 64.9955 159.371 65.2759C158.711 65.5545 158.1 65.2696 157.698 64.7273C157.222 64.0848 157.367 62.7237 157.969 62.1754Z" fill="black"/>
<path fill-rule="evenodd" clip-rule="evenodd" d="M191.122 71.1107C188.557 73.7621 184.275 74.523 180.862 73.101C172.1 69.4385 176.389 58.015 183.147 54.9473C183.991 54.7368 185.118 54.2374 186.147 54.1241C186.24 54.0784 186.442 54.2105 186.687 54.0856C194.139 54.9179 195.836 66.4898 191.122 71.1107M162.859 71.7894C159.982 75.6066 154.634 76.7842 150.264 75.0097C141.631 71.6087 144.693 61.4789 150.599 57.5076C163.076 52.8175 168.228 64.7512 162.859 71.7894M144.145 63.3316C144.137 63.3277 144.129 63.3258 144.121 63.322C144.166 63.302 144.212 63.2819 144.257 63.2614C144.243 63.3001 144.226 63.3383 144.212 63.377C144.19 63.3616 144.17 63.3436 144.145 63.3316M197.061 59.2054C196.357 59.2068 195.339 59.3227 194.756 59.8115C193.318 54.9604 188.011 50.4707 183.395 53.7445C179.76 54.9139 177.063 57.5074 175.53 60.9553C172.766 59.3106 168.42 60.0129 166.023 62.1879C164.453 56.9991 160.59 55.1821 155.992 54.9139C150.973 54.0915 145.97 58.9676 144.41 62.8793C143.112 62.7315 141.173 62.3183 139.952 63.1196C132.028 61.0407 118.174 59.8946 116.563 61.0496C115.415 61.4903 114.785 64.201 116.388 64.3473C117.786 64.1488 116.225 62.361 117.634 62.166C125.139 61.7006 132.424 63.2126 139.85 63.847C140.513 64.7391 142.655 65.0376 143.797 64.6791C141.998 71.3147 145.883 75.8291 151.704 77.1813C160.718 79.2528 168.561 71.186 166.204 62.7954C168.934 61.4364 172.075 61.4947 175.05 62.2105C170.079 80.5114 199.542 79.6903 194.94 60.4386C198.003 61.9624 198.668 59.5129 197.061 59.2054" fill="black"/>
</g>
<defs>
<filter id="filter0_d_49_20467" x="0.929688" y="0" width="255.359" height="259.93" filterUnits="userSpaceOnUse" color-interpolation-filters="sRGB">
<feFlood flood-opacity="0" result="BackgroundImageFix"/>
<feColorMatrix in="SourceAlpha" type="matrix" values="0 0 0 0 0 0 0 0 0 0 0 0 0 0 0 0 0 0 127 0" result="hardAlpha"/>
<feOffset dy="4"/>
<feGaussianBlur stdDeviation="2"/>
<feComposite in2="hardAlpha" operator="out"/>
<feColorMatrix type="matrix" values="0 0 0 0 0 0 0 0 0 0 0 0 0 0 0 0 0 0 0.25 0"/>
<feBlend mode="normal" in2="BackgroundImageFix" result="effect1_dropShadow_49_20467"/>
<feBlend mode="normal" in="SourceGraphic" in2="effect1_dropShadow_49_20467" result="shape"/>
</filter>
</defs>
</svg>
