<svg width="181" height="260" viewBox="0 0 181 260" fill="none" xmlns="http://www.w3.org/2000/svg">
<g filter="url(#filter0_d_5_19624)">
<path fill-rule="evenodd" clip-rule="evenodd" d="M154.022 138.554C152.181 131.411 150.488 128.382 147.216 125.899C144.157 123.577 139.69 121.626 133.173 120.201C126.385 119.014 126.193 115.485 124.491 109.814C123.994 108.109 121.534 107.655 120.472 108.884C120.322 108.723 120.166 108.575 120.004 108.441C120.149 107.628 118.965 105.297 119.005 104.519C119.418 96.4009 116.763 92.324 110.136 90.8085C108.695 90.4788 98.9065 90.2847 97.5013 90.6733C91.3585 92.372 85.3114 97.7654 86.2368 104.262C84.3086 106.783 82.4214 108.321 79.4466 109.133C74.8139 109.722 77.1411 175.367 85.187 214.696C88.6392 231.57 171.184 202.849 167.454 194.398C167.982 192.849 167.019 191.146 167.454 189.547C167.769 188.389 168.575 187.91 168.98 186.764C169.551 185.151 168.931 182.986 168.288 181.34C168.024 180.52 168.773 179.637 168.98 178.8C169.967 174.851 167.708 175.199 166.08 172.559C166.104 172.551 166.527 170.667 166.526 170.676C166.775 169.331 166.15 167.607 165.605 166.484C165.237 165.725 164.448 165.25 163.665 165.337C164.454 162.657 165.452 160.427 166.526 157.844C168.424 153.293 170.229 148.531 172.955 144.412C174.072 142.725 173.17 141.173 171.364 141.058C165.516 140.686 159.733 139.844 154.022 138.554Z" fill="#D08B5B"/>
<path fill-rule="evenodd" clip-rule="evenodd" d="M144.894 139.106L131.546 161.701C131.546 161.701 134.713 162.017 135.994 162.633C137.276 163.249 143.16 170.731 143.16 170.731L144.095 174.851L141.879 178.172L142.743 180.258C142.743 180.258 143.36 178.845 144.894 177.748C146.429 176.651 149.813 174.851 149.813 174.851C149.813 174.851 148.688 174.249 148.688 173.542C148.688 172.836 147.698 169.821 149.813 168.683C151.928 167.544 162.859 164.879 162.859 164.879L173.937 141.506L144.894 139.106Z" fill="#DA0037"/>
<path fill-rule="evenodd" clip-rule="evenodd" d="M85.3504 109.287L127.734 116.727L147.217 125.899L150.397 128.35L131.547 161.701L102.44 167.013L95.0245 186.28L96.5382 207.997L143.889 202.35L164.314 199.923L169.115 219.311L168.247 227.287L166.986 231.332L116.351 245.006C116.351 245.006 90.5677 242.506 85.9971 242.506C81.4265 242.506 47.9156 245.835 47.9156 245.835L40.1621 245.006C40.1621 245.006 23.0074 226.921 20.3468 220.484C17.6861 214.048 11.9326 174.922 11.9326 174.922L12.5661 168.91L27.3873 130.758C27.3873 130.758 29.3665 128.96 31.8617 125.899C34.3569 122.838 85.3504 109.287 85.3504 109.287Z" fill="#DA0037"/>
<path fill-rule="evenodd" clip-rule="evenodd" d="M162.06 164.398C158.23 164.593 154.395 165.504 150.93 167.154C149.513 167.83 148.228 168.807 147.852 170.413C147.662 171.233 147.708 172.081 147.81 172.909C147.886 173.537 147.905 174.338 148.45 174.763C148.543 174.835 148.642 174.89 148.746 174.93C147.468 175.507 146.251 176.2 145.169 176.914C144.18 177.567 143.164 178.573 142.708 179.708C142.67 179.579 142.632 179.459 142.594 179.345C141.816 177.045 140.618 175.162 138.732 173.896C138.517 173.115 136.218 169.754 134.083 169.881C131.744 170.018 129.863 170.189 127.748 171.265C126.977 171.248 126.208 171.259 125.447 171.292C125.316 171.297 125.323 171.474 125.447 171.489C126.064 171.567 126.681 171.654 127.298 171.755C128.764 171.99 130.226 172.288 131.656 172.658C133.372 173.102 135.147 173.547 136.75 174.323C139.86 175.83 141.785 179.77 141.389 183.198C141.324 183.76 141.106 185.459 140.327 185.284C139.668 185.136 139.406 183.76 139.175 183.251C138.558 181.898 137.447 181.014 136.114 180.416C134.549 179.713 132.873 179.237 131.251 178.683C130.332 178.369 129.413 178.053 128.492 177.741C127.549 177.417 126.654 176.971 125.65 177.197C125.044 177.335 124.974 178.058 125.314 178.472C125.832 179.104 126.601 179.29 127.347 179.55C128.331 179.892 129.313 180.235 130.296 180.577C131.815 181.105 133.406 181.551 134.886 182.198L134.84 182.304C134.72 182.27 134.578 182.39 134.601 182.538C134.823 183.906 135.132 185.487 134.789 186.856C134.519 187.943 133.566 189.145 132.328 188.826C132.523 188.648 132.594 188.342 132.463 188.059C131.973 187.01 125.551 182.872 124.978 184.409C124.959 184.464 125.018 184.504 125.065 184.496C125.553 184.394 126.37 185.227 126.761 185.491C127.325 185.871 127.898 186.243 128.456 186.634C129.066 187.061 129.662 187.509 130.243 187.972C130.699 188.336 131.044 188.714 131.567 188.898C131.293 189.029 131.075 189.272 130.982 189.583C130.746 190.392 130.289 191.079 129.497 191.436C128.667 191.808 127.731 191.574 126.856 191.665C125.665 191.785 124.625 192.351 123.757 193.161C121.934 194.864 121.019 197.866 118.469 198.671C116.946 199.151 115.256 198.848 113.713 198.63C111.992 198.387 110.314 198.195 108.58 198.449C106.919 198.692 105.349 199.267 103.832 199.968C102.411 200.626 100.839 201.37 99.5775 202.35C99.3176 201.549 99.0557 200.757 98.8569 199.939C98.3881 198.005 98.1345 196.035 98.0731 194.048C98.0162 192.157 98.1219 190.257 98.2843 188.374C98.3648 187.433 98.4916 186.497 98.5719 185.556C98.5928 185.32 98.6353 185.066 98.6669 184.813C100.919 183.483 103.285 182.465 105.67 181.416C105.677 181.414 105.683 181.41 105.689 181.408C105.763 181.374 105.835 181.342 105.909 181.311C105.907 181.306 105.905 181.302 105.901 181.298C106.173 181.131 106.363 180.909 106.478 180.659C109.915 178.379 112.788 175.266 114.93 171.635C115.828 170.113 116.692 168.534 117.867 167.201C119.118 165.778 120.603 164.933 122.441 164.493C124.589 163.978 126.804 163.669 129.005 163.494C130.207 163.399 131.551 163.25 132.861 163.257C133.773 163.263 134.667 163.341 135.487 163.567C136.701 163.901 137.411 164.825 138.174 165.759C138.903 166.656 139.628 167.554 140.308 168.488C140.952 169.373 141.561 170.288 142.089 171.248C142.406 171.823 142.699 172.415 142.947 173.025C143.033 173.241 143.147 173.486 143.2 173.71C143.253 173.936 143.156 174.175 143.409 174.175C142.363 174.19 141.668 176.799 142.708 176.737C144.169 176.652 144.904 174.9 144.618 173.345C144.107 170.57 141.348 167.219 140.802 166.509C139.596 164.941 138.351 162.895 136.42 162.166C136.393 162.156 136.363 162.145 136.336 162.137C136.898 161.604 137.342 160.966 137.766 160.317C138.204 159.649 138.725 158.884 138.869 158.091C138.96 157.586 138.332 157.299 138.035 157.741C137.601 158.385 137.392 159.201 137.069 159.909C136.739 160.628 136.338 161.306 136.021 162.031C135.258 161.796 134.435 161.689 133.596 161.653C134.654 160.22 136.463 157.455 136.68 157.1C137.682 155.456 138.635 153.761 139.545 152.064C140.529 150.225 141.373 148.31 142.315 146.45C142.849 145.396 143.388 144.332 143.982 143.31C144.187 142.959 144.406 142.608 144.656 142.289C144.704 142.226 144.766 142.173 144.823 142.113C144.888 142.077 144.956 142.037 144.994 142.016C145.336 141.82 145.456 141.363 145.697 141.073C146.082 140.607 146.534 140.552 147.113 140.545C148.346 140.532 149.585 140.581 150.816 140.615C152.627 140.666 154.435 140.737 156.244 140.833C156.791 140.862 157.336 140.892 157.883 140.926C160.513 141.082 163.142 141.287 165.763 141.539C168.083 141.76 170.403 142.122 172.725 142.295C169.581 149.767 166.095 157.102 162.148 164.183C162.108 164.254 162.079 164.326 162.06 164.398ZM144.618 183.646C144.111 183.878 143.618 184.168 143.16 184.498C143.236 183.984 143.255 183.443 143.234 182.9C143.612 183.305 144.096 183.538 144.618 183.646ZM166.262 170.794C166.226 170.798 166.192 170.817 166.175 170.853C165.474 172.3 165.767 173.917 166.913 175.052C167.513 175.644 168.82 176.312 168.778 177.284C168.742 178.07 167.887 178.73 167.521 179.379C167.181 179.983 167.054 180.647 167.327 181.302C167.675 182.141 168.649 182.475 168.983 183.299C169.406 184.345 168.719 185.607 168.237 186.518C167.789 187.361 167.21 188.205 166.826 189.096C164.251 190.43 158.407 192.852 157.703 192.988C156.846 193.154 155.986 193.313 155.124 193.461C153.47 193.748 151.811 194.015 150.149 194.249C149.202 194.382 148.254 194.513 147.305 194.617C146.477 194.706 145.543 194.826 144.875 194.203C143.53 192.943 144.284 190.832 145.135 189.559C145.152 189.534 145.152 189.511 145.146 189.49C145.949 189.301 146.749 189.082 147.548 188.927C149.084 188.632 150.63 188.382 152.179 188.16C155.361 187.706 158.563 187.406 161.762 187.104C162.554 187.027 162.563 185.781 161.762 185.855C157.167 186.275 152.549 186.674 148.015 187.56C146.878 187.78 145.75 188.029 144.628 188.31C144.098 188.442 143.53 188.647 142.974 188.653C142.94 188.653 142.906 188.653 142.873 188.651C141.785 188.617 141.626 187.685 142.224 186.909C142.298 186.814 142.374 186.719 142.452 186.628C143.508 185.368 144.824 184.527 146.181 183.656C147.7 183.449 149.215 182.988 150.702 182.65C154.374 181.813 158.046 180.976 161.72 180.142C162.44 179.977 162.134 178.869 161.413 179.032C158.625 179.664 155.836 180.296 153.047 180.928L148.966 181.854C148.15 182.037 147.132 182.407 146.172 182.541C145.699 182.606 145.241 182.614 144.827 182.517C143.489 182.2 143.422 180.528 143.999 179.535C144.645 178.419 145.866 177.722 146.95 177.09C148.828 175.993 150.827 175.204 152.779 174.296C153.125 174.22 153.472 174.143 153.818 174.067C155.834 173.624 158.137 173.406 160.034 172.592C160.602 172.351 160.291 171.455 159.73 171.468C158.257 171.5 156.717 172.024 155.278 172.334C153.721 172.672 152.162 173.008 150.605 173.345C150.449 173.378 149.523 173.674 149.384 173.609C149.295 173.566 149.263 173.258 149.234 173.055C149.139 172.387 149.069 171.686 149.173 171.015C149.401 169.513 150.654 168.807 151.921 168.23C154.744 166.947 157.839 166.144 160.919 165.823C161.629 165.749 162.339 165.702 163.053 165.679C163.891 165.654 164.582 165.506 165.007 166.332C165.675 167.634 166.042 169.308 166.262 170.794ZM162.342 217.998C161.727 215.87 161.894 213.598 161.473 211.427C161.256 210.308 160.959 209.197 160.635 208.104C160.373 207.221 159.937 206.281 159.888 205.36C159.885 205.298 159.957 205.263 160.007 205.291C160.875 205.788 161.541 206.863 162.036 207.706C162.628 208.715 163.081 209.772 163.445 210.883C164.173 213.097 164.77 215.767 163.832 217.998C163.553 218.662 162.572 218.795 162.342 217.998ZM138.34 234.106C137.424 233.466 136.756 232.572 135.979 231.782C135.215 231.006 136.409 229.81 137.174 230.587C137.837 231.26 138.413 232.101 139.193 232.646C139.569 232.908 139.743 233.381 139.497 233.803C139.279 234.174 138.715 234.367 138.34 234.106ZM133.229 209.516C134.903 208.792 136.548 208.004 138.299 207.483C139.345 207.171 139.788 208.803 138.748 209.113C137.136 209.593 135.623 210.31 134.083 210.976C133.093 211.403 132.234 209.946 133.229 209.516ZM115.561 209.009C115.152 208 116.788 207.564 117.191 208.56C117.655 209.706 118.187 210.823 118.651 211.969C119.06 212.978 117.425 213.414 117.021 212.418C116.557 211.272 116.025 210.156 115.561 209.009ZM98.1221 229.176C97.8495 229.54 97.3951 229.737 96.9658 229.48C96.6062 229.264 96.3867 228.691 96.6626 228.323C97.4682 227.249 98.2843 226.188 99.2285 225.23C99.9939 224.454 101.188 225.65 100.424 226.426C99.5805 227.281 98.8417 228.217 98.1221 229.176ZM95.6285 116.021C96.4043 116.551 97.0839 117.195 97.7467 117.858C98.5172 118.628 97.3218 119.824 96.5513 119.053C95.9929 118.495 95.4297 117.928 94.7754 117.481C94.3974 117.223 94.2278 116.743 94.4722 116.325C94.6913 115.95 95.2514 115.764 95.6285 116.021ZM121 143.23C120.561 144.108 120.166 144.97 120.141 145.968C120.115 147.056 118.425 147.057 118.452 145.968C118.484 144.662 118.966 143.528 119.54 142.376C120.027 141.401 121.484 142.259 121 143.23ZM130.309 121.378C131.217 120.772 132.063 122.237 131.162 122.838C130.432 123.324 129.702 123.812 128.971 124.299C128.063 124.904 127.218 123.439 128.118 122.839C128.848 122.352 129.579 121.865 130.309 121.378ZM89.9323 159.584C89.7772 160.659 88.1488 160.199 88.3024 159.135C88.54 157.49 88.8301 155.867 89.2761 154.265C89.5681 153.217 91.198 153.665 90.9058 154.715C90.4598 156.317 90.1698 157.94 89.9323 159.584ZM84.0064 178.952C82.9186 178.929 82.9184 177.238 84.0064 177.261C84.9909 177.282 85.9588 177.542 86.9084 177.779C87.9648 178.043 87.5143 179.673 86.459 179.409C85.6562 179.208 84.8388 178.97 84.0064 178.952ZM81.819 217.968C81.4452 218.15 81.0618 218.313 80.6841 218.486C79.9275 218.832 79.1714 219.179 78.4155 219.526C76.8407 220.249 75.2667 220.975 73.6943 221.703C70.5464 223.16 67.3742 224.567 64.2187 226.009C61.0009 227.479 57.7915 228.969 54.5862 230.467C53.076 231.172 51.5545 231.852 50.0359 232.538C48.7374 233.126 47.1324 234.152 45.707 234.249C45.6337 234.254 45.6092 234.161 45.651 234.113C46.1895 233.501 47.0486 233.144 47.7563 232.746C48.4793 232.339 49.2157 231.956 49.9488 231.568C51.4771 230.758 53.0074 229.955 54.5505 229.173C57.6371 227.61 60.7296 226.059 63.8228 224.51C66.9774 222.929 70.1281 221.339 73.3104 219.815C74.8087 219.097 76.3085 218.381 77.8091 217.668C78.6221 217.282 79.4355 216.896 80.2488 216.511C80.6002 216.345 80.9479 216.165 81.3071 216.016C81.7843 215.819 82.1471 215.859 82.6393 215.737C83.4422 215.539 83.7897 216.56 83.1734 217.005C82.666 217.371 82.3989 217.685 81.819 217.968ZM70.5358 235.305C70.3624 234.883 70.7255 234.37 71.1261 234.265C71.6059 234.138 71.9906 234.43 72.1657 234.855C72.629 235.983 73.289 237.017 74.1386 237.891C74.8978 238.672 73.7033 239.868 72.9434 239.087C71.8788 237.992 71.1141 236.712 70.5358 235.305ZM62.2349 208.165C61.4644 207.395 62.6598 206.199 63.43 206.97L65.6205 209.161C66.3909 209.932 65.1954 211.127 64.4253 210.356L62.2349 208.165ZM39.7624 204.593C38.1876 205.055 36.3508 205.48 35.2771 206.823C35.2247 206.889 35.1367 206.805 35.1681 206.739C36.5426 203.889 40.4845 202.889 43.2136 201.89C45.144 201.184 47.1246 200.598 49.1219 200.074C48.9223 197.795 49.4729 195.352 49.6643 193.084C49.8686 190.662 50.0348 188.234 50.1202 185.805C50.2074 183.327 50.2286 180.832 50.147 178.353C50.0659 175.884 49.7454 173.444 49.6051 170.983C49.5916 170.745 49.9229 170.734 49.9943 170.93C50.8237 173.214 51.178 175.744 51.448 178.153C51.726 180.634 51.8183 183.108 51.7829 185.603C51.7461 188.169 51.5969 190.729 51.3922 193.286C51.2952 194.498 51.1826 195.709 51.0764 196.92C50.9952 197.845 50.9576 198.762 50.7692 199.657C51.9738 199.361 53.1812 199.082 54.3848 198.81C58.2227 197.943 62.0767 197.139 65.8985 196.202C67.7745 195.743 69.6238 195.192 71.4914 194.703C73.25 194.242 75.1062 193.684 76.9117 193.478C77.556 193.405 77.638 194.287 77.2114 194.586C75.744 195.617 73.795 196.334 72.1 196.911C70.3989 197.49 68.6306 197.907 66.887 198.336C63.2509 199.23 59.5803 199.962 55.9152 200.724C52.2552 201.485 48.5883 202.24 44.9695 203.179C43.2267 203.631 41.4899 204.085 39.7624 204.593ZM31.1327 159.359C30.1917 159.912 29.3422 158.45 30.2798 157.899C31.5067 157.179 32.8142 156.637 34.1323 156.109C35.1438 155.704 35.579 157.34 34.5817 157.74C33.3971 158.214 32.2351 158.712 31.1327 159.359ZM27.7254 222.175C26.7819 222.723 25.9317 221.261 26.8725 220.716C28.1938 219.949 29.6407 219.438 31.01 218.768C31.9841 218.291 32.8398 219.749 31.8628 220.228C30.4938 220.898 29.0467 221.409 27.7254 222.175ZM26.1928 186.518C27.1051 187.385 28.3226 187.793 29.4707 188.248C30.4717 188.645 30.0326 190.28 29.0213 189.879C27.591 189.311 26.1341 188.793 24.9977 187.713C24.2071 186.962 25.4044 185.769 26.1928 186.518ZM36.2853 138.092C37.2882 138.486 36.849 140.12 35.8359 139.723C34.7124 139.282 33.5521 138.946 32.4286 138.505C31.4259 138.112 31.865 136.477 32.878 136.875C34.0015 137.316 35.1618 137.651 36.2853 138.092ZM54.0895 118.858C55.1551 118.678 55.6089 120.307 54.5388 120.488C53.2112 120.712 51.9039 120.975 50.6448 121.462C49.6279 121.856 49.1917 120.22 50.1954 119.832C51.4548 119.344 52.7621 119.082 54.0895 118.858ZM59.9722 165.689C58.9951 165.209 59.8524 163.751 60.8251 164.229C61.8502 164.734 62.9122 165.123 64.0307 165.361C65.0957 165.588 64.6421 167.218 63.5813 166.992C62.3226 166.724 61.1249 166.256 59.9722 165.689ZM65.5283 139.31C66.5805 139.021 67.0254 140.653 65.9777 140.94C64.1344 141.445 62.2366 141.708 60.3798 142.157C59.3215 142.414 58.8738 140.783 59.9304 140.527C61.7872 140.077 63.6852 139.815 65.5283 139.31ZM89.0986 131.031C90.1685 131.229 89.7126 132.859 88.6495 132.662C87.5177 132.452 86.3707 132.449 85.2233 132.448C84.1341 132.448 84.136 130.757 85.2233 130.758C86.5269 130.758 87.8137 130.794 89.0986 131.031ZM165.97 139.865C163.209 139.601 160.444 139.389 157.674 139.231C157.545 139.224 157.418 139.216 157.289 139.209C157.275 139.18 157.256 139.152 157.236 139.123C156.332 137.795 155.667 136.468 155.09 134.968C154.539 133.539 154.004 132.066 153.155 130.777C152.186 129.308 150.879 128.158 149.445 127.162C148.576 127.747 147.769 128.432 147.031 129.158C146.254 129.921 145.059 128.726 145.836 127.962C146.492 127.317 147.192 126.721 147.932 126.183C147.077 125.663 146.206 125.175 145.355 124.69C142.167 122.87 138.903 121.188 135.571 119.649C134.023 118.932 132.455 118.296 130.877 117.652C130.027 117.305 129.189 116.859 128.339 116.458C128.401 115.857 128.221 115.185 127.761 114.79C127.42 114.5 127.156 114.393 126.751 114.188C126.66 114.156 126.605 114.137 126.58 114.126C126.599 114.131 126.654 114.147 126.744 114.177C126.96 114.277 126.977 114.247 126.795 114.09C126.785 113.748 126.11 113.025 125.956 112.672C125.42 111.461 125.253 110.18 124.461 109.077C123.368 107.558 121.535 106.983 119.825 107.498C119.648 105.67 119.601 103.762 118.913 102.13C118.894 102.086 118.832 102.067 118.805 102.115C118.087 103.339 118.025 104.702 117.97 106.114C117.918 107.439 117.968 108.794 118.142 110.111C118.032 110.195 117.92 110.276 117.804 110.354C117.258 110.713 116.671 110.99 116.054 111.195C114.88 111.584 113.648 111.753 112.416 111.812C109.237 111.964 105.96 111.643 102.833 111.098C99.6705 110.546 94.8219 109.718 92.0078 108.135C90.1505 107.091 88.4374 105.816 86.7005 104.582C87.3303 102.553 87.4909 100.372 86.8571 98.6576C86.781 98.4526 86.4599 98.4145 86.3986 98.6576C86.0014 100.293 85.8852 101.938 85.3571 103.555C85.3486 103.578 85.3402 103.603 85.3317 103.626C85.1669 103.515 85.0021 103.405 84.8374 103.295C84.4571 103.043 83.9395 103.231 83.7113 103.59C80.0625 109.341 74.2845 109.671 68.2169 110.698C61.5766 111.823 54.9028 113.036 48.5183 115.236C42.4127 117.341 36.5775 120.406 31.955 124.984C30.9086 126.02 29.93 127.124 29.0063 128.277C29.9 128.39 30.7862 128.565 31.6611 128.84C32.6969 129.166 32.2518 130.798 31.2117 130.471C30.0874 130.117 28.9505 129.942 27.8021 129.855C24.6612 134.154 22.2121 139.028 20.0944 143.825C16.0324 153.023 13.3883 162.819 12.1717 172.792C12.8397 172.392 13.5197 172.01 14.2167 171.655C15.1852 171.163 16.0393 172.622 15.0698 173.115C13.9932 173.663 12.9474 174.267 11.9342 174.922C11.4916 179.287 11.32 183.681 11.424 188.067C11.6712 198.525 13.0824 209.289 16.2747 219.267C17.8402 224.164 19.9148 229.021 23.0057 233.159C24.4043 235.033 25.993 236.724 27.8648 238.134C28.7712 238.819 29.7303 239.43 30.7423 239.945C32.0458 240.613 33.7444 240.833 34.8683 241.778C35.2381 242.089 35.5233 242.498 35.7388 242.961C35.6141 243.84 35.5993 244.722 35.8402 245.601C35.9162 245.876 36.1233 246.1 36.3789 246.208C36.3831 246.284 36.3831 246.358 36.3831 246.429C36.3831 246.463 36.4338 246.472 36.4402 246.438C36.4507 246.372 36.4613 246.307 36.4719 246.239C36.5543 246.267 36.6409 246.28 36.7296 246.28C39.9388 246.292 43.1519 246.213 46.3653 246.104C46.1169 245.343 45.8477 244.588 45.5893 243.826C45.2384 242.792 46.8713 242.352 47.219 243.377C47.5214 244.267 47.8374 245.15 48.1186 246.043C51.5617 245.915 55.0036 245.761 58.4395 245.648C65.7472 245.404 73.0529 245.324 80.3625 245.17C91.7141 244.929 103.148 244.436 114.518 244.919C114.911 244.084 115.351 243.268 115.768 242.445C116.26 241.473 117.718 242.329 117.227 243.298C116.937 243.87 116.637 244.435 116.352 245.006C118.654 245.126 120.954 245.284 123.25 245.5C127.167 245.867 131.046 246.52 134.958 246.926C138.936 247.34 142.828 247.267 146.775 246.609C147.485 246.491 147.903 246.062 148.076 245.529C148.082 245.527 148.087 245.523 148.091 245.516C148.293 245.28 148.484 245.083 148.68 244.912C148.915 244.76 149.168 244.631 149.466 244.517C150.022 244.305 150.601 244.176 151.188 244.09C151.835 243.993 152.489 243.984 153.136 243.904C153.681 243.834 154.213 243.731 154.746 243.604C155.703 243.376 156.611 243.078 157.516 242.682C158.304 242.338 159.015 241.843 159.687 241.304C161.078 240.288 162.282 238.99 163.334 237.642C163.947 236.853 164.523 236.035 165.047 235.184C165.96 233.708 166.737 232.176 167.523 230.631C167.808 230.173 168.069 229.704 168.307 229.226C166.771 228.773 165.22 228.404 163.592 228.378C162.503 228.36 162.504 226.669 163.592 226.687C165.459 226.717 167.226 227.153 168.981 227.673C169.066 227.446 169.148 227.217 169.224 226.985C169.433 226.501 169.606 226.005 169.75 225.502C169.834 225.273 169.919 225.045 170.004 224.817C170.194 224.026 170.384 223.234 170.576 222.441C170.958 221.173 171.26 219.886 171.482 218.582C171.668 217.724 171.812 216.859 171.909 215.984C172.205 213.865 172.446 211.749 172.463 209.606C172.437 208.285 172.353 206.966 172.209 205.654C172.148 204.762 172.044 203.874 171.905 202.993C171.723 201.682 171.544 200.385 171.242 199.091C171.016 198.216 170.789 197.341 170.563 196.466C169.999 194.643 169.334 192.854 168.567 191.106C168.525 190.997 168.311 190.756 168.182 190.753C168.085 190.751 167.95 190.84 167.994 190.959C167.999 190.969 168.003 190.982 168.007 190.992C167.963 190.893 167.92 190.792 167.876 190.692C167.838 190.599 167.69 190.413 167.576 190.416C167.57 190.416 167.563 190.416 167.555 190.417C167.585 190.396 167.612 190.369 167.639 190.337C168.398 189.439 168.89 188.257 169.433 187.218C169.883 186.359 170.308 185.455 170.43 184.485C170.538 183.633 170.392 182.794 169.858 182.105C169.249 181.321 168.104 180.953 168.74 179.82C169.463 178.531 170.525 177.413 169.467 175.948C168.928 175.202 168.075 174.793 167.441 174.143C166.712 173.393 166.365 172.389 166.385 171.364C166.429 171.39 166.488 171.377 166.509 171.313C167.122 169.462 166.678 167.429 166.051 165.626C165.708 164.648 164.984 164.379 164.141 164.331C167.791 157.198 171.208 149.95 174.252 142.536C174.354 142.293 174.453 142.05 174.552 141.807C174.7 141.443 174.387 140.96 174.026 140.879C171.394 140.302 168.651 140.118 165.97 139.865Z" fill="black"/>
<path fill-rule="evenodd" clip-rule="evenodd" d="M102.563 15.9062C114.534 15.9062 126.915 25.2082 131.303 31.144C134.993 36.1346 136.979 58.7016 136.979 73.9526C136.979 77.1423 138.735 83.155 138.222 86.2061C136.345 97.3863 128.164 106.763 111.973 106.763C95.7826 106.763 84.174 100.329 72.1398 83.055C66.3007 83.055 63.4709 78.5659 63.4298 71.4817C63.3887 64.3975 69.066 61.8201 69.066 61.8201C69.066 61.8201 67.0417 33.8628 72.1398 26.5841C77.2378 19.3054 90.5926 15.9062 102.563 15.9062Z" fill="#D08B5B"/>
<path fill-rule="evenodd" clip-rule="evenodd" d="M97.5256 11.953C105.084 11.1858 112.49 11.8304 119.938 13.1642C120.507 13.2676 120.83 13.6419 120.95 14.0918C124.458 14.2525 127.97 14.5105 131.474 14.7028C132.745 14.7726 133.466 16.032 132.887 17.1693C132.771 17.3952 132.65 17.615 132.528 17.8348L132.682 17.7841C133.736 17.4451 134.874 17.278 135.901 17.816C137.208 18.5008 137.721 20.0117 137.432 21.4024C137.358 21.7575 137.234 22.0978 137.093 22.4298C137.379 22.4108 137.668 22.4171 137.955 22.4552C139.481 22.6581 140.615 23.8311 140.696 25.3929C140.814 27.7514 139.298 30.1441 137.512 31.8326C137.771 32.3675 137.871 32.9973 137.763 33.6356C137.548 34.8974 136.621 35.6529 135.546 36.1458C135.994 37.5726 136.206 39.0643 136.081 40.5888C136.039 41.0977 135.595 41.5181 135.127 41.6213C136.873 46.443 137.758 51.6198 138.393 56.6641C138.847 60.2531 139.07 63.8629 139.097 67.4789C139.111 69.1115 139.084 70.7459 139.015 72.3787L138.988 72.9909C138.904 74.7559 138.899 76.6092 138.583 78.3552C139.663 80.1959 140.097 82.4808 140.28 84.5433C140.508 87.0964 140.147 89.7299 139.344 92.1585C136.312 101.335 127.163 107.126 117.973 108.631C109.467 110.024 99.6233 108.149 94.6521 100.403C94.5741 100.28 94.7406 100.179 94.8376 100.26C98.3942 103.159 102.52 104.453 107.002 105.082C114.752 106.169 123.463 104.326 129.682 99.4395C132.667 97.0935 134.82 93.6781 135.767 90.0025C136.249 88.1238 136.416 86.1644 136.226 84.2307C136.032 82.2694 135.166 80.5955 134.62 78.742C134.436 78.1162 134.63 77.535 135.012 77.1209C135.119 75.6159 135.372 74.0984 135.469 72.598C135.577 70.8922 135.642 69.1866 135.665 67.4789C135.71 63.9367 135.562 60.3881 135.265 56.8609C134.721 50.4018 133.277 44.0996 132.429 37.6954C132.115 37.9776 131.666 38.0934 131.194 37.8469L131.145 37.8201L130.888 37.6724C130.873 37.6724 130.857 37.6745 130.842 37.6764C129.081 37.8478 127.256 37.6026 125.569 37.0762C123.804 36.5269 122.166 35.6815 120.703 34.555C120.425 35.9687 120.309 37.3974 120.307 38.8388C120.305 39.7392 119.354 40.2065 118.599 39.8218C115.254 38.1181 112.058 36.1549 109.024 33.9484C108.669 35.7681 108.315 37.5876 107.959 39.4095C107.822 40.1114 106.93 40.3946 106.359 40.0606C104.086 38.7353 102.124 37.0003 100.526 34.9373C100.207 35.549 99.8865 36.1605 99.5644 36.7707L99.0793 37.6849C98.6008 38.5831 97.9599 39.5767 96.9121 39.8639C95.8032 40.1682 94.8774 39.4477 94.5045 38.4415C94.3907 38.1289 94.2852 37.8074 94.1883 37.4841C93.2436 39.6464 92.177 41.7599 90.9711 43.7762C89.1623 46.8004 86.9906 49.4951 84.8257 52.2596C84.1679 53.0988 83.0421 52.2976 82.9515 51.482C82.8988 51.0023 82.8545 50.5204 82.8163 50.0404C81.5548 52.5927 80.2384 55.121 78.8042 57.5761L79.0095 58.3828V58.3828C79.6013 60.7664 80.0927 63.1669 80.6269 65.5632C80.7994 66.3363 80.3895 67.4417 79.4885 67.5734C78.412 67.7306 77.3936 68.282 76.291 67.9027C75.0886 67.4888 74.851 66.4471 74.2835 65.4597C74.1703 65.2629 74.0385 65.0822 73.8969 64.9106L73.8608 64.9575V64.9575C73.7723 65.074 73.5614 64.9471 73.6142 64.814L73.6759 64.6601V64.6601C73.1883 64.1413 72.6047 63.7084 72.0682 63.2428C70.7931 63.0274 69.3589 63.2633 68.4804 63.7826C66.4797 64.966 65.5608 67.4049 65.5418 69.6476C65.5186 72.2725 66.33 75.223 67.7004 77.4675C68.3036 78.4545 69.13 79.3462 70.2218 79.7839C71.3057 80.2191 72.4799 80.084 73.5825 80.4939C74.312 80.7667 74.761 81.5783 74.3204 82.3136C74.2909 82.3645 74.2572 82.4108 74.2253 82.4596L74.5533 82.896C74.7788 83.1982 75.014 83.5218 75.2333 83.8586C75.7941 84.5055 76.3844 85.129 76.9557 85.7651C78.0117 86.9379 79.0365 88.1428 80.0756 89.3325C81.0562 90.455 82.0934 91.5094 83.1623 92.5472C84.1721 93.5302 85.4328 94.3563 86.3604 95.4048C87.2626 96.4278 87.5073 98.2135 86.0229 98.8055C84.3808 99.462 82.927 97.9233 81.8216 96.8975L81.7751 96.8545C79.7487 94.9851 77.9187 92.8488 76.4655 90.4966C75.026 91.479 72.944 91.5728 71.5106 90.5907C70.7563 90.0739 70.1775 89.2055 69.8963 88.2608C69.6311 88.3204 69.3661 88.3552 69.1076 88.3512C68.9746 88.4286 68.8411 88.5038 68.7062 88.574C67.6371 89.1317 66.3239 88.8826 65.8348 87.6967C65.3894 86.6201 65.8484 85.3975 66.2496 84.3603L66.3324 84.146C66.5601 83.5544 66.8109 82.9098 67.1229 82.3032C66.2544 81.648 65.5121 80.8341 64.884 79.9086C62.7737 76.7912 61.7196 72.2322 62.1855 68.5126C62.4659 66.2681 63.5177 63.9432 65.2401 62.4297L65.1771 62.2649V62.2649C64.6943 61.0372 64.2556 59.8048 63.9712 58.5073C63.6381 56.9898 63.4755 55.4174 63.3282 53.8724C63.0161 50.6091 63.1005 47.2719 63.5158 44.0214C64.2958 37.9028 66.2733 31.8962 69.7835 26.8048C68.7882 25.6104 68 24.2049 68.4109 22.5883C68.5987 21.8463 69.0265 21.1427 69.6718 20.7177C70.0279 20.4833 70.4518 20.4473 70.8081 20.2529L70.9152 20.1938C71.0717 20.1022 70.952 20.1119 70.8587 19.6865C70.4898 17.987 70.7955 16.345 72.6612 15.7807C74.4174 15.2502 76.0787 16.3767 77.118 17.7188C79.8376 15.7847 83.4216 14.7726 86.5734 13.9124C90.1573 12.9379 93.8339 12.3294 97.5256 11.953ZM68.1497 68.9542C68.1369 67.5698 69.4461 66.716 70.7344 66.9423C71.5995 67.0933 72.3211 67.6108 72.9988 68.1458L73.3292 68.4079C74.1544 69.0573 75.1017 69.7575 75.5936 70.6769C76.3147 72.0338 74.7906 73.8596 73.3676 72.9086C72.3914 72.2527 71.7657 71.2019 71.1254 70.2258L71.0591 70.1251C70.7681 69.6876 70.513 69.2226 70.1144 68.8718L70.0283 68.7962C69.8972 68.6842 69.7565 68.582 69.5873 68.5336C69.2609 68.4395 68.6563 68.5713 68.5123 68.9609L68.4995 69.0007C68.4468 69.1975 68.1518 69.155 68.1497 68.9542Z" fill="black"/>
<path fill-rule="evenodd" clip-rule="evenodd" d="M122.634 82.7091C123.359 81.4296 125.522 81.6376 125.853 83.1299C126.524 86.1552 122.917 88.9488 120.179 89.0186C117.457 89.0877 114.403 86.7702 114.797 83.843C114.894 83.1189 115.861 83.2068 116.191 83.6608L116.319 83.835C117.214 85.038 118.395 86.2832 120.056 85.9899C120.745 85.8686 121.37 85.4383 121.786 84.8843C122.288 84.2158 122.233 83.4176 122.634 82.7091ZM105.328 60.5764C105.696 60.4747 106.069 60.514 106.395 60.6531C107.125 60.7869 107.735 61.3956 107.949 62.0905C107.966 62.1507 107.985 62.2101 108.005 62.2689L108.038 62.3566L107.951 62.1338C107.991 62.3532 108.169 62.5838 108.234 62.804C108.313 63.0748 108.332 63.3823 108.305 63.6803C108.537 63.6826 108.769 63.6904 109.001 63.7105L109.225 63.7306C110.476 63.8469 111.85 64.0603 112.592 65.142C113.008 65.7498 112.617 66.8442 111.852 66.9613C110.673 67.1416 109.658 66.4893 108.484 66.3587C107.374 66.2351 106.213 66.3059 105.117 66.5064C102.855 66.9202 100.776 67.8374 98.5721 68.4129L98.272 68.4891V68.4891L98.2724 68.4876C97.8947 68.5789 97.4658 68.0535 97.8395 67.7462C99.6055 66.2949 101.867 65.1187 104.094 64.4025C103.769 63.8861 103.669 63.206 103.891 62.6516C103.925 62.5367 103.968 62.425 104.013 62.3137L104.107 62.0846V62.0846C104.116 61.9766 104.136 61.8698 104.166 61.7652L104.171 61.7333V61.7333L104.174 61.7352V61.7352C104.34 61.1961 104.773 60.7294 105.328 60.5764ZM127.858 60.6598C128.341 60.1764 129.02 60.2479 129.524 60.6283L129.591 60.6807V60.6807C130.066 60.8919 130.459 61.3533 130.717 61.7808C130.985 62.2249 131.163 62.6772 131.17 63.166C132.34 63.1698 133.459 63.5207 134.318 64.465C134.595 64.7697 134.784 65.2398 134.632 65.653L134.541 65.8988V65.8988C134.253 66.6792 132.957 67.1284 132.516 66.2107L132.496 66.1659C132.028 65.0762 130.232 65.1905 129.277 65.3019C128.612 65.3799 127.954 65.5454 127.312 65.7307C127.085 65.7961 126.861 65.867 126.637 65.9393L126.412 66.0121C126.293 66.0507 125.67 66.3891 126.058 66.309C126.162 66.2874 126.24 66.4392 126.134 66.4901C125.672 66.711 125.179 66.2712 125.21 65.7749C125.264 64.9135 126.631 64.4412 127.289 64.1441L127.328 64.1262C127.581 64.0095 127.845 63.8977 128.118 63.7939C127.964 63.5657 127.837 63.3121 127.732 63.0398C127.632 62.7828 127.566 62.533 127.529 62.2597C127.493 62.1262 127.493 61.9926 127.529 61.8588L127.535 61.8206V61.8206C127.516 61.7322 127.507 61.6409 127.508 61.549L127.505 61.5133H127.508C127.521 61.1914 127.649 60.8688 127.858 60.6598ZM120.141 69.8334C121.996 70.407 125.058 71.9696 124.091 74.3813C122.741 76.5962 119.16 74.9684 117.425 74.2528C115.866 73.7362 115.054 75.9218 116.561 76.5806C129.018 81.5103 128.972 68.4998 120.593 68.6909C119.67 68.7118 119.641 69.6428 120.141 69.8334ZM103.661 52.8689L103.978 52.7765C105.622 52.2999 107.301 51.4769 108.761 52.7611C109.335 53.2654 109.453 54.3133 109.043 54.9422C108.108 56.3754 106.722 56.1565 105.212 56.2786C104.063 56.3716 102.931 56.7093 101.858 57.1314C100.981 57.4765 100.168 57.9624 99.4004 58.5043C98.6462 59.0372 98.1309 59.8701 97.3572 60.3496C97.0737 60.5255 96.7463 60.3446 96.6444 60.0595C96.2836 59.0481 96.8933 57.7883 97.4092 56.9266C98.039 55.8754 98.9956 55.0156 100.024 54.365C101.151 53.6526 102.396 53.2412 103.661 52.8689V52.8689ZM127.627 51.7808C130.407 51.7799 133.082 53.3268 134.637 55.5944C135.165 56.3647 134.778 57.506 134.019 57.9497C133.169 58.4476 132.259 58.089 131.698 57.3755L131.665 57.3323C130.773 56.1443 129.624 55.2087 128.261 54.5995C127.596 54.3022 126.861 54.061 126.142 53.9386L125.909 53.8988C125.584 53.8442 125.206 53.7921 124.911 53.8431C124.753 53.8638 124.608 53.916 124.475 53.9955C124.539 54.1358 124.373 54.3049 124.22 54.2208C123.529 53.8412 123.614 53.1641 124.185 52.6378C124.992 51.8932 126.584 51.781 127.627 51.7808Z" fill="black"/>
<path fill-rule="evenodd" clip-rule="evenodd" d="M121.447 78.0575C119.097 76.9989 114.878 77.9227 113.347 78.29C109.786 79.1443 106.203 80.9904 105.096 83.8828C103.849 87.1424 106.338 88.1685 106.704 88.0009C109.169 88.1747 112.105 86.6244 114.688 86.2243C116.785 85.8967 118.997 85.6108 120.962 84.4961C122.396 85.2855 125.636 85.7122 128.251 86.4025C130.478 86.99 131.443 88.2643 133.508 87.9933C135.982 87.6687 134.969 82.4625 132.212 80.3534C129.193 78.0453 124.089 77.1092 121.447 78.0575ZM126.099 100.318C124.043 100.819 123.905 96.3123 123.675 94.72C123.495 93.476 122.48 90.268 119.908 90.4064C117.336 90.5448 116.369 93.2326 116.499 94.9043C116.584 95.9884 117.583 101.48 114.395 102.174C112.363 102.167 110.012 102.03 107.875 101.636C105.36 101.066 102.09 99.0711 101.226 103C100.915 104.414 111.994 108.615 116.91 108.995C121.895 110.006 127.728 108.451 131.278 104.636C132.085 103.768 134.36 100.165 134.522 99.2824C134.862 97.4278 134.074 96.2344 131.78 96.8881C130.16 97.7538 127.421 99.9956 126.099 100.318Z" fill="black"/>
<path fill-rule="evenodd" clip-rule="evenodd" d="M140.122 71.1107C137.557 73.7621 133.275 74.523 129.862 73.101C121.1 69.4385 125.389 58.015 132.147 54.9473C132.991 54.7368 134.118 54.2374 135.147 54.1241C135.24 54.0784 135.442 54.2105 135.687 54.0856C143.139 54.9179 144.836 66.4898 140.122 71.1107M111.859 71.7894C108.982 75.6066 103.634 76.7842 99.2639 75.0097C90.631 71.6087 93.6929 61.4789 99.5994 57.5076C112.076 52.8175 117.228 64.7512 111.859 71.7894M93.1449 63.3316C93.1369 63.3277 93.1289 63.3258 93.1206 63.322C93.1663 63.302 93.2119 63.2819 93.2573 63.2614C93.2425 63.3001 93.2265 63.3383 93.2121 63.377C93.1897 63.3616 93.1701 63.3436 93.1449 63.3316M146.061 59.2054C145.357 59.2068 144.339 59.3227 143.756 59.8115C142.318 54.9604 137.011 50.4707 132.395 53.7445C128.76 54.9139 126.063 57.5074 124.53 60.9553C121.766 59.3106 117.42 60.0129 115.023 62.1879C113.453 56.9991 109.59 55.1821 104.992 54.9139C99.9729 54.0915 94.9705 58.9676 93.4096 62.8793C92.1118 62.7315 90.1726 62.3183 88.9517 63.1196C81.0277 61.0407 67.1738 59.8946 65.5629 61.0496C64.4148 61.4903 63.7848 64.201 65.3884 64.3473C66.7857 64.1488 65.2253 62.361 66.6338 62.166C74.1386 61.7006 81.4242 63.2126 88.8496 63.847C89.5126 64.7391 91.6546 65.0376 92.7974 64.6791C90.9976 71.3147 94.8828 75.8291 100.704 77.1813C109.718 79.2528 117.561 71.186 115.204 62.7954C117.934 61.4364 121.075 61.4947 124.05 62.2105C119.079 80.5114 148.542 79.6903 143.94 60.4386C147.003 61.9624 147.668 59.5129 146.061 59.2054" fill="black"/>
</g>
<defs>
<filter id="filter0_d_5_19624" x="0" y="0" width="180.817" height="259.93" filterUnits="userSpaceOnUse" color-interpolation-filters="sRGB">
<feFlood flood-opacity="0" result="BackgroundImageFix"/>
<feColorMatrix in="SourceAlpha" type="matrix" values="0 0 0 0 0 0 0 0 0 0 0 0 0 0 0 0 0 0 127 0" result="hardAlpha"/>
<feOffset dy="4"/>
<feGaussianBlur stdDeviation="2"/>
<feComposite in2="hardAlpha" operator="out"/>
<feColorMatrix type="matrix" values="0 0 0 0 0 0 0 0 0 0 0 0 0 0 0 0 0 0 0.25 0"/>
<feBlend mode="normal" in2="BackgroundImageFix" result="effect1_dropShadow_5_19624"/>
<feBlend mode="normal" in="SourceGraphic" in2="effect1_dropShadow_5_19624" result="shape"/>
</filter>
</defs>
</svg>
