<svg width="385" height="580" viewBox="0 0 385 580" fill="none" xmlns="http://www.w3.org/2000/svg">
<path fill-rule="evenodd" clip-rule="evenodd" d="M206.164 322.094C206.726 327.943 205.578 333.529 202.843 338.251L201.954 339.788L203.647 340.379C206.729 341.455 210.156 341.979 214.124 341.979C218.209 341.979 222.456 341.411 225.868 340.954L228.053 340.662L226.98 338.767C226.117 337.244 225.957 335.398 225.788 333.444C225.742 332.919 225.695 332.376 225.633 331.839C222.4 302.978 218.313 273.74 214.36 245.465C213.319 238.025 212.244 230.331 211.201 222.763L208.207 222.878C207.402 236.886 206.621 251.131 205.865 264.908C205.533 270.965 205.201 277.023 204.866 283.08C203.671 298.394 204.084 310.794 206.164 322.094M207.386 495.163C202.99 495.163 198.586 494.706 194.296 493.805C180.873 490.991 168.677 484.352 158.299 478.351C157.77 478.051 157.232 477.751 156.68 477.442C152.617 475.172 147.561 472.348 144.393 468.903C140.917 465.123 140.318 461.357 142.51 457.051L142.857 456.37L142.495 455.696C140.225 451.478 140.394 446.259 142.905 443.005L145.015 440.27L141.546 440.638C138.047 441.009 134.521 441.511 131.11 441.997C127.327 442.536 123.414 443.093 119.56 443.466L118.489 443.57L118.243 444.6C118.106 445.174 117.936 445.522 116.747 445.522C115.717 445.522 114.331 445.221 112.865 444.902C111.045 444.506 108.982 444.057 106.993 444.057C106.119 444.057 105.332 444.14 104.587 444.312L104.154 444.412L103.846 444.727C103.649 444.928 103.314 445.053 102.971 445.053C102.711 445.053 102.471 444.981 102.31 444.856L101.824 444.476L101.208 444.544C90.4644 445.722 81.2006 447.789 72.888 450.863L72.8503 450.877L72.67 450.955C69.6642 452.25 66.5565 453.59 63.7262 453.59C61.6572 453.59 59.9771 452.887 58.4385 451.378L58.0037 450.952L57.3903 450.946C51.167 450.889 48.3234 443.642 47.9302 438.785L47.8808 438.174L47.4063 437.776C36.5605 428.687 30.1576 416.205 27.8311 399.615C25.7122 384.504 27.3391 368.571 29.21 354.979C33.5379 319.753 38.0518 288.175 49.526 258.226L50.0621 256.826L48.6335 256.313C43.6778 254.535 39.8903 252.413 37.0545 249.827L36.8582 249.647L36.6109 249.546C32.5466 247.878 30.5561 241.723 30.0428 239.877L30.0017 239.728L29.9299 239.591C29.1007 238.002 28.9094 235.793 29.4054 233.528L29.4585 233.284L29.4277 233.036C29.1599 230.886 30.0488 228.639 30.9899 226.259C31.4199 225.172 31.8643 224.048 32.189 222.929C33.3054 219.73 34.4205 216.475 35.4993 213.327C37.9196 206.263 40.4219 198.958 43.0878 191.853L43.4524 190.881L42.6492 190.211C41.278 189.068 41.7359 187.721 43.7132 184.503C44.1803 183.742 44.6222 183.023 44.9582 182.314C47.4926 177.941 50.2088 173.743 53.0329 169.835L53.091 169.755L53.1374 169.668C67.6285 142.643 93.3331 127.76 125.516 127.76L126.172 127.761L126.534 127.543C132.566 123.921 136.872 117.707 139.698 108.544L139.788 108.252L139.753 107.949C139.656 107.104 139.55 105.997 139.587 104.923C139.679 102.202 140.747 99.7742 142.516 98.2614C145.874 95.3914 150.972 95.1511 155.906 95.1511L156.614 95.1524C162.922 95.1704 167.375 96.264 170.629 98.5945C174.409 101.302 176.499 105.673 177.017 111.957C177.171 113.837 177.166 115.785 177.161 117.669L177.16 118.195L177.223 118.403C177.677 119.897 178.208 121.332 178.802 122.669L179.413 124.044L180.802 123.424C181.7 123.023 182.839 122.817 184.285 122.794C184.701 122.784 185.108 122.78 185.518 122.78C188.874 122.78 192.464 123.086 195.936 123.382C198.552 123.605 201.257 123.835 203.875 123.938L203.911 123.939C203.911 123.939 204.273 123.937 204.435 123.937C210.799 123.937 215.412 124.936 218.953 127.082C222.766 129.392 225.508 133.101 227.581 138.752C238.7 171.143 243.271 206.033 247.303 236.815C249.591 252.912 250.286 269.415 250.959 285.373C251.669 302.218 252.404 319.637 255.004 336.663L255.209 338.009L256.59 337.92C262.666 337.529 269.232 336.685 276.184 335.792C286.745 334.436 297.667 333.033 308.225 333.033C322.987 333.033 334.18 335.933 342.438 341.899C348.195 347.316 351.173 354.651 351.051 363.115C350.878 375.075 344.543 388.297 334.912 396.8L334.875 396.834C322.702 408.318 300.481 418.278 268.829 426.439C239.723 433.943 209.617 438.021 194.262 439.783L190.461 440.22L193.546 442.447C194.794 443.349 195.934 444.142 197.029 444.874L197.735 445.345L198.509 444.991C200.716 443.98 202.117 443.768 202.905 443.768C203.604 443.768 204.447 443.92 204.493 444.642C204.523 445.115 204.186 445.817 203.475 445.906L199.698 446.376L202.782 448.573C204.842 450.04 207.916 451.809 211.475 453.857C223.12 460.557 240.719 470.682 237.692 479.574L237.493 480.158L237.775 480.709C238.588 482.3 238.657 483.778 237.986 485.226C236.55 488.329 232.055 490.684 228.237 491.642L228.172 491.659L228.108 491.681C221.466 493.992 214.494 495.163 207.386 495.163" fill="#D08B5B"/>
<path fill-rule="evenodd" clip-rule="evenodd" d="M177.401 428.389C177.519 428.207 177.624 427.95 177.681 427.723C178.487 428.868 191.374 440.146 204.118 449.718C215.954 458.609 229.531 465.326 234.802 472.738C236.805 475.555 237.823 483.811 237.437 485.198C236.576 486.288 227.101 491.183 227.101 491.183C224.96 491.762 207.775 496.416 200.142 494.832C197.334 494.405 177.086 487.934 174.528 486.777L152.77 474.169C152.295 473.961 151.822 473.754 151.352 473.548L150.715 473.295C145.863 471.355 139.673 467.246 140.94 461.323C142.431 455.227 139.756 453.895 140.369 449.879C140.899 446.403 142.056 442.865 143.904 439.491C151.046 447.512 160.111 446.812 164.677 436.842L164.782 436.639L164.885 436.435C166.378 433.461 167.79 429.682 171.325 428.513C173.276 427.196 175.771 426.922 177.401 428.389ZM112.14 406.018L112.582 407.032C114.73 411.939 119.291 422.138 121.103 426.161C120.699 425.416 120.238 424.701 119.719 424.025C118.202 422.05 119.981 428.017 119.995 434.244C120.008 440.02 118.222 446.021 117.81 446.121C117.304 446.244 110.238 442.776 103.614 443.829C98.2657 444.679 90.157 445.637 82.1013 447.833C75.5534 449.618 69.0406 452.646 64.0739 453.674C60.0387 454.51 59.2499 450.144 56.6134 450.414C54.2381 450.657 53.8557 450.599 53.2675 450.109C49.97 447.386 46.8531 436.625 47.164 432.583C49.9009 411.157 92.1466 404.25 112.14 406.018Z" fill="#DA0037"/>
<path fill-rule="evenodd" clip-rule="evenodd" d="M182.941 121.444L187.992 121.622L188.437 121.64C190.121 121.712 191.87 121.835 194.335 122.039L195.007 122.096L199.874 122.869C201.358 123.103 202.75 123.321 204.094 123.531L206.739 123.94L209.871 124.42L210.216 124.474C214.908 125.231 218.121 126.37 220.775 128.679L220.892 128.782L220.943 128.827L220.991 128.876C225.046 133.041 228.105 139.59 230.598 148.53L230.76 149.118L230.907 149.657C232.473 155.463 238.894 190.009 238.894 190.009L236.692 190.175C236.422 190.195 236.156 190.219 235.892 190.247C227.979 191.074 218.71 195.611 212.632 201.463C212.268 201.813 211.904 202.18 211.54 202.562L211.322 202.793L209.363 204.884C209.363 204.884 202.594 308.786 203.613 316.192L203.667 316.574L203.728 316.853C206.201 328.202 205.088 336.855 200.25 342.356L200.102 342.522L199.949 342.689C194.826 348.204 186.126 350.029 174.177 348.154C174.012 348.128 173.85 348.102 173.69 348.076L171.71 347.743L171.93 345.64L171.966 345.291C173.533 329.859 173.249 316.356 170.613 304.4C167.565 290.577 161.437 279.339 151.695 270.927L151.398 270.672L151.356 270.637L150.611 271.645L148.592 269.928C129.327 253.582 81.3657 216.328 81.3657 216.328L89.0566 205.314L89.0434 205.301C88.9672 205.226 88.8616 205.136 88.7244 205.03L88.5989 204.935L88.5373 204.89C87.8182 204.367 57.1431 190.642 48.0211 189.118L47.5798 189.045L47.1388 188.975L46.7822 188.919L46.2216 188.833L43.882 188.481L44.7532 186.285C44.8698 185.991 44.9879 185.695 45.1075 185.398C47.1073 180.426 49.1066 179.533 51.2722 175.435L51.4508 175.098L51.8061 174.38C56.6261 164.764 63.3344 150.814 77.7355 141.476C97.0439 128.956 119.374 127.076 119.503 127.146C119.503 127.146 122.759 138.923 129.643 147.235C134.117 152.637 142.583 157.305 145.841 158.413L146.092 158.498L146.35 158.582C155.029 161.412 164.5 161.403 172.458 158.471L172.653 158.398L172.775 158.344C177.412 156.28 180.711 152.664 182.827 147.681L182.9 147.506L182.973 147.331C185.348 141.514 186.063 134.124 185.388 126.204L185.364 125.928L185.328 125.532L185.326 125.509L182.941 121.444ZM48.8695 256.27L49.5989 256.504L50.0959 256.661C52.6517 257.462 56.0613 258.899 60.3659 260.074L64.8982 261.309C66.1364 261.648 67.0918 261.915 68.0296 262.182L69.4334 262.586L70.0539 262.768L72.4749 263.493L71.2186 265.567L70.718 266.396C56.8091 289.495 45.2509 314.262 36.1827 340.25C35.4907 342.234 34.8106 344.231 34.1433 346.24L33.7444 347.448L30.0913 346.629C30.416 344.03 30.7472 341.501 31.0879 339.027L31.2505 337.855C31.7711 334.133 32.3449 330.297 32.9797 326.277L33.1797 325.016L33.3038 324.118L33.3858 323.535C34.7035 314.229 36.2932 306.224 39.7849 290.385L41.4478 282.856C43.3857 274.037 48.8695 256.27 48.8695 256.27Z" fill="#DA0037"/>
<path fill-rule="evenodd" clip-rule="evenodd" d="M229.44 340.286C230.22 336.039 228.741 331.653 228.485 327.376C224.613 296.87 220.338 266.384 214.673 236.144C213.284 228.907 211.88 221.7 210.27 214.503C210.513 210.144 210.726 205.786 210.867 201.425C218.728 196.49 227.592 193.295 236.76 191.685C239.237 205.468 241.712 219.241 243.43 233.147C248.784 267.568 245.73 302.592 250.923 336.973C243.718 337.78 236.569 338.974 229.44 340.286M243.268 367.102C237.85 368.54 232.428 369.916 226.967 371.186C217.249 373.445 207.533 375.713 197.84 378.074C193.002 379.252 188.153 380.394 183.325 381.611C181.034 382.188 178.757 382.829 176.515 383.572C175.397 383.943 174.303 384.369 173.21 384.806C172.252 385.189 171.348 385.716 170.295 385.641C170.232 385.636 170.193 385.576 170.224 385.519C170.775 384.508 171.91 384.028 172.912 383.517C174.017 382.953 175.169 382.469 176.321 382.007C178.881 380.981 181.548 380.228 184.207 379.496C193.872 376.84 203.62 374.461 213.359 372.08C223.143 369.688 232.928 367.397 242.843 365.585C243.842 365.403 244.274 366.835 243.268 367.102M195.277 448.887C195.711 448.772 196.147 448.665 196.581 448.564C203.532 454.343 236.268 469.35 233.778 478.313C232.898 479.428 230.792 479.682 229.46 480.042C227.141 480.669 224.799 481.211 222.434 481.641C214.791 483.029 206.875 483.271 199.241 481.687C196.433 481.261 193.898 480.064 191.34 478.908C183.075 475.277 173.972 471.266 165.747 467.665C155.298 463.529 136.97 455.377 144.508 441.621C151.65 449.642 160.715 448.942 165.281 438.972C166.856 435.946 168.23 431.866 171.929 430.643C173.88 429.325 176.375 429.052 178.005 430.519C178.123 430.337 178.228 430.08 178.285 429.853C180.123 432.465 181.708 435.215 183.862 437.603C183.123 437.643 175.424 443.333 177.696 443.335C180.43 441.929 183.145 440.758 186.096 440.001C188.236 442.149 190.588 444.147 193.025 445.994C190.658 447.555 188.531 449.467 186.821 451.541C186.673 451.724 186.854 451.961 187.075 451.862C189.73 450.68 192.461 449.642 195.277 448.887M230.514 487.646C203.925 499.572 175.778 486.292 153.104 472.135C147.871 469.217 140.988 465.08 142.046 458.211C145.9 463.842 152.254 467.049 158.353 469.828C168.599 474.453 178.912 478.93 189.184 483.498C190.154 486.711 194.793 486.835 197.596 487.548C210.077 489.965 223.492 488.764 235.238 483.944C234.558 485.955 232.334 486.877 230.514 487.646M124.432 441.209C123.776 441.293 123.118 441.369 122.462 441.443C122.529 440.575 122.005 439.707 121.163 439.438C121.541 437.598 121.681 435.696 121.479 433.829C122.577 436.663 126.122 435.802 128.374 434.986C131.592 434.113 134.789 433.173 137.969 432.172C139.222 434.498 140.551 436.789 142.184 438.896C136.241 439.423 130.353 440.472 124.432 441.209M121.817 432.295C121.659 432.628 121.433 432.981 121.428 433.38C121.268 432.002 120.955 430.64 120.478 429.335C120.924 430.322 121.371 431.308 121.817 432.295M118.066 424.903C115.142 421.097 109.738 417.987 104.743 419.047C104.422 419.116 104.414 419.632 104.743 419.696C111.453 420.606 117.346 425.921 117.579 432.793C118.108 435.904 115.942 438.957 116.672 441.942C116.526 441.952 116.381 441.959 116.238 441.969C116.185 442.169 116.137 442.346 116.075 442.502C116.799 442.622 117.012 443.787 116.157 443.994C115.651 444.117 115.122 444.181 114.583 444.208C111.847 443.471 108.961 443.301 106.345 442.21C103.757 441.069 104.404 437.86 103.491 435.637C102.822 433.074 102.052 430.522 101.082 428.063C101.012 427.865 100.743 427.91 100.721 428.109C100.036 433.015 100.059 438.005 100.224 442.95C99.3266 443.042 98.4339 443.143 97.5384 443.254C97.5963 441.872 93.4463 425.043 91.2597 429.362C92.3605 434.11 92.4934 439.071 92.6112 443.957C86.1191 445.025 79.722 446.616 73.4984 448.781C69.1126 450.108 63.8966 454.035 59.6389 450.486C56.3415 447.763 55.2306 443.012 55.5415 438.97C59.8293 415.052 93.697 412.257 113.69 414.025C115.578 418.376 117.502 422.713 119.45 427.039C119.046 426.294 118.585 425.579 118.066 424.903M49.8769 438.503C49.5108 433.072 50.4258 426.311 54.4558 422.263C63.6787 414.477 76.5928 412.027 88.1176 409.208C93.4861 408.15 98.9279 407.447 104.392 407.097C106.33 406.944 108.793 407.383 110.162 405.8C110.866 407.467 111.581 409.132 112.296 410.797C89.3514 407.795 41.4812 418.223 54.8868 449.61C52.0482 446.539 50.1675 442.8 49.8769 438.503M33.8584 337.967C34.5004 333.306 35.2022 328.649 35.9445 323.999C38.9789 301.761 45.2504 280.117 48.9892 258.03C55.4611 260.131 62.0889 261.732 68.6236 263.624C54.4633 287.14 42.8807 312.111 33.8584 337.967M87.0301 316.086C85.7851 310.176 84.3889 304.153 83.7542 298.145C83.7256 297.875 84.1416 297.846 84.2158 298.084C85.2557 301.41 85.9644 304.86 86.8415 308.233C87.7219 311.617 88.5404 315.018 89.4073 318.406C89.6841 319.488 89.9617 320.569 90.2396 321.651C90.4061 321.658 90.5721 321.664 90.7373 321.667C91.3722 321.682 91.5626 322.478 91.0518 322.809C90.9026 322.906 90.7531 322.991 90.6032 323.067C93.2577 333.377 95.9777 343.665 98.9462 353.896C102.405 365.82 106.299 377.599 109.412 389.618C109.484 389.897 109.355 390.091 109.166 390.175C110.785 395.644 112.142 401.185 113.622 406.696C113.93 407.844 112.233 408.587 111.653 407.513C110.759 405.858 110.562 403.597 110.124 401.778C109.632 399.73 109.164 397.677 108.696 395.623C107.953 392.356 107.286 389.05 106.736 385.737C104.687 380.596 102.851 375.393 101.228 370.092C97.5908 358.22 94.2362 346.267 91.2501 334.221C90.3685 330.665 89.5043 327.104 88.6798 323.534C84.926 323.592 81.0036 319.351 77.2314 321.609C77.0569 321.713 76.8801 321.476 77.0175 321.337C78.5213 319.815 80.5999 319.682 82.6192 320.059C83.9315 320.304 85.1895 320.768 86.4742 321.118C87.0401 321.272 87.6211 321.385 88.2084 321.469C87.8034 319.677 87.4087 317.883 87.0301 316.086M167.904 427.986C165.986 429.239 164.421 431.091 163.318 433.082C156.246 451.556 148.683 441.661 139.287 431.748C147.239 428.751 157.771 426.506 163.869 420.549C164.925 423.184 166.217 425.692 167.904 427.986M165.374 382.923C164.76 379.883 164.254 376.825 163.794 373.76C163.352 370.82 162.661 367.67 162.774 364.695C162.778 364.576 162.946 364.555 162.982 364.667C163.938 367.633 164.224 370.914 164.831 373.969C165.417 376.923 166.062 379.866 166.711 382.807C168.044 388.844 169.929 394.789 171.07 400.862C171.192 401.513 170.312 401.741 170.072 401.133C167.788 395.325 166.604 389.012 165.374 382.923M36.0423 245.968C32.9532 242.646 30.5256 238.403 30.9948 233.902C32.8504 231.43 33.4647 228.207 34.5455 225.35C38.7708 213.398 42.6927 201.353 47.2913 189.529C57.0737 192.533 66.6976 196.137 75.7753 200.87C77.4451 201.721 79.0978 202.604 80.7303 203.519C82.4405 204.476 84.3061 206.139 86.3571 205.663C84.1155 208.832 79.4991 212.13 78.7189 215.793C78.5512 216.952 79.3737 218.027 80.6375 217.768C100.42 231.8 120.849 245.537 139.548 261.167C153.55 272.237 164.3 281.215 169.103 299.176C172.34 310.811 172.35 322.971 171.874 334.934C171.781 337.259 171.778 339.64 171.59 341.98C171.871 343.732 171.337 347.296 169.366 347.36C169.411 347.784 169.552 348.176 169.775 348.522C169.712 348.605 169.647 348.685 169.579 348.766C169.481 348.287 169.386 347.811 169.296 347.333C167.761 340.545 167.556 332.669 167.811 325.442C167.919 323.37 164.737 323.42 164.559 325.442C164.08 330.906 163.601 336.369 163.122 341.83C162.548 345.369 163.453 349.999 160.62 352.69C157.738 350.031 158.691 344.787 158.832 341.356C159.057 335.76 159.301 330.166 159.509 324.569C159.574 322.796 156.632 322.339 156.299 324.143C155.354 329.283 154.331 334.408 153.229 339.519C152.565 341.495 152.109 350.359 148.789 348.82C146.81 347.471 148.237 339.561 147.976 336.941C148.099 331.757 148.172 326.579 148.553 321.407C148.709 319.32 145.305 318.876 144.839 320.914C144.082 324.212 143.357 327.509 142.7 330.829C141.258 336.426 141.783 344.013 136.577 347.732C134.538 333.195 137.472 318.758 137.883 304.272C137.637 299.578 136.83 294.931 136.118 290.294C135.331 285.166 134.872 279.585 136.715 274.639C136.211 272.424 134.23 278.415 134.044 278.914C132.552 275.979 128.919 275.752 126.045 274.837C119.658 272.772 113.116 271.216 106.654 269.381C89.5166 264.628 72.3597 259.949 55.198 255.279C48.3423 253.385 41.1254 251.143 36.0423 245.968M207.649 323.297C205.285 310.497 205.35 297.529 206.361 284.589C207.471 264.521 208.549 244.449 209.703 224.384C214.711 260.701 220.049 296.976 224.132 333.409C224.422 335.945 224.378 338.628 225.659 340.89C218.577 341.837 211.029 342.792 204.144 340.387C207.165 335.17 208.231 329.231 207.649 323.297M53.949 174.895C65.8854 150.425 90.2238 133.053 117.519 129.264C117.549 129.294 117.582 129.323 117.612 129.355C117.522 129.437 117.439 129.526 117.364 129.617C118.098 129.077 119.106 129.755 118.78 130.502C119.184 131.422 119.482 132.37 119.856 133.297C120.014 133.282 120.175 133.267 120.335 133.243C121.955 136.454 122.832 140.156 124.525 143.358C133.788 159.385 156.648 165.892 173.794 159.422C187.401 153.535 189.331 136.77 188.113 123.882C188.05 123.014 187.609 122.4 187.019 122.037C194.439 123.224 201.859 124.42 209.287 125.547C212.865 126.09 216.541 126.874 219.304 129.328C230.18 140.504 232.121 170.579 235.78 186.214C227.026 187.129 217.241 192.111 210.967 198.152C211.263 191.285 210.839 184.453 210.046 177.635C210.034 177.302 209.477 177.189 209.425 177.554C207.858 184.465 206.651 191.436 206.155 198.517C204.091 227.013 202.865 255.565 201.097 284.081C200.493 294.576 199.738 305.163 201.235 315.621C206.054 337.151 197.556 347.718 174.747 344.139C177.518 316.854 175.51 285.635 152.628 266.716C151.931 266.095 151.093 266.137 150.459 266.507C131.855 250.721 112.221 236.1 91.3223 223.367C91.4728 220.736 84.8803 218.41 83.0345 216.594C89.8877 209.505 95.1063 200.887 99.6573 192.22C100.059 191.278 105.292 181.796 103.627 182.393C98.6543 189.751 93.7096 197.156 87.8543 203.889C88.1728 200.784 80.1159 198.702 77.6359 197.284C68.0542 193.253 58.0366 190.099 47.7129 188.466C49.571 183.846 51.6021 179.295 53.949 174.895M181.455 124.985C181.142 124.45 180.843 123.902 180.557 123.347C181.525 123.384 182.468 123.418 183.421 123.576C183.378 125.108 183.463 126.652 183.481 128.196C183.005 127.066 182.072 126.035 181.455 124.985M343.149 340.686C320.283 324.081 282.724 334.66 256.234 336.367C251.184 303.298 253.245 269.689 248.538 236.566C244.203 203.475 239.631 169.923 228.743 138.218C224.25 125.959 216.476 122.318 203.677 122.417C197.182 122.163 190.314 121.125 184.003 121.273C182.619 121.295 181.172 121.477 179.923 122.035C178.168 118.083 177.215 113.841 176.733 109.566C176.703 109.295 176.357 109.246 176.254 109.505C174.77 113.227 174.612 117.289 175.419 121.186C176.003 123.978 179.482 134.967 183.521 130.668C183.842 139.683 181.859 150.449 173.014 155.128C157.56 161.857 136.198 155.73 127.246 141.449C125.516 138.595 124.024 135.559 122.108 132.818C135.456 129.045 142.948 113.074 139.804 100.911C137.861 110.371 134.317 120.94 125.493 126.238C93.3608 126.166 66.6451 140.78 51.5495 168.929C48.5955 173.016 45.8648 177.263 43.3619 181.584C42.0154 184.475 38.0712 188.496 41.4185 191.288C37.5521 201.593 34.1217 212.041 30.4957 222.428C29.5 225.888 27.2231 229.519 27.6772 233.157C27.1857 235.399 27.2083 238.051 28.3342 240.206C29.4024 244.049 31.7994 249.219 35.7742 250.849C39.1469 253.925 43.4123 256.044 47.8608 257.64C35.9971 288.6 31.4812 321.989 27.4616 354.7C23.5219 383.317 21.4885 418.127 46.1729 438.809C46.6521 444.726 50.1675 452.267 57.1188 452.331C61.9331 457.051 67.8009 454.462 73.1599 452.153C82.2047 448.808 91.691 446.954 101.117 445.92C102.128 446.71 103.773 446.579 104.672 445.659C110.383 444.344 118.296 449.667 119.45 444.845C126.812 444.132 134.094 442.795 141.449 442.015C138.349 446.031 138.573 451.953 140.907 456.292C134.962 467.971 148.811 474.734 157.279 479.527C168.711 486.137 180.65 492.409 193.724 495.15C205.219 497.564 217.261 496.832 228.352 492.974C234.179 491.511 242.319 486.709 238.861 479.944C243.245 467.068 212.461 453.727 203.407 447.279C207.108 446.818 207.243 439.147 197.617 443.555C196.453 442.778 195.31 441.976 194.179 441.16C233.116 436.69 307.479 424.395 335.659 397.815C351.141 384.148 360.073 356.503 343.149 340.686" fill="black"/>
<path fill-rule="evenodd" clip-rule="evenodd" d="M167.389 18.845C181.597 18.845 196.293 29.8656 201.501 36.8981C205.88 42.8107 208.238 69.5473 208.238 87.6162C208.238 91.3952 210.322 98.5188 209.714 102.134C207.485 115.38 197.776 126.488 178.558 126.488C159.341 126.488 145.562 118.866 131.279 98.4003C124.348 98.4003 120.989 93.0818 120.941 84.6887C120.892 76.2956 127.63 73.242 127.63 73.242C127.63 73.242 125.228 40.1192 131.279 31.4957C137.33 22.8721 153.181 18.845 167.389 18.845Z" fill="#D08B5B"/>
<path fill-rule="evenodd" clip-rule="evenodd" d="M161.41 14.1617C170.381 13.2527 179.172 14.0165 188.012 15.5967C188.688 15.7192 189.071 16.1626 189.213 16.6957C193.377 16.886 197.546 17.1918 201.704 17.4196C203.214 17.5023 204.069 18.9944 203.381 20.3418C203.244 20.6095 203.101 20.8699 202.956 21.1303L203.138 21.0702C204.389 20.6686 205.74 20.4706 206.959 21.108C208.511 21.9193 209.119 23.7094 208.776 25.3571C208.688 25.7777 208.541 26.1809 208.373 26.5743C208.714 26.5517 209.056 26.5592 209.397 26.6043C211.208 26.8447 212.555 28.2344 212.65 30.0849C212.79 32.8791 210.991 35.7139 208.871 37.7143C209.179 38.3481 209.297 39.0943 209.169 39.8505C208.914 41.3454 207.813 42.2405 206.537 42.8245C207.069 44.5149 207.321 46.2822 207.172 48.0884C207.123 48.6913 206.596 49.1894 206.04 49.3116C208.113 55.0242 209.163 61.1575 209.917 67.1338C210.455 71.3859 210.72 75.6627 210.753 79.9468C210.769 81.881 210.737 83.8174 210.656 85.7519L210.623 86.4772C210.523 88.5683 210.518 90.7641 210.142 92.8326C211.424 95.0133 211.939 97.7204 212.157 100.164C212.427 103.189 211.999 106.309 211.046 109.186C207.447 120.058 196.588 126.919 185.68 128.702C175.583 130.353 163.9 128.132 158 118.954C157.907 118.809 158.105 118.689 158.22 118.784C162.441 122.219 167.338 123.752 172.658 124.498C181.856 125.785 192.196 123.602 199.578 117.813C203.121 115.033 205.676 110.987 206.799 106.632C207.372 104.406 207.57 102.085 207.345 99.7937C207.114 97.47 206.086 95.4868 205.438 93.2908C205.22 92.5494 205.451 91.8608 205.904 91.3703C206.031 89.5872 206.331 87.7893 206.446 86.0117C206.574 83.9907 206.652 81.97 206.679 79.9468C206.732 75.7501 206.557 71.5459 206.204 67.3669C205.558 59.7145 203.844 52.2478 202.838 44.6604C202.466 44.9947 201.932 45.1319 201.372 44.8399L201.314 44.8081L201.009 44.6331C200.992 44.6331 200.972 44.6356 200.954 44.6379C198.865 44.8409 196.698 44.5505 194.696 43.9267C192.601 43.2759 190.657 42.2743 188.92 40.9397C188.59 42.6146 188.452 44.3073 188.45 46.0151C188.448 47.0818 187.319 47.6354 186.423 47.1797C182.452 45.1612 178.659 42.8352 175.058 40.2211C174.637 42.377 174.217 44.5327 173.794 46.6912C173.631 47.5227 172.573 47.8583 171.895 47.4626C169.197 45.8924 166.868 43.8368 164.971 41.3927C164.592 42.1173 164.212 42.8419 163.83 43.5648L163.254 44.6479C162.686 45.7121 161.926 46.8892 160.682 47.2295C159.366 47.5901 158.267 46.7365 157.824 45.5443C157.689 45.174 157.564 44.7931 157.449 44.41C156.328 46.9719 155.062 49.4758 153.631 51.8647C151.484 55.4476 148.906 58.6402 146.336 61.9155C145.556 62.9098 144.219 61.9605 144.112 60.9943C144.049 60.4258 143.997 59.8549 143.951 59.2863C142.454 62.3101 140.892 65.3056 139.189 68.2143L139.433 69.1701V69.1701C140.135 71.9941 140.719 74.8381 141.353 77.6772C141.557 78.5931 141.071 79.9027 140.002 80.0587C138.724 80.245 137.515 80.8983 136.206 80.4488C134.779 79.9585 134.497 78.7243 133.824 77.5545C133.689 77.3213 133.533 77.1072 133.365 76.9039L133.322 76.9595V76.9595C133.217 77.0975 132.967 76.9472 133.029 76.7895L133.102 76.6072V76.6072C132.524 75.9925 131.831 75.4796 131.194 74.928C129.681 74.6729 127.978 74.9523 126.936 75.5675C124.561 76.9695 123.47 79.8591 123.448 82.5161C123.42 85.6261 124.383 89.1217 126.01 91.7809C126.726 92.9503 127.707 94.0067 129.003 94.5253C130.289 95.0409 131.683 94.8809 132.992 95.3664C133.857 95.6897 134.39 96.6512 133.867 97.5224C133.832 97.5827 133.792 97.6375 133.755 97.6954L134.144 98.2123C134.411 98.5704 134.691 98.9538 134.951 99.3528C135.616 100.119 136.317 100.858 136.995 101.612C138.249 103.001 139.465 104.429 140.698 105.838C141.862 107.168 143.093 108.417 144.362 109.647C145.561 110.811 147.057 111.79 148.158 113.032C149.229 114.244 149.519 116.36 147.757 117.061C145.808 117.839 144.083 116.016 142.771 114.801L142.716 114.75C140.31 112.535 138.138 110.004 136.413 107.217C134.705 108.381 132.234 108.492 130.532 107.329C129.637 106.717 128.95 105.688 128.616 104.568C128.302 104.639 127.987 104.68 127.68 104.676C127.522 104.767 127.364 104.856 127.204 104.939C125.935 105.6 124.376 105.305 123.796 103.9C123.267 102.625 123.812 101.176 124.288 99.9472L124.386 99.6933C124.656 98.9924 124.954 98.2287 125.325 97.5101C124.294 96.7338 123.413 95.7696 122.667 94.6731C120.162 90.9797 118.911 85.5783 119.464 81.1715C119.797 78.5122 121.045 75.7578 123.09 73.9647L123.015 73.7694V73.7694C122.442 72.3148 121.921 70.8548 121.584 69.3175C121.188 67.5197 120.995 65.6567 120.82 63.8263C120.45 59.9601 120.55 56.0063 121.043 52.1551C121.969 44.9061 124.316 37.7897 128.482 31.7575C127.301 30.3425 126.365 28.6774 126.853 26.7621C127.076 25.8829 127.584 25.0493 128.35 24.5458C128.772 24.2681 129.276 24.2255 129.699 23.9951L129.826 23.9251C130.011 23.8166 129.869 23.8281 129.759 23.3241C129.321 21.3106 129.684 19.3652 131.898 18.6967C133.982 18.0682 135.954 19.4028 137.188 20.9928C140.416 18.7014 144.67 17.5023 148.411 16.4831C152.665 15.3286 157.028 14.6076 161.41 14.1617ZM126.543 81.6946C126.528 80.0545 128.082 79.0429 129.611 79.3111C130.638 79.4899 131.494 80.1031 132.299 80.7369L132.691 81.0474C133.67 81.8168 134.795 82.6463 135.379 83.7357C136.234 85.3432 134.425 87.5064 132.736 86.3796C131.578 85.6026 130.835 84.3577 130.075 83.2012L129.996 83.0819C129.651 82.5635 129.348 82.0127 128.875 81.597L128.773 81.5074C128.617 81.3748 128.45 81.2537 128.25 81.1963C127.862 81.0849 127.144 81.241 126.974 81.7026L126.958 81.7497C126.896 81.9829 126.546 81.9325 126.543 81.6946Z" fill="black"/>
<path fill-rule="evenodd" clip-rule="evenodd" d="M183.452 106.902C181.766 106.216 180.262 105.07 179.162 103.607C178.78 103.098 178.681 102.561 178.761 102.07C178.851 101.517 179.178 101.017 179.625 100.681C180.073 100.344 180.633 100.178 181.174 100.263C181.645 100.336 182.113 100.593 182.484 101.127L182.561 101.234C183.215 102.117 184.067 102.841 185.037 103.308C185.973 103.759 187.019 103.969 188.102 103.847C190.164 103.614 191.586 102.5 193.096 100.988C193.284 100.797 193.471 100.6 193.659 100.4C193.778 100.219 193.943 100.102 194.126 100.041C194.33 99.973 194.56 99.9768 194.771 100.05C194.974 100.121 195.156 100.255 195.278 100.434C195.393 100.604 195.459 100.814 195.438 101.055C195.299 102.622 194.479 104.021 193.313 105.119C192.019 106.339 190.303 107.183 188.687 107.479C186.907 107.805 185.094 107.571 183.452 106.902V106.902ZM189.527 82.7239C191.42 83.8732 194.306 86.5533 192.269 89.4027C189.871 91.915 186.419 89.0344 184.717 87.7316C183.14 86.722 181.367 89.3188 182.831 90.4977C195.124 99.586 200.113 83.0244 190.485 81.3725C189.424 81.1905 189.031 82.3683 189.527 82.7239ZM167.497 72.1518C167.707 69.5586 171.662 68.9697 172.055 71.5358C172.408 73.8345 171.993 75.9461 170.956 78.0157C169.965 79.9928 167.475 79.0704 167.287 77.27C167.034 74.8567 167.367 73.7649 167.497 72.1518ZM197.604 71.0037C198.156 70.2826 198.952 69.7903 199.906 70.0685C202.886 70.9381 202.008 75.1631 200.961 77.2197C200.392 78.3365 198.554 78.6197 197.723 77.6363C196.369 76.0328 195.721 72.8304 197.442 71.2509C197.489 71.1693 197.541 71.0869 197.604 71.0037ZM170.914 60.8047L171.385 60.7224C172.841 60.4709 174.652 60.2292 175.682 61.3984C176.229 62.0184 176.417 63.1707 175.682 63.7642C174.39 64.8083 172.962 64.4037 171.414 64.4921C170.138 64.5652 168.912 64.776 167.683 65.1269C164.986 65.8963 162.79 67.3011 160.487 68.8435C160.185 69.0459 159.876 68.66 160.02 68.3778C161.35 65.7779 163.926 63.6422 166.506 62.3404C167.883 61.6455 169.39 61.0691 170.914 60.8047ZM194.888 59.6401L195.248 59.7137C199.169 60.5322 204.264 62.1671 206.121 66.0131C206.191 66.5569 206.117 66.6735 206.056 66.7497L206.036 66.775C205.985 66.84 205.946 66.9297 205.709 67.0037C205.644 66.9881 205.578 66.9716 205.511 66.9541C204.66 66.7314 203.986 66.4245 203.334 66.1061L202.628 65.7584C201.807 65.3568 200.98 64.9699 200.103 64.6842C198.232 64.0748 196.307 63.6454 194.353 63.4162C193.929 63.3665 193.521 63.2238 193.199 62.9791C192.894 62.7468 192.661 62.4253 192.554 61.9979C192.416 61.4447 192.456 61.0259 192.753 60.5269C192.977 60.1522 193.296 59.8924 193.664 59.7432C194.038 59.5912 194.464 59.5553 194.888 59.6401Z" fill="black"/>
<path fill-rule="evenodd" clip-rule="evenodd" d="M211.969 84.2491C208.925 87.3903 203.843 88.2918 199.792 86.6071C189.392 82.2679 194.482 68.7338 202.503 65.0992C203.505 64.8498 204.844 64.2581 206.064 64.1239C206.174 64.0698 206.415 64.2263 206.706 64.0783C215.55 65.0644 217.564 78.7743 211.969 84.2491M178.423 85.0531C175.009 89.5756 168.661 90.9708 163.474 88.8684C153.227 84.839 156.862 72.8376 163.872 68.1326C178.681 62.5759 184.796 76.7145 178.423 85.0531M156.211 75.0326C156.202 75.0281 156.192 75.0258 156.182 75.0213C156.236 74.9975 156.291 74.9738 156.345 74.9495C156.327 74.9953 156.308 75.0406 156.291 75.0864C156.264 75.0682 156.241 75.0469 156.211 75.0326M219.019 70.144C218.183 70.1458 216.975 70.283 216.283 70.8622C214.576 65.1148 208.277 59.7955 202.798 63.6742C198.484 65.0597 195.282 68.1323 193.463 72.2173C190.182 70.2687 185.024 71.1008 182.179 73.6777C180.316 67.5301 175.73 65.3774 170.272 65.0597C164.315 64.0854 158.378 69.8623 156.525 74.4967C154.985 74.3217 152.683 73.8322 151.234 74.7814C141.829 72.3185 125.385 70.9606 123.473 72.329C122.111 72.8511 121.363 76.0627 123.266 76.236C124.925 76.0009 123.073 73.8828 124.744 73.6516C133.652 73.1003 142.3 74.8916 151.113 75.6433C151.9 76.7003 154.442 77.0538 155.799 76.6291C153.662 84.4907 158.274 89.8392 165.184 91.4413C175.883 93.8955 185.191 84.3382 182.393 74.3973C185.634 72.7873 189.362 72.8564 192.893 73.7045C186.993 95.3866 221.963 94.4138 216.502 71.6051C220.136 73.4105 220.926 70.5084 219.019 70.144" fill="black"/>
</svg>
